<svg version="1.1" id="" xmlns="http://www.w3.org/2000/svg" xmlns:xlink="http://www.w3.org/1999/xlink" x="0px"
	 y="0px" width="128px" height="18px" viewBox="0 0 128 18" style="enable-background:new 0 0 128 18;" xml:space="preserve">
<style type="text/css">
<![CDATA[
	.st0{fill:#D62418;}
]]>
</style>
<g>
	<g>
		<path class="st0" d="M14.4,0.1h1v5.2h-0.7c-0.4-0.8-0.8-1.4-1.2-2c-0.4-0.6-1-1.1-1.5-1.5c-0.5-0.4-1-0.7-1.5-0.9
			c-0.5-0.2-1-0.2-1.6-0.2C8,0.7,7.3,0.8,6.6,1.2C5.9,1.6,5.4,2.1,4.9,2.8C4.4,3.5,4.1,4.3,3.8,5.2c-0.3,0.9-0.4,2-0.4,3.1
			c0,1.5,0.3,2.9,0.8,4.1c0.5,1.2,1.2,2.1,2.2,2.8s2,1,3.2,1c0.7,0,1.4-0.1,2.1-0.4c0.7-0.3,1.3-0.6,1.9-1.1s1.2-1.1,1.7-1.8
			l0.7,0.4c-0.9,1.3-1.9,2.2-3.2,2.9c-1.3,0.7-2.7,1-4.3,1c-1.3,0-2.4-0.2-3.5-0.7s-2-1-2.7-1.8C1.6,13.9,1,13,0.6,12S0,9.8,0,8.7
			c0-1.3,0.2-2.4,0.7-3.5c0.5-1.1,1.1-2,1.8-2.8C3.2,1.6,4.2,1,5.2,0.6S7.4,0,8.5,0C9,0,9.4,0,9.8,0.1c0.4,0.1,0.8,0.2,1.4,0.3
			c0.6,0.1,0.9,0.2,1.1,0.3c0.2,0.1,0.4,0.1,0.6,0.1C13.4,0.8,13.9,0.5,14.4,0.1z M6.2,0.6C5,1.1,4,1.6,3.2,2.3
			C2.7,2.6,2.3,3.1,2,3.5S1.4,4.5,1.1,5C0.8,5.5,0.7,6.1,0.6,6.7C0.5,7.3,0.4,8,0.4,8.5c0,1.4,0.3,2.7,0.9,3.9
			c0.6,1.2,1.4,2.2,2.6,3c1.2,0.8,2.5,1.3,4.1,1.4c-1-0.3-2-0.7-2.8-1.2c-0.8-0.5-1.6-1.2-2.2-1.9s-1-1.5-1.3-2.4
			c-0.3-0.9-0.6-1.8-0.6-2.7c0-0.8,0.1-1.6,0.4-2.5s0.6-1.6,1.1-2.3C3.1,3.1,3.7,2.5,4.2,2S5.4,1.1,6.2,0.6z M13.9,3l-0.1-2
			c-0.4,0.2-0.8,0.2-1.2,0.2c-0.2,0-0.4,0-0.6,0c0.4,0.3,0.7,0.6,1,0.9C13.3,2.4,13.6,2.7,13.9,3z"/>
		<path class="st0" d="M18,8.5c0-0.7,0.1-1.4,0.2-2c0.1-0.6,0.3-1.2,0.6-1.8c0.3-0.6,0.6-1.1,1-1.6c0.4-0.5,0.8-0.9,1.3-1.3
			c0.5-0.4,1.1-0.8,1.6-1c0.5-0.2,1.2-0.5,1.9-0.6C25.3,0.1,26,0,26.7,0c1.3,0,2.5,0.2,3.6,0.7c1.1,0.5,2,1.1,2.8,1.9
			c0.8,0.8,1.3,1.7,1.8,2.7s0.6,2.1,0.6,3.3c0,1.2-0.2,2.4-0.7,3.4s-1.1,2-1.9,2.8c-0.8,0.8-1.8,1.4-2.9,1.8
			c-1.1,0.4-2.3,0.7-3.6,0.7c-1.2,0-2.3-0.2-3.4-0.6c-1.1-0.4-1.9-1-2.7-1.8c-0.8-0.8-1.3-1.8-1.7-2.9S18,9.8,18,8.5z M22.3,1.3
			c-1.3,0.8-2.3,1.8-3,3.1c-0.7,1.3-1,2.6-1,4.2c0,1.3,0.2,2.5,0.7,3.5s1.1,2,1.9,2.7c0.8,0.7,1.9,1.3,3.2,1.8
			c-1.5-0.8-2.8-1.9-3.7-3.2c-0.9-1.3-1.4-3-1.4-5c0-1,0.1-1.9,0.4-2.7c0.3-0.8,0.6-1.5,1.1-2.3C21,2.6,21.6,2,22.3,1.3z M21.2,7.3
			c0,1.4,0.1,2.6,0.4,3.8c0.3,1.2,0.7,2.1,1.2,2.9s1.1,1.5,1.9,1.9c0.8,0.4,1.5,0.7,2.3,0.7c0.7,0,1.4-0.2,2-0.5
			c0.6-0.3,1.2-0.8,1.7-1.4c0.5-0.6,0.8-1.3,1.1-2.2c0.3-0.9,0.4-1.9,0.4-3.1c0-1.3-0.2-2.5-0.5-3.6c-0.3-1.1-0.7-2-1.3-2.8
			s-1.2-1.4-1.9-1.8c-0.7-0.4-1.5-0.6-2.3-0.6c-0.7,0-1.4,0.2-2,0.5c-0.6,0.3-1.2,0.8-1.6,1.4s-0.8,1.3-1,2.1
			C21.4,5.4,21.2,6.3,21.2,7.3z M28.4,0.8c0.9,0.5,1.6,1.1,2.3,1.9c0.7,0.8,1.1,1.8,1.4,3c0.3,1.2,0.5,2.4,0.5,3.8
			c0,1.3-0.2,2.4-0.5,3.4c-0.3,1-0.9,1.8-1.5,2.5c0.6-0.5,1.2-1,1.6-1.6c0.4-0.6,0.7-1.3,0.9-2.1c0.2-0.8,0.3-1.7,0.3-2.6
			c0-1.4-0.2-2.7-0.6-3.9c-0.4-1.2-1-2.1-1.8-2.9C30.2,1.5,29.4,1,28.4,0.8z"/>
		<path class="st0" d="M49.5,1V0.3h6.3V1c-0.5,0-1,0.1-1.4,0.4c-0.4,0.3-0.7,0.5-0.9,1s-0.3,0.9-0.3,1.5l0.2,13.4h-0.7l-12-14
			l0.2,9.4c0,0.6,0.1,1.1,0.1,1.5c0,0.4,0.2,0.8,0.4,1c0.2,0.2,0.5,0.5,0.9,0.7c0.4,0.2,0.9,0.3,1.5,0.3v0.6h-6.2v-0.6
			c0.8-0.1,1.4-0.3,1.8-0.7s0.6-0.8,0.7-1.4c0.1-0.6,0.1-1.3,0.1-2.1L40,2.4c-0.4-0.5-0.9-0.9-1.3-1.1C38.3,1.1,37.8,1,37.3,1h-0.1
			V0.3H42l10.6,12.3l-0.2-8.2c0-0.6-0.1-1.2-0.2-1.6c-0.1-0.4-0.3-0.8-0.6-1.1c-0.2-0.2-0.5-0.4-0.9-0.5C50.3,1.1,49.9,1,49.5,1z
			 M51.7,14.4L41.2,2.1c-0.2-0.3-0.5-0.5-0.8-0.8C40.1,1,39.7,1,39.1,1h-0.5c0.4,0.2,0.8,0.3,1,0.6c0.2,0.3,0.6,0.6,1,1.1l12,14
			c0-0.2,0-0.4,0-0.7s0-0.4-0.1-0.5s-0.1-0.2-0.2-0.4C52.2,14.9,52,14.7,51.7,14.4z M38.9,16.2h2.5c-0.3-0.3-0.6-0.5-0.7-0.7
			c-0.1-0.2-0.3-0.5-0.4-0.9c-0.1,0.4-0.3,0.7-0.5,1C39.6,15.9,39.3,16,38.9,16.2z M53.6,1H51c0.4,0.1,0.7,0.3,1,0.6
			c0.3,0.3,0.5,0.6,0.6,1C52.8,1.8,53.1,1.3,53.6,1z"/>
		<path class="st0" d="M58.4,0.3h14.9l0.8,3.9h-0.8c-0.6-1-1.2-1.7-1.9-2.2c-0.7-0.5-1.3-0.8-1.9-0.8S68.2,1,67.3,1v13.3
			c0,0.5,0.1,0.9,0.2,1.2s0.4,0.5,0.8,0.6c0.4,0.1,0.9,0.2,1.6,0.2v0.6h-8.2v-0.6c0.7,0,1.2-0.1,1.6-0.2c0.4-0.1,0.6-0.3,0.8-0.6
			c0.2-0.3,0.3-0.7,0.3-1.3V1c-0.8,0-1.6,0.1-2.2,0.3c-0.6,0.2-1.2,0.3-1.6,0.6c-0.4,0.3-0.8,0.6-1,0.9c-0.2,0.3-0.7,0.8-1.2,1.4
			h-0.7L58.4,0.3z M60.6,1h-1.9l-0.5,2c0.4-0.5,0.7-0.9,1-1.2C59.5,1.5,60,1.3,60.6,1z M65.5,13.9V2.4c0-0.5-0.1-0.8-0.2-1
			C65.2,1.2,65,1,64.7,1v13.3c0,0.5-0.1,0.9-0.2,1.2c-0.1,0.3-0.3,0.5-0.7,0.8h0.3c0.6,0,0.9-0.2,1.1-0.5S65.5,14.7,65.5,13.9z
			 M72.8,2.8L72.3,1h-2.2c0.6,0.2,1.1,0.4,1.5,0.7C72,2,72.4,2.4,72.8,2.8z"/>
		<path class="st0" d="M85.4,14L84,10.6h-5.5l-0.8,2c-0.2,0.5-0.3,1-0.3,1.6c0,0.5,0.2,1,0.5,1.4c0.3,0.4,0.8,0.6,1.4,0.6v0.6h-5.4
			v-0.6c1.2-0.2,2.2-1.2,2.9-3.1l4.1-10.4c-0.2-0.4-0.4-0.6-0.7-0.7s-0.6-0.2-1-0.3V1.1l2.8-1h1.1L88.5,14c0.3,0.8,0.6,1.3,0.9,1.6
			c0.3,0.3,0.8,0.5,1.4,0.6v0.6h-7v-0.6c0.6-0.1,1.1-0.2,1.4-0.3c0.3-0.1,0.5-0.4,0.5-0.7S85.6,14.5,85.4,14z M75.1,16.2h2.3
			c-0.5-0.4-0.7-0.9-0.7-1.4c0-0.2,0-0.3,0-0.4c-0.2,0.4-0.4,0.7-0.6,1C75.9,15.7,75.5,15.9,75.1,16.2z M78.8,9.9h5l-2.5-6.3
			L78.8,9.9z M86.4,13.5L82.2,2.9C82,2.4,81.8,2,81.6,1.8c-0.2-0.2-0.5-0.3-0.9-0.3c-0.2,0-0.4,0-0.6,0c0.4,0.1,0.7,0.4,0.8,0.6
			c0.1,0.2,0.4,0.6,0.5,1.1l4.1,10.6c0.3,0.6,0.4,1.1,0.4,1.5c0,0.2,0,0.4-0.1,0.5c-0.1,0.1-0.3,0.3-0.5,0.4h0.3
			c0.4,0,0.7-0.1,0.8-0.3c0.1-0.2,0.3-0.4,0.3-0.7C86.8,14.8,86.7,14.3,86.4,13.5z"/>
		<path class="st0" d="M106.6,0.1h1v5.2h-0.7c-0.4-0.8-0.8-1.4-1.2-2c-0.4-0.6-0.9-1.1-1.4-1.5c-0.5-0.4-1-0.7-1.5-0.9
			c-0.5-0.2-1.1-0.3-1.7-0.3c-0.8,0-1.6,0.2-2.2,0.5c-0.6,0.3-1.2,0.9-1.7,1.6c-0.5,0.7-0.8,1.5-1.1,2.5c-0.3,1-0.4,2-0.4,3.1
			c0,1.5,0.3,2.9,0.8,4.1c0.5,1.2,1.2,2.1,2.2,2.8s2,1,3.2,1c0.7,0,1.4-0.1,2.1-0.4s1.3-0.6,1.9-1.1c0.6-0.5,1.2-1.1,1.7-1.8
			l0.7,0.4c-0.9,1.3-1.9,2.2-3.2,2.9c-1.3,0.7-2.7,1-4.3,1c-1.3,0-2.4-0.2-3.5-0.7c-1.1-0.5-2-1-2.7-1.8c-0.7-0.8-1.4-1.7-1.8-2.7
			c-0.4-1-0.6-2.1-0.6-3.3c0-1.3,0.2-2.4,0.7-3.5c0.5-1.1,1.1-2,1.8-2.8c0.7-0.8,1.7-1.4,2.7-1.8S99.6,0,100.7,0
			c0.4,0,0.8,0,1.2,0.1c0.4,0.1,0.8,0.2,1.4,0.3c0.6,0.1,0.9,0.2,1.1,0.3c0.2,0.1,0.4,0.1,0.6,0.1C105.6,0.8,106.2,0.5,106.6,0.1z
			 M98.4,0.6c-1.2,0.5-2.2,1-3,1.7c-0.4,0.4-0.8,0.8-1.2,1.3c-0.4,0.5-0.6,1-0.9,1.5s-0.4,1.1-0.6,1.7c-0.2,0.6-0.1,1.2-0.1,1.7
			c0,1.4,0.3,2.7,0.9,3.9c0.6,1.2,1.4,2.2,2.6,3c1.2,0.8,2.5,1.3,4.1,1.4c-1-0.3-2-0.7-2.8-1.2c-0.8-0.5-1.6-1.2-2.2-1.9
			c-0.6-0.7-1-1.5-1.3-2.4c-0.3-0.9-0.5-1.8-0.5-2.7c0-0.8,0.1-1.6,0.4-2.5s0.6-1.6,1.1-2.3C95.4,3,96,2.4,96.5,2S97.6,1.1,98.4,0.6
			z M106.1,3L106,1c-0.4,0.2-0.8,0.2-1.2,0.2c-0.2,0-0.4,0-0.6,0c0.4,0.3,0.7,0.6,1,0.9C105.5,2.4,105.8,2.7,106.1,3z"/>
		<path class="st0" d="M111.4,0.3h14.9l0.8,3.9h-0.8c-0.6-1-1.2-1.7-1.9-2.2c-0.7-0.5-1.3-0.8-1.9-0.8S121.2,1,120.3,1v13.3
			c0,0.5,0.1,0.9,0.2,1.2s0.4,0.5,0.8,0.6c0.4,0.1,0.9,0.2,1.6,0.2v0.6h-8.2v-0.6c0.7,0,1.2-0.1,1.6-0.2c0.4-0.1,0.6-0.3,0.8-0.6
			c0.2-0.3,0.3-0.7,0.3-1.3V1c-0.8,0-1.6,0.1-2.2,0.3c-0.6,0.2-1.1,0.4-1.6,0.7s-0.8,0.6-1,0.9c-0.2,0.3-0.7,0.8-1.2,1.4h-0.7
			L111.4,0.3z M113.6,1h-1.9l-0.5,2c0.4-0.5,0.7-0.9,1-1.2C112.5,1.5,113,1.3,113.6,1z M118.5,13.9V2.4c0-0.5-0.1-0.8-0.2-1
			C118.2,1.2,118,1,117.7,1v13.3c0,0.5-0.1,0.9-0.2,1.2s-0.3,0.5-0.7,0.8h0.3c0.6,0,0.9-0.2,1.1-0.5S118.5,14.7,118.5,13.9z
			 M125.8,2.8L125.3,1h-2.2c0.6,0.2,1.1,0.4,1.5,0.7C125,2,125.4,2.4,125.8,2.8z"/>
	</g>
</g>
</svg>
