<svg version="1.1" id="" xmlns="http://www.w3.org/2000/svg" xmlns:xlink="http://www.w3.org/1999/xlink" x="0px"
	 y="0px" width="179px" height="18px" viewBox="0 0 179 18" style="enable-background:new 0 0 179 18;" xml:space="preserve">
<style type="text/css">
<![CDATA[
	.st0{fill:#D62418;}
]]>
</style>
<g>
	<g>
		<path class="st0" d="M0,8.5c0-0.7,0.1-1.4,0.2-2c0.1-0.6,0.3-1.2,0.6-1.8c0.3-0.6,0.6-1.1,1-1.6C2.2,2.6,2.6,2.2,3,1.8
			c0.5-0.4,1.1-0.8,1.6-1c0.5-0.2,1.2-0.5,1.9-0.6C7.2,0.1,8,0,8.8,0c1.3,0,2.5,0.2,3.6,0.7s2,1.1,2.8,1.9C16,3.4,16.5,4.3,17,5.3
			s0.6,2.1,0.6,3.3c0,1.2-0.2,2.4-0.7,3.4s-1.1,2-1.9,2.8s-1.8,1.4-2.9,1.8C11,17,9.8,17.3,8.5,17.3c-1.2,0-2.3-0.2-3.4-0.6
			c-1.1-0.4-1.9-1-2.7-1.8C1.6,14.1,1,13.1,0.6,12S0,9.8,0,8.5z M4.3,1.3C3,2.1,2,3.1,1.3,4.4c-0.7,1.3-1,2.6-1,4.2
			c0,1.3,0.2,2.5,0.7,3.5s1.1,2,1.9,2.7c0.8,0.7,1.9,1.3,3.2,1.8c-1.5-0.8-2.8-1.9-3.7-3.2c-0.9-1.3-1.4-3-1.4-5
			c0-1,0.1-1.9,0.4-2.7C1.7,4.9,2,4.2,2.5,3.4C3,2.6,3.6,2,4.3,1.3z M3.2,7.3c0,1.4,0.1,2.6,0.4,3.8c0.3,1.2,0.7,2.1,1.2,2.9
			s1.1,1.5,1.9,1.9c0.8,0.4,1.5,0.7,2.3,0.7c0.7,0,1.4-0.2,2-0.5c0.6-0.3,1.2-0.8,1.7-1.4c0.5-0.6,0.8-1.3,1.1-2.2
			c0.3-0.9,0.4-1.9,0.4-3.1c0-1.3-0.2-2.5-0.5-3.6c-0.3-1.1-0.7-2-1.3-2.8s-1.2-1.4-1.9-1.8C9.8,0.8,9.1,0.7,8.3,0.7
			c-0.7,0-1.4,0.2-2,0.5C5.7,1.5,5.1,1.9,4.6,2.5s-0.8,1.3-1,2.1C3.4,5.4,3.2,6.3,3.2,7.3z M10.5,0.8c0.9,0.5,1.6,1.1,2.3,1.9
			c0.7,0.8,1.1,1.8,1.4,3c0.3,1.2,0.5,2.4,0.5,3.8c0,1.3-0.2,2.4-0.5,3.4c-0.3,1-0.9,1.8-1.5,2.5c0.6-0.5,1.2-1,1.6-1.6
			c0.4-0.6,0.7-1.3,0.9-2.1c0.2-0.8,0.3-1.7,0.3-2.6c0-1.4-0.2-2.7-0.6-3.9C14.5,4,14,3.1,13.2,2.3C12.4,1.5,11.5,1,10.5,0.8z"/>
		<path class="st0" d="M30.6,1V0.3h6.3V1c-0.5,0-1,0.1-1.4,0.4c-0.4,0.3-0.7,0.5-0.9,1c-0.2,0.5-0.3,0.9-0.3,1.5l0.2,13.4h-0.7
			l-12-14l0.2,9.4c0,0.6,0.1,1.1,0.1,1.5c0,0.4,0.2,0.8,0.4,1s0.5,0.5,0.9,0.7c0.4,0.2,0.9,0.3,1.5,0.3v0.6h-6.2v-0.6
			c0.8-0.1,1.4-0.3,1.8-0.7s0.6-0.8,0.7-1.4c0.1-0.6,0.1-1.3,0.1-2.1L21,2.4c-0.4-0.5-0.9-0.9-1.3-1.1C19.3,1.1,18.9,1,18.4,1h-0.1
			V0.3h4.8l10.6,12.3l-0.2-8.2c0-0.6-0.1-1.2-0.2-1.6C33.2,2.4,33,2,32.7,1.7c-0.2-0.2-0.5-0.4-0.9-0.5C31.4,1.1,30.9,1,30.6,1z
			 M32.8,14.4L22.3,2.1c-0.2-0.3-0.5-0.5-0.8-0.8C21.2,1,20.8,1,20.2,1h-0.5c0.4,0.2,0.8,0.3,1,0.6c0.2,0.3,0.6,0.6,1,1.1l12,14
			c0-0.2,0-0.4,0-0.7s0-0.4-0.1-0.5s-0.1-0.2-0.2-0.4C33.3,14.9,33.1,14.7,32.8,14.4z M20,16.2h2.5c-0.3-0.3-0.6-0.5-0.7-0.7
			c-0.1-0.2-0.3-0.5-0.4-0.9c-0.1,0.4-0.3,0.7-0.5,1C20.7,15.9,20.4,16,20,16.2z M34.7,1h-2.6c0.4,0.1,0.7,0.3,1,0.6
			c0.3,0.3,0.5,0.6,0.6,1C33.9,1.8,34.2,1.3,34.7,1z"/>
		<path class="st0" d="M38.9,1V0.3H47V1h-0.4c-0.6,0-1.1,0.1-1.4,0.2c-0.3,0.1-0.6,0.3-0.7,0.6c-0.1,0.3-0.1,0.6-0.1,1.2v11.5
			c0,0.4,0.1,0.8,0.2,1s0.4,0.4,0.8,0.5s1,0.2,1.7,0.2c0.6,0,1.2-0.1,1.7-0.2s1-0.3,1.5-0.5s1-0.6,1.6-1.1s1.1-1.1,1.6-1.8h1.1
			L53,16.8H38.9v-0.6h0.2c0.7,0,1.2-0.1,1.6-0.2c0.4-0.1,0.6-0.3,0.7-0.6c0.1-0.3,0.2-0.7,0.2-1.2v-11c0-0.6-0.1-1-0.2-1.3
			c-0.1-0.3-0.4-0.6-0.8-0.7C40.2,1.1,39.7,1,38.9,1z M41.9,2.8v12c0,0.4-0.1,0.7-0.2,0.9c-0.1,0.2-0.3,0.4-0.6,0.6c0,0,0.1,0,0.2,0
			c0.1,0,0.2,0,0.2,0c0.8,0,1.2-0.6,1.2-1.7V3.3c0-0.8-0.1-1.4-0.2-1.8S42,1,41.4,1H41c0.3,0.2,0.5,0.4,0.7,0.6
			C41.9,1.8,41.9,2.2,41.9,2.8z M49.8,16.2H52l1-2.3c-0.4,0.5-0.9,1-1.4,1.4C51.1,15.7,50.5,15.9,49.8,16.2z"/>
		<path class="st0" d="M55.9,0.3h7.8V1C63,1,62.4,1.1,62,1.2c-0.4,0.1-0.6,0.5-0.7,1.1c0,0.3,0,0.6,0,0.8c0,0.2,0,0.3,0,0.3v10.8
			c0,0.5,0,0.8,0.1,1.1s0.2,0.5,0.4,0.6c0.2,0.1,0.4,0.2,0.6,0.2c0.2,0,0.6,0.1,1.2,0.1v0.6h-7.8v-0.6c0.7,0,1.2-0.1,1.6-0.2
			s0.6-0.4,0.7-0.7s0.2-0.8,0.2-1.4V3.4c0-0.6,0-1.1-0.1-1.4c-0.1-0.3-0.2-0.5-0.3-0.7c-0.1-0.2-0.4-0.2-0.7-0.3
			c-0.3-0.1-0.6,0-1.3,0V0.3z M58.8,3.1v11.7c0,0.4-0.1,0.7-0.2,0.9s-0.4,0.4-0.7,0.6c0.5,0,0.9-0.1,1.2-0.3c0.3-0.2,0.5-0.5,0.5-1
			V2.5c0-0.5-0.1-0.9-0.3-1.2C59.1,1,58.5,0.9,57.9,1c0.6,0.3,0.9,0.9,0.9,1.8c0,0.1,0,0.1,0,0.2S58.8,3,58.8,3.1z"/>
		<path class="st0" d="M77.3,1V0.3h6.3V1c-0.5,0-1,0.1-1.4,0.4c-0.4,0.3-0.7,0.5-0.9,1C81.1,2.9,81,3.3,81,3.9l0.2,13.4h-0.7l-12-14
			l0.2,9.4c0,0.6,0.1,1.1,0.1,1.5c0,0.4,0.2,0.8,0.4,1c0.2,0.2,0.5,0.5,0.9,0.7c0.4,0.2,0.9,0.3,1.5,0.3v0.6h-6.2v-0.6
			c0.8-0.1,1.4-0.3,1.8-0.7c0.4-0.4,0.6-0.8,0.7-1.4C68,13.5,68,12.8,68,12l-0.2-9.6c-0.4-0.5-0.9-0.9-1.3-1.1
			C66.1,1.1,65.6,1,65.1,1H65V0.3h4.8l10.6,12.3l-0.2-8.2c0-0.6-0.1-1.2-0.2-1.6c-0.1-0.4-0.3-0.8-0.6-1.1c-0.2-0.2-0.5-0.4-0.9-0.5
			C78.1,1.1,77.6,1,77.3,1z M79.5,14.4L69,2.1c-0.2-0.3-0.5-0.5-0.8-0.8C67.9,1,67.5,1,66.9,1h-0.5c0.4,0.2,0.8,0.3,1,0.6
			c0.2,0.3,0.6,0.6,1,1.1l12,14c0-0.2,0-0.4,0-0.7s0-0.4-0.1-0.5c-0.1-0.1-0.1-0.2-0.2-0.4C80,14.9,79.8,14.7,79.5,14.4z M66.7,16.2
			h2.5c-0.3-0.3-0.6-0.5-0.7-0.7s-0.3-0.5-0.4-0.9c-0.1,0.4-0.3,0.7-0.5,1C67.4,15.9,67.1,16,66.7,16.2z M81.4,1h-2.6
			c0.4,0.1,0.7,0.3,1,0.6c0.3,0.3,0.5,0.6,0.6,1C80.6,1.8,80.9,1.3,81.4,1z"/>
		<path class="st0" d="M90.5,8.7v5.2c0,0.6,0,1,0.1,1.3c0.1,0.3,0.2,0.6,0.5,0.7c0.3,0.1,0.5,0.2,0.9,0.3c0.4,0.1,1,0.1,1.7,0.1
			c0.9,0,1.6-0.1,2.3-0.4c0.7-0.3,1.3-0.6,1.9-1.2c0.6-0.6,1.3-1.2,2-2h0.9l-1.5,4.2H85v-0.6c0.7,0,1.2-0.1,1.6-0.2
			c0.4-0.1,0.6-0.3,0.8-0.5c0.2-0.2,0.2-0.6,0.2-1V2.9c0-0.5-0.1-0.9-0.2-1.2c-0.1-0.3-0.4-0.5-0.8-0.5S85.7,1,85,1V0.3h13.9
			l1.4,3.7h-0.8c-0.5-0.6-1-1.1-1.7-1.6s-1.4-0.8-2.2-1.1C94.8,1,93.9,1,93,1c-0.7,0-1.2,0.1-1.6,0.2c-0.4,0.1-0.6,0.4-0.7,0.6
			c-0.1,0.2-0.2,0.6-0.2,1.1V8h2.4C95,8,96,7.1,96,5.2h0.8v6.2h-0.7c-0.1-1-0.4-1.6-0.8-2.1c-0.4-0.5-1.1-0.7-2-0.7h-2.8V8.7z
			 M87.9,3v11.3c0,0.6-0.1,1-0.2,1.3c-0.1,0.3-0.3,0.5-0.6,0.7c0.6,0,1.1-0.2,1.3-0.5c0.2-0.3,0.3-0.9,0.3-1.6V2.7
			c0-0.7-0.1-1.1-0.3-1.3c-0.2-0.2-0.6-0.3-1.2-0.3c0.3,0.2,0.5,0.4,0.6,0.6C87.9,1.9,87.9,2.4,87.9,3z M95.8,9.4V7.1
			C95.5,7.7,95,8,94.2,8.3c0.4,0.1,0.8,0.3,1,0.4C95.4,8.8,95.6,9.1,95.8,9.4z M97.7,1h-2.1c0.6,0.2,1.1,0.4,1.6,0.7
			c0.5,0.3,0.9,0.6,1.4,1L97.7,1z M98.2,16.2l0.8-2c-0.5,0.5-0.9,0.9-1.3,1.1c-0.4,0.2-0.9,0.6-1.6,0.9H98.2z"/>
		<path class="st0" d="M109.7,10.9h0.8c0.4,1.2,0.9,2.3,1.6,3.1c0.7,0.8,1.3,1.5,2,1.9c0.7,0.4,1.5,0.6,2.2,0.6c1,0,1.8-0.3,2.5-0.9
			c0.7-0.6,1-1.4,1-2.3c0-0.9-0.2-1.6-0.7-2.1s-1-0.8-1.7-1c-0.7-0.2-1.5-0.4-2.5-0.6c-1-0.2-1.8-0.3-2.2-0.5
			c-0.7-0.2-1.3-0.6-1.7-1s-0.8-0.9-1.1-1.5c-0.3-0.6-0.4-1.2-0.4-1.8c0-0.6,0.1-1.2,0.3-1.8s0.5-1.1,0.9-1.5
			c0.4-0.4,0.9-0.8,1.5-1.1c0.6-0.3,1.2-0.4,1.9-0.4c0.5,0,1.1,0.1,1.9,0.2c0.8,0.1,1.3,0.2,1.6,0.2c0.4,0,0.8-0.1,1.2-0.3h0.9
			l0.5,4.8h-0.8c-0.8-1.4-1.6-2.5-2.4-3.3c-0.8-0.8-1.8-1.1-3-1.1c-0.6,0-1.1,0.1-1.6,0.4c-0.5,0.3-0.9,0.6-1.2,1.1s-0.4,1-0.4,1.5
			c0,0.8,0.3,1.4,0.8,1.8c0.5,0.4,1.3,0.7,2.4,0.9c1.1,0.2,2,0.4,2.8,0.5c0.8,0.1,1.5,0.3,2,0.6c0.9,0.4,1.6,1,2.1,1.8
			c0.5,0.8,0.7,1.6,0.7,2.6c0,0.9-0.2,1.8-0.7,2.6s-1.1,1.5-1.9,2s-1.7,0.7-2.7,0.7c-0.6,0-1,0-1.3-0.1c-0.3-0.1-0.8-0.3-1.5-0.5
			c-0.7-0.2-1.2-0.4-1.6-0.4c-0.6,0-1.1,0.2-1.5,0.7h-0.7V10.9L109.7,10.9z M110.1,3.4c-0.1,0.6-0.2,1.1-0.2,1.4
			c0,0.4,0.1,0.8,0.2,1.2c0.1,0.4,0.3,0.8,0.6,1.2c0.3,0.4,0.6,0.7,0.9,0.9c0.5,0.3,1,0.5,1.5,0.7c0.5,0.2,1.4,0.3,2.4,0.5
			c1,0.2,1.8,0.3,2.2,0.5c0.8,0.3,1.3,0.7,1.8,1.3c0.5,0.6,0.6,1.2,0.6,2c0,0.6-0.2,1.2-0.5,1.8c0.6-0.7,1-1.4,1-2.3
			c0-0.9-0.2-1.6-0.7-2.2c-0.5-0.6-1.1-0.9-1.8-1.2c-0.7-0.3-1.7-0.5-2.9-0.7s-1.8-0.3-1.9-0.3c-1.1-0.3-2-0.8-2.5-1.5
			c-0.5-0.7-0.9-1.5-0.9-2.5c0-0.2,0-0.3,0-0.4C109.9,3.7,110.1,3.5,110.1,3.4z M110.1,13.1v3.1c0.2-0.3,0.4-0.5,0.6-0.6
			c0.2-0.1,0.5-0.1,0.9-0.1c-0.3-0.3-0.4-0.5-0.6-0.7s-0.3-0.4-0.4-0.6C110.5,14,110.2,13.5,110.1,13.1z M118.9,3.3l-0.4-2.2
			c-0.3,0.1-0.5,0.1-0.8,0.1s-0.6,0-0.9-0.1c0.3,0.2,0.6,0.4,0.8,0.7c0.2,0.3,0.5,0.6,0.7,0.9C118.5,3,118.8,3.2,118.9,3.3z"/>
		<path class="st0" d="M134.1,16.9v-0.6c0.8,0,1.3-0.1,1.7-0.2c0.4-0.1,0.5-0.3,0.6-0.6c0.1-0.3,0.2-0.8,0.2-1.5V8.8h-8.3v4.9
			c0,0.6,0,1,0.1,1.3c0.1,0.3,0.1,0.5,0.3,0.7s0.4,0.3,0.7,0.4c0.3,0.1,0.8,0.1,1.4,0.2v0.6H123v-0.6c0.6,0,1-0.1,1.3-0.1
			s0.5-0.2,0.7-0.3c0.2-0.1,0.3-0.4,0.4-0.7c0.1-0.3,0.1-0.7,0.1-1.2V3c0-0.8-0.2-1.2-0.5-1.5s-1-0.4-2-0.4V0.3h7.8V1
			c-0.8,0-1.3,0.1-1.7,0.2c-0.4,0.1-0.5,0.4-0.6,0.8s-0.1,0.9-0.1,1.7V8h8.3V3c0-0.6-0.1-1-0.2-1.3c-0.1-0.3-0.4-0.4-0.7-0.5
			c-0.3-0.1-0.9-0.2-1.7-0.2V0.3h7.8V1c-0.8,0-1.3,0.1-1.7,0.2c-0.4,0.1-0.5,0.4-0.6,0.7c-0.1,0.3-0.2,0.9-0.2,1.7v10.2
			c0,0.6,0,1.1,0.1,1.5c0.1,0.4,0.3,0.6,0.7,0.7c0.4,0.1,0.9,0.2,1.6,0.2v0.6h-7.7V16.9z M125.7,2.9v11.2c0,0.7-0.1,1.2-0.2,1.4
			s-0.4,0.5-0.6,0.7h0.3c0.5,0,0.8-0.2,1-0.5s0.3-0.9,0.3-1.6V3.6c0-0.8,0-1.3-0.1-1.6c-0.1-0.3-0.2-0.6-0.4-0.8
			C125.8,1,125.4,1,124.9,1c0.3,0.2,0.5,0.4,0.6,0.6C125.6,1.8,125.7,2.3,125.7,2.9z M137,2.8v11.6c0,0.6-0.1,1-0.2,1.2
			c-0.1,0.2-0.3,0.4-0.6,0.6h0.4c0.4,0,0.7-0.1,0.9-0.4s0.3-0.6,0.3-1.1V3.1c0-0.7-0.1-1.3-0.2-1.6C137.5,1.2,137,1,136.5,1h-0.3
			c0.3,0.1,0.6,0.4,0.7,0.6C137,1.8,137,2.2,137,2.8z"/>
		<path class="st0" d="M143.7,8.5c0-0.7,0.1-1.4,0.2-2c0.1-0.6,0.3-1.2,0.6-1.8c0.3-0.6,0.6-1.1,1-1.6s0.8-0.9,1.3-1.3
			c0.5-0.4,1.1-0.8,1.6-1c0.5-0.2,1.2-0.5,1.9-0.6c0.7-0.1,1.4-0.2,2.2-0.2c1.3,0,2.5,0.2,3.6,0.7c1.1,0.5,2,1.1,2.8,1.9
			c0.8,0.8,1.3,1.7,1.8,2.7s0.6,2.1,0.6,3.3c0,1.2-0.2,2.4-0.7,3.4s-1.1,2-1.9,2.8s-1.8,1.4-2.9,1.8c-1.1,0.4-2.3,0.7-3.6,0.7
			c-1.2,0-2.3-0.2-3.4-0.6c-1.1-0.4-1.9-1-2.7-1.8c-0.8-0.8-1.3-1.7-1.8-2.8C143.8,11,143.7,9.8,143.7,8.5z M148,1.3
			c-1.3,0.8-2.3,1.8-3,3.1c-0.7,1.3-1,2.6-1,4.2c0,1.3,0.2,2.5,0.7,3.5s1.1,2,1.9,2.7c0.8,0.7,1.9,1.3,3.2,1.8
			c-1.5-0.8-2.8-1.9-3.7-3.2c-0.9-1.3-1.4-3-1.4-5c0-1,0.1-1.9,0.4-2.7c0.3-0.8,0.6-1.5,1.1-2.3C146.7,2.6,147.3,2,148,1.3z
			 M146.9,7.3c0,1.4,0.1,2.6,0.4,3.8c0.3,1.2,0.7,2.1,1.2,2.9s1.1,1.5,1.9,1.9c0.8,0.4,1.5,0.7,2.3,0.7c0.7,0,1.4-0.2,2-0.5
			c0.6-0.3,1.2-0.8,1.7-1.4c0.5-0.6,0.8-1.3,1.1-2.2s0.4-1.9,0.4-3.1c0-1.3-0.2-2.5-0.5-3.6c-0.3-1.1-0.7-2-1.3-2.8
			c-0.6-0.8-1.2-1.4-1.9-1.8c-0.7-0.4-1.5-0.6-2.3-0.6c-0.7,0-1.4,0.2-2,0.5c-0.6,0.3-1.2,0.8-1.6,1.3c-0.4,0.5-0.8,1.3-1,2.1
			S146.9,6.3,146.9,7.3z M154.1,0.8c0.9,0.5,1.6,1.1,2.3,1.9c0.7,0.8,1.1,1.8,1.4,3c0.3,1.2,0.5,2.4,0.5,3.8c0,1.3-0.2,2.4-0.5,3.4
			s-0.9,1.8-1.5,2.5c0.6-0.5,1.2-1,1.6-1.6c0.4-0.6,0.7-1.3,0.9-2.1S159,10,159,9.1c0-1.4-0.2-2.7-0.6-3.9c-0.4-1.2-0.9-2.1-1.7-2.9
			C155.9,1.5,155.1,1,154.1,0.8z"/>
		<path class="st0" d="M168.4,9.3v5c0,0.5,0.1,0.8,0.2,1.1c0.1,0.3,0.3,0.4,0.6,0.5c0.3,0.1,0.6,0.2,1,0.2c0.4,0,0.8,0.1,1.2,0.1
			v0.6h-8.5v-0.6c0.6,0,1.1-0.1,1.4-0.1s0.6-0.2,0.8-0.3c0.2-0.1,0.3-0.4,0.4-0.6s0.1-0.6,0.1-1V3.8c0-0.9,0-1.5-0.1-1.8
			s-0.3-0.6-0.7-0.8c-0.4-0.2-1-0.3-1.9-0.3V0.3h8.1c0.4,0,1.2,0.1,2.6,0.2c0.4,0,0.9,0.2,1.4,0.4c0.5,0.2,1,0.5,1.4,0.9
			c0.4,0.4,0.8,0.8,1,1.3c0.2,0.5,0.4,1.1,0.4,1.7c0,0.7-0.1,1.3-0.4,1.8c-0.3,0.5-0.7,1-1.2,1.4s-1.4,0.8-2.2,1s-1.8,0.3-3,0.3
			H168.4z M165.9,3.7v11c0,0.7-0.3,1.2-0.9,1.5h0.3c0.9,0,1.3-0.4,1.3-1.2V4.3c0-1,0-1.6,0-1.9c0-0.3-0.1-0.6-0.2-0.8
			c-0.1-0.2-0.3-0.4-0.5-0.5c-0.2-0.1-0.6-0.2-1.1-0.2c0.3,0.1,0.5,0.3,0.7,0.5c0.2,0.2,0.2,0.5,0.2,0.8
			C165.7,2.5,165.9,3.1,165.9,3.7z M168.4,8.7h1.6c1,0,1.8-0.1,2.5-0.4c0.7-0.3,1.2-0.6,1.5-1.2s0.5-1.3,0.5-2.3
			c0-1.4-0.5-2.5-1.4-3.2c-0.4-0.3-0.8-0.5-1.2-0.6c-0.4-0.1-0.8,0-1.4,0c-0.7,0-1.1,0.1-1.4,0.3c-0.3,0.2-0.5,0.5-0.6,0.8
			c-0.1,0.3-0.1,0.9-0.1,1.7V8.7z M172.9,8.6c0.9-0.1,1.6-0.5,2.1-1.1s0.7-1.5,0.7-2.6c0-1.2-0.2-2-0.7-2.6c-0.5-0.6-1.2-1-2.1-1.2
			c0.4,0.2,0.8,0.5,1.1,0.9s0.5,0.8,0.7,1.3s0.2,1,0.2,1.6C174.9,6.8,174.3,8,172.9,8.6z"/>
	</g>
</g>
</svg>
