<svg version="1.1" id="" xmlns="http://www.w3.org/2000/svg" xmlns:xlink="http://www.w3.org/1999/xlink" x="0px"
	 y="0px" width="365px" height="73px" viewBox="0 0 365 73" style="enable-background:new 0 0 365 73;" xml:space="preserve">
<style type="text/css">
<![CDATA[
	.st0{fill:#FFFFFF;}
]]>
</style>
<g>
	<g>
		<g>
			<g>
				<g>
					<path class="st0" d="M205.5,58.4l-0.8-0.5c-0.4-0.2-0.8-0.6-0.8-1.1c0-0.4,0.2-1,1-1c0.8,0,1.1,0.5,1.2,1c0,0,0,0.1,0,0.1
						c0.1,0.1,0.1,0.1,0.2,0.1c0.1,0,0.2,0,0.3-0.1c0,0,0-0.1,0-0.1c0-0.4-0.1-1.1-0.2-1.3c0-0.1-0.1-0.1-0.2-0.1
						c-0.1,0-0.2,0-0.3-0.1c-0.3-0.1-0.6-0.1-1-0.1c-1.3,0-2.3,0.8-2.3,2c0,0.9,0.6,1.6,1.2,1.9l1,0.6c0.7,0.4,0.8,0.9,0.8,1.3
						c0,0.5-0.3,1-1.1,1c-1.1,0-1.5-0.9-1.6-1.4c0,0,0,0,0-0.1c0-0.1-0.1-0.1-0.2-0.1c-0.1,0-0.2,0-0.3,0.1c0,0,0,0.1,0,0.1
						c0,0.5,0.2,1.3,0.3,1.5c0,0,0,0.1,0.1,0.1c0.3,0.2,0.8,0.4,1.7,0.4c1.4,0,2.4-0.8,2.4-2.1C206.8,59.4,206.1,58.8,205.5,58.4z"
						/>
					<path class="st0" d="M211.3,55.9l0.3,0c0,0,0,0,0.1,0c0.1,0,0.1-0.1,0.1-0.3c0-0.1,0-0.2-0.1-0.3c0,0-0.1,0-0.1,0l-0.1,0
						c-0.5,0-0.8,0-1.2,0c-0.4,0-0.7,0-1.2,0l-0.1,0c0,0-0.1,0-0.1,0c-0.1,0.1-0.1,0.2-0.1,0.3c0,0.1,0.1,0.2,0.1,0.2c0,0,0,0,0.1,0
						l0.3,0c0.4,0,0.5,0,0.5,1.1v3.7c0,1.1,0,1.1-0.5,1.1l-0.3,0c0,0-0.1,0-0.1,0.1c-0.1,0.1-0.1,0.2-0.1,0.3c0,0.1,0,0.2,0.1,0.2
						c0,0,0.1,0,0.1,0c0.5,0,0.9,0,1.3,0c0.4,0,0.8,0,1.3,0c0,0,0,0,0,0c0,0,0,0,0.1,0c0.1-0.1,0.2-0.2,0.2-0.3c0-0.1,0-0.2-0.1-0.3
						c0,0,0,0-0.1,0l-0.3,0c-0.4-0.1-0.5-0.1-0.5-1.1V57C210.8,55.9,210.9,55.9,211.3,55.9z"/>
					<path class="st0" d="M221.3,55.3c-0.3,0-0.6,0-1,0c-0.4,0-0.7,0-1.2,0c0,0-0.1,0-0.1,0c-0.1,0-0.2,0.1-0.2,0.3
						c0,0.1,0,0.2,0.1,0.3c0,0,0,0,0.1,0l0.2,0c0.4,0.1,0.5,0.1,0.5,0.1c0.1,0.2,0.2,1,0.2,2v2.2c0,0,0,0,0,0.1
						c-0.3-0.3-0.6-0.6-0.9-1l-1.7-1.9c-0.4-0.5-1.4-1.6-1.6-2.1c0-0.1-0.1-0.1-0.2-0.1c-0.1,0-0.3,0-0.4,0c-0.2,0-0.7,0-1.1,0
						c0,0-0.1,0-0.1,0c-0.1,0.1-0.1,0.1-0.2,0.3c0,0.1,0,0.2,0.1,0.3c0,0,0.1,0,0.1,0l0.2,0c0.2,0,0.4,0.1,0.5,0.2
						c0.2,0.2,0.2,0.3,0.2,0.6v3.1c0,0.5,0,1.6-0.1,1.9c0,0-0.1,0.1-0.3,0.1l-0.3,0c0,0-0.1,0-0.1,0c-0.1,0.1-0.1,0.2-0.1,0.3
						c0,0.1,0.1,0.2,0.1,0.3c0,0,0.1,0,0.1,0c0.4,0,0.6,0,1.1,0c0.4,0,0.7,0,1.2,0c0,0,0.1,0,0.1,0c0.1,0,0.1-0.1,0.2-0.2
						c0-0.1,0-0.2-0.1-0.3c0,0-0.1-0.1-0.1-0.1l-0.3,0c-0.2,0-0.4-0.1-0.4-0.1c0-0.1-0.2-0.4-0.2-2v-2.3c0-0.1,0-0.2,0-0.3
						c0.1,0.1,0.2,0.3,0.3,0.4c0.2,0.3,0.5,0.6,0.6,0.7l2.4,2.7c0.7,0.8,1.1,1.3,1.3,1.6c0,0,0.1,0.1,0.1,0.1c0.2,0,0.3-0.1,0.3-0.2
						c0,0,0-0.1,0-0.1c0-0.1,0-0.5,0-1.8V58c0-0.5,0-1.7,0.1-2c0,0,0.1-0.1,0.5-0.1l0.1,0c0,0,0.1,0,0.1-0.1
						c0.1-0.1,0.1-0.2,0.1-0.3c0-0.1-0.1-0.2-0.1-0.2C221.4,55.3,221.3,55.3,221.3,55.3z"/>
					<path class="st0" d="M229,60.5C229,60.6,228.9,60.6,229,60.5c-0.3,0.7-0.8,1.4-2,1.4c-1.7,0-2.9-1.3-2.9-3.2c0-2.2,1.4-3,2.7-3
						c1.1,0,1.7,0.4,1.9,1.4c0,0,0,0.1,0.1,0.1c0.2,0.1,0.4,0.1,0.5-0.1c0,0,0-0.1,0-0.1c-0.1-0.6-0.1-1.3-0.1-1.5
						c0-0.1,0-0.1-0.1-0.1c0,0-0.1,0-0.2,0c0,0-0.1,0-0.1,0l0,0c-0.5-0.1-1.3-0.3-1.9-0.3c-1.1,0-2.1,0.3-2.9,0.9
						c-0.9,0.7-1.4,1.7-1.4,2.9c0,1.2,0.5,2.3,1.5,3c0.7,0.5,1.6,0.7,2.7,0.7c0.7,0,1.4-0.2,1.7-0.3c0.1,0,0.2-0.1,0.3-0.1
						c0,0,0.1,0,0.1-0.1c0.2-0.2,0.5-1,0.5-1.5c0,0,0-0.1,0-0.1C229.4,60.5,229.1,60.4,229,60.5z"/>
					<path class="st0" d="M236.5,60.7C236.4,60.7,236.4,60.7,236.5,60.7c-0.3,0.6-0.6,0.9-0.7,1c-0.2,0.1-0.4,0.1-1.2,0.1
						c-0.9,0-1.1-0.1-1.1-0.2c-0.1-0.1-0.2-0.6-0.2-0.9v-1.5c0,0,0-0.1,0-0.1c0,0,0.1,0,0.2,0h0.6c0.3,0,0.6,0,0.7,0
						c0.1,0,0.2,0.1,0.2,0.3l0.1,0.4c0,0,0,0.1,0,0.1c0.1,0.2,0.5,0.1,0.6-0.1c0,0,0,0,0-0.1c0-0.1,0-0.2,0-0.4c0-0.2,0-0.4,0-0.6
						c0-0.2,0-0.4,0-0.6c0-0.2,0-0.3,0-0.4c0,0,0-0.1,0-0.1c-0.1-0.2-0.5-0.2-0.6,0c0,0,0,0,0,0.1l-0.1,0.4c0,0.2-0.1,0.2-0.1,0.2
						c-0.1,0-0.2,0.1-0.8,0.1h-0.6c-0.1,0-0.1,0-0.2,0c0,0,0-0.1,0-0.1v-2.1c0-0.1,0-0.2,0-0.2c0,0,0.1,0,0.1,0h0.7
						c0.5,0,0.8,0,1,0.1c0.4,0.1,0.5,0.3,0.6,0.8l0,0.1c0,0,0,0,0,0.1c0.1,0.1,0.1,0.1,0.2,0.1c0.1,0,0.2,0,0.3-0.2c0,0,0-0.1,0-0.1
						c-0.1-0.6-0.1-1.2-0.2-1.4c0-0.1-0.1-0.1-0.2-0.1c-0.1,0-0.8,0-1.3,0h-1.9c-0.4,0-0.8,0-1.2,0c0,0-0.1,0-0.1,0
						c-0.1,0.1-0.1,0.2-0.1,0.3c0,0.1,0.1,0.2,0.1,0.2c0,0,0,0,0.1,0l0.2,0c0.5,0.1,0.5,0.1,0.5,1.1v3.7c0,1.1,0,1.1-0.5,1.1l-0.3,0
						c0,0-0.1,0-0.1,0.1c-0.1,0.1-0.1,0.2-0.1,0.3c0,0.1,0.1,0.2,0.2,0.2c0,0,0,0,0.1,0c0,0,0,0,0,0l0.2,0c0.5,0,0.8,0,1.2,0h0.9
						c0.9,0,1.8,0,2.8,0c0.1,0,0.1,0,0.2-0.1c0.1-0.3,0.4-1.1,0.5-1.5c0,0,0-0.1,0-0.1C236.9,60.6,236.6,60.6,236.5,60.7z"/>
					<path class="st0" d="M244.5,60.7C244.5,60.7,244.5,60.7,244.5,60.7c-0.1,0.2-0.2,0.3-0.4,0.5c-0.2,0.1-0.4,0.2-0.9,0.2h-1.4
						c0,0-0.1,0-0.1,0c0.1-0.1,0.3-0.4,0.9-1.1l0.7-0.8c0.8-1,1.2-1.8,1.2-2.5c0-1.2-0.8-2-2-2c-1.1,0-2,0.6-2.4,1.7c0,0,0,0,0,0.1
						c0,0.1,0,0.2,0.1,0.3c0.1,0.1,0.3,0.1,0.4,0c0,0,0.1,0,0.1-0.1c0.3-0.7,0.7-1,1.3-1c0.8,0,1.2,0.5,1.2,1.4
						c0,1.1-0.8,2.1-1.5,2.9c-0.8,0.9-1.2,1.2-1.7,1.6c-0.1,0.1-0.2,0.2-0.2,0.3c0,0.1,0.1,0.2,0.2,0.3c0,0,0.1,0,0.1,0
						c0.2,0,0.6,0,1.2,0h1.6c0.5,0,1,0,1.4,0c0,0,0,0,0,0c0.1,0,0.1,0,0.1-0.1c0.2-0.3,0.4-1,0.5-1.4c0-0.1,0-0.1,0-0.2
						C244.9,60.7,244.7,60.6,244.5,60.7z"/>
					<path class="st0" d="M249.4,55c-1.7,0-2.5,2-2.5,3.8c0,1.9,0.8,3.8,2.5,3.8c1.7,0,2.5-1.9,2.5-3.8
						C251.9,56.9,251.1,55,249.4,55z M249.4,55.7c0.9,0,1.1,1.7,1.1,3.1c0,1.4-0.2,3.1-1.1,3.1c-0.7,0-1.1-1.1-1.1-3.1
						C248.3,56.8,248.7,55.7,249.4,55.7z"/>
					<path class="st0" d="M256.8,61.8l-0.5,0c-0.3,0-0.3,0-0.3-0.9v-4.3c0-0.7,0-1.2,0-1.4c0,0,0-0.1,0-0.1
						c-0.1-0.1-0.2-0.2-0.4-0.1c-0.1,0.1-0.7,0.4-1.8,0.6c0,0,0,0-0.1,0c-0.1,0.1-0.1,0.2-0.1,0.3c0,0.1,0.1,0.2,0.2,0.3
						c0,0,0,0,0.1,0l0.5,0c0.3,0,0.4,0.1,0.4,0.9v3.7c0,0.9,0,0.9-0.3,0.9l-0.5,0c0,0-0.1,0-0.1,0.1c-0.1,0.1-0.1,0.2-0.1,0.3
						c0,0.1,0.1,0.2,0.2,0.2c0,0,0,0,0.1,0c0.4,0,0.9,0,1.3,0c0.4,0,0.9,0,1.3,0c0,0,0,0,0,0c0,0,0,0,0.1,0c0.1,0,0.1-0.1,0.2-0.2
						c0-0.1,0-0.3-0.1-0.4C256.9,61.8,256.9,61.8,256.8,61.8z"/>
					<path class="st0" d="M262.2,57.8c0.9-0.5,1-1,1-1.4c0-0.9-0.7-1.4-1.7-1.4c-0.9,0-1.8,0.6-2.2,1.4c0,0,0,0,0,0.1
						c0,0.1,0,0.2,0.1,0.3c0.1,0.1,0.2,0.1,0.2,0.1c0,0,0.1,0,0.1,0c0,0,0.1,0,0.1-0.1c0.2-0.4,0.7-0.9,1.3-0.9
						c0.4,0,0.7,0.3,0.7,0.8c0,0.4-0.3,0.7-0.5,0.9c-0.4,0.3-1.3,0.7-1.7,0.9l-0.1,0c0,0-0.1,0.1-0.1,0.1c0,0.2,0,0.3,0.1,0.4
						c0.1,0.1,0.2,0.2,0.4,0.2c0.1,0,0.1,0,0.1-0.1c0.2-0.2,0.6-0.5,1.1-0.5c0.9,0,1.3,0.8,1.3,1.6c0,1.1-1.2,2-1.8,2
						c-0.2,0-0.3-0.1-0.5-0.3l0,0c-0.1-0.2-0.3-0.4-0.7-0.4c-0.3,0-0.6,0.3-0.6,0.6c0,0.5,0.5,0.9,1.3,0.9c0.6,0,1.6-0.3,2.4-1
						c0.7-0.6,1.1-1.5,1.1-2.3C263.8,58.5,263,57.9,262.2,57.8z"/>
				</g>
				<g>
					<path class="st0" d="M129,44.9c-1-0.2-1.7-0.5-2-1c-0.4-0.5-0.5-1.4-0.5-2.7V33c0-2-0.3-3.5-1-4.7c-0.6-1.1-1.5-1.9-2.6-2.5
						c-1.1-0.6-2.3-0.9-3.6-0.9c-1.1,0-2,0.2-2.9,0.5c-0.9,0.3-1.8,0.9-2.8,1.7c-0.8,0.6-1.5,1.4-2.3,2.3v-4.1c0-0.1,0-0.2-0.1-0.3
						c-0.1-0.1-0.2-0.1-0.3-0.1l-7.9,0.9c-0.2,0-0.3,0.2-0.3,0.4v0.5c0,0.2,0.1,0.3,0.3,0.4c1,0.1,1.7,0.5,2,1
						c0.4,0.5,0.6,1.4,0.6,2.7v10.3c0,1.3-0.2,2.2-0.5,2.7c-0.4,0.5-1,0.8-2.1,1c-0.2,0-0.3,0.2-0.3,0.3v0.7c0,0.2,0.2,0.4,0.4,0.4
						h10.7c0.2,0,0.4-0.2,0.4-0.4v-0.7c0-0.2-0.1-0.3-0.3-0.3c-1-0.2-1.7-0.5-2-1c-0.4-0.5-0.5-1.4-0.5-2.7v-9.4
						c1.5-1.8,2.7-3,3.7-3.7c0.9-0.7,1.9-1,2.8-1c0.7,0,1.2,0.2,1.7,0.6c0.5,0.4,0.8,0.9,1.1,1.6c0.2,0.7,0.3,1.9,0.3,3.6v8.3
						c0,1.3-0.2,2.2-0.5,2.7c-0.3,0.5-1,0.8-2,1c-0.2,0-0.3,0.2-0.3,0.3v0.7c0,0.2,0.2,0.4,0.4,0.4h10.7c0.2,0,0.4-0.2,0.4-0.4v-0.7
						C129.3,45.1,129.2,45,129,44.9z M122.8,28.4c0.4,0.5,0.6,1.1,0.8,1.8c0.2,0.7,0.2,1.7,0.2,2.9l0,10.2c0,0.5,0.2,0.9,0.5,1.2
						l0.2,0.1h-2.9c0.3-0.3,0.5-0.5,0.6-0.7c0-0.1,0.1-0.4,0.1-1.4v-9.6c0-1.6-0.1-2.9-0.4-3.8c-0.3-1-0.7-1.7-1.3-2.2
						c-0.1-0.1-0.2-0.2-0.3-0.2C121.2,26.8,122.1,27.4,122.8,28.4z M108.5,26.8v16.4c0,0.5,0.2,0.9,0.5,1.2l0.2,0.1h-2.9
						c0.3-0.3,0.5-0.5,0.6-0.7c0.1-0.1,0.1-0.4,0.1-1.4V29.5c0-0.6,0-1-0.1-1.2c-0.1-0.3-0.2-0.5-0.4-0.7l-0.3-0.2
						c-0.1-0.1-0.1-0.1-0.2-0.1l-0.2-0.1L108.5,26.8z"/>
					<path class="st0" d="M154.5,44.9c-1-0.2-1.7-0.5-2-1c-0.4-0.5-0.5-1.4-0.5-2.7v-7.1c0-1.3-0.1-2.4-0.2-3.2
						c-0.1-0.8-0.4-1.5-0.7-2.1c-0.6-1.2-1.6-2.2-2.9-2.9c-1.3-0.7-2.8-1-4.5-1c-1.3,0-2.5,0.2-3.6,0.6c-1.1,0.4-2,1-2.7,1.7
						c-0.7,0.7-1,1.6-1,2.5c0,0.7,0.2,1.3,0.7,1.8c0.4,0.5,1,0.7,1.7,0.7c0.8,0,1.4-0.2,1.8-0.7c0.3-0.4,0.6-1.2,0.7-2.3
						c0.1-1,0.4-1.7,0.7-2.1c0.4-0.4,0.9-0.6,1.5-0.6c0.5,0,0.9,0.1,1.3,0.4c0.4,0.3,0.7,0.6,0.9,1c0.2,0.4,0.3,1,0.5,1.7
						c0.1,0.8,0.2,1.8,0.2,3.1v0.7c-3.9,0.2-7,0.9-9.1,2.2c-2.3,1.3-3.4,3.2-3.4,5.5c0,1.7,0.6,3,1.8,4.1c1.2,1,2.7,1.5,4.7,1.5
						c2.2,0,4.2-0.7,6.1-2.2v1.6c0,0.2,0.2,0.4,0.4,0.4h7.9c0.2,0,0.4-0.2,0.4-0.4v-0.7C154.7,45.1,154.6,45,154.5,44.9z M140.1,38
						c0.6-0.8,1.4-1.5,2.5-2.1c1-0.5,2.2-0.9,3.6-1.1v7.6c-2.6,2.1-4.7,2.3-6,0.8c-0.6-0.7-0.9-1.5-0.9-2.5
						C139.3,39.8,139.6,38.9,140.1,38z M148.5,29.1c0.5,1.1,0.8,2.8,0.8,5l0,9.1c0,0.5,0.2,0.9,0.5,1.2l0.2,0.1h-2.2V34.1
						c0-2.1,0-3.6-0.1-4.6c-0.1-1-0.4-1.8-0.8-2.5C147.5,27.5,148.1,28.2,148.5,29.1z M135.2,41c0-1.8,0.9-3.2,2.6-4.3
						c0.5-0.3,1-0.5,1.7-0.8c-0.3,0.2-0.6,0.4-0.8,0.6c-1.4,1.2-2.1,2.7-2.1,4.4c0,1.9,0.8,3.3,2.3,4.1c-0.9-0.2-1.7-0.5-2.4-1.1
						C135.6,43.2,135.2,42.2,135.2,41z M139.3,27.4c-0.3,0.5-0.6,1.2-0.7,2.2c-0.1,0.5-0.2,0.7-0.2,0.7c0,0-0.1,0.1-0.2,0.1
						c-0.1,0-0.2,0-0.3-0.1c-0.1-0.1-0.1-0.3-0.1-0.5c0-0.7,0.3-1.4,0.9-2c0.3-0.3,0.6-0.5,1-0.7C139.5,27.2,139.4,27.3,139.3,27.4z
						"/>
					<path class="st0" d="M179.6,45c-0.6-0.6-1.2-1.1-2-1.5c-1.1-0.5-2.9-0.8-5.5-0.8h-4.7c-1,0-1.8,0-2.3-0.1
						c-1.3-0.2-1.3-0.8-1.3-1c0-0.3,0.1-0.6,0.3-0.9c0.2-0.3,0.5-0.7,1-1.2c3.6,1.6,6.7,1.4,9.4,0c1.4-0.7,2.6-1.8,3.4-3.1
						c0.9-1.3,1.3-2.7,1.3-4.2c0-1.1-0.2-2.1-0.7-3.1c-0.4-1-1.1-1.8-1.9-2.5c-0.8-0.7-1.8-1.3-2.9-1.7c-1-0.4-2.1-0.6-3.2-0.7
						c0.5-2.1,1.5-2.1,1.8-2.1c0.5,0,1,0.3,1.3,1l0.4,0.7c0.2,0.4,0.5,0.7,0.9,1c1,0.6,2.1,0.5,2.8-0.2c0.4-0.4,0.6-0.9,0.6-1.6
						c0-0.6-0.2-1.2-0.7-1.8c-0.4-0.5-1-0.9-1.7-1.2c-0.7-0.3-1.4-0.5-2.2-0.5c-1.3,0-2.4,0.4-3.1,1.2c-0.7,0.7-1.3,1.9-1.7,3.5
						c-1.7,0.1-3.3,0.5-4.6,1.2c-1.4,0.7-2.5,1.7-3.2,2.9c-0.8,1.2-1.2,2.6-1.2,4.1c0,1.4,0.3,2.7,1,3.7c0.6,1,1.5,1.8,2.8,2.6l0,0
						c-0.9,0.8-1.6,1.5-2.1,2.1c-0.5,0.6-0.9,1.1-1,1.6c-0.2,0.5-0.3,1-0.3,1.6c0,0.6,0.1,1.2,0.4,1.7c0.2,0.4,0.5,0.8,1,1.3
						c-1.1,0.9-1.9,1.7-2.4,2.5c-0.6,0.9-0.8,1.9-0.8,3c0,2.1,1,3.8,3,5.1c1.9,1.2,4.5,1.9,7.7,1.9c2.3,0,4.4-0.4,6.3-1.2
						c1.9-0.8,3.3-1.9,4.4-3.4c1-1.5,1.6-3.1,1.6-5c0-0.9-0.2-1.8-0.4-2.6C180.6,46.3,180.2,45.6,179.6,45z M169.5,57.5
						c-1.6,0-3-0.3-4.2-0.8c-1.2-0.5-2.2-1.2-2.8-2.1c-0.7-0.9-1-1.8-1-2.9c0-1.4,0.6-2.7,1.9-3.8c0.6,0.1,1.3,0.2,2,0.2
						c0.7,0.1,1.4,0.1,2.3,0.1h5.4l1.9,0.1c1.1,0,1.9,0.3,2.5,0.8c0.6,0.5,0.9,1.2,0.9,2.2c0,0.8-0.2,1.6-0.6,2.3
						c-0.4,0.7-1,1.4-1.8,2c-0.8,0.6-1.7,1-2.8,1.4C171.8,57.4,170.7,57.5,169.5,57.5z M162.5,44.1c0.3,0.4,0.8,0.7,1.6,0.8
						c0.7,0.1,1.7,0.2,2.9,0.2l6.2,0c1.4,0,2.4,0.1,3.2,0.4c0.7,0.3,1.4,0.7,2,1.4c0.7,0.8,1.1,1.8,1.1,3c-0.2-1-0.9-1.9-1.8-2.5
						c-0.5-0.4-1.2-0.6-2.1-0.7c-0.8-0.1-2.3-0.2-4.4-0.2l-3.3,0c-1.4,0-2.5,0-3.1-0.1c-0.6,0-1.1-0.1-1.4-0.3
						c-0.5-0.2-0.9-0.6-1.2-1c-0.3-0.4-0.4-0.9-0.4-1.5c0-0.4,0.1-0.8,0.2-1.1c0,0,0,0,0,0C162,43.3,162.2,43.8,162.5,44.1z
						 M174.6,36.1c0.4-1.1,0.5-2.4,0.5-4c0-1.5-0.2-2.8-0.5-3.8c-0.1-0.4-0.3-0.8-0.6-1.2c0.5,0.4,1,0.9,1.3,1.5
						c0.8,1.1,1.1,2.4,1.1,3.9c0,1.4-0.4,2.6-1,3.6c-0.4,0.6-1,1.2-1.6,1.6C174.1,37.1,174.4,36.6,174.6,36.1z M173.6,32.1
						c0,2.1-0.4,3.8-1.1,5c-0.7,1.2-1.6,1.7-2.9,1.7c-1.2,0-2.1-0.6-2.8-1.7c-0.8-1.2-1.1-2.8-1.1-4.8c0-2.1,0.4-3.7,1.2-4.9
						c0.7-1.2,1.7-1.8,2.9-1.8c1.2,0,2.1,0.5,2.8,1.6C173.3,28.4,173.6,30.1,173.6,32.1z M162.9,32.4c0,1.9,0.4,3.5,1.3,4.9
						c-0.6-0.5-1.1-1-1.5-1.5c-0.8-1-1.1-2.1-1.1-3.4c0-1.5,0.5-2.8,1.4-4c0.5-0.7,1.2-1.2,2-1.7C163.6,28.3,162.9,30.2,162.9,32.4z
						 M174.8,21.6c0.5,0.2,0.8,0.5,1.1,0.8c0.3,0.3,0.4,0.6,0.4,0.9c0,0.3-0.1,0.4-0.3,0.4c-0.1,0-0.2,0-0.3-0.1
						c-0.1-0.1-0.3-0.3-0.6-0.8c-0.3-0.5-0.6-1-0.9-1.3c0,0-0.1,0-0.1-0.1C174.3,21.4,174.5,21.5,174.8,21.6z"/>
					<path class="st0" d="M205.5,44.9c-1-0.2-1.7-0.5-2-1c-0.4-0.5-0.5-1.4-0.5-2.7v-7.1c0-1.3-0.1-2.4-0.2-3.2
						c-0.1-0.8-0.4-1.5-0.7-2.1c-0.6-1.2-1.6-2.2-2.9-2.9c-1.3-0.7-2.8-1-4.5-1c-1.3,0-2.5,0.2-3.6,0.6c-1.1,0.4-2,1-2.7,1.7
						c-0.7,0.7-1,1.6-1,2.5c0,0.7,0.2,1.3,0.7,1.8c0.4,0.5,1,0.7,1.7,0.7c0.8,0,1.4-0.2,1.8-0.7c0.3-0.4,0.6-1.2,0.7-2.3
						c0.1-1,0.4-1.7,0.7-2.1c0.4-0.4,0.9-0.6,1.5-0.6c0.5,0,0.9,0.1,1.3,0.4c0.4,0.3,0.7,0.6,0.9,1c0.2,0.4,0.3,1,0.5,1.7
						c0.1,0.8,0.2,1.8,0.2,3.1v0.7c-3.9,0.2-7,0.9-9.1,2.2c-2.3,1.3-3.4,3.2-3.4,5.5c0,1.7,0.6,3,1.8,4.1c1.2,1,2.7,1.5,4.7,1.5
						c2.2,0,4.2-0.7,6.1-2.2v1.6c0,0.2,0.2,0.4,0.4,0.4h7.9c0.2,0,0.4-0.2,0.4-0.4v-0.7C205.8,45.1,205.7,45,205.5,44.9z M191.2,38
						c0.6-0.8,1.4-1.5,2.5-2.1c1-0.5,2.2-0.9,3.6-1.1v7.6c-2.6,2.1-4.7,2.3-6,0.8c-0.6-0.7-0.9-1.5-0.9-2.5
						C190.4,39.8,190.6,38.9,191.2,38z M199.6,29.1c0.5,1.1,0.8,2.8,0.8,5l0,9.1c0,0.5,0.2,0.9,0.5,1.2l0.2,0.1h-2.2V34.1
						c0-2.1,0-3.6-0.1-4.6c-0.1-1-0.4-1.8-0.8-2.5C198.6,27.5,199.2,28.2,199.6,29.1z M186.2,41c0-1.8,0.9-3.2,2.6-4.3
						c0.5-0.3,1-0.5,1.7-0.8c-0.3,0.2-0.6,0.4-0.8,0.6c-1.4,1.2-2.1,2.7-2.1,4.4c0,1.9,0.8,3.3,2.3,4.1c-0.9-0.2-1.7-0.5-2.4-1.1
						C186.7,43.2,186.2,42.2,186.2,41z M190.4,27.4c-0.3,0.5-0.6,1.2-0.7,2.2c-0.1,0.5-0.2,0.7-0.2,0.7c0,0-0.1,0.1-0.2,0.1
						c-0.1,0-0.2,0-0.3-0.1c-0.1-0.1-0.1-0.3-0.1-0.5c0-0.7,0.3-1.4,0.9-2c0.3-0.3,0.6-0.5,1-0.7C190.6,27.2,190.5,27.3,190.4,27.4z
						"/>
					<path class="st0" d="M224.2,24.8c-1.1,0-2.1,0.4-2.9,1.2c-0.6,0.6-1.3,1.5-2,2.7v-3.4c0-0.1,0-0.2-0.1-0.3
						c-0.1-0.1-0.2-0.1-0.3-0.1l-7.9,0.9c-0.2,0-0.3,0.2-0.3,0.4v0.5c0,0.2,0.1,0.3,0.3,0.4c1,0.1,1.7,0.5,2,1
						c0.4,0.5,0.6,1.4,0.6,2.7v10.3c0,1.3-0.2,2.2-0.5,2.7c-0.4,0.5-1,0.8-2.1,1c-0.2,0-0.3,0.2-0.3,0.3v0.7c0,0.2,0.2,0.4,0.4,0.4
						h11.3c0.2,0,0.4-0.2,0.4-0.4v-0.7c0-0.2-0.1-0.3-0.3-0.3c-1.2-0.2-2-0.5-2.4-1c-0.4-0.5-0.6-1.4-0.6-2.7v-9.4
						c0.7-1.3,1.3-2.4,1.7-3.2c0.5-0.7,0.9-1.3,1.3-1.6c0.4-0.3,0.7-0.5,1.1-0.5c0.3,0,0.5,0.1,0.7,0.3c0.2,0.2,0.3,0.5,0.3,0.8
						c0,0.4-0.1,0.9-0.2,1.4l-0.2,0.9c-0.1,0.4-0.1,0.7-0.1,1.1c0,0.7,0.2,1.3,0.7,1.8c0.4,0.5,1,0.7,1.7,0.7c0.8,0,1.5-0.3,1.9-0.9
						c0.4-0.6,0.6-1.4,0.6-2.4c0-1.5-0.4-2.9-1.3-3.9C226.7,25.4,225.5,24.8,224.2,24.8z M225.9,27.7c0.4,0.7,0.7,1.5,0.7,2.5
						c0,1.1-0.2,1.6-0.7,1.6c-0.2,0-0.5,0-0.5-0.7c0-0.1,0-0.5,0.2-1.3c0.2-0.8,0.3-1.4,0.3-2C225.9,27.9,225.9,27.8,225.9,27.7z
						 M216.7,26.8v16.4c0,0.5,0.2,0.9,0.5,1.2l0.2,0.1h-2.9c0.3-0.3,0.5-0.5,0.6-0.7c0.1-0.1,0.1-0.4,0.1-1.4V29.5
						c0-0.6,0-1-0.1-1.2c-0.1-0.3-0.2-0.5-0.4-0.7l-0.3-0.2c-0.1-0.1-0.1-0.1-0.2-0.1l-0.2-0.1L216.7,26.8z"/>
					<path class="st0" d="M252.1,44.9c-1-0.2-1.7-0.5-2-1c-0.4-0.5-0.5-1.4-0.5-2.7v-7.1c0-1.3-0.1-2.4-0.2-3.2
						c-0.1-0.8-0.4-1.5-0.7-2.1c-0.6-1.2-1.6-2.2-2.9-2.9c-1.3-0.7-2.8-1-4.5-1c-1.3,0-2.5,0.2-3.6,0.6c-1.1,0.4-2,1-2.7,1.7
						c-0.7,0.7-1,1.6-1,2.5c0,0.7,0.2,1.3,0.7,1.8c0.4,0.5,1,0.7,1.7,0.7c0.8,0,1.4-0.2,1.8-0.7c0.3-0.4,0.6-1.2,0.7-2.3
						c0.1-1,0.4-1.7,0.7-2.1c0.4-0.4,0.9-0.6,1.5-0.6c0.5,0,0.9,0.1,1.3,0.4c0.4,0.3,0.7,0.6,0.9,1c0.2,0.4,0.3,1,0.5,1.7
						c0.1,0.8,0.2,1.8,0.2,3.1v0.7c-3.9,0.2-7,0.9-9.1,2.2c-2.3,1.3-3.4,3.2-3.4,5.5c0,1.7,0.6,3,1.8,4.1c1.2,1,2.7,1.5,4.7,1.5
						c2.2,0,4.2-0.7,6.1-2.2v1.6c0,0.2,0.2,0.4,0.4,0.4h7.9c0.2,0,0.4-0.2,0.4-0.4v-0.7C252.4,45.1,252.3,45,252.1,44.9z M237.8,38
						c0.6-0.8,1.4-1.5,2.5-2.1c1-0.5,2.2-0.9,3.6-1.1v7.6c-2.6,2.1-4.7,2.3-6,0.8c-0.6-0.7-0.9-1.5-0.9-2.5
						C236.9,39.8,237.2,38.9,237.8,38z M246.2,29.1c0.5,1.1,0.7,2.8,0.7,5l0,9.1c0,0.5,0.2,0.9,0.5,1.2l0.2,0.1h-2.2V34.1
						c0-2.1-0.1-3.6-0.2-4.6c-0.1-1-0.4-1.8-0.8-2.5C245.2,27.5,245.7,28.2,246.2,29.1z M232.8,41c0-1.8,0.9-3.2,2.6-4.3
						c0.5-0.3,1-0.5,1.7-0.8c-0.3,0.2-0.6,0.4-0.8,0.6c-1.4,1.2-2.1,2.7-2.1,4.4c0,1.9,0.8,3.3,2.3,4.1c-0.9-0.2-1.7-0.5-2.4-1.1
						C233.3,43.2,232.8,42.2,232.8,41z M237,27.4c-0.3,0.5-0.6,1.2-0.7,2.2c-0.1,0.5-0.2,0.7-0.2,0.7c0,0-0.1,0.1-0.2,0.1
						c-0.1,0-0.2,0-0.3-0.1c-0.1-0.1-0.1-0.3-0.1-0.5c0-0.7,0.3-1.4,0.9-2c0.3-0.3,0.6-0.5,1-0.7C237.2,27.2,237.1,27.3,237,27.4z"
						/>
					<path class="st0" d="M276.8,42.9c-0.1-0.1-0.1-0.1-0.2-0.2c-0.1,0-0.2,0-0.3,0.1c-2.1,1.7-3.7,2.1-4.5,1.3
						c-0.3-0.3-0.5-0.8-0.6-1.5c-0.2-0.7-0.2-1.8-0.2-3V26.9h5c0.2,0,0.4-0.2,0.4-0.4v-0.7c0-0.2-0.2-0.4-0.4-0.4h-5v-8.6
						c0-0.2-0.2-0.4-0.4-0.4h-0.6c-0.2,0-0.3,0.1-0.4,0.3c-0.2,1.8-0.6,3.4-1.2,4.6c-0.5,1.2-1.2,2.2-2.1,2.9
						c-0.9,0.7-1.9,1.1-3,1.3c-0.2,0-0.3,0.2-0.3,0.4v0.6c0,0.2,0.2,0.4,0.4,0.4h1.9v12.5c0,2.4,0.5,4.3,1.5,5.6c1,1.3,2.5,2,4.5,2
						c1,0,2-0.2,2.9-0.7c0.9-0.4,2-1.2,3.1-2.1c0.1-0.1,0.2-0.3,0.1-0.5L276.8,42.9z M267.1,42.8c-0.2-0.4-0.3-0.9-0.4-1.6
						c-0.1-0.7-0.1-1.5-0.1-2.4V25.8c0.6-0.4,1.1-0.8,1.5-1.3v14.2c0,1.3,0,2.4,0.1,3.3c0.1,0.9,0.3,1.6,0.5,2.2
						c0.2,0.4,0.5,0.8,0.8,1.1c-0.7-0.2-1.3-0.6-1.8-1.3C267.5,43.5,267.3,43.2,267.1,42.8z"/>
					<path class="st0" d="M301.3,44.9c-1-0.2-1.7-0.5-2-1c-0.4-0.5-0.5-1.4-0.5-2.7v-7.1c0-1.3-0.1-2.4-0.2-3.2
						c-0.1-0.8-0.4-1.5-0.7-2.1c-0.6-1.2-1.6-2.2-2.9-2.9c-1.3-0.7-2.8-1-4.5-1c-1.3,0-2.5,0.2-3.6,0.6c-1.1,0.4-2,1-2.7,1.7
						c-0.7,0.7-1,1.6-1,2.5c0,0.7,0.2,1.3,0.7,1.8c0.4,0.5,1,0.7,1.7,0.7c0.8,0,1.4-0.2,1.8-0.7c0.3-0.4,0.6-1.2,0.7-2.3
						c0.1-1,0.4-1.7,0.7-2.1c0.4-0.4,0.9-0.6,1.5-0.6c0.5,0,0.9,0.1,1.3,0.4c0.4,0.3,0.7,0.6,0.9,1c0.2,0.4,0.3,1,0.5,1.7
						c0.1,0.8,0.2,1.8,0.2,3.1v0.7c-3.9,0.2-7,0.9-9.1,2.2c-2.3,1.3-3.4,3.2-3.4,5.5c0,1.7,0.6,3,1.8,4.1c1.2,1,2.7,1.5,4.7,1.5
						c2.2,0,4.2-0.7,6.1-2.2v1.6c0,0.2,0.2,0.4,0.4,0.4h7.9c0.2,0,0.4-0.2,0.4-0.4v-0.7C301.6,45.1,301.4,45,301.3,44.9z M286.9,38
						c0.6-0.8,1.4-1.5,2.5-2.1c1-0.5,2.2-0.9,3.6-1.1v7.6c-2.6,2.1-4.7,2.3-6,0.8c-0.6-0.7-0.9-1.5-0.9-2.5
						C286.1,39.8,286.4,38.9,286.9,38z M295.3,29.1c0.5,1.1,0.8,2.8,0.8,5l0,9.1c0,0.5,0.2,0.9,0.5,1.2l0.2,0.1h-2.2V34.1
						c0-2.1-0.1-3.6-0.2-4.6c-0.1-1-0.4-1.8-0.8-2.5C294.3,27.5,294.9,28.2,295.3,29.1z M282,41c0-1.8,0.9-3.2,2.6-4.3
						c0.5-0.3,1-0.5,1.7-0.8c-0.3,0.2-0.6,0.4-0.8,0.6c-1.4,1.2-2.1,2.7-2.1,4.4c0,1.9,0.8,3.3,2.3,4.1c-0.9-0.2-1.7-0.5-2.4-1.1
						C282.4,43.2,282,42.2,282,41z M286.1,27.4c-0.3,0.5-0.6,1.2-0.7,2.2c-0.1,0.5-0.2,0.7-0.2,0.7c0,0-0.1,0.1-0.2,0.1
						c-0.1,0-0.2,0-0.3-0.1c-0.1-0.1-0.1-0.3-0.1-0.5c0-0.7,0.3-1.4,0.9-2c0.3-0.3,0.6-0.5,1-0.7C286.3,27.2,286.2,27.3,286.1,27.4z
						"/>
					<path class="st0" d="M318.7,42.9c-0.1-0.1-0.1-0.1-0.2-0.2c-0.1,0-0.2,0-0.3,0.1c-2.1,1.7-3.7,2.1-4.5,1.3
						c-0.3-0.3-0.5-0.8-0.6-1.5c-0.1-0.7-0.2-1.8-0.2-3V26.9h5c0.2,0,0.4-0.2,0.4-0.4v-0.7c0-0.2-0.2-0.4-0.4-0.4h-5v-8.6
						c0-0.2-0.2-0.4-0.4-0.4h-0.6c-0.2,0-0.3,0.1-0.4,0.3c-0.2,1.8-0.6,3.4-1.2,4.6c-0.5,1.2-1.2,2.2-2.1,2.9
						c-0.9,0.7-1.9,1.1-3,1.3c-0.2,0-0.3,0.2-0.3,0.4v0.6c0,0.2,0.2,0.4,0.4,0.4h1.9v12.5c0,2.4,0.5,4.3,1.5,5.6c1,1.3,2.5,2,4.5,2
						c1,0,2-0.2,2.9-0.7c0.9-0.4,2-1.2,3.1-2.1c0.1-0.1,0.2-0.3,0.1-0.5L318.7,42.9z M309.1,42.8c-0.2-0.4-0.3-0.9-0.4-1.6
						c-0.1-0.7-0.1-1.5-0.1-2.4V25.8c0.6-0.4,1.1-0.8,1.5-1.3v14.2c0,1.3,0.1,2.4,0.2,3.3c0.1,0.9,0.3,1.6,0.5,2.2
						c0.2,0.4,0.5,0.8,0.8,1.1c-0.7-0.2-1.3-0.6-1.8-1.3C309.5,43.5,309.2,43.2,309.1,42.8z"/>
					<path class="st0" d="M327.8,21.9c0.9,0,1.7-0.3,2.3-0.9c0.6-0.6,0.9-1.4,0.9-2.3c0-0.9-0.3-1.7-0.9-2.3c-0.6-0.6-1.4-1-2.3-1
						c-0.9,0-1.7,0.3-2.3,1c-0.6,0.6-0.9,1.4-0.9,2.3c0,0.9,0.3,1.7,0.9,2.3C326.1,21.6,326.9,21.9,327.8,21.9z M326,18.6
						c0-0.5,0.2-0.9,0.5-1.3c0.4-0.4,0.8-0.6,1.2-0.6c0.2,0,0.2,0.1,0.2,0.2c0,0.2,0,0.6,0,1.6c0,0.9,0,1.5,0,1.8
						c0,0.2,0,0.2-0.2,0.2c-0.5,0-0.9-0.2-1.2-0.6C326.1,19.6,326,19.1,326,18.6z"/>
					<path class="st0" d="M333.5,44.9c-1-0.2-1.7-0.5-2-1c-0.4-0.5-0.5-1.4-0.5-2.7V25.4c0-0.1,0-0.2-0.1-0.3
						c-0.1-0.1-0.2-0.1-0.3-0.1l-7.9,0.9c-0.2,0-0.3,0.2-0.3,0.4v0.5c0,0.2,0.1,0.3,0.3,0.4c1,0.1,1.7,0.5,2,1
						c0.4,0.5,0.6,1.4,0.6,2.7v10.3c0,1.3-0.2,2.2-0.5,2.7c-0.4,0.5-1,0.8-2.1,1c-0.2,0-0.3,0.2-0.3,0.3v0.7c0,0.2,0.2,0.4,0.4,0.4
						h10.7c0.2,0,0.4-0.2,0.4-0.4v-0.7C333.8,45.1,333.7,45,333.5,44.9z M328.3,26.8v16.4c0,0.5,0.2,0.9,0.5,1.2l0.2,0.1h-2.9
						c0.3-0.3,0.5-0.5,0.6-0.7c0.1-0.1,0.1-0.4,0.1-1.4V29.5c0-0.6,0-1-0.1-1.2c-0.1-0.3-0.2-0.5-0.4-0.7l-0.3-0.2
						c-0.1-0.1-0.1-0.1-0.2-0.1l-0.2-0.1L328.3,26.8z"/>
					<path class="st0" d="M364.7,44.9c-1-0.2-1.7-0.5-2-1c-0.4-0.5-0.5-1.4-0.5-2.7V33c0-2-0.3-3.5-1-4.7c-0.6-1.1-1.5-1.9-2.6-2.5
						c-1.1-0.6-2.3-0.9-3.6-0.9c-1,0-2,0.2-2.9,0.5c-0.9,0.3-1.8,0.9-2.8,1.7c-0.7,0.6-1.5,1.4-2.3,2.3v-4.1c0-0.1,0-0.2-0.1-0.3
						c-0.1-0.1-0.2-0.1-0.3-0.1l-7.9,0.9c-0.2,0-0.3,0.2-0.3,0.4v0.5c0,0.2,0.1,0.3,0.3,0.4c1,0.1,1.7,0.5,2,1
						c0.4,0.5,0.6,1.4,0.6,2.7v10.3c0,1.3-0.2,2.2-0.5,2.7c-0.4,0.5-1,0.8-2.1,1c-0.2,0-0.3,0.2-0.3,0.3v0.7c0,0.2,0.2,0.4,0.4,0.4
						h10.8c0.2,0,0.4-0.2,0.4-0.4v-0.7c0-0.2-0.1-0.3-0.3-0.3c-1-0.2-1.7-0.5-2-1c-0.4-0.5-0.5-1.4-0.5-2.7v-9.4
						c1.5-1.8,2.7-3,3.7-3.7c0.9-0.7,1.9-1,2.8-1c0.7,0,1.2,0.2,1.7,0.6c0.5,0.4,0.8,0.9,1.1,1.6c0.2,0.7,0.3,1.9,0.3,3.6v8.3
						c0,1.3-0.2,2.2-0.5,2.7c-0.3,0.5-1,0.8-2,1c-0.2,0-0.3,0.2-0.3,0.3v0.7c0,0.2,0.2,0.4,0.4,0.4h10.7c0.2,0,0.4-0.2,0.4-0.4v-0.7
						C365,45.1,364.8,45,364.7,44.9z M358.4,28.4c0.4,0.5,0.6,1.1,0.8,1.8c0.2,0.7,0.2,1.7,0.2,2.9l0,10.2c0,0.5,0.2,0.9,0.5,1.2
						l0.2,0.1h-2.9c0.3-0.3,0.5-0.5,0.6-0.7c0-0.1,0.1-0.4,0.1-1.4v-9.6c0-1.6-0.1-2.9-0.4-3.8c-0.3-1-0.7-1.7-1.3-2.2
						c-0.1-0.1-0.2-0.2-0.3-0.2C356.9,26.8,357.7,27.4,358.4,28.4z M344.2,26.8v16.4c0,0.5,0.2,0.9,0.5,1.2l0.2,0.1h-2.9
						c0.3-0.3,0.5-0.5,0.6-0.7c0.1-0.1,0.1-0.4,0.1-1.4V29.5c0-0.6,0-1-0.1-1.2c-0.1-0.3-0.2-0.5-0.4-0.7l-0.3-0.2
						c-0.1-0.1-0.1-0.1-0.2-0.1l-0.2-0.1L344.2,26.8z"/>
				</g>
			</g>
			<g>
				<g>
					<g>
						<path class="st0" d="M63.4,31.5c-0.8-2.1-1.5-5.1-1.8-7l0-0.1l-0.1-0.1c-0.2-0.1-1-0.2-1.2,0l-0.1,0.1l0,0.1
							c-0.2,1.2-1.4,1.3-3.6,1.3H44.7l0,0h-7.9l0,0H25c-2.2,0-3.4-0.1-3.6-1.3l0-0.1l-0.1-0.1c-0.2-0.2-1-0.2-1.2,0l-0.1,0.1l0,0.1
							c-0.3,1.9-1,4.9-1.8,7l0,0.1l0,0.1c0.1,0.3,0.4,0.5,0.8,0.6c0.3,0.1,0.6,0,0.8-0.1l0.1,0l0-0.1c0.5-1.1,1-2.1,2.1-3.2
							c1.1-1,3.5-1.1,5.7-1.1h2.6c0.6,0,1,0,1.1,0.1c0.1,0.1,0.1,0.5,0.1,1.1v21.1c0,5-0.2,5.4-2.8,5.7L27,55.9l-0.1,0
							c-0.3,0.2-0.4,0.5-0.4,0.9c0,0.3,0.1,0.6,0.4,0.8l0.1,0l0.1,0c3.1-0.1,4.7-0.1,6.7-0.1c1.9,0,3.4,0,6.3,0.1l0.1,0l0.1,0
							c0.3-0.1,0.4-0.5,0.4-0.8c0-0.2,0-0.6-0.3-0.8l-0.1,0l-1.6-0.1C36,55.6,36,55.1,36,50.1v-21v-0.1c0-0.1-0.1-0.3,0.2-0.5
							c1-0.5,2.5-0.7,4.5-0.7c1.9,0,3.4,0.3,4.5,0.7c0.3,0.1,0.3,0.4,0.3,0.5v21.2c0,5.1-0.2,5.5-2.7,5.7l-1.6,0.1l-0.1,0
							c-0.2,0.1-0.3,0.4-0.3,0.8c0,0.3,0.1,0.7,0.4,0.8l0.1,0l0.1,0c2.9-0.1,4.4-0.1,6.3-0.1c1.9,0,3.6,0,6.7,0.1l0.1,0l0.1,0
							c0.3-0.1,0.4-0.5,0.4-0.8c0-0.4-0.1-0.7-0.4-0.9l-0.1,0l-1.8-0.1c-2.5-0.2-2.8-0.7-2.8-5.7V29c0-0.6,0-1,0.1-1.1
							c0.1-0.1,0.5-0.1,1.1-0.1h2.6c2.2,0,4.7,0.1,5.7,1.1c1.1,1,1.6,2.1,2.1,3.2l0,0.1l0.1,0c0.2,0.2,0.5,0.2,0.8,0.1
							c0.4-0.1,0.7-0.3,0.8-0.6l0.1-0.1L63.4,31.5z"/>
						<path class="st0" d="M55.1,16.9c-0.1-0.1-0.2-0.1-0.3-0.1c-0.1,0-0.2,0-1,0.9c-0.5,0.6-0.9,1-1.3,1.4c-1.3,1.3-2.4,2.3-3.2,3
							c-0.9,0.7-1.5,1-1.9,1c-0.2,0-0.4-0.1-0.5-0.2c-0.1-0.1-0.2-0.3-0.2-0.6c0-0.3,0.2-0.8,0.4-1.3c0.3-0.6,0.9-1.4,1.8-2.6
							c0.1-0.2,0.3-0.5,0.6-0.8c1.6-2.1,2.4-3.8,2.4-5c0-0.7-0.2-1.3-0.5-1.7c-0.3-0.4-0.8-0.7-1.4-0.7c-0.8,0-1.9,0.5-3.2,1.6
							c-1.1,0.9-2.8,2.6-4.8,4.8c-0.1,0.1-0.1,0-0.1,0c0.4-0.6,0.6-1.2,0.8-1.8c0.3-0.8,0.5-1.6,0.5-2.3c0-0.7-0.2-1.2-0.5-1.7
							c-0.4-0.4-0.8-0.6-1.4-0.6c-0.7,0-1.5,0.3-2.3,0.9c-0.8,0.6-2,1.7-3.5,3.2L34,15.9c-0.2,0.3-0.4,0.5-0.6,0.7
							c-0.1,0.1-0.1,0.1-0.2,0.2c-0.1,0.1-0.2,0.1-0.2,0.2c-0.2,0.2-0.2,0.4-0.1,0.5c0,0.1,0,0.1,0.1,0.2c0.1,0,0.1,0.1,0.2,0.1
							c0.1,0,0.4-0.1,1.1-1c0.5-0.6,0.9-1,1.2-1.3c1.5-1.6,2.8-2.8,3.6-3.4c0.8-0.6,1.5-1,2-1c0.2,0,0.4,0,0.5,0.1
							c0.1,0.1,0.1,0.2,0.1,0.4c0,0.3-0.2,0.9-1.2,2.4c-0.1,0.2-0.2,0.3-0.3,0.4l-6.3,9.2c0,0,0,0.1,0,0.1c0,0,0,0,0.1,0l3.4-0.3
							c0,0,0,0,0.1,0c3-3.7,5.7-6.8,7.9-9c2.2-2.2,3.7-3.3,4.4-3.3c0.2,0,0.3,0,0.4,0.1c0.1,0.1,0.1,0.2,0.1,0.4
							c0,0.2-0.2,0.8-1.4,2.2c-0.3,0.3-0.5,0.6-0.7,0.9c-1.3,1.6-2.1,2.8-2.5,3.6C45.2,19,45,19.8,45,20.5c0,1,0.2,1.8,0.6,2.5
							c0.4,0.6,1,1,1.7,1c0.5,0,1.2-0.3,2.1-1c0.9-0.7,2-1.7,3.3-3l0.3-0.3c1.9-1.9,2.1-2.4,2.1-2.5C55.2,17.1,55.2,17,55.1,16.9z"
							/>
					</g>
					<path class="st0" d="M42.9,47c0.1,0.2-0.1,0.8-0.1,0.8s-1.1,2.4-1,3.7c0.2,0.2,0.8,0.2,0.8,0.2l0.4,0l0,0.5c0,0,0,0.4,0,0.5
						c0,0.1-0.1,0.6-0.1,0.8c0,0.2,0.1,0.9,0.1,1.2c0,0.3,0,0.7,0,0.7s-0.4,0.5-0.6,0.6c-0.2,0-0.4,0.3-0.3,0.5
						c0.1,0.2,0.8,0.3,1.1,0.1c0.3-0.1,0.5-0.1,0.5-0.1s-0.1,0.2,0.3,0.2c0.4,0,1,0.1,1.1-0.1c0.1-0.2-0.1-1-0.1-1l0.2-0.8
						c0,0,0.2-1.6,0.1-2.1c0.1-0.4,0.1-0.8,0.1-0.8s1.4,0.2,1.6-0.2c0.2-0.4-0.4-3.2-0.9-3.7c0-0.3,0.2-0.5,0.2-0.5s0.4-0.2,0.5-0.5
						c0.1-0.3,0-0.5,0-0.5s0.2-0.3,0.1-0.6c-0.1-0.3-0.4-0.9-0.4-0.9s0-0.7-0.6-0.7c0.2-0.1,0.1-0.5-0.1-0.7c-0.2-0.2-0.2,0,0.2-1
						c0.5-1.1-0.3-1.7-0.6-1.8c-0.2-0.2-1.9-0.7-2.2,0.4c-0.1,0.3,0.1,0.4,0.1,0.4s0,0.3-0.1,0.3c-0.1,0.1-0.1,0.1-0.2,0.2
						c-0.1,0-0.1,0.2,0,0.3c0,0-0.1,0.1-0.1,0.1s0.1,0.1,0.1,0.1c0,0-0.1,0.1-0.1,0.1s0,0.1,0,0.1c0.1,0.1,0,0.2,0.1,0.3
						c0.2,0.3,0.6,0.4,0.7,0.7c0,0-0.2,0.1-0.3,0.2c0,0-0.3,0-0.5,0.2c-0.2,0.1-0.6,0.4-0.4,0.8c0,0.2-0.1,0.4-0.1,0.4
						s-0.1,0.2,0.1,0.3c0,0,0,0.2-0.1,0.2L42.9,47z M44.5,54c0,0.2,0,0.8,0,0.8l-0.1,0.3c0,0-0.1,0.7-0.2,0.8
						c-0.1,0.1-0.1-0.3-0.1-0.4c0-0.1,0.1-0.4,0-0.4c0-0.2,0-0.5,0-0.5s0.2-0.9,0.1-1.2c-0.1-0.3-0.1-0.7-0.1-0.7l0-0.9l0.2,0l0,0.6
						l0.1,0.4C44.3,52.8,44.5,53.8,44.5,54z"/>
					<path class="st0" d="M30.9,27.3c0.1-1.2-1-3.5-1-3.5s-0.2-0.6-0.1-0.8L30,22c0,0,0-0.2,0-0.2c0.2-0.1,0.1-0.3,0.1-0.3
						s-0.1-0.2-0.1-0.4c0.2-0.5-0.2-0.7-0.4-0.8c-0.2-0.1-0.4-0.1-0.5-0.2c0,0-0.3-0.2-0.3-0.2c0.1-0.3,0.5,0.1,0.8-0.1
						c0.2-0.1,0.1-0.2,0.2-0.2c0,0,0.1-0.1,0.1-0.1s0-0.1,0-0.1c0,0,0.1-0.1,0.1-0.1s0-0.1,0-0.1c0.2,0,0.2-0.2,0.1-0.2
						c-0.1-0.1-0.1-0.1-0.1-0.2c-0.1-0.1,0.1-0.3,0.1-0.3s0.2,0,0.2-0.3c0.2-1.1-1.3-1.3-1.6-1.2c-0.3-0.1-1.4,0.1-1.4,1.2
						s-0.1,1.3-0.4,1.5c-0.2,0.1-0.3,0.6-0.1,0.7c-0.5,0-0.5,0.6-0.5,0.6S26,21.7,26,21.9c-0.1,0.3,0.1,0.6,0.1,0.6S26,22.7,26,23
						c0.1,0.3,0.5,0.5,0.5,0.5s0.2,0.2,0.2,0.5c-0.5,0.5-1,3.2-0.8,3.6"/>
					<path class="st0" d="M28.5,26.1l-2.6,0.4c0.1,0.4,1.5,0.4,1.5,0.4s0,0.4,0.1,0.7c-0.2,0.5-0.2,2-0.2,2l0.1,0.7
						c0,0-0.3,0.8-0.2,1c0.1,0.2,0.7,0.2,1,0.2c0.3,0,0.3-0.2,0.3-0.2s0.2,0,0.5,0.2c0.2,0.2,0.9,0.1,1,0c0.2-0.2,0-0.5-0.2-0.5
						c-0.2,0-0.5-0.6-0.5-0.6s0-0.4,0.1-0.7c0.1-0.3,0.2-1,0.2-1.2c0-0.2,0-0.7,0-0.8c0-0.1,0-0.4,0-0.4l0.1-0.4l0.4,0
						c0,0,0.5,0.1,0.8-0.1L28.5,26.1z M28.4,27.8l0.1-0.4l0.1-0.6l0.2,0l-0.1,0.9c0,0,0,0.4-0.2,0.7c-0.1,0.3,0,1.2,0,1.2
						s-0.1,0.3-0.1,0.5c-0.1,0,0,0.3,0,0.4c0,0.1,0,0.4-0.1,0.3c-0.1-0.1-0.1-0.8-0.1-0.8l0-0.3c0,0,0.1-0.5,0-0.8
						C28.2,28.7,28.4,27.8,28.4,27.8z"/>
				</g>
				<path class="st0" d="M42.2,16.5"/>
			</g>
		</g>
	</g>
	<g>
		<path class="st0" d="M82,15.5c-0.5-0.2-0.8-0.3-1.4-0.4c-0.5-0.1-0.9-0.3-1.4-0.5c-1-0.3-2-0.8-2.9-1.2c-1-0.5-1.9-1.1-2.8-1.7
			c-0.2-0.1-0.4-0.3-0.7-0.5c-0.3-0.2-0.3-0.2-0.7-0.1c-0.6,0.2-1.2,0.3-1.8,0.6c-0.8,0.4-2.2,0.3-3,0c-0.5-0.2-1-0.4-1.5-0.7
			c-0.4-0.2-0.7-0.7-1-1c-0.7-0.9-1.1-2-1-3.1c0-0.3-0.1-0.5-0.1-0.8c-0.1-0.3-0.3-0.4-0.6-0.5c-0.4-0.3-0.9-0.5-1.4-0.8
			c-1.8-1-3.9-1.8-5.9-2.5c-2.2-0.7-4.3-1.3-6.6-1.7c-1-0.2-2.1-0.3-3.1-0.4C45.1,0.1,44-0.1,42.9,0c-2.2,0.2-4.4,0.1-6.6,0.3
			c-2.2,0.2-4.4,0.5-6.5,1.1c-2.1,0.6-4.2,1.2-6.3,2.1c-1,0.4-1.9,0.8-2.8,1.3c-0.5,0.3-1,0.5-1.6,0.8c-0.5,0.3-0.5,1-0.5,1.5
			c0,1.1-0.4,2.1-1.1,3c-0.7,0.8-1.6,1.5-2.6,1.7c-1.1,0.3-2.2,0.3-3.2-0.2c-0.4-0.2-0.9-0.6-1.4-0.5c-0.6,0.1-1,0.5-1.5,0.8
			c-1.8,1.2-3.7,2.2-5.8,2.8c-0.5,0.1-2.3,0.7-2.8,0.8C0.2,15.6,0,15.8,0,15.8v39.8c0,0.5,0.2,0.7,0.5,1c0.1,0.1,1.3,0.3,1.6,0.4
			c0.5,0.2,1,0.3,1.5,0.5c0.6,0.2,1.1,0.4,1.7,0.6c0.5,0.2,1,0.4,1.4,0.7c0.9,0.6,1.8,1.1,2.7,1.6c0.3,0.2,0.6,0.3,0.9,0.5
			c0.3,0.2,0.4,0.1,0.7-0.1c0.5-0.3,0.9-0.5,1.5-0.6c1-0.2,2.2-0.1,3.1,0.2c1,0.4,2,1.2,2.5,2.2c0.2,0.5,0.5,0.9,0.5,1.5
			c0,0.2,0.1,0.4,0.1,0.6c0,0.4,0,0.7,0,1.1c0,0.5,0.8,0.8,1.1,0.9c0.5,0.3,1,0.5,1.5,0.8c0.9,0.5,1.9,0.9,2.9,1.3
			c1,0.4,2.1,0.8,3.1,1.1c2.1,0.6,4.2,1.1,6.3,1.4c2.1,0.3,4.3,0.6,6.4,0.6c2.2,0,4.5,0.1,6.7-0.1c2.3-0.2,4.5-0.7,6.7-1.3
			c0.3-0.1,2.5-0.7,3-0.9c1-0.5,2-0.8,3-1.2c1-0.5,2-0.9,3-1.4c0.6-0.3,0.9-0.6,1.4-1.1c0.1-0.2,0.1-1.3,0.2-1.5
			c0.2-1.1,0.7-2.1,1.5-3c0.4-0.4,0.8-0.6,1.3-0.9c0.2-0.1,0.5-0.1,0.7-0.3c0.2-0.1,0.5-0.2,0.7-0.2c1.2-0.1,2.2,0.1,3.2,0.7
			c0.2,0.1,0.5,0.2,0.7,0.3c0.2,0.1,0.6-0.3,0.7-0.4c0.4-0.3,0.8-0.6,1.3-0.9c0.9-0.6,1.9-1.2,2.9-1.6c1.1-0.5,2-0.8,3.1-1.2
			c0.5-0.2,1.7-0.1,1.7-0.9c0-0.4,0-0.9,0-1.3c0-2.1,0-34.6,0-39C81.9,15.8,82.1,15.6,82,15.5z M78.9,54.3c-2,0.7-3.8,1.5-5.7,2.6
			c-0.5,0.3-0.9,0.8-1.4,0.8c-0.5,0-1-0.2-1.5-0.3c-1.2-0.2-2.2-0.2-3.4,0.1c-2,0.5-4,1.9-5,3.8c-0.2,0.5-0.5,1-0.6,1.5
			c-0.1,0.3-0.1,0.6-0.2,0.9c0,0.2,0,0.6-0.1,0.7c-0.1,0.1-0.5,0.3-0.6,0.3c-0.3,0.1-0.5,0.3-0.8,0.4c-0.5,0.2-1,0.4-1.5,0.7
			c-0.2,0.1-2.5,0.9-3,1.1c-0.5,0.2-2.7,0.8-3.2,1c-1,0.3-2.1,0.5-3.2,0.6c-1.1,0.2-2.1,0.4-3.2,0.4c-2.1,0.1-4.2,0.1-6.3,0
			c-2.2-0.1-4.4-0.3-6.6-0.8c-2.1-0.4-4.2-1.1-6.3-1.7c-1.1-0.3-2-0.8-3-1.3c-0.5-0.2-1-0.5-1.5-0.7c-0.4-0.2-0.5-1.1-0.5-1.4
			c-0.3-1.1-0.7-2.1-1.4-3c-0.7-0.8-1.6-1.5-2.5-2.1c-1.9-1.1-4.3-1.2-6.4-0.5c-0.4,0.1-0.4,0.1-0.8,0c-0.3-0.1-0.5-0.3-0.8-0.4
			c-0.4-0.3-3.3-1.8-4.3-2.2c-0.5-0.2-1.1-0.4-1.7-0.5C3.3,54.4,3,54.3,3,54.1c0-0.5,0-35.9,0-36.4c1-0.2,2.3-0.7,3.3-1.2
			c0.9-0.4,1.9-0.9,2.8-1.4c0.2-0.1,1.2-0.8,1.4-0.8c0.5,0,1.1,0.2,1.6,0.4c1.1,0.3,2.3,0.2,3.3,0c0.5-0.1,0.8-0.2,1.3-0.5
			c0.6-0.3,1.2-0.6,1.8-1c0.9-0.5,1.5-1.5,2.1-2.3c0.3-0.4,0.5-1,0.7-1.4c0.1-0.3,0.1-0.5,0.2-0.8c0-0.2,0-0.6,0.2-0.8
			c0.2-0.2,0.3-0.4,0.6-0.6c0.2-0.1,0.5-0.2,0.8-0.4c0.6-0.2,1.1-0.5,1.7-0.7c2-0.8,4-1.5,6.1-2c1-0.3,5.4-1.1,6.5-1.1
			c0.5,0,2.7-0.2,3.2-0.2c1.1,0,3.8,0,4.1,0c0.3,0,1.9,0.1,2.5,0.2c0.5,0.1,2.5,0.3,2.9,0.5C50.8,3.9,51.9,4,53,4.3
			C54,4.6,55,5,56.1,5.3c0.5,0.2,2.5,1,2.9,1.2c0.5,0.3,1,0.5,1.5,0.7c0.3,0.1,0.5,0.2,0.5,0.5c0.1,0.3,0.1,0.6,0.2,0.9
			c0.2,1,0.8,2.1,1.3,2.9c0.6,0.9,1.5,1.7,2.4,2.2c1.9,1.1,4.3,1.4,6.4,0.7c0.6-0.2,0.9-0.1,1.4,0.2c0.4,0.3,0.9,0.6,1.4,0.8
			c0.9,0.6,3.7,1.8,4.2,1.9c0.2,0.1,0.7,0.2,0.7,0.6C78.9,18.5,78.9,53.7,78.9,54.3z"/>
	</g>
</g>
</svg>
