<svg enable-background="new -333.5 300.5 78 40" height="40" viewBox="-333.5 300.5 78 40" width="78" xmlns="http://www.w3.org/2000/svg"><g fill="#603813"><path d="m-308.3 300.7h1.699v9.1h-1.3c-.6-1.3-1.3-2.5-2.1-3.5-.7-1-1.5-1.899-2.4-2.5-.8-.7-1.7-1.2-2.6-1.5s-1.9-.5-3-.5c-1.4 0-2.7.3-3.9 1-1.2.601-2.2 1.5-3 2.7-.7 1.1-1.3 2.5-1.8 4.2s-.7 3.5-.7 5.5c0 2.7.5 5.1 1.4 7.2.899 2.1 2.2 3.699 3.8 4.898 1.6 1.2 3.5 1.801 5.5 1.801 1.3 0 2.5-.199 3.7-.601 1.2-.399 2.3-1.101 3.399-1.899 1.101-.899 2.101-1.899 3-3.199l1.2.699c-1.5 2.199-3.399 3.899-5.6 5s-4.601 1.699-7.5 1.699c-2.2 0-4.2-.398-6-1.1-1.8-.801-3.4-1.801-4.8-3.2-1.301-1.399-2.4-3-3.101-4.8-.6-2-1-3.9-1-5.9 0-2.199.4-4.199 1.2-6.1.7-1.9 1.8-3.5 3.2-4.9 1.399-1.4 3-2.4 4.8-3.1 1.8-.801 3.7-1.1 5.8-1.1.8 0 1.5.1 2.101.199.699.1 1.5.301 2.399.5.9.2 1.5.4 1.9.5.3.1.7.1 1.1.1 1.003.003 1.903-.397 2.603-1.197zm-14.301.9c-2.1.9-3.899 1.801-5.199 2.9-.801.7-1.5 1.4-2.101 2.3-.6.9-1.1 1.7-1.5 2.601-.399.899-.7 1.899-1 3-.2 1.1-.3 2.1-.3 3.1 0 2.5.5 4.7 1.5 6.8 1 2.101 2.5 3.8 4.5 5.2s4.4 2.2 7.2 2.5c-1.8-.5-3.5-1.2-5-2.1s-2.8-2-3.8-3.301-1.801-2.699-2.4-4.201c-.5-1.5-.7-3.1-.7-4.799 0-1.4.2-2.801.7-4.301s1.1-2.8 1.9-4c.899-1.3 1.899-2.4 2.8-3.199.9-.8 2.101-1.6 3.4-2.5zm13.5 4.3-.1-3.5c-.6.3-1.3.399-2 .399-.3 0-.7 0-1-.1.7.5 1.3 1 1.7 1.5.501.601 1.001 1.201 1.4 1.701z"/><path d="m-298.7 314.2c0 .1.1.3.3.6s.3.7.3 1c0 .601-.199 1.101-.699 1.601s-1.101.699-1.801.699c-.699 0-1.3-.199-1.699-.5-.4-.399-.601-.8-.601-1.3 0-.7.3-1.399 1-2.1s1.601-1.2 2.9-1.7c1.2-.4 2.5-.6 4-.6 1.1 0 2.1.199 3 .6s1.7.9 2.2 1.7.8 1.7.8 2.7v10.4c0 .8.2 1.3.7 1.3.3 0 .601-.199 1-.699l.8.899c-.699.7-1.3 1.2-1.9 1.5s-1.199.5-2 .5c-.898 0-1.6-.2-2.1-.6s-.9-1-1.1-1.9c-1.9 1.601-3.801 2.4-5.601 2.4-1.3 0-2.4-.3-3.1-1s-1.2-1.601-1.2-2.601c0-.899.2-1.699.7-2.399s1.1-1.3 1.899-1.8 1.9-1.2 3.4-1.9c1.5-.8 2.7-1.5 3.7-2v-3.1c0-.9-.2-1.601-.601-2.101s-1.1-.7-1.899-.7c-.7 0-1.301.101-1.7.4-.498.101-.698.401-.698.701zm1.3 15.5c-1.2 0-2.2-.3-3-.8s-1.1-1.2-1.1-2.2c0-.7.2-1.4.5-2 .399-.601.899-1.3 1.6-2.101-1.1.601-2 1.301-2.6 2-.601.699-.9 1.5-.9 2.399 0 .8.4 1.5 1.101 2.101.699.601 1.5.801 2.399.801.9 0 1.6-.1 2-.2zm-1.9-13c-.5 0-.9-.101-1.101-.3-.2-.2-.399-.5-.399-.801 0-.399.1-.8.3-1.1s.6-.8 1.2-1.4c-1 .5-1.7 1-2.2 1.5s-.8 1-.8 1.7c0 .3.1.5.399.8.3.2.601.4 1 .4.701-.199 1.201-.399 1.601-.799zm5.5 10.1v-6.6c-1.801 1-3 1.899-3.7 2.7-.7.8-1 1.8-1 2.898 0 .801.2 1.301.6 1.7s.9.601 1.4.601c1 .001 1.8-.399 2.7-1.299zm.7-9.7v8.101c0 1.6.199 2.8.5 3.6.3.8 1 1.2 2 1.2.5 0 .8-.1 1.1-.2-.8-.1-1.4-.5-1.699-1-.301-.5-.5-1.399-.5-2.5v-9.401c0-1.4-.201-2.4-.601-2.9s-1.101-.9-2.101-1c.5.3.9.7 1.101 1.2s.2 1.5.2 2.9z"/><path d="m-282.6 327.1v-13.5h-2.9v-1.4h2.9v-2.8c0-1.801.3-3.301 1-4.7.6-1.3 1.5-2.3 2.699-3 1.2-.7 2.601-1.101 4.2-1.101.899 0 1.8.101 2.5.4.699.3 1.199.7 1.5 1.1.3.5.5 1 .5 1.5 0 .601-.2 1.2-.7 1.7-.399.5-1 .7-1.699.7-.601 0-1.101-.2-1.5-.7-.4-.5-.601-1-.601-1.5 0-.1 0-.3 0-.399 0-.101 0-.2 0-.4 0-.4-.101-.8-.399-1-.301-.2-.601-.4-1-.4-.601 0-1 .301-1.4.9-.3.6-.5 1.4-.5 2.5v7.1h3.801v1.4h-3.801v13.3c0 .5.1 1 .2 1.3.2.301.399.5.8.602.4.1.9.199 1.6.199h.701v1.101h-10.601v-1.102c.899 0 1.601-.199 2-.399.5-.201.7-.701.7-1.401zm.7-17.7v17.6c0 .9-.398 1.6-1.1 2.1 1.6 0 2.4-.699 2.4-2.1v-17.6c0-1.601.199-3 .5-4.101.3-1.1.899-2.2 1.6-3.3-1.199.8-2 1.8-2.6 3-.6 1.201-.8 2.701-.8 4.401zm7.3-7.6c.399.4.5.8.6 1.3 0 .301.1.5.1.801 0 .3.102.5.201.8s.199.399.399.5c.2.1.5.2.8.2.7 0 1.2-.4 1.6-1.101-.399.101-.6.2-.799.2-.5 0-.9-.3-1.201-.8-.398-.8-.6-1.3-.799-1.4 0-.2-.401-.4-.901-.5z"/><path d="m-256.4 325 .801.6c-.6 1.102-1.301 2.102-2.199 2.801s-1.801 1.301-2.801 1.601-2.1.5-3.199.5c-1.5 0-2.898-.399-4.2-1.101-1.3-.699-2.3-1.801-3.101-3.101-.801-1.399-1.1-2.899-1.1-4.7 0-1.398.199-2.699.699-3.898.5-1.2 1.1-2.301 1.9-3.2s1.8-1.601 2.8-2.101c1.101-.5 2.2-.799 3.399-.799 1.2 0 2.399.299 3.5.799s2 1.201 2.7 2.101c.5.7.8 1.3 1 2 .199.7.399 1.5.5 2.5h-12.299c.1 1.399.301 2.601.7 3.601s1 1.801 1.7 2.399c.699.601 1.399 1 2.199 1.3.801.301 1.5.4 2.2.4 1.801.198 3.301-.502 4.801-1.702zm-11.299-11.1c-2.601 2-3.801 4.699-3.801 8 0 2.398.801 4.3 2.301 5.8s3.299 2.3 5.299 2.3c1.201 0 2.301-.2 3.5-.7 1.201-.5 2.201-1.2 3-2.1-.799.5-1.699 1-2.6 1.3s-1.9.5-3.1.5c-2 0-3.7-.7-5.101-2.1-1.399-1.4-2-3.301-2-5.602 0-1.4.199-2.699.699-3.9.502-1.198 1.002-2.398 1.803-3.498zm-.201 4h7.201v-.7c0-.8-.101-1.5-.4-2.101-.301-.6-.699-1.1-1.199-1.399s-1.102-.5-1.7-.5c-1 0-1.899.5-2.601 1.399-.801.901-1.201 2.001-1.301 3.301zm7.8 0h1.399c0-1.5-.399-2.7-.899-3.4-.601-.7-1.601-1.2-3-1.5.899.4 1.5.9 1.899 1.5s.601 1.6.601 2.9z"/></g></svg>