<svg version="1.1" id="" xmlns="http://www.w3.org/2000/svg" xmlns:xlink="http://www.w3.org/1999/xlink" x="0px"
	 y="0px" width="106px" height="25px" viewBox="0 -5 106 25" style="enable-background:new 0 -5 106 25;" xml:space="preserve">
<style type="text/css">
<![CDATA[
	.st0{fill:#FFFFFF;}
]]>
</style>
<g>
	<g>
		<path class="st0" d="M6.5,15.4H0v-0.9h0.4c1.4,0,1.6-0.3,1.6-2V2.9c0-1.7-0.2-1.9-1.6-2H0V0h6.5v0.9H6.1C4.7,1,4.5,1.2,4.5,2.9
			v9.6c0,1.7,0.2,2,1.6,2h0.4V15.4z"/>
		<path class="st0" d="M12.5,6.9C13.6,5.6,14.8,5,16,5c1,0,1.8,0.5,2.3,1.3c0.3,0.6,0.4,1.2,0.4,2.3V13c0,1.4,0.1,1.6,1.3,1.7v0.8
			h-4.7v-0.8c1.2-0.1,1.3-0.2,1.3-1.7V9c0-1.7-0.5-2.4-1.7-2.4c-0.8,0-1.7,0.4-2.5,1.2v5.1c0,1.4,0.1,1.6,1.3,1.7v0.8H8.9v-0.8
			c1.4,0,1.5-0.2,1.5-1.7V8.5c0-1.4-0.3-1.7-1.5-1.8V6.1L12.5,5V6.9z"/>
		<path class="st0" d="M23,11.8c1.2,1.9,2.6,2.9,4.2,2.9c1,0,1.7-0.7,1.7-1.5c0-0.9-0.5-1.3-2.4-1.7c-2.6-0.6-3.9-1.7-3.9-3.4
			C22.6,6.4,24,5,25.7,5c0.3,0,0.6,0,1.1,0.2c0.4,0.1,0.6,0.2,0.7,0.2c0.2,0,0.6-0.1,1.5-0.4l1.1,3.2l-0.7,0.4
			c-0.2-0.4-0.4-0.6-0.7-1c-1.1-1.2-2-1.7-3-1.7S24,6.4,24,7.3C24,8,24.5,8.7,26.5,9c2.6,0.4,3.9,1.6,3.9,3.4c0,1.8-1.5,3.3-3.2,3.3
			c-0.4,0-0.8-0.1-1.4-0.3c-0.4-0.1-0.5-0.2-0.6-0.2c-0.2,0-0.6,0.1-1.8,0.4l-1.2-3.5L23,11.8z"/>
		<path class="st0" d="M36,12.1c0,1.8,0.3,2.3,1.3,2.3c0.5,0,0.9-0.2,1.6-0.8l0.6,0.5c-0.8,1.1-1.9,1.7-3.1,1.7
			c-0.9,0-1.8-0.4-2.1-1c-0.3-0.5-0.4-1-0.4-2V6.3h-1.4V5.5C34.1,5,34.8,4,35.1,1.9H36v3.4h2.8v1H36V12.1z"/>
		<path class="st0" d="M51.1,14.5c-0.8,0.9-1.4,1.2-2,1.2c-0.7,0-1.2-0.4-1.6-1.4c-1.3,1-2.2,1.4-3.2,1.4c-1.6,0-2.8-1.1-2.8-2.6
			c0-1.3,0.9-2.4,2.7-3.2c0.7-0.3,1.6-0.6,3.3-1V7.8c0-1.4-0.4-1.9-1.4-1.9c-0.8,0-1.3,0.4-1.6,1.3c-0.3,0.9-0.7,1.3-1.3,1.3
			C42.5,8.5,42,8,42,7.3C42,6,43.7,5,46.1,5c1.5,0,2.6,0.5,3.1,1.3c0.2,0.4,0.3,0.9,0.3,1.7v4.6c0,1.5,0.1,1.7,0.5,1.7
			c0.2,0,0.4-0.1,0.6-0.3L51.1,14.5z M47.4,9.8c-2.6,0.7-3.6,1.6-3.6,3c0,0.9,0.5,1.6,1.3,1.6c0.9,0,1.6-0.3,2.3-1V9.8z"/>
		<path class="st0" d="M53.5,13.5c0-0.7,0.8-1.4,2-1.8c-1.3-0.6-2.1-1.7-2.1-3.1c0-2,1.8-3.7,4.1-3.7c0.8,0,1.5,0.2,2.3,0.6
			C60.5,4.6,61.3,4,62,4c0.5,0,1,0.5,1,1.1c0,0.5-0.4,1-0.9,1c-0.2,0-0.4-0.1-0.7-0.3c-0.2-0.1-0.4-0.2-0.5-0.2
			c-0.2,0-0.3,0.1-0.5,0.3c0.9,0.7,1.4,1.7,1.4,2.7c0,2.2-2.1,3.6-4.2,3.6c-0.5,0-1.1-0.1-1.5-0.2c-0.5,0.2-0.8,0.4-0.8,0.7
			c0,0.4,0.2,0.4,3.7,0.9c2.6,0.4,3.7,1.2,3.7,2.8c0,1.9-1.9,2.9-5.4,2.9c-2.9,0-4.6-0.8-4.6-2c0-1,1.1-1.8,3-2.2
			C54.3,14.9,53.5,14.3,53.5,13.5z M56.5,15.3c-1.5,0.7-1.9,1.1-1.9,1.8c0,0.9,1,1.4,2.9,1.4c2.4,0,3.6-0.5,3.6-1.4
			c0-0.6-0.8-1.2-2.2-1.4L56.5,15.3z M57.7,11.5c1.2,0,2-1.2,2-2.8c0-1.8-0.8-2.9-2.1-2.9c-1.3,0-2,1.1-2,3
			C55.6,10.5,56.4,11.5,57.7,11.5z"/>
		<path class="st0" d="M69.1,7.6C70.2,5.8,71.2,5,72.4,5c0.8,0,1.3,0.6,1.3,1.4c0,0.7-0.6,1.4-1.2,1.4c-0.2,0-0.4-0.1-0.7-0.3
			c-0.4-0.2-0.6-0.3-0.8-0.3c-0.6,0-1,0.4-1.9,1.5V13c0,1.5,0.2,1.7,1.6,1.7h0.4v0.8h-5.7v-0.8h0.1c1.3,0,1.5-0.2,1.5-1.7V8.6
			c0-1.5-0.2-1.8-1.5-1.8V6.1L69.1,5V7.6z"/>
		<path class="st0" d="M85.2,14.5c-0.8,0.9-1.4,1.2-2,1.2c-0.7,0-1.2-0.4-1.6-1.4c-1.3,1-2.2,1.4-3.2,1.4c-1.6,0-2.8-1.1-2.8-2.6
			c0-1.3,0.9-2.4,2.7-3.2c0.7-0.3,1.6-0.6,3.3-1V7.8c0-1.4-0.4-1.9-1.4-1.9c-0.8,0-1.3,0.4-1.6,1.3c-0.3,0.9-0.7,1.3-1.3,1.3
			C76.5,8.5,76,8,76,7.3C76,6,77.8,5,80.2,5c1.5,0,2.6,0.5,3.1,1.3c0.2,0.4,0.3,0.9,0.3,1.7v4.6c0,1.5,0.1,1.7,0.5,1.7
			c0.2,0,0.4-0.1,0.6-0.3L85.2,14.5z M81.5,9.8c-2.6,0.7-3.6,1.6-3.6,3c0,0.9,0.5,1.6,1.3,1.6c0.9,0,1.6-0.3,2.3-1V9.8z"/>
		<path class="st0" d="M90.7,5v1.9c1.1-1.2,2.2-1.8,3.4-1.8c1.2,0,1.9,0.5,2.6,1.8c1.1-1.2,2.3-1.8,3.5-1.8c1,0,1.9,0.5,2.3,1.3
			c0.3,0.5,0.4,1.1,0.4,1.9v4.6c0,1.4,0.1,1.6,1.3,1.7v0.8h-4.7v-0.8c1.2-0.1,1.3-0.2,1.3-1.7V8.7c0-0.5-0.1-1-0.3-1.4
			c-0.2-0.4-0.8-0.7-1.4-0.7c-0.7,0-1.5,0.4-2.4,1.1v5.2c0,1.4,0.1,1.6,1.3,1.7v0.8h-4.7v-0.8c1.2-0.1,1.3-0.2,1.3-1.7V8.8
			c0-1.5-0.5-2.2-1.5-2.2c-0.7,0-1.5,0.4-2.5,1.2v5.1c0,1.4,0.1,1.6,1.3,1.7v0.8H87v-0.8l0,0c1.3,0,1.4-0.2,1.4-1.7V8.6
			c0-1.5-0.2-1.7-1.5-1.8V6.1L90.7,5z"/>
	</g>
</g>
</svg>
