<svg version="1.1" id="" xmlns="http://www.w3.org/2000/svg" xmlns:xlink="http://www.w3.org/1999/xlink" x="0px"
	 y="0px" width="111px" height="25px" viewBox="0 -5 111 25" style="enable-background:new 0 -5 111 25;" xml:space="preserve">
<style type="text/css">
<![CDATA[
	.st0{fill:#FFFFFF;}
]]>
</style>
<g>
	<g>
		<path class="st0" d="M10.9,4l-0.6,0.3c-0.7-1.2-1.5-2-2.5-2.6C7.2,1.4,6.5,1.3,5.6,1.3c-1.3,0-1.7,0.3-1.7,1.6v3.7h0.6
			c1.9,0,2.8-0.6,3-2.2h0.7v5.3H7.4c-0.2-1.7-1-2.3-3-2.3H3.9v3.9c0,1.5,0.2,1.7,1.4,1.7h0.5v0.8H0V13h0.3c1.2,0,1.4-0.3,1.4-1.7
			V2.9c0-1.5-0.2-1.7-1.4-1.7H0V0.5h9.7L10.9,4z"/>
		<path class="st0" d="M18.2,0l3.5,11.3c0.5,1.5,0.6,1.7,1.8,1.7v0.8h-5.2V13h0.4c0.7,0,1.1-0.2,1.1-0.6c0-0.2-0.1-0.6-0.2-1L19,9.3
			h-4.5L13.9,11c-0.1,0.4-0.2,0.7-0.2,1c0,0.7,0.4,1,1.5,1.1v0.8h-4V13c0.9,0,1.2-0.4,1.8-2.1l3.6-10.3L18.2,0z M18.5,8.3L16.7,2
			l-2.1,6.3H18.5z"/>
		<path class="st0" d="M36.2,10.2c-1.1,2.6-2.8,3.9-5.2,3.9c-3.4,0-5.7-2.6-5.7-6.4c0-4.1,2.7-7.5,5.9-7.5c0.5,0,1,0.1,1.7,0.4
			c0.2,0.1,0.3,0.1,0.5,0.1c0.2,0,0.6-0.1,1.6-0.3L36,4l-0.7,0.3C34.2,2.1,32.8,1,31.2,1c-2.2,0-3.6,2.1-3.6,5.6c0,3.8,1.6,6,4.2,6
			c1.6,0,2.9-1,3.7-2.7L36.2,10.2z"/>
		<path class="st0" d="M49.9,10.2l-1.2,3.5H38.6V13H39c1.2,0,1.4-0.3,1.4-1.7V2.9c0-1.5-0.2-1.7-1.4-1.7h-0.3V0.5h9.8l1.1,3.4
			L49,4.2c-1.4-2-2.8-2.9-4.7-2.9c-1.3,0-1.7,0.3-1.7,1.6v3.6h0.6C45,6.5,45.6,6,46,4.3h0.7v5.3H46c-0.2-1.7-1-2.3-2.9-2.3h-0.6v4
			c0,1.3,0.3,1.6,1.5,1.6c1.6,0,2.8-0.4,3.6-1.2c0.6-0.5,1-0.9,1.7-1.9L49.9,10.2z"/>
		<path class="st0" d="M60.4,0.5c1.7,0,2.8,0.2,3.7,0.6c1.1,0.5,1.7,1.4,1.7,2.5c0,1.5-1.5,2.9-3.5,3.1c2.6,0.3,4.2,1.6,4.2,3.6
			c0,1.2-0.7,2.3-1.7,2.8s-2.1,0.7-3.9,0.7h-5.7V13h0.3c1.2,0,1.4-0.3,1.4-1.7V2.9c0-1.5-0.2-1.7-1.4-1.7h-0.3V0.5H60.4z M59.8,6.3
			c2.8,0,3.8-0.7,3.8-2.7c0-1.7-0.8-2.4-2.7-2.4c-1.3,0-1.7,0.3-1.7,1.4v3.7H59.8z M59.2,11.6c0,0.5,0,0.8,0.2,1
			c0.1,0.2,0.6,0.4,1.2,0.4c2.6,0,3.7-0.9,3.7-2.9c0-1.1-0.5-2.1-1.2-2.5c-0.5-0.3-1.4-0.5-2.5-0.5h-1.3L59.2,11.6L59.2,11.6z"/>
		<path class="st0" d="M74.9,0.2c3.3,0,5.9,3,5.9,7c0,3.9-2.6,7-5.9,7c-3.3,0-5.9-3.1-5.9-7C69,3.2,71.6,0.2,74.9,0.2z M74.9,13.3
			c2.2,0,3.5-2.4,3.5-6.2S77,0.9,74.9,0.9c-2.1,0-3.5,2.4-3.5,6.2S72.7,13.3,74.9,13.3z"/>
		<path class="st0" d="M89.2,0.2c3.3,0,5.9,3,5.9,7c0,3.9-2.6,7-5.9,7s-5.9-3.1-5.9-7C83.3,3.2,85.9,0.2,89.2,0.2z M89.2,13.3
			c2.2,0,3.5-2.4,3.5-6.2s-1.4-6.2-3.5-6.2c-2.1,0-3.5,2.4-3.5,6.2S87.1,13.3,89.2,13.3z"/>
		<path class="st0" d="M107.9,11.6c0.7,1.2,0.9,1.4,2.1,1.4v0.8h-5.4V13h0.3c0.7,0,1.1-0.2,1.1-0.4c0-0.1-0.2-0.4-0.5-0.9l-2.9-4.9
			L101,8.5v2.7c0,1.5,0.2,1.7,1.4,1.7h0.2v0.8h-5.5V13h0.3c1.2,0,1.4-0.3,1.4-1.7V2.9c0-1.5-0.2-1.7-1.4-1.7h-0.3V0.5h5.5v0.7h-0.2
			c-1.2,0.1-1.4,0.2-1.4,1.7v4.4l4.4-4.6c0.4-0.4,0.6-0.7,0.6-0.9c0-0.5-0.3-0.6-1.3-0.6V0.5h4.8v0.7c-1.2,0.1-1.9,0.5-3.2,1.8
			l-2.1,2.1L107.9,11.6z"/>
	</g>
</g>
</svg>
