<svg version="1.1" id="" xmlns="http://www.w3.org/2000/svg" xmlns:xlink="http://www.w3.org/1999/xlink" x="0px"
	 y="0px" width="240px" height="75px" viewBox="0 -9 240 75" style="enable-background:new 0 -9 240 75;" xml:space="preserve">
<style type="text/css">
<![CDATA[
	.st0{fill:#D62418;}
]]>
</style>
<path class="st0" d="M227,21c0.2-0.3,0.4-0.6,0.7-0.9l-0.4-0.2h0.6c0.1-0.2,0.3-0.4,0.4-0.6c0,0-0.1,0.3-0.1,0.9l0.1,0.1h-0.1
	c-0.1,0.5-0.1,1.2-0.2,2c0,0.2,0,0.3-0.1,0.5c0.6-0.2,1.4-0.4,2.1-0.3l-0.6,0.3c1.1,0.3,2.1-0.4,1.5-0.7c0.3,0,0.4,0,0.5,0.1
	c0.1-0.8,0.3-1.6,0.5-2.6c0.8-3.1,1-5.3,0.9-6.6c-0.2-1.3-0.6-1.9-1.4-1.8c-1,0.1-2,0.8-3,1.9l0.4,0.1l-0.6,0.1
	c-0.3,0.3-0.5,0.7-0.9,1.2c0.9-0.2,1.1,0.3,2,0.4c0.8-0.1,1.6-0.3,2.2-0.4c-1.1,0.4-1.7,0.4-2.2,0.4c-0.9,0.1-1.8,0.2-2.3,0.1
	c-0.5,0.7-1,1.6-1.6,2.6c-1.2,2-2.1,3.4-2.8,4.3c-0.1-0.1-0.2-0.2-0.2-0.4c-0.1-0.4,0.2-1.6,0.6-3.5c0.4-1.8,0.5-3.1,0.3-3.8
	c-0.1,0-0.3-0.1-0.9-0.4c-0.4-0.2-0.7-0.2-0.8-0.2c-0.7,0.1-1.9,0.9-2,1.6c-0.3,2-0.7,4.9-1.1,8.5c-0.4,3.6-0.5,5.4-0.5,5.7
	c0,0.2,0.3,0.4,0.8,0.9s1,0.7,1.4,0.6c0.4-0.1,1.4-0.8,1.8-0.9c0.5-1.4,1.5-3.4,3.1-5.8c0.1-0.2,0.2-0.3,0.3-0.5
	c-0.7,0-1.5,0.1-1.9,0.3l1.2,0.2l-1.8,0.2c0.3,0,0.6-0.3-0.1-0.5c1.2,0,1.1-0.8,1.8-0.3l0.2-0.4v-0.1v0.1c0.1,0.1,0.4,0.2,0.9,0.2
	c0.1-0.2,0.3-0.5,0.5-0.7c-0.2-0.1-0.5,0-1,0.2c0.2-0.1,0.6-0.2,1-0.2c0.3-0.4,0.6-0.8,0.9-1.3c-0.4,0.1-0.8,0.2-1,0.4
	C225.8,21.4,226.5,21.2,227,21z M229.6,12.7l1.7,0.2C230.3,13.2,229.8,12.9,229.6,12.7z M218.9,29.3c0,0.1,0,0.2-0.1,0.3
	c0.1,0.1,0.1,0.1-0.3,0.2c0.1-0.1,0.2-0.1,0.3-0.2c-0.2-0.2-0.8-0.3,0.4-0.4L218.9,29.3z M221.5,15.2c0.2,0,0.8-0.2,1,0
	c0,0.1-0.1,0.2-0.4,0.3L221.5,15.2z M235.2,28.9c-0.8,0.3-2.6,0.2-2.8,0.7c-0.1-0.5-1.8,0.3-2.7,0c0.7-0.5-0.8-0.5-1-0.6
	c0.7-0.5-0.7-0.7,0.9-1.1c1,0.1,1.1,0.5,2.1,0.5c0.1-0.1,0.2-0.2,0.4-0.2c-0.6-0.3-1-1.1-1.2-2.3l-1.9,0.3c0.1-0.4-0.9-1.1,1.2-1.3
	c1.6,0.1-0.7,0.8,0.7,0.9l0,0c-0.1-0.5,0-1.3,0.1-2.4c-1.2,0-2.3,0.1-2.9,0.2l-0.4-0.1c-0.1,1.4-0.1,2.5,0,3.1c0.4,1.9,1.1,3.2,2,4
	c0.2,0,0.4-0.1,0.5-0.1c-0.9,0.7,1.8-0.2,1.2,0.3c1.3-0.1,4.2-0.1,3.8-0.7h0.2c0.1-0.1,0.3-0.3,0.4-0.4c-0.3-0.1-0.6-0.2-1.1-0.2
	c0.5-0.1,1-0.1,1.5-0.1c0.1-0.1,0.2-0.3,0.3-0.4C236,29.1,235.4,29.2,235.2,28.9z M231.2,22.4c0,0.1-0.1,0.2-0.1,0.2h0.1
	C231.2,22.6,231.2,22.5,231.2,22.4z M163.6,41.2c0.2,0.1,0.3,0.1,0.5,0.2l-0.1-0.2C163.9,41.2,163.8,41.2,163.6,41.2z M164.8,41.5
	C164.9,41.5,164.9,41.5,164.8,41.5L164.8,41.5L164.8,41.5z M238.2,25.1c-1.7,1.3-2.9,2.2-3.8,2.8c0.7-0.1,1.3-0.2,1.9-0.5l1.2,0.5
	c0.6-0.8,1-1.5,1.2-2.2C238.9,25.3,238.4,25.3,238.2,25.1z M36,38l-1.1-0.1l0.3-0.1c-0.9-0.3-1.4,0.2-2.3,0.3
	c0.9-0.3,1.5-0.6,2.6-0.7c-0.1-0.1-0.1-0.2-0.2-0.2c-0.7-0.1-1.5-0.2-2.3-0.3L32.8,37v-0.1c-0.3,0-0.5,0-0.8-0.1
	c0.3,0,0.7,0,0.8,0.1c0.1,0,0.2,0,0.2,0l1.3-0.6c-0.1-0.1-0.3-0.2-0.4-0.3c-1.3-0.7-3-1.4-5.3-1.9c-1.6-0.3-3.3-0.5-4.9-0.8
	c1.4-1.4,2.8-2.9,4.2-4.3c2.1-2.4,3.1-4.4,2.9-6c-0.3-1.9-1.6-3.3-4.2-4.4c-2.2-0.9-4.2-1.3-6-1.1c-0.2,0-0.6,0-1.3-0.1
	c-0.7-0.1-1.1-0.1-1.4-0.1C5.4,19.1-0.5,22.1,0,26.3c0,0.1,0.1,0.2,0.1,0.3C1,26.7,0.8,26.9,1,27.3c1.6-0.4,1.9-0.5,2.7-0.4
	c-0.6,0.2-1.3,0.2-0.9,0.4c0.7-0.1,2.3-0.2,1.9-0.6C4.9,27,5.3,27,5.8,27c0-0.7-0.1-1.3-0.1-1.9c0-0.9,0.7-1.7,2.1-2.3
	c1.1-0.5,2.2-0.9,3.2-1c1-0.1,1.5-0.1,1.7,0l0.1,0.7c-0.5,1.1-1,2.3-1.5,3.5c0.5-0.1,1.1-0.2,1.1,0c-0.5-0.1-0.9,0-1.1,0.2
	c0,0.1-0.1,0.2-0.1,0.3l0,0l0,0c-0.1,0.3-0.2,0.5-0.3,0.8c0.2-0.1,0.5-0.1,1,0c-0.4,0.4-0.8,0.5-1.2,0.7c-0.4,1.1-0.8,2.3-1.2,3.5
	c1.2-0.2,2.4-0.3,3.3-0.1c0.4-0.9,0.7-1.9,1.2-3c2-5,3-7.5,3.1-7.5c1.5-0.2,3.3-0.1,5.5,0.4c2.9,0.6,4.5,1.7,4.6,3.2
	c0,0.5-0.3,1.2-0.9,2c0.6-0.1,1-0.3,0.3,0.2c-0.1-0.1-0.2-0.1-0.3-0.1c-0.1,0.2-0.3,0.4-0.5,0.6c0.4,0,0.8,0,1-0.3
	c0,0.2-0.2,0.8-0.5,0.6c-0.8,0.3,0.2,0.2,0.1,0.4h-1.2c-0.6,0.7-1.4,1.5-2.4,2.3c-2.9,2.6-4.9,4-5.8,4.1c-0.3,0-0.6,0.2-1,0.4
	c-0.6,0.3-0.9,0.4-1,0.5c-1.5,0.6-2.6,1.2-3.4,1.8h-1c0.1-0.7,0.8-2.4,1.9-5.3c-0.5,0-1.2,0-0.9-0.4c-0.8,0.2-1.7,0.4-2.4,0.5
	c-0.1,0.3-0.2,0.7-0.3,1l-3,9.8c-1.2,3.7-2,6.1-2.6,7.3c-0.2,0.5-0.6,1.5-1.1,2.9c0.5-0.1,0.9-0.3,1.5-0.4c0.1,0.3,0.7,0.1,1.5,0.1
	C5.6,52,4.6,52,4.6,51.4c-0.8,0.2-1,0.2-1.5,0L5,51.1c-0.2,0.3,0.1,0.4,0.7,0.4c1-4.1,2.2-7.8,3.9-11c0.6,0.8,1.2,1.1,1.6,1.1
	c0.4-0.1,1.6-0.7,3.6-1.8c2.1-1.1,3.9-1.8,5.5-2.1c1.2-0.2,2.4-0.2,3.5-0.2l0.4-0.1c-0.3-0.3-2.3,0.2-2.4-0.2
	c0.1-0.3,1.1-0.2,1.3-0.1c0-0.4,2.8-0.2,4.6-0.3c0.3,0,0.6-0.1,1-0.1c-0.3,0.1-0.6,0.1-1,0.1c-0.7,0.1-1,0.3-1.4,0.6
	c-0.7,0-1.1-0.3-1.7-0.2c-0.1,0.1,0.2,0.3,0.5,0.3h-0.9c1.1,0,2.2,0.2,3.3,0.4c2.6,0.5,4.3,1.5,5.1,2.9l0,0l0,0
	c0.2,0.4,0.4,0.9,0.5,1.5c0.3,2-1,4.4-3.9,7.4c-0.9,0.9-1.8,1.9-2.9,2.8l0.8,0.4c0.5-0.5,0.8-0.2,1.6-0.2c-0.5,0.8-1.9,0.7-3.4,0.6
	c-1.5,1.3-3.2,2.5-5,3.7c-3.3,2.2-5.7,3.4-7.1,3.6c-2.4,0.3-3.7,0-3.8-1.1c-0.3-1.9,0.3-4,1.7-6.1c0,0,0,0-0.1,0
	c-0.9,0.2-1.4,0.6-2,0.9c-0.9,0.2-0.9-0.1-1.2-0.1H7.6c-1.4,2.1-1.9,4.3-1.6,6.4C6.2,62,6.9,63,8,63.9c1.1,1,2.3,1.3,3.7,1.2
	c2.2-0.3,5.4-1.8,9.5-4.5c4.5-2.9,8.2-6.1,11-9.4c3.5-4.1,5-7.7,4.5-11C36.6,39.4,36.4,38.6,36,38z M12.3,26.7h0.8
	c-0.1,0.1-0.6,0.2-0.4,0.3L12.3,26.7z M13.9,27.2c-0.4,0-1.4,0.1-0.7-0.1C14.1,26.9,13.9,27.1,13.9,27.2c0.1,0,0.2,0,0.2,0.1
	C14,27.3,13.9,27.2,13.9,27.2z M11.5,33.2l-0.3,0.1l-1.4-0.2L11.5,33.2z M5.4,50.7c-1.5-0.1,0.7-0.1,0.2-0.5
	C6.3,50.2,5.9,50.6,5.4,50.7z M15.9,38.4C15.5,38.2,17,38,16,38c-2,0.6-4.7,0-6.9,0.6l-0.3-0.8c2,0.2,4.3-0.4,6.3-0.4l-0.5-0.2
	c0.4,0.1,0.9,0.1,0.4,0.3l4-0.2C17.2,37.6,17,38.3,15.9,38.4z M19.2,35.4l0.2-0.3l1.4,0.4L19.2,35.4z M21.8,33.8
	c0.8-0.1,0.3-0.3,0.7-0.5c0.6,0.3,1.1,0.4,1.7,0.3c-0.5,0.2-1.6,0.3-1.2,0.6C22.1,34.3,21,33.9,21.8,33.8z M26.6,35.6h-1.2l1.6-0.3
	L26.6,35.6z M22.4,34.9l1.2-0.4l-0.8,0.4c0.8-0.2,2.3,0,2-0.5c0.2,0.2,1.4,0.5,2.4,0.1C25.6,35.1,24.3,35.5,22.4,34.9z M21.6,57
	c1.1-0.1,2-0.5,3.2-0.5C24.6,57,22.6,56.8,21.6,57z M26.3,56.9c-0.9,0-0.8-0.3,0-0.6V56.9z M28.9,52.3c0.8-0.3-0.9-0.4,0.6-0.5h1.3
	C30.3,52.1,29,52.2,28.9,52.3z M34.1,41.3c-0.9-0.3-0.5-0.2,0-0.6V41.3z M188.1,22.8c-0.3,0-0.6,0-1,0c0.1-0.2,1.4-0.6,0.2-0.6
	c0.4,0,0.8,0,1.2-0.1c0.1-0.2,0.3-0.3,0.4-0.5c0,0.1,0,0.3,0,0.4c1.2-0.1,2.6-0.2,3.5-0.1c0.6-3.3,0.8-5.1,0.8-5.3
	c-0.1-0.7-0.3-1.2-0.5-1.6c-0.3,0-0.1,0.1-0.1,0.2c-0.7,0.3-1.4,0-1.8-0.2h-0.1c-0.3,0.2-0.6,0.3-0.9,0.3c-0.2,0.2-0.4,0.4-0.6,0.6
	l0.3,0.3c-0.1,0-0.4,0-0.7,0c-0.2,0.2-0.3,0.4-0.5,0.6c0.6,0,1,0,0.7,0.3c-0.2-0.1-0.5-0.2-0.8-0.2c-0.7,0.8-1.4,1.8-2.2,3
	c-1.2,1.8-2.4,3.7-3.6,5.5c0.1-1.1,0.6-3.9,1.6-8.5c-0.8,0.2-1.6,0.5-1.8,0.7c-0.1-0.2,1.7-0.8-0.2-0.6c1-0.1,1.5-0.2,2-0.3
	c0.1-0.6,0.3-1.3,0.4-2c-0.9,0.3-2.2,0.6-3.3,0.8c0,0.2-0.1,0.3-0.1,0.5v0.1l0,0c-0.1,0.3-0.1,0.6-0.2,0.9c-0.4,1.6-1.1,4.8-2.2,9.7
	c-0.9,4-1.4,6.1-1.4,6.2c0.2,1.3,0.8,1.9,1.9,1.7c0.4-0.1,0.7-0.3,1-0.3c0.4-0.1,1.6-1.8,3.7-5.4c1.1-1.8,2-3.3,2.8-4.4
	c-0.2,0-0.4-0.1-0.5-0.3c0.2,0,0.5-0.1,0.7-0.1C187.4,23.7,187.8,23.2,188.1,22.8z M179.2,31.9l-0.5-0.3c-0.1,0-0.1,0-0.1,0
	l-0.9,0.3l0.8-0.4c0,0,0.1,0,0.1,0.1h0.1l0.1,0.1C179.1,31.7,179.6,31.8,179.2,31.9z M180.7,30.4c0.2-0.4,1.2-0.4,1.7-0.6l0.4,0.3
	C181.4,29.8,181.5,30.7,180.7,30.4z M185.1,24.1c-0.2-0.2,0.2-0.5,1.2-0.6C185.3,23.8,186.2,24,185.1,24.1z M12.6,31.3h-0.7l0.6,0.3
	C12.5,31.5,12.6,31.4,12.6,31.3z M190.7,15.2h1.9c-0.3-0.5-0.8-0.7-1.5-0.6c-0.3,0-0.7,0.3-1.1,0.6h0.5
	C190.6,15.2,190.7,15.2,190.7,15.2C190.7,15.1,190.7,15.2,190.7,15.2z M182.7,11c0.7,0.1,1.7,0.2,2.6,0.2c1.3-6,1.9-9.1,1.9-9.5
	c-0.2-1.3-0.7-1.9-1.5-1.8c-1.3,0.2-2.1,1-2.3,2.4c-0.1,1.2-0.2,2.4-0.2,3.5c-0.2,0.8-0.3,1.6-0.5,2.3C182.9,8,183,8,183,7.9
	l0.9,0.3l-1.2,0.2c-0.2,1-0.4,1.9-0.5,2.8C182.4,11.2,182.8,11.1,182.7,11z M121.7,11.2l0.5,0.8l0.9-0.4c0.4,0,1,0,1.5,0.1
	c0.2-0.7,0.4-1.4,0.7-2.1c-0.1-1.6-0.6-2.3-1.7-2.2c-1,0-1.8,1.2-2.4,3.4c0.6-0.2,1.3-0.4,2-0.2c-0.6,0.4-1.3,0.5-2,0.6
	c0,0.1-0.1,0.3-0.1,0.4C121.3,11.5,121.6,11.4,121.7,11.2z M214.7,29.1c0,0.1-1.1,0.7-3.3,2c-1.9,1.1-3.4,1.8-4.4,1.9
	c-0.9,0.1-1.8-0.1-2.7-0.6c-1.2-0.6-1.9-1.6-2.2-2.7c2.7-0.5,5.5-2.5,8.4-5.8c2.9-3.3,4.3-6,4-8c-0.1-0.8-0.6-1.5-1.5-2.2
	c-0.9-0.7-1.7-1-2.5-0.8c-2.9,0.4-5.6,2.6-8.3,6.7c-1.2,1.8-2,3.5-2.6,5l0.1-0.1l1.2,0.2l-0.2,0.1l-1.2-0.2
	c-0.6,1.7-0.9,3.2-0.8,4.6c0.2,0,0.4,0,0.5,0h-0.5c0,0.2,0,0.4,0.1,0.6c0.1,0.4,0.2,0.8,0.3,1.2c-0.4,0.3-1.1,0.9-2,1.7
	c-1.3,1.3-2.4,2-3.4,2.1c-1.2,0.2-2.5-1.2-2.6-3.1c0-0.5,0-1.5,0.2-2.9c-0.5,0.2-1,0.4-2,0.2l0.6-0.3c0.4,0,0.9-0.1,1.5-0.2
	c0.2-1.2,0.4-2.6,0.7-4.4l-1.5,0.5c0.3,0-0.3-0.3-0.8-0.3c-0.3-0.1-0.7,0-1.1,0c-0.1,0.8-0.2,1.7-0.4,2.8c-0.4,2.4-0.5,3.9-0.4,4.7
	c0.6,4.7,2.8,6.8,6.4,6.3c0.6-0.1,1.7-1,3.3-2.7l-1.8,0.1l0.3-0.1h1.6l0,0c1-1.1,1.8-2,2.2-2.8c0.4,0.6,0.8,1.2,1.4,1.7
	c1.2,1,2.5,1.6,3.9,1.7c1.4-0.2,2.8-0.3,3.2-0.8c0.1,0,0.2,0,0.3,0c0.9-0.5,2-1.2,3.2-2.1c2.3-1.7,3.7-3,4.2-3.9
	C215.6,29,215.1,28.9,214.7,29.1z M205.3,20.5c1.7-2.2,3.4-3.4,4.9-3.6c0.2,0,0.5,0.1,0.8,0.3c-0.6,2-1.6,3.6-2.9,4.9
	c-1.3,1.3-2.1,2-2.6,2.4c-0.9,0.7-1.8,1.1-2.9,1.2C203,24.1,203.9,22.4,205.3,20.5z M194.1,36l-0.5-0.2c-0.6,0.1-0.1,0.5-0.8,0.7
	c-0.2,0-0.1-0.3-0.1-0.5c0.9-0.5,0.2,0,1.9-0.4L194.1,36z M200.1,28.4l1,0.5C200.1,28.8,200.5,28.5,200.1,28.4z M1.8,54.1
	c-0.5,1.6-0.7,2.4-0.7,2.5c0.1,0.4,0.2,0.8,0.6,1.3c0.5,0.7,0.9,1,1.4,0.9l0.8-0.1C4,58,5.2,56.7,5.3,56c0.1-0.6,0.1-1.1,0.2-1.6
	l-0.3,0.1C5.8,53.7,3.3,54.3,1.8,54.1z M11.4,50c0.4-0.1,0.7-0.1,0.3-0.3C11.6,49.8,11.5,49.9,11.4,50z M11.1,50.3
	c0.5-0.1,0.9-0.1,1.3-0.2c0-0.2-0.6,0-1.1,0C11.3,50.1,11.2,50.2,11.1,50.3z M7.8,54.1L7.8,54.1c-0.1,0.1-0.1,0.1-0.1,0.2
	c0.1,0,0.1,0,0.2,0l0.5-0.1C8.1,54.1,7.9,54.1,7.8,54.1z M9.2,52.3l1.6-0.1c0,0.3,0.3,0.5,0.8,0.6c0.4-0.6,1-1.2,1.5-1.8
	c-0.5,0.2-1,0.3-1.8,0.2c1.1-0.2,0.5-0.5-0.6-0.5c-0.2,0.2-0.4,0.4-0.6,0.6c0.2,0,0.3,0,0.4,0.1c-0.2,0-0.4,0.1-0.6,0.1
	C9.7,51.7,9.4,52,9.2,52.3z M13.6,49.8c0-0.4,0-0.7,0.1-1L12.5,49c-0.3,0.3-0.5,0.5-0.8,0.7C12.6,49.7,13,49.8,13.6,49.8z
	 M148.3,27.4c0,0,0,0.1-0.1,0.1l0.4-0.1H148.3z M130.6,19.6c-0.1,0-0.2-0.1-0.2-0.1c-0.1,0-0.3,0-0.4,0.1l0.1,0.1
	C130.3,19.7,130.4,19.6,130.6,19.6z M123.9,26.4c0.1,0,0.2,0,0.3,0C124.1,26.3,124,26.3,123.9,26.4
	C123.9,26.3,123.9,26.4,123.9,26.4z M183.6,12.7l-0.9,0.4c0.2,0.2,1.3,0.3,2.1,0.5c0-0.1,0-0.1,0-0.2c-0.2,0-0.4-0.1,0-0.1
	c0-0.2,0.1-0.4,0.1-0.7c0-0.2,0.1-0.3,0.1-0.5c-0.8,0.2-1.6,0.2-2.1,0.1c0.1-0.2,1.5-0.6,0.5-0.8c-0.5,0-0.8,0.3-0.9,0.3
	c-0.2,0-0.4-0.1-0.5-0.1c-0.1,0.3-0.1,0.7-0.2,1C182.3,12.7,183,12.7,183.6,12.7z M92.2,37.2c0.3-1.8,0.3-3.3,0.2-4.3
	c-0.1-1.1-0.8-1.5-2-1.3c-1,0.1-1.6,1.3-1.7,2.4c0.6,0.1,1.3,0.1,1.9-0.2l-1.7,0.8l-0.3-0.3c0,0,0,0,0,0.1c0,0.4,0,1-0.1,1.6
	c0.6-0.1,1.2,0,1.3,0.3c0.1,0.1-0.8,0.2-1.3,0.3c0,0.1,0,0.2,0,0.4l0,0l0,0c0,0.1,0,0.2,0,0.4c0.1,0,0.1,0,0.2,0c-0.1,0-0.1,0-0.2,0
	c0,0.1,0,0.2,0,0.3c1.2-0.2,1.6-0.2,2.5-0.5C91.3,37.3,91.7,37.3,92.2,37.2z M92.3,33.3l-0.1,0.4l-0.8-0.3
	C91.6,33.2,91.8,33.4,92.3,33.3z M122.1,20.1c0.1-0.3,0.2-0.7,0.3-1c-0.7,0.1-1.7,0.3-2.4,0.5c-0.4-0.1-0.3-0.5-0.9-0.4
	c0,0.1-0.1,0.3-0.1,0.4c0.1,0,0.2,0,0.4,0c-0.2,0.1-0.3,0.1-0.4,0.1c-0.4,1.7-0.9,3.8-1.5,6.2c1-0.1,2.1-0.2,3.1-0.4
	C121,24,121.5,22.2,122.1,20.1z M122.4,17.4c0,0.1,0.9,0.2,0.1,0.3c-0.8-0.1-2.2,0-2.9,0.4c0.1,0.4,2,0.2,3,0h-0.2
	c0.1,0,0.2,0,0.3,0c0.3-1.2,0.7-2.5,1.1-3.8c-0.3,0-0.5,0.1-0.7,0.2c-0.2-0.6-1.6-0.6-2.6-0.8c0,0.2-0.1,0.5-0.1,0.7
	c-0.2,0.8-0.5,1.9-0.9,3.3C120.3,17.7,121.6,17.6,122.4,17.4z M5.7,28.3c-0.9,0-1.8,0-2.8,0.2c-0.2,0-0.4,0-0.6,0.1
	c0.8,0.6,1.5,0.9,1.9,0.8C5,29.3,5.5,29,5.7,28.3z M174.2,34.7c-0.8,0.7-0.4,0.5-1.9,1.1c-0.8,0.5-1.4,1-1.9,1.4
	c-0.8,0.6-1.9,1-3.3,1.2c-2.3,0.3-4.2-1.2-4.5-3.3c-0.4-2.3,0.5-5.2,2.4-8.6c2-3.4,3.8-5.3,5.5-5.7c0.3,0.1,0.6,0.5,0.9,1.2
	c0.3,0.7,0.4,1.1,0.4,1.1c0.7,0.5,1.6,0.5,2.8,0c0.2-1.4,0.4-2,0.4-2.1c-0.1-0.5-0.3-1.2-0.7-1.9c-0.5,0.1-1,0.3-1.4,0.5
	c0.2,0,0.4,0.1,0.5,0.1l-0.5-0.1l0,0c-0.6-0.1-1.3-0.1-1.6,0s0.7,0.1-0.1,0.3c-1.2-0.2-2.2,0.5-3.7,0.1c0.1-0.1,0.3-0.2,0.5-0.3
	l0.1-0.1c0.1,0.1,0,0.1-0.1,0.1l-0.2,0.3l3.1-0.5c-0.7-0.2,0.7-0.5,1-0.7l0.9,0.3c0-0.2,0.5-0.3,1.2-0.4c-0.1-0.2-0.2-0.4-0.4-0.6
	c-1-1.6-2-2.3-3-2.2c-0.4,0.1-1.1,0.3-2,0.8c-0.2,0.6-0.5,1.1-0.9,1.4c-0.6,0.4-1.2,0.9-1.8,1.5l0.5,0.2h-0.3
	c-0.1,0.2,0.1,0.3,0.9,0.3l-1.5,0.2c-0.5-0.3,1-0.5,0.3-0.7c-1.6,1.5-3,3.6-4.3,6.1c-1.8,3.6-2.6,6.8-2.2,9.6
	c0.1,0.4,0.1,0.8,0.2,1.2c-0.6,0.4-1.4,0.9-2.4,1.6c-0.7,0.5-1.3,0.9-1.8,1.1v0.3c-0.5,0.1-0.7,0.2-0.9,0.2
	c-0.3,0.1-0.6,0.2-0.8,0.2c-0.6,0.1-1.1-0.1-1.6-0.7h-0.1l0,0c-0.2-0.2-0.4-0.4-0.5-0.7c-0.5-0.8-0.8-1.5-0.8-2
	c-0.1-1.5,0.2-3.7,0.9-6.5s1.2-4.1,1.2-3.8c0-0.1-0.1-0.2-0.1-0.4l0,0l0,0c-0.1-0.2-0.2-0.4-0.4-0.5c-0.1,0.1-0.5,0.2-0.9,0.3
	c-0.1,0.1-0.3,0.1-0.7,0.1c0.2-0.1,0.4-0.1,0.7-0.1c0.3-0.2,0.2-0.4,0.5-0.5c0.1,0,0.1,0,0.2,0.1c0,0,0,0-0.1,0
	c-0.2-0.1-0.3-0.3-0.4-0.4c-0.4-0.1-0.4-0.2-0.4-0.4c-0.2-0.2-0.4-0.4-0.5-0.5c-0.7,0.3-1.3,0.9-1.8,1.9c-0.3,0.5-0.5,1.1-0.7,1.6
	c0.3,0.1,0.5,0.2,0.7,0.4c-0.3-0.1-0.6-0.1-0.8,0c-0.1,0.1-0.1,0.3-0.2,0.4c-1,1.8-1.8,3.1-2.3,3.9c-0.3,0.5-0.6,1-0.9,1.4
	c0.4,0.1,0.7,0.2,0.5,0.5c0-0.2-0.3-0.3-0.6-0.3c-2.2,3.6-4,5.7-5.3,6.4c-0.2-0.1-0.2-0.2-0.1-0.3c0-1,0.2-2.4,0.6-4.1h-0.1
	c0.1,0,0.1,0,0.2,0c0.3-1.1,0.7-2.4,1.2-3.9c0.6-1.5,1-2.7,1.3-3.5c-1,0.2-1.9,0.5-2.4,0.9l-1.7-0.1c-0.2,0.6-0.4,1.2-0.6,1.9
	c-0.1,0.4-0.2,0.7-0.3,1.1h0.1c-0.1,0-0.1,0-0.1,0c-0.3,1.2-0.6,2.3-0.8,3.2c0.4-0.1,0.8-0.1,1.2-0.2c0.6,0.3,0.7,0.7,1.9,0.9
	c-0.9,0.6-2.1,1-3.5,1.5l0,0c-0.2,1-0.2,1.7-0.1,2.1c0,0.2,0.1,0.4,0.1,0.5c-0.1,0-0.3,0-0.4,0c-4,3.5-6.8,5.3-8.5,5.3
	c-1.2,0-2.3-0.3-3.2-1.1c-1.2-0.9-1.7-2.3-1.8-4.1c0-2.1,0.5-4.4,1.7-7c-0.5,0.2-1.6,0.2-2,0.4c0.1,0.1,0.1,0.1-0.1,0.3
	c-0.1-0.1,0-0.2,0.1-0.3c-0.2-0.2-1.5,0-1.6-0.3c1-0.1,0.6-0.4,1.7-0.5c0.6,0,1.3,0.6,1.9,0.2c0.1-0.2,0.2-0.4,0.3-0.5
	c0.5-1,1-1.9,1.6-2.8c-1.2,0.2-2.8,0.2-4.1,0.3c-0.8,1.2-1.6,2.4-2.4,3.6c-0.1,0-0.1-0.3-0.1-0.6c0-0.6,0.2-1.8,0.6-3.7l-1.4-0.3
	l1.1-0.3c-0.7,0.1-1.4-0.2-2,0.2c-0.4-0.4,0-0.7,1.2-1.4l0.1,0.5c0.5-0.1,0.6,0.5,1.2,0.4c0-0.1,0-0.2,0.1-0.3
	c-0.6-0.1-0.3-0.5,0.2-0.8c0.1-0.4,0.2-0.8,0.3-1.3c-1.2-0.1,0.8,0.9-1.8,1.2c-0.9-0.3,0.6-0.9-0.7-0.9c-0.2,0-0.4,0-0.6,0v0.1
	c-1.7,7.3-2.5,11.8-2.4,13.5c0,0.3,0.1,0.7,0.4,1.2c0.1,0.2,0.2,0.4,0.3,0.5v-0.1l2,0.2c0,0,0,0,0.1,0c0.2-0.1,0.4-0.2,0.5-0.3h-0.9
	c0.3,0,0.8-0.1,0.9-0.2c-0.2,0.2-0.2,0.2,0,0.2c0.3-0.2,0.4-0.2,0.5-0.3c0,0,0.1,0.1,0.1,0.2c0.4,0,0.8,0,0.7,0.2H119
	c0.1,0.2,0.2,0.6,0.3,1.2c0.2,1.2,0.4,1.9,0.6,2.1c1.8,2.6,4.1,3.8,7,3.8c2.4-0.1,4.9-1.5,7.3-4.4c-0.2,0-0.3-0.1-0.4-0.2
	c0.2,0,0.4,0,0.5,0.1c0.7-0.8,1.4-1.7,2-2.8c0.5,1.5,1.5,2.3,2.9,2.4c0.4-0.1,0.8-0.2,1.1-0.2c0.1,0,0.3,0,0.4,0
	c0.9-0.4,1.9-1.3,3.1-2.8c1.2-1.7,2.3-3.3,3.5-5c0,0.4,0,0.9,0,1.4c0.1,1,0.4,1.9,0.9,2.7l2.8-0.4l-0.4,0.2c1,0.1,2.1,0.5,0.7,0.9
	c-4.2,1.3-1.1-0.7-3-0.7c0.4,0.6,0.8,1.2,1.4,1.8c1.3,1.2,2.8,1.7,4.4,1.5c0.5-0.1,1.1-0.3,1.6-0.5c0.3-0.4-2.6,0.6-3,0.1
	c0,0.1,0,0.1,0,0.1c0.1,0,0.1,0,0.2,0c-0.1,0-0.2,0-0.2,0c-0.7,0-1.4-0.5-0.9-0.3c2.8,0.3,3.6-0.8,5.7-1.1c0.3-0.3,0.7-0.6,1-0.9
	c0.7-0.7,1.2-1.4,1.7-2.1c0.6,1.4,1.6,2.4,2.9,3c0.6,0,1.2,0.1,1.7,0l0.6-0.2c-0.2,0.1-0.4,0.2-0.6,0.2l-0.5,0.2
	c1.2,0.3,2.8-0.2,3.9-0.3v-0.1c-0.1,0-0.2,0-0.3-0.1c-0.6,0-1.7,0.2-1-0.2c0.3,0,0.6,0.1,1,0.2c0.2,0,0.3,0,0.3,0.1
	c0.3,0.1,0.6,0.1,0.8,0.1c0.2-0.1,0.3-0.2,0.5-0.2c-0.1,0-0.3-0.1-0.4-0.1h0.7c1-0.5,2-1.3,3.2-2.3c0.4-0.4,0.9-1.1,1.4-2
	c0.4-0.8,0.6-1.2,0.6-1.3C175,34.6,174.6,34.7,174.2,34.7z M140,42.8c0.7-0.1-0.1-0.4,0.9-0.3C139.9,42.5,141.2,42.9,140,42.8z
	 M145.5,32.8c0.1-0.2,0.3-0.1,0.6-0.2c0.5,0,0.4,0.2,0.4,0.4L145.5,32.8z M146.9,32.1c-0.3-0.2,0-0.5-1-0.4
	C147.7,31.4,146.8,31.9,146.9,32.1c0.1,0.1,0.2,0.1,0.5,0.1C147.1,32.2,147,32.2,146.9,32.1z M151.1,26.9l-0.1-0.3l0.7,0.1
	L151.1,26.9z M150.4,25.9l1.4,0.2l-0.1,0.1l-1.4-0.2L150.4,25.9z M147.5,32.8c-0.1-0.4,1.3-0.4,1.9-0.5l0.1,0.3L147.5,32.8z
	 M148.7,37.5c0.7-0.1,1.5-0.5,1.8-0.2C149.7,37.3,149.2,37.4,148.7,37.5z M142.7,27.3L142.7,27.3L142.7,27.3L142.7,27.3z
	 M140.6,26.1c0.6,0.1,0.8,1,2.3,0.6c0.1-0.3,0.2-0.4,0.2-0.4c-0.1-0.4-0.4-1-0.9-1.8s-1-1.2-1.3-1.1c-0.5,0.1-1.2,1.3-2,3.6
	C139.9,26.9,141,26.7,140.6,26.1z M122.1,29.3h-0.2l-0.1,0.1L122.1,29.3z M126.4,25.5c-0.9,0.5,0.1,0.3-1.6,0.4
	c-0.3,0.2-0.3,0.3-0.3,0.4c0.1,0.2,0.4,0.2-0.7,0.6c-0.2,0-0.3,0.1-0.4,0.1c-0.4,0.6-0.8,1.3-1.3,1.9c0.2,0.1,0.3,0.2,0.5,0.2
	c0.7,0.3,2.2-0.5,2.5-0.2l-1.1,0.4l1.8-0.1c0.7-1,1.3-1.9,2.1-2.8h-0.2l0.4-0.3l0,0l0.1-0.1c0.2-0.2,0.8-0.7,1.7-1.6
	c0.7-0.6,1.2-1.2,1.5-1.6c0-0.1,0-0.1,0-0.2c-0.3-0.1,0.1-0.2,0-0.3h0.1c0.1-0.3,0.1-0.5,0.2-0.7h-0.2L131,22
	c-1.5,0-0.5-0.5-1.3-0.7c0.7-0.1,1.5,0.1,2,0.2c-0.1-0.3-0.3-0.6-1.2-0.7l1.2-0.1c-0.1-0.1-0.1-0.2-0.2-0.2c-0.9,0-2.1,0.1-3.1,0.2
	c-1,1-2.4,2.6-4,4.9C125.3,25.3,126,25.2,126.4,25.5z M113.6,43.3c-1.2,0.9-1.9,1.3-2.2,1.4c-2.1,0.3-3.2-0.7-3.5-3
	c-0.1-0.8-0.1-1.7-0.1-2.7c-0.1,0-0.2,0-0.3,0c0.2-0.1,0.2-0.3,0.4-0.4c0.1-1,0.3-2,0.6-3.1c0.6-2.2,0.9-3.9,0.7-4.9
	c0-0.2-0.7-0.6-1.9-1.1l-0.4,0.5c-0.7,0.6-1.7,1.9-2.9,4l1.2,0.3c-0.6,0.1-1,0-1.3,0c-2,3.5-3.1,5.5-3.5,6.1
	c0.1-5.5,0.2-8.1,0.3-7.6c-0.1-0.8-0.8-1.8-1.7-1.7c-1.1,0.2-2.2,1.1-3.3,2.9c-0.8,1.3-1.5,2.3-2,3.1c0.2,0,0.5,0.1,0.7,0.2
	l-0.6,0.4l-0.1-0.4h-0.1c-0.6,1-1,1.6-1.1,1.7c-0.2-0.1-0.3-0.3-0.3-0.5c0.1-0.4,0.1-0.8,0.2-1.2c-1.1,0.1-2.6,0.4-3.9,0.5
	c-0.2,1.3-0.4,3-0.8,4.9c-0.2,1.1-0.4,2.3-0.7,3.6c-0.7,0.4-1.6,1-2.9,1.9c-1.5,1.1-2.7,1.7-3.6,1.8c-0.8,0.1-1.6-0.3-2.2-1.4
	c-0.5-0.8-0.8-1.5-0.8-2c-0.1-1.5,0.2-3.7,0.9-6.5c0.1-0.6,0.3-1,0.4-1.5c-1.3,0-2.4,0-3.1-0.3l1.8-0.2c0,0,0-0.1-0.2-0.1
	c0.6,0,1.2,0,1.7-0.1c0.4-1.3,0.6-1.9,0.6-1.7c-0.1-0.4-0.3-0.8-0.7-1.1c-0.7-0.7-1.1-1.1-1.3-1.2c-0.7,0.3-1.3,0.9-1.8,1.9
	c-0.4,0.8-0.7,1.6-1,2.4c-1,1.8-1.8,3.1-2.3,3.9c-2.7,4.5-4.8,7.2-6.3,8C66,50,66,49.9,66,49.8c-0.1-1.8,0.6-4.4,1.9-8.1
	c1.3-3.5,1.9-5.2,1.9-5.2c-0.1-0.4-0.4-1-0.9-1.8s-1-1.2-1.3-1.1c-0.5,0.1-1.1,1.2-1.8,3.2l0.1,0.1h-0.1c-0.4,1.1-0.8,2.3-1.2,3.9
	c-1.2,4.3-1.8,7.1-1.7,8.4c-0.7,0.6-1.4,1.2-2.1,1.8c-1.5,1.3-2.7,2-3.8,2.1c-1.2,0.2-2.2-0.3-3.1-1.6c-0.7-0.9-1.1-2-1.3-3.2
	c-0.1-0.4,0-1.4,0.2-3c0.1-0.7,0.1-1.3,0.2-1.8c-0.1,0-0.2,0-0.4,0l0.4-0.2v-0.1c-0.2,0-0.6,0.1-0.7,0.1l0.6-0.2c0,0,0,0,0.1,0
	c0.1-0.8,0.3-1.6,0.4-2.1c0.3-0.9,0.7-1.9,1.2-3.1c0.3-1.3,0.2-2.1-0.1-2.5c-0.8-0.6-1.4-0.8-1.9-0.8c-0.5,0.1-0.9,0.6-1.2,1.6
	c-0.2,0.6-0.4,1.2-0.6,1.7c-0.5-0.8-1-1.8-2.2-1.6c-1.3,0.1-2.8,1.1-4.5,3c0.1,0,0.1,0,0.2,0c0.1,0,0.2-0.1,0.2-0.1
	c0-0.1-0.1-0.1-0.1-0.1c0.2,0,0.2,0.1,0.1,0.1c0.2,0.2,0.4,0.5,1.3,0.2v-0.1l0.5,0.2l1.1-0.3c-0.8,0.6-2.2,0.6-3.7,0.5
	c-0.9,1-1.8,2.1-2.7,3.5c-1,1.4-1.8,2.7-2.4,3.9c1.2-0.2,2.8-0.4,3.9-0.4c0.4-0.6,0.7-1.1,1.1-1.5c0.2-0.2,0.4-0.5,0.5-0.7
	c-1.4,0-2.1,0.2-4.1,0.4c1-0.1,2.1-0.9,3.6-0.9c-0.3-0.3-1.5-0.1-1.9-0.3c0.8,0,3.1,0.3,3.1-0.3l0.1,0.1c0.2-0.2,0.3-0.4,0.5-0.6
	c1-1.2,1.9-1.8,2.4-1.9c0.4-0.1,1.4,0.3,1.7,0.3c-0.1,0.6-0.2,1.2-0.4,1.7h0.2c-0.7,0.4,3,0.1,2.5,0.6l-1.1,0.2
	c0.1-0.2,0.9-0.3,0.7-0.5c-0.5,0.3-1.8,0.3-2.6,0.5c-0.1,0.1-0.1,0.3-0.2,0.4l0,0l1.1-0.1c0.1,0.3-0.8,0.3-1.1,0.1
	c-0.2,0.3-0.6,1-1.4,2c0,0.1,0.1,0.1-0.1,0.2l0,0c-0.5,0.6-1.1,1.3-1.8,2.1c-2.2,2.5-3.5,3.8-4.1,3.9c-0.4,0.1-0.7-0.4-0.9-0.4
	c0-0.9,0.4-2.1,1-3.5c0.3-0.6,0.6-1.1,0.9-1.6c-1.4,0.1-2.9,0.2-3.8,0.2c-1.2,2.4-1.8,4.3-1.6,5.7c0.1,0.6,0.5,1.4,1.1,2.2
	c0.7,1,1.4,1.4,2,1.3c1.7-0.2,3.4-1.3,5.2-3.1l4.2-4.9c0,0.5,0,1,0,1.5c0.2,1.4,0.8,2.8,1.6,4.1c0.3,0.4,0.8,0.9,1.7,1.5
	c1,0.7,1.9,0.9,2.5,0.8c0.4-0.1,0.7,0.1,1,0c1.3-0.2,3.1-1.3,5.3-3.5c0.6-0.6,1.1-1.1,1.6-1.7c0.7,1.6,1.9,2.3,3.7,2.1
	c1-0.1,2.2-1.2,3.7-3c1.2-1.7,2.3-3.3,3.5-5c0,0.4,0,0.9,0,1.4c0.2,1.7,1,3.2,2.3,4.5c1.3,1.2,2.8,1.7,4.4,1.5
	c1.4-0.2,2.9-1.1,4.4-2.7c0.5-0.5,0.8-0.9,1.2-1.4c0.1,0.4,0.3,0.8,0.6,1.2c0.5,0.5,1,0.8,1.5,0.7c0.8-0.1,2.3-2.1,4.2-5.7
	c-0.8-0.1-1.7-0.2-2.8,0.1c0.5-0.6,1.5-0.1,2.5-0.8c0,0.2,0.1,0.3,0.5,0.3c0.1-0.2,0.2-0.3,0.2-0.5c0.5-1,1-1.8,1.4-2.6l-0.8-0.2
	h0.9c1.3-2.3,2.1-3.4,2.5-3.4l0.1,0.7c0,0.2-0.1,0.9-0.5,2.3c-0.3,1.4-0.4,2.7-0.3,4c0.3,2,1,2.9,2.4,2.7c0.7-0.1,1.8-1.2,3.2-3.2
	c1.6-2.4,2.4-3.6,2.4-3.6c0,0.3,0,0.6,0.1,1c0.2,1.4,0.9,2.7,1.9,3.9c1.1,1.1,2.4,1.7,3.8,1.6l1.4-0.2c0.5-0.1,1.3-0.6,2.3-1.7
	c0.7-0.8,1.4-1.6,1.9-2.4C115,43.3,114.3,43.4,113.6,43.3z M78.5,36.7c-0.1,0.3-0.4,0.5-1.2,0.5C77.4,36.9,78.1,36.9,78.5,36.7z
	 M51.8,36c-0.4-0.2,0.6-0.4,0.5-0.6c0.2,0.1,1.2,0.1,1.2,0.3C53,35.4,52.3,36,51.8,36z M96.7,44.8l-0.1-0.4h0.3L96.7,44.8z
	 M188.7,24.1c1.2-0.1,2.5-0.2,3.3-0.1c0-0.1,0-0.2,0.1-0.3c0-0.2,0.1-0.4,0.1-0.7c-0.2,0-0.4,0-0.6,0.1v0.1
	c-1.2-0.1-1.8-0.3-2.8-0.3C188.9,23.2,188.8,23.6,188.7,24.1z M48.9,43.8L48.9,43.8L48.9,43.8L48.9,43.8z M115.7,41.7
	C115.6,41.7,115.6,41.7,115.7,41.7C115.6,41.7,115.6,41.7,115.7,41.7L115.7,41.7L115.7,41.7z"/>
</svg>
