<svg version="1.1" id="" xmlns="http://www.w3.org/2000/svg" xmlns:xlink="http://www.w3.org/1999/xlink" x="0px"
	 y="0px" width="246px" height="75px" viewBox="0 -3 246 75" style="enable-background:new 0 -3 246 75;" xml:space="preserve">
<style type="text/css">
<![CDATA[
	.st0{fill:#D62418;}
]]>
</style>
<path class="st0" d="M245.8,27.8c0-0.1,0-0.2-0.1-0.4c-0.4-0.3-0.6-0.3-0.8-0.1l-0.5,0.5c0.3-0.1,0.6-0.2,0.9,0
	c-0.3,0.1-0.6,0.1-1,0.1l-3.2,3.1c-0.4,0.4-0.8,0.7-1.1,1l1.1,0.4c1.3-0.5,2-0.4,2.5-0.2c0.4-0.6,0.8-1,1-1.5
	c0.1-0.2,0.2-0.4,0.3-0.6l-1.3-0.2c0.6,0,1.1-0.1,1.4-0.2c0.3-0.7,0.5-1.2,0.6-1.6c-0.2,0-0.3-0.1-0.5-0.1c0.2,0,0.3,0,0.5,0.1
	C245.8,28,245.8,27.9,245.8,27.8z M244.8,28.3c0.1-0.1,0.2-0.1,0.4-0.1C245,28.2,244.9,28.2,244.8,28.3z M123.1,33.7l-1.6-0.3
	l1.1-0.3c-0.6,0.1-1.3-0.2-1.9,0.1c-0.2,0.3-0.5,0.6-0.7,0.9c-0.1-0.1-0.3-0.5-0.7-1.2c-0.3-0.5-0.6-0.7-1.1-0.7
	c-0.6,0.7-1.1,1.6-1.3,2.7c-0.1,0.6-0.3,1.8-0.5,3.7c-0.4,2.4-0.7,4.5-1.1,6.4l0.5-0.1l-0.4,0.3h-0.1c-0.1,0.4-0.1,0.8-0.2,1.2
	c0,0,0,0,0.1,0l-0.1,0.4c1.1-0.3,2.9-0.6,3.7-0.5l0,0c0.6-2.9,1.5-5.7,2.9-8.5c1-2,1.9-3.4,2.7-4.1l-1.5-0.3L123.1,33.7z
	 M116.4,45.7c0.3-0.3,1.3-0.3,1.9-0.3C117.8,45.7,116.9,45.6,116.4,45.7z M242.1,33.3c0.1,0,0.2,0.1,0.2,0.2
	C242.3,33.5,242.2,33.4,242.1,33.3c-0.8-0.3-3.2,0.7-3.6,0.1c-0.8,0.3-2.6,0.2-2.8,0.7c-0.1-0.5-1.8,0.3-2.7,0
	c0.7-0.5-0.8-0.5-1-0.6c0.7-0.5-0.7-0.7,0.9-1.1c1,0.1,1.1,0.5,2,0.5c-0.4-0.4-0.8-0.9-1.2-1.6c-0.1-0.2-0.2-0.5-0.3-0.8l-1.1,0.2
	c0.1-0.4-0.7-0.9,0.7-1.2c-0.1-0.4-0.2-0.7-0.3-1.1c0-0.1,0-0.2,0-0.4c-0.5,0-1,0.1-1.4,0.1l-1.4-0.3c0.1,0.2-0.1,0.2-0.4,0.3
	c0,0.2,0,0.3,0.1,0.5c0.4,3.1,1.4,5.3,2.9,6.7c0.4-0.1,0.7-0.1,1-0.2c-0.9,0.7,1.8-0.2,1.2,0.3c1.3-0.1,4.2-0.1,3.8-0.7l1,0.2
	c0.5-0.1,0.2-0.7-1.5-0.8c1.3-0.3,2.5,0,3.8,0.1c0.1-0.1,0.2-0.2,0.4-0.3c0.2-0.3,0.5-0.5,0.7-0.7c-0.2-0.1-0.4-0.1-0.6-0.2
	C241.9,33.1,242,33.2,242.1,33.3z M235.4,36.7c0.3,0,0.7,0.1,1,0.1c1,0,1.8,0,2.2-0.3c0.4-0.2,0.8-0.5,1.2-0.8
	c-1.2,0.1-2.1,0.4-3.3,0.4C236.3,36.4,235.7,36.6,235.4,36.7z M232.7,27.4C232.7,27.4,232.6,27.3,232.7,27.4h-0.1
	C232.6,27.4,232.6,27.4,232.7,27.4z M123.9,32.5c-1.7,0-0.7-0.7,0.1-1.1c0.7,1.2,1.8-0.4,3.5-0.5c-0.9,0-1.8,0-2.6,0.1l0.1-0.4
	c-3.3-0.6,0,0.6-2.8,1.1c-0.1,0.1-0.2,0.2-0.2,0.3l0.1,0.5C122.6,32.3,122.5,33.2,123.9,32.5z M96.6,37.1c0.4-0.4,0.5-0.7,0.5-1
	c0-0.2-0.5-0.5-0.3-0.8l-5.6,1.3c-1.4,0.3-2.8,0.7-4,1.2l-0.4-0.3c0.2-1.4,1.1-4.5,2.6-9.2v-0.1C89,28,87.3,28,88.3,27.5
	c-0.5,0.1-2.3,0.1-1.6,0.4l-0.9-0.3c-0.1,0.3-0.1,0.5-0.2,0.8l0.4-0.2l0.9,0.2c-0.4,0.2-0.9,0.2-1.3,0.3c-0.1,0.3-0.1,0.5-0.2,0.8
	c0.1,0,0.2,0,0.3,0.1c-0.1,0-0.2,0.1-0.4,0.1v0.1c-0.3,1.6-0.6,3.1-1,4.7c-0.7,3.1-1.2,4.6-1.5,4.6c-0.4,0.1-0.6,0.2-1,0.2
	c-0.2,0-0.5,0.4-1,1.2s-0.7,1.2-0.7,1.5s0.1,0.5,0.2,0.8h0.4c0,0,0-0.1-0.2-0.1c2.3,0,3.8-0.3,6.1-0.5c0.1-0.1,0.3-0.2,0.4-0.3
	c-0.4-0.1-0.8-0.2-0.7-0.5c0.5-0.1,1-0.1,1.5-0.1c0.5-0.3,0.9-0.6,1.4-0.9c0.7-0.4,1.6-0.9,2.7-1.3l-0.4-0.4c0.3,0.1,0.6,0.2,1,0.2
	C93.7,38.1,95,37.6,96.6,37.1z M80.6,41.8c0.1-0.3,0.8-0.3,1.2-0.5C81.7,41.5,81.4,41.8,80.6,41.8z M84.8,41.3l-0.7-0.2
	C84.5,41,84.8,41,85,41C84.8,41,84.9,41.1,84.8,41.3z M88.2,37.9c-0.1,0.2,0.1,0.3-0.4,0.4C87.6,38.2,86.8,37.9,88.2,37.9z
	 M87.8,38.9c0.6-0.1,1.4-0.2,2.1-0.2C89.4,38.8,88.2,39.2,87.8,38.9z M88.3,39.2c1.4-0.4,1.1,0.5,2.3,0
	C90.4,39.6,88.2,39.5,88.3,39.2z M79.6,37.7L74,38.9c-1.4,0.3-2.8,0.7-4,1.2l-0.4-0.3c0.2-1.4,1-4.5,2.6-9.2c1.4-4.2,2-6.7,1.9-7.7
	c-0.1-1.1-1.2-2.7-1.3-3.1l-1,0.1c-0.2,0.4-0.9,0.4-1.4,1.6c-0.8,4.1-1.5,7.3-2.2,9.6c0.6,0,1.1,0.1,1.4,0c-0.5,0.2-1.2,0.2-1.5,0.3
	c0,0.2-0.1,0.3-0.1,0.5c0,0.2-0.1,0.3-0.1,0.5c0,0,0,0,0.1,0c0.3,0,1.2-0.4,1.4-0.1c-0.6,0.2-1,0.2-1.4,0.1h-0.1
	c-0.3,1.4-0.6,2.8-0.9,4.2c-0.1,0.5-0.2,1-0.3,1.4l0.6-0.2c0.2,0,0.5,0.1,0.4,0.3h-1c-0.5,2.1-0.9,3.1-1.2,3.2
	c-0.4,0.1-0.6,0.2-1,0.2c-0.2,0-0.5,0.4-1,1.2s-0.7,1.2-0.7,1.5c0.1,0.4,0.2,0.8,0.3,1.3h0.1h-0.1c0.1,0.4,0.3,0.9,0.5,1.4
	c0.1,0.3,1,1.2,1,1.5c0,0.2-0.2,1.5-0.6,4c-0.4,2.4-0.6,3.7-0.6,3.9c0.1,0.5,0.4,1.3,1.1,2.2c0.8,1.1,1.5,1.7,2.2,1.6
	c0.6-0.1,1.1-1.4,1.4-4.1c0.3-2.2,0.4-3.7,0.3-4.1c-0.1-0.4-0.4-1.6-0.5-2c-0.1-0.5,0-1.3,0.3-2.4c0.2-1.2,0.3-2,0.2-2.5
	c1.2-1,2.4-1.9,3.6-2.6c1.6-0.9,4-2,7.4-3.1c0.4-0.4,0.5-0.7,0.5-1C79.9,38.3,79.5,37.9,79.6,37.7z M65.7,58.1l-0.4-0.5
	C66.5,57.4,66.4,58,65.7,58.1z M67.5,41.5c0.3-0.1,0.8-0.3,1.1-0.4l0.4,0.4H67.5z M74.1,40.7l-0.2-0.2h1.3L74.1,40.7z M237.6,2.7
	c0-0.3,0.8-0.4,1.6-0.5c0-0.1,0.1-0.2,0.2-0.3c0-0.1,0-0.2,0-0.2c0-0.3-0.8-1.1-0.8-1.4c-0.3-0.1-0.7-0.2-1.3-0.4
	c-0.6,0.5-1.1,1.2-1.7,2.1c0.1,0,0.2,0,0.4,0.1l-0.5,0.1c-0.1,0.2-0.2,0.4-0.3,0.5C236,2.8,237.3,2.8,237.6,2.7z M27.9,31
	c0.2,0,0.3,0,0.5-0.1c0.7-0.5-1-0.2-1.6-0.3c-0.1,0.1-0.1,0.2-0.2,0.4c0.3,0,0.6,0.1,1.1,0C27.7,31,27.8,31,27.9,31L27.9,31z
	 M125.4,29.6l1-0.1c-0.2,0.1-0.4,0.2-0.6,0.2l0.5,0.1c0.1,0,0.1,0,0.1,0h-0.1c-0.2,0-0.5,0.1-0.7,0.1c0.1,0.6,1.6,0.1,2.7-0.1
	c0-0.1-0.1-0.2-0.1-0.2c-0.5-0.7-1.1-1-1.9-0.9c-0.9,0.1-1.8,0.6-2.8,1.4c0.8-0.1,1.6-0.2,2.2-0.4L125.4,29.6z M85.6,42.6
	c-0.3,0.1-0.9,0.3-0.1,0.3c-1.8,0.1-3.8,0.3-5.2,0.2c0.1,0.5,0.3,0.9,0.6,1.4c0.1,0.3,1,1.2,1,1.5c0,0.2-0.2,1.5-0.6,4
	c-0.4,2.4-0.6,3.7-0.6,3.9c0.1,0.5,0.4,1.3,1.1,2.2c0.8,1.1,1.5,1.7,2.2,1.6c0.6-0.1,1.1-1.4,1.4-4.1c0.3-2.2,0.4-3.7,0.3-4.1
	c-0.1-0.4-0.4-1.6-0.5-2c0-0.1,0-0.2,0-0.4c-0.3-0.1-0.4-0.2-0.3-0.2h0.3c0-0.5,0.1-1.1,0.3-1.8c0.2-1.2,0.3-2,0.2-2.5
	C85.6,42.7,85.7,42.7,85.6,42.6C85.7,42.7,85.6,42.7,85.6,42.6z M89.5,27.6c0.6-1.9,1.1-3.5,1.4-4.7c-2.5,0.5,0-1-0.8-1.1h1l-1,0.6
	l0.9,0.1c0.1-0.5,0.2-0.9,0.2-1.3l-1.4-0.1c0.6,0.3-0.7,0.6-1.4,0.9c-0.1,0.1-0.3,0.2-0.4,0.2c0.1-0.1,0.2-0.1,0.4-0.2
	c0.3-0.2,0.6-0.6,1.3-0.7l-0.6-0.2c0.5,0.1,1.6-0.1,2.1-0.1c0-0.2,0-0.4,0-0.5c-0.1-0.4-0.3-0.9-0.5-1.4c-0.8,0.1-1.1,0.1-2.9,0.3
	c0.5-0.1,1.7-0.5,1-0.7H90l-0.4-0.4c0.2,0.1,0.4,0.1,0.8,0.1c-0.2-0.5-0.4-0.8-0.5-1l-1,0.1c-0.2,0.4-0.9,0.4-1.4,1.6
	c-0.7,3.3-1.3,6.1-1.8,8.2C87.5,27,88.7,27.4,89.5,27.6z M116.8,47.8c-0.3,0-1,0-1.8-0.1c-0.2,1.6-0.3,2.4-0.2,2.6
	c0.1,0.5,0.5,1.1,1.4,1.6c0.6,0.4,1.1,0.7,1.6,0.8c0.5-0.6,0.9-1.5,1-2.8c0-0.8,0.1-1.5,0.1-2.3C118.1,47.9,117.5,47.9,116.8,47.8z
	 M229.8,27.2c0.5,0.7,1.7-0.1,2.8-0.1c-0.1-1.6,0.1-3.8,0.6-6.5c0.1-0.4,0.1-0.7,0.2-1.1c-0.4,0.1-0.7,0.1-1,0.1
	c-1.3,0.2-2.5,0.3-2.6-0.1c1.4-0.7,1.6,0,2.6,0.1c0.3,0,0.7-0.1,1-0.2c0.1-0.6,0.2-1.2,0.3-1.8c-0.5,0-0.8-0.2-0.9-0.3l1,0.1
	c0.4-1.7,0.7-3.2,1.2-4.5c1.2-3.7,2.3-6.5,3.1-8.4c-0.8-0.2,0-0.5,0.4-0.8c0.1-0.1,0.1-0.2,0.2-0.3c-0.1-0.1-0.5-0.2-1.5-0.3
	c-2,0.1-0.2,0.6-1.4,0.6l-0.2-0.3c-0.1,0.2-0.4,0.3-0.8,0.3c-0.7,1.4-1.5,3.1-2.2,5.2c-0.9,2.7-1.8,5.4-2.8,8.1
	c-0.8-0.8-1.3-1.2-1.4-1.2c-0.1,0-0.4-0.1-1,0c-2.7,0.5-5.7,3.5-8.7,8.9c-2.2,3.9-3.5,7-3.7,9.3c-0.1-0.1-0.4-0.2-0.5-0.3
	c-1.1,0.8-1.9,1.5-2.7,2c0.8,0.1,1.5,0.2,2.4,0.2c0.3-0.5,0.6-1,0.7-1.4c0,0.5,0,0.9,0,1.4c0.2,0,0.4,0,0.5,0c0,0.2-0.2,0.3-0.4,0.4
	c0.1,0.2,0.3,0.4,0.6,0.7c1.2,0,2.3,0.2,2.6-0.1H218c0.7,0.1,1.4,0.1,1.9,0.2c0-0.1-0.1-0.2,0.3-0.3c0.4,0.2,0,0.5,0.3,0.7
	c0.2,0,0.5,0,0.3,0.1h0.1c1.5-1,3.1-2.7,4.7-5.1c1-1.5,1.8-2.9,2.5-4.1c-0.6,0-1.2,0.1-1.5,0.2l1.2,0.2L226,29
	c0.3,0,0.6-0.3-0.1-0.5c1.2,0,1.1-0.8,1.8-0.3l0.2-0.4v-0.1v0.1c0,0.1,0.2,0.1,0.5,0.1c0.1-0.2,0.2-0.4,0.3-0.6
	c-0.1,0-0.3,0.1-0.5,0.2c0.1-0.1,0.3-0.1,0.5-0.2c0.2-0.3,0.3-0.7,0.4-1l0,0c0,0,0-0.1,0.1-0.1c0.1-0.3,0.3-0.7,0.4-1
	c0,0.3,0,0.5-0.1,0.8c0.5-0.2,1.4-0.5,1.4-0.5c0.2,0.4-0.8,0.4-1.4,0.6c0,0.4,0,0.7,0,1.1c0.3,0,0.6,0,0.8-0.1L229.8,27.2z
	 M235.5,3.9c0.8-0.1,1.9-0.6,1.8-0.1c-1.4-0.2-0.6,0.4-1,0.5l-1.5-0.1C235.7,4.2,235.9,4.2,235.5,3.9z M231.9,17.8l-0.6,0.1
	l-0.5-0.5L231.9,17.8z M225.7,19.8c0,0.1-0.1,0.2-0.4,0.3l-0.6-0.3C224.9,19.8,225.5,19.6,225.7,19.8z M222.2,33.8
	c0,0.1,0,0.2-0.1,0.3c0.1,0.1,0.1,0.1-0.3,0.2c0.1-0.1,0.2-0.1,0.3-0.2c-0.2-0.2-0.8-0.3,0.4-0.4L222.2,33.8z M226.5,24.3
	c-0.6,1-1.2,2-1.8,3.1c-0.7,1.4-1.6,2.8-2.6,4.2c-1.3,1.7-2.5,2.8-3.6,3.1c-0.2-0.1-0.3-0.3-0.3-0.5c-0.2-1,0.5-3,2.2-6.1
	c1.5-2.7,2.6-4.5,3.4-5.2c0.5-0.6,1.1-1.2,1.6-1.8c0.8-0.7,1.5-1.1,2.1-1c0.2,0.1,0.3,0.3,0.4,0.6C228,21.1,227.5,22.3,226.5,24.3z
	 M230.5,24.4h0.7l0.3,0.5L230.5,24.4z M229.5,27.3c0,0.1,0,0.3,0,0.4c0.1,0,0.3-0.1,0.4-0.1C229.7,27.6,229.6,27.5,229.5,27.3z
	 M161.9,42.1c0-0.1,0-0.1,0-0.2c-0.1,0.1-0.3,0.1-0.4,0.2C161.7,42,161.8,42.1,161.9,42.1z M168.9,42c0-0.1-0.1-0.2-0.3-0.2
	c0.1,0.2,0.3,0.4,0.4,0.6c0.5,0.7,1,1.1,1.4,1.2c0,0,0,0,0.1,0s0.3,0.1,0.4,0.1l0.7-0.3l0.3,0.2c1-0.3,2-0.8,3-1.6
	C172.6,42,170.5,41.9,168.9,42z M209.7,37.9l0.4-0.2c-0.9-0.3-1.4,0.4-2.3,0.3c-0.1-0.4,1.9-0.5,1.3-0.9c-1.9,0.3-0.5-0.1-2.2,0
	l0.6,0.3l-2.1-0.4c0.4,0.4,1,0.9,0.1,1.2c-0.2,0-0.4,0-0.5,0c0.4,0.6,0.9,1.1,1.5,1.4c0.4-0.2,0.2-0.4,0.5-0.7c-0.2,0-0.5,0-0.5,0.1
	l-0.1-0.3c1.8-0.1,4.3-0.4,5.5-0.8C211.4,37.5,210.4,38.2,209.7,37.9z M162.2,21.9c-0.1,0-0.3,0-0.4,0c0.1,0,0.2-0.1,0.3-0.1
	c-0.8-0.7-1.8-0.9-2.8-0.8c-0.8,0.1-1.6,0.4-2.2,1c0.6-0.1,1.2-0.1,1.9,0c-0.5,0.4-1.4,0.5-2.3,0.5c-0.3,0.3-0.5,0.7-0.7,1.2
	c-0.7,1.3-1,2.8-0.9,4.3c0.6-0.1,1.2-0.2,1.2-0.5h-0.8l1.1-0.4l-0.4,0.2c0.4,0.3,1.4,0.4,2.5,0.3c0-0.5,0-0.7,0-0.8
	c0.2-0.9,0.8-1.5,1.8-1.5c0.4,0,0.7,0.1,0.9,0.3c0.6,1.2,1.1,1.8,1.3,2c0.7,0.3,1.2,0.5,1.3,0.6c0-0.2,0.1-0.5,0.3-0.8
	c-0.1,0-0.2,0-0.4,0c-0.1,0-0.2,0.1-0.4,0.1v0.1c-0.3,0.3-0.2-0.1-0.3-0.3c0.2,0.1,0.4,0.1,0.6,0.1s0.3,0,0.4,0
	c0.1-0.3,0.3-0.7,0.3-0.8c0-1.3-0.5-2.5-1.4-3.6C162.8,22.4,162.5,22.1,162.2,21.9z M211.9,37.4c0,0,0.4-0.1,0.9-0.1
	c0.2-0.2,0.4-0.5,0.6-0.7C212.7,36.9,212.1,37.1,211.9,37.4z M204.5,37.2c0,0.1,0.1,0.2,0.1,0.2C204.7,37.4,204.7,37.3,204.5,37.2z
	 M185.7,41.8c0.3,0,0.5-0.1,0.8-0.1c-0.1-0.1-0.3-0.2-0.9-0.2C185.3,41.6,185.5,41.7,185.7,41.8z M189.8,42.5
	c0.4-0.3,0.7-0.5,1.1-0.9c-0.9,0.1-1.7,0.3-2.5,0.6C188.8,42.3,188.8,42.6,189.8,42.5z M207,34.3c-0.1-1.1,0.2-3.1,0.9-6.3
	c0.8-3.1,1-5.3,0.9-6.6c-0.2-1.3-0.6-1.9-1.4-1.8c-1.1,0.1-2.1,0.8-3.2,2.1c-0.6,0.8-1.6,2.2-2.8,4.3c-1.2,2-2.1,3.4-2.8,4.3
	c-0.1-0.1-0.2-0.2-0.2-0.4c0-0.3,0.1-1.5,0.5-3.2c-0.4,0.2-0.4,0.1-1,0l1-0.1c0-0.1,0-0.1,0-0.2c0.4-1.8,0.5-3.1,0.3-3.8
	c-0.1,0-0.3-0.1-0.9-0.4c-0.4-0.2-0.7-0.2-0.8-0.2c-0.7,0.1-1.9,0.9-2,1.6c-0.1,0.9-0.3,1.9-0.4,3c0.5,0,1,0,1.2,0.1
	c-0.2-0.1,0.1-0.3,0.2-0.5c2,0-0.2,1.1,0,1.5c0.1,0,0.2,0.1,0.3,0.1c-0.2,0-0.2-0.1-0.3-0.1c-0.4-0.2-0.8-0.3-1.6-0.1
	c0,0.3-0.1,0.6-0.1,0.9c0.4,0,0.7,0,0.9,0.1l-1,0.3c-0.1,1-0.3,2-0.4,3.2c0,0.4-0.1,0.8-0.1,1.1c1-0.2,2.1-0.4,2.4-0.3
	c-1.3,0-1.8,0.3-2.4,0.6c-0.1,1-0.2,1.8-0.2,2.4c-0.9,0.7-1.7,1.5-2.6,2.2c-1.5,1.3-2.7,2-3.7,2.1c-1.2,0.2-2.2-0.3-3.1-1.6l0,0
	c-0.1,0-0.2-0.1-0.3-0.1h0.2c-0.6-0.9-1-1.9-1.2-3.1c-0.1-0.4,0-1.4,0.2-3c0.2-1.9,0.4-3.3,0.6-4.3c0.3-0.9,0.7-1.9,1.2-3.1
	c0.3-1.3,0.2-2.1-0.1-2.5c-0.8-0.6-1.4-0.8-1.9-0.8s-0.9,0.6-1.2,1.6c-0.2,0.6-0.4,1.2-0.6,1.7c-0.5-0.8-1-1.8-2.2-1.6
	c-2,0.2-4.6,2.5-7.6,6.9c-1.6,2.4-2.8,4.4-3.4,6.1c0.7-0.1,2-0.1,3,0.2c-2-0.2-1.9,0.4-3.3,0.5c-0.4,1.1-0.5,2.1-0.4,2.9
	c0.1,0.4,0.2,0.8,0.4,1.2c0.7-0.1,1.4-0.3,2-0.3v-0.1c-0.1,0-0.2,0-0.3-0.1c-0.6,0-1.7,0.2-1-0.2c0.3,0,0.6,0.1,1,0.2
	c0.2,0,0.3,0,0.3,0.1c0.5,0.1,1,0.2,1.5,0c0.1-0.2-0.4-0.2-0.6-0.3h1.5v-0.1l1.4,0.2l0.1-0.3c0.9,0.2-0.6,1,1.3,0.6h0.1
	c0.2-0.2,0.3-0.3,0.5-0.5l4.2-4.9c0,0.5,0,1,0,1.5c0.2,1.1,0.5,2.2,1.1,3.3c1.2-0.2,2.7,0.4,3.1,0.8c1.8-0.1,3.7-0.8,4.4-0.4
	l-1.3,0.2c0,0.2,0.9,0.1,1,0.3c0.7-0.1,1.5-0.1,2.3-0.1c0.2,0,0.3,0,0.5,0.1c0.4-0.3,0.8-0.7,1.1-1c0.7-0.7,1.3-1.3,1.8-1.9
	c0.1,0.1,0.2,0.2,0.4,0.4c0.5,0.5,1,0.7,1.4,0.6c0.4-0.1,1.4-0.8,1.8-0.9c0.5-1.4,1.5-3.4,3.1-5.8l0.1-0.1l-0.3-0.1h0.3
	c0.6-0.9,1.3-2,2.2-3.2l-0.5-0.1L203,29l0.4,0.1c0.3-0.4,0.6-0.9,1-1.4c0,0-0.1,0.5-0.2,1.5h0.1h-0.1c0,0.4-0.1,0.9-0.2,1.5
	c-0.1,0.9-0.2,1.7-0.2,2.3l0.6,0.3c-0.3,0-0.5-0.1-0.6-0.1c0,0.8,0,1.4,0.1,1.8c0.2,0.8,0.4,1.6,0.7,2.2c0.4-0.8,1.8-0.9,3.1-1.1
	C207.3,35.7,207.1,35.1,207,34.3z M179.6,31.6c-0.3,0.5-1.3,2-3.3,4.3c-2.2,2.5-3.5,3.8-4.1,3.9c-0.4,0.1-0.7-0.4-0.9-0.4
	c0-0.9,0.4-2.1,1-3.5c0.7-1.4,1.4-2.6,2.2-3.5c0.6-0.8,1.2-1.5,1.8-2.2c1-1.2,1.9-1.8,2.4-1.9c0.4-0.1,1.4,0.3,1.7,0.3
	C180.3,29.6,180,30.7,179.6,31.6z M182.5,36.5l-0.5-0.3c-0.1,0-0.1,0-0.1,0l-0.9,0.3l0.8-0.4c0,0,0.1,0,0.1,0.1h0.1l0.1,0.1
	C182.3,36.2,182.8,36.3,182.5,36.5z M200.7,30l-0.9-0.2c0.3-0.1,0.9-0.4,1.1-0.2C201,29.8,200.3,30,200.7,30z M182,41.3
	c0.2,0.3,0.5,0.6,0.9,0.9c0.9-0.1,1.7-0.2,2.6-0.4C184,41.9,183.2,41.3,182,41.3L182,41.3z M3,31.1c1.4,0.1,1.1,0.3,1.3,0.7
	c0.6-0.2,1.1-0.3,1.4-0.3c0-0.4-0.1-0.9-0.1-1.3c0-0.9,0.7-1.7,2.1-2.3c1.1-0.5,2.2-0.9,3.2-1s1.5-0.1,1.7,0l0.1,0.7
	c-0.4,0.9-0.8,1.9-1.2,2.9c0.7-0.1,1.4-0.1,2-0.4l0.1,0.5c0.3,0,0.9-0.1,1.4-0.2c1.2-3,1.9-4.6,2-4.6c1.5-0.2,3.3-0.1,5.5,0.4
	c2.9,0.6,4.5,1.7,4.6,3.2c0,0.2,0,0.5-0.2,0.9l0.8-0.2c0.2,0.3-0.1,0.2-0.8,0.3c-0.1,0.3,1.7,0.2,2.7,0.1l-1.1,0.4
	c0.9,0.4,2.2-0.5,1.2,0.2c-0.3-0.4-1.7,0.5-1.9-0.1c-0.1,0-0.2,0-0.3,0c-0.4,0.2-0.6,0.3-0.3,0.4c1-0.1,2.1,0.5,2.6-0.2
	c0,0,0,0.1,0,0.2c0.7-1.2,1-2.3,0.9-3.2c-0.3-1.9-1.6-3.3-4.2-4.4c-2.2-0.9-4.2-1.3-6-1.1c-0.2,0-0.6,0-1.3-0.1
	c-0.7-0.1-1.1-0.1-1.4-0.1C5.7,24.2-0.3,27.1,0,31.2c1.2-0.1,0.9,0.6,2.8,0.5L3,31.1z M188.3,43.1c0,0-0.1,0.1-0.2,0.2l0,0
	c0,0,0,0-0.1,0l0,0h-0.6c-0.2,0.1-0.5,0.2-0.7,0.2c0.4,0,0.9,0,1.3-0.1c0.3-0.1,0.5-0.2,0.8-0.4C188.7,43,188.5,43,188.3,43.1z
	 M161.8,43.3c0-0.1,0-0.1,0-0.2h-0.4L161.8,43.3z M11,55.5c-0.1,0.1-0.3,0.3-0.4,0.4c1-0.1,2.1-0.2,2.9-0.2l0.1-0.1
	c0-0.2,0-0.3,0-0.5c-0.2,0-0.4,0-0.6,0.1c-0.5,0.6-1.2-0.1-1.9,0.5L11,55.5z M158.5,42.6c-0.1,0-0.1,0-0.2,0
	c-0.1,0.4-0.3,0.7-0.5,1.1l0.9-0.2v0.1c0.4-0.1,0.7-0.1,1.1-0.2l-0.2-0.7c-0.3,0-0.5,0.1-0.6,0.2c0,0.1-0.1,0.1-0.2,0.2
	c-0.1,0.2,0.2,0.4-0.7,0.5c0-0.1,0.4-0.3,0.7-0.5c0-0.1,0.1-0.1,0.2-0.2C159.1,42.7,159,42.6,158.5,42.6z M9.8,56.8
	c0.2,0.1,0.4,0.2,0.4,0.4c1.7,0.1,0.9-0.4,2-0.6L11.9,57h0.5c0.3-0.3,0.6-0.6,0.8-0.9c-1.1,0.1-1.8-0.2-2.3,0.6l-0.8-0.1
	C10,56.5,9.9,56.7,9.8,56.8z M59.5,56.7c-1.5,1.1-2.7,1.7-3.6,1.8c-0.8,0.1-1.6-0.3-2.2-1.4c-0.5-0.8-0.8-1.5-0.8-2
	c-0.1-1.5,0.2-3.7,0.9-6.5c0-0.1,0-0.1,0.1-0.2c-1.2,0.2-3,0.2-2.7,0.9l-0.4-0.4c1.6-0.1-0.3-0.6,1.4-0.6c-0.4,0,0.1-0.4-0.1-0.6
	h-0.4c0.2,0,0.3,0,0.4,0h0.5C52.1,48,53.1,48,54,48.1c0.7-2.4,1-3.6,1.1-3.3c-0.1-0.4-0.3-0.8-0.7-1.1c-0.7-0.7-1.1-1.1-1.3-1.2
	c-0.7,0.3-1.3,0.9-1.8,1.9c-0.4,0.8-0.7,1.6-1,2.4c-1,1.8-1.8,3.1-2.3,3.9c-2.7,4.5-4.8,7.2-6.3,8c-0.2-0.1-0.2-0.2-0.1-0.3
	c-0.1-1.5,0.4-3.5,1.2-6.2c-0.8,0-1.4,0-1.7-0.1c0.5-0.1,1.2-0.2,1.8-0.3c0.2-0.5,0.3-1,0.5-1.5c0.1-0.2,0.1-0.4,0.2-0.6
	c-0.1,0-0.2,0-0.3,0c0.1,0,0.2,0,0.3-0.1c1.1-3.1,1.7-4.6,1.7-4.6c0-0.2-0.1-0.4-0.2-0.7c-0.4,0.2-0.9,0.6-0.8,0.7
	c-0.4-0.1-0.5-0.4-0.8-0.5c0.5-0.1,1.1-0.2,1.5-0.3c-0.1-0.3-0.3-0.5-0.5-0.9c-0.2-0.3-0.3-0.5-0.5-0.6l-0.9-0.1l0.3-0.1l0.5,0.1
	c-0.3-0.3-0.5-0.4-0.7-0.4c-0.4,0.1-0.9,0.8-1.4,2.1l1.4,0.6l-1.5-0.3c-0.5,1.2-1,2.8-1.6,4.8c-1.3,4.5-1.9,7.4-1.7,8.6
	c0.1,0.9,0.3,1.6,0.6,2.2c0.9-0.1,1.4,0,2.1,0c-0.4,0-1.2,0.2-1.9,0.3c0.1,0.2,0.3,0.4,0.4,0.6c0.1,0,0.3,0,0.5,0
	c-0.2,0.1-0.3,0.1-0.4,0.1c0.7,0.7,1.7,1,2.9,0.8c1-0.1,2.2-1.2,3.7-3c1.2-1.7,2.3-3.3,3.5-5c0,0.4,0,0.9,0,1.4
	c0.2,1.7,1,3.2,2.3,4.5c0.3,0.3,0.6,0.5,1,0.8c0.3,0,0.5,0,0.5,0.2c0,0-0.1,0-0.1,0.1c0.6,0.3,1.3,0.5,1.9,0.5
	c-0.1-0.3,1.3,0,1.1-0.4c0.7,0,0.4,0.2,0.3,0.3c1.3-0.3,2.7-1.1,4.1-2.6c1.2-1.2,2-2.4,2.4-3.4L63,54.6
	C62.3,54.8,61.2,55.5,59.5,56.7z M50.4,51.2l-0.7-0.3h0.8C50.3,51,50.7,51.2,50.4,51.2z M51.9,49.1L53,49
	C53.1,49.3,52.2,49.2,51.9,49.1z M13.7,53.9l-1.2,0.2c-0.3,0.3-0.6,0.6-0.9,0.9c0.6,0,1.3,0,2-0.1C13.6,54.5,13.7,54.2,13.7,53.9z
	 M158.6,28.9c0-0.1,0-0.3,0-0.4c-0.8,0.1-1.4-0.2-2.5,0.8c-0.3,0-0.6,0-0.8,0c0,0.1,0.1,0.3,0.1,0.4c0.4,0.1,0.4,0.2,0.1,0.3
	c0.2,0.6,0.8,2.1,1.7,4.8c1.1,3.1,1.7,4.8,1.7,5.1c0,0.4,0,0.9,0,1.3c0.1,0.1,0.2,0.1,0.4,0.2c0.6-0.1,1.3-0.2,2.2-0.2
	c-0.5,0.4,0,0.4,0.6,0.3v-0.1c0-1.5-0.6-3.8-1.7-7.1C159.1,31,158.6,29.2,158.6,28.9z M156.4,30.5l-0.4-0.2
	C156.2,30.3,156.3,30.4,156.4,30.5l0.7,0.2l0.1-0.1c0.3,0.1,0.5,0.2,0.9,0.3C156.4,31.3,156.9,30.8,156.4,30.5z M33.9,41.1
	c-1.1-0.7-2.7-1.2-4.6-1.7c-1.2,0.3-2.2,0.5-3.6,0l1.2-0.4l-0.8,0.4c0.6-0.1,1.5-0.1,1.9-0.2c-1.5-0.2-3-0.5-4.4-0.7
	c1.4-1.4,2.8-2.9,4.2-4.3c0.6-0.7,1.1-1.3,1.5-1.9l-3.9,0.1c0.4-0.2,1-0.5,1.8-0.7l-0.9-0.5c-0.7,1-1.9,2.4-3.8,4
	c-2.9,2.6-4.9,4-5.8,4.1c-0.3,0-0.6,0.2-1,0.4c-0.6,0.3-0.9,0.4-1,0.5c-1.5,0.6-2.6,1.2-3.4,1.8l-0.9,0.1c0.2-0.7,0.9-2.6,2.1-5.8
	c-0.8,0.1-1.5,0.3-1.9,0.5l-0.4-0.4c-0.3,0-0.7,0-1,0C9.1,37,9,37.5,8.8,38l-3,9.8c-1.2,3.7-2,6.1-2.6,7.3c-0.3,0.6-0.7,1.6-1.1,3.2
	c0.2,0,0.4-0.1,0.6-0.1c0-0.1,0.4-0.3,0.2-0.4c-0.1,0-0.2,0-0.3,0c0.1,0,0.2,0,0.3,0c1,0.2,1.8-0.1,2.8-0.4c0-0.1,0-0.3,0-0.4
	c1-4.3,2.3-8.1,3.9-11.3c0.6,0.8,1.2,1.1,1.6,1.1c0.4-0.1,1.6-0.7,3.6-1.8c2.1-1.1,3.9-1.8,5.5-2.1c2.5-0.3,4.9-0.3,7.2,0.2
	c2.3,0.4,3.9,1.2,4.8,2.4c0.3,0,0.8-0.1,1.4-0.2l0.1,0.5c-0.4,0.1-0.8,0.1-1.2,0.2c0.3,0.5,0.4,0.9,0.5,1.5c0.3,2-1,4.4-3.9,7.4
	c-1,1.1-2.1,2.1-3.3,3.1c0.6,0.1,1.2,0.3,0.7,0.6c-0.1-0.2-0.5-0.3-1-0.4c-1.6,1.3-3.3,2.6-5.3,3.9c-3.3,2.2-5.7,3.4-7.1,3.6
	c-2.4,0.3-3.7,0-3.8-1.1c-0.3-1.9,0.3-3.8,1.5-5.9l-0.7,0.1c0.3-0.1,0.5-0.2,0.7-0.2c0,0,0.1-0.1,0.1-0.2c-0.6-0.2,0.3-0.7,0.4-1
	l-1.5,0.1L10,58l-0.9-0.3c-0.4,0.2,0,0.6,1,0.5l-1.9,0.6c0.2-0.3,0.1-0.4-0.2-0.4c-0.1,0.2-0.3,0.4-0.4,0.6c-1.5,2.2-2,4.4-1.7,6.5
	c0.2,1.3,0.8,2.4,1.9,3.2c1.1,1,2.3,1.3,3.7,1.2c2.2-0.3,5.4-1.8,9.5-4.5c2.1-1.4,4.1-2.8,5.9-4.3c-0.7,0.1-1.6,0.1-2.2,0.1
	c0.9-0.1,1.7-0.4,2.6-0.5c1.1-1,2.2-2,3.2-3c-1.2,0.1-2.9-0.2-3.9-0.1c1.4-0.5,1.5-0.1,2.8-0.8l0.9,0.5c0.3-0.3,0.6-0.3,0.9-0.3
	c0.3-0.3,0.6-0.7,0.9-1c3.5-4.1,5-7.7,4.5-11C36.5,43.6,35.6,42.2,33.9,41.1z M4.7,55.5c-1.1,0.2,0-0.1-1.4,0
	C3.6,55.2,4.2,55.6,4.7,55.5z M3.4,56.4l1.7-0.5l0.4,0.4L3.4,56.4z M6.7,45.3c0.3,0.1,1.5,0.1,1.9,0.3C7.6,45.7,6.4,45.8,6.7,45.3z
	 M30.3,39.8l-0.4,0.3h-1.2L30.3,39.8z M19.1,42.9c-0.4-0.2,1.1-0.3,0.1-0.4c-2,0.7-4.7,0-6.9,0.6L12,42.4c2,0.2,4.3-0.4,6.3-0.4
	l-0.5-0.2c0.4,0.1,0.9,0.1,0.4,0.3l4-0.2C20.5,42.1,20.3,42.8,19.1,42.9z M22.5,40l0.2-0.3l1.4,0.4L22.5,40z M31,41.5
	c-0.7,0.1-1,0.3-1.4,0.6c-0.7,0-1.1-0.3-1.7-0.2c-0.1,0.1,0.2,0.3,0.5,0.3h-1.1l-0.2,0.4c-0.9,0.2-1.1,0.2-1.4-0.1l1.8-0.3
	c-0.3-0.3-2.3,0.2-2.4-0.2c0.1-0.3,1.1-0.2,1.3-0.1C26.4,41.4,29.2,41.6,31,41.5c0.3,0,0.6-0.1,1-0.1C31.7,41.4,31.4,41.4,31,41.5z
	 M31.7,53.1L31.7,53.1c-0.2,0.1-0.4,0.1-0.5,0.1c-0.1,0-0.3,0-0.3-0.1c0.1,0,0.2,0,0.3,0.1C31.3,53.2,31.5,53.1,31.7,53.1l-0.2-0.2
	h1.2C32.4,53,32,53,31.7,53.1z M34.3,45.7c0.5-0.1,0.3-0.3,0.2-0.5c0,0.1,0.4,0.3,1.4,0.2L34.3,45.7z M4.8,58.8
	c-0.9-0.3,0.3-0.6-1.4-0.5c-0.2,0.5-1.6,0.2-1,0.7c-0.2,0-0.4,0-0.5,0c-0.5,1.7-0.7,2.5-0.7,2.6c0.1,0.4,0.2,0.8,0.6,1.3
	c0.5,0.7,0.9,1,1.4,0.9L4,63.7c0.1-0.6,1.3-2,1.4-2.6c0.1-1,0.2-1.8,0.3-2.5c-0.3,0-0.6,0-0.8-0.1C5,58.6,5,58.7,4.8,58.8z M98.3,49
	c2.5-0.7,5.2-2.6,7.9-5.7c2.9-3.3,4.3-6,4-8c-0.1-0.8-0.6-1.5-1.5-2.2c-0.9-0.7-1.7-1-2.5-0.8c-2.9,0.4-5.6,2.6-8.3,6.7
	c-0.6,0.9-1.1,1.8-1.6,2.7c0.4,0,0.8,0,1.1,0.2l-0.6,0.4l-0.1-0.4c-0.2,0-0.3,0-0.5,0c-1.5,2.9-2,5.3-1.7,7.5c0.3,0,0.7-0.1,1.1-0.3
	C95.5,49.6,97.2,49,98.3,49z M107.2,38.5l1.2,0.3c-1.1,0.2-1.4-0.3-2,0.2l-0.3-0.4C106.6,38.6,107.1,38.7,107.2,38.5z M101.1,40
	c1.7-2.2,3.4-3.4,4.9-3.6c0.2,0,0.5,0.1,0.8,0.3c-0.6,2-1.6,3.6-2.9,4.9c-1.3,1.3-2.1,2-2.6,2.3c-0.9,0.7-1.8,1.1-2.9,1.2
	C98.7,43.6,99.6,41.9,101.1,40z M98.3,46l-0.4,0.2L97,45.9L98.3,46z M128.4,33.5l-1.1,0.4l2-0.1c-0.2-1.4-0.5-2.5-0.8-3.3
	c-0.1,0-0.3,0-0.5,0c-0.3,0.2-0.3,0.3-0.3,0.4c0.1,0.2,0.4,0.2-0.7,0.6c-1.9,0.4-1.7,0.5-3.1,1h0.4c0.2-0.1,0.4-0.1,0.9,0h-0.9
	c-0.4,0.1-0.2,0.5-0.8,0.6c0.8-0.1,1.1,0.1,1.5,0.3c0.2-0.1,0.4-0.2,0.5-0.2c0.5-0.1,0.9,0.1,1.1,0.6
	C127.5,33.6,128.3,33.3,128.4,33.5z M151,44.1c0.4,0,0.7,0,0.9,0c-0.1,0-0.3,0-0.6,0l1.3-0.2c0.3-0.1,0.5-0.3,0.9-0.3
	c0-0.1,0-0.2,0.1-0.3l0,0l0,0c0.1-0.3,0.1-0.6,0.2-0.9c-0.2-0.1-0.3-0.2,0-0.1l0,0c0-0.1,0-0.1,0.1-0.2c0.3-0.7,0.5-1.5,0.8-2.3
	c-0.5,0-0.9,0.1-1.3,0.1c-0.5,0.4-1,0.8-1.6,1.2c-0.8,0.8-1.2,2-1.5,3.6C152.3,44.5,150.1,44.5,151,44.1z M153.7,41.9
	c-0.7,0-1.2,0.1-1.8,0.2C152.6,41.9,153.4,41.6,153.7,41.9z M155.1,46c-1,0.1-1.6-0.2-1.7-1l0,0c-0.4,0.1-0.6,0.1-0.8,0.1
	c-0.8,0.1-1.6,0.2-2.3,0.3c0,0.3,0,0.6,0,0.9c0.2,1.8,1.5,2.9,3.2,3.2c0.1,0,0.2-0.1,0.2-0.1c0.4,0,0.4,0.1,0.2,0.2
	c0.4,0,0.8,0,1.2,0c2.3-0.3,4-1.4,5.3-3.3c0.5-0.8,0.9-1.5,1.1-2.3c-1.5,0.4-2.9,0.9-4.6,1.1C156.4,45.6,155.8,45.9,155.1,46z
	 M155.5,48.4c0.5-0.1,0.1-0.2,0.2-0.4h2.2L155.5,48.4z M1.9,58.9L1.9,58.9c0.2-0.1,0.5-0.3,0.1-0.3C2,58.7,1.9,58.8,1.9,58.9z
	 M15,30.5c-0.5,0.1-0.8,0.3-0.6,0.5l-1.5,0.1l0.4-0.4c-0.7,0.1-1.3,0.2-2,0.3c-0.1,0.2-0.1,0.3-0.2,0.5c0.4,0,0.7,0,0.6,0.2
	c0.8,0,0.6-0.2,0.9-0.4c0.4,0.2,0.7,0.1,1.2,0.1l-0.9,0.4c0.9,0.3,0.7-0.1,1.6-0.1C14.6,31.3,14.8,30.9,15,30.5z M29.4,32.2
	c0.1-0.1,0.1-0.2,0.2-0.3c-0.1,0-0.2,0-0.2,0C28.8,32.1,29.3,32.1,29.4,32.2z M4.4,33.8C3.7,34.2,3,34,2.5,33.9
	c0.7,0.5,1.3,0.7,1.7,0.7c0.9-0.1,1.4-0.6,1.6-1.5C5,33.2,4.7,33.5,4.4,33.8z M10.5,32.9c-0.4,1.1-0.8,2.2-1.2,3.4
	c1.1,0,2.3-0.3,3.5-0.4c0.3-0.8,0.6-1.6,1-2.5c0.2-0.4,0.3-0.8,0.5-1.2c-0.6,0.3-1.2,0.3-2,0.6C11.6,32.9,11.1,32.9,10.5,32.9z
	 M110.4,48.5c0,0.1-1.1,0.7-3.3,2c-1.9,1.1-3.4,1.8-4.4,1.9c-0.9,0.1-1.8-0.1-2.7-0.6c-1-0.5-1.6-1.3-2-2.2
	c-1.1,0.2-2.1-0.1-3.3-0.2c0.3,1.8,1.1,3.2,2.4,4.4c1.5,1.4,3.3,1.9,5.4,1.6c1.2-0.2,2.9-1.1,5.2-2.8c2.3-1.7,3.7-3,4.2-3.9
	C111.3,48.5,110.8,48.4,110.4,48.5z M129.4,33.9c-0.7,0.2-1.6,0.2-2.5,0.3c0.1,0.4-0.2,2.1,0,2.6c0,0.2,0.1,0.4,0.1,0.6
	c0.1,0,0.2-0.1,0.3-0.1c0.1,0.1-0.1,0.2-0.3,0.3c0.1,0.5,0.3,1.1,1,1.6c0.5-0.3,0.9-1,1.2-2c0.3-0.9,0.3-1.7,0.2-2.4
	C129.5,34.4,129.4,34.1,129.4,33.9z M1.5,33.1c0.1,0.1,0.2,0.2,0.3,0.2c0.1,0.1,0.2,0.1,0.3,0.2v-0.1C2.5,33.3,2.1,33.2,1.5,33.1z"
	/>
</svg>
