<svg version="1.1" id="" xmlns="http://www.w3.org/2000/svg" xmlns:xlink="http://www.w3.org/1999/xlink" x="0px"
	 y="0px" width="204px" height="40px" viewBox="0 0 204 40" style="enable-background:new 0 0 204 40;" xml:space="preserve">
<style type="text/css">
<![CDATA[
	.st0{fill:#603813;}
]]>
</style>
<g>
	<path class="st0" d="M0.3,19.1h1.4c0.8,2.2,1.7,4,2.7,5.4s2.2,2.6,3.5,3.3c1.3,0.7,2.6,1.1,3.9,1.1c1.7,0,3.2-0.5,4.4-1.6
		c1.2-1.1,1.8-2.4,1.8-4.1c0-1.6-0.4-2.8-1.2-3.6C16,18.8,15,18,13.9,17.7s-2.6-0.7-4.4-1c-1.8-0.3-3.1-0.6-3.9-0.8
		c-1.2-0.4-2.2-1-3-1.7c-0.8-0.7-1.5-1.6-1.9-2.6C0.3,10.6,0,9.5,0,8.4s0.2-2.1,0.6-3.2C1,4.1,1.5,3.3,2.2,2.5
		c0.7-0.8,1.5-1.4,2.6-1.8C5.9,0.3,6.9,0,8.1,0c0.9,0,2,0.1,3.3,0.4c1.3,0.3,2.2,0.4,2.8,0.4c0.7,0,1.4-0.2,2.1-0.5h1.6l0.9,8.4
		h-1.4c-1.3-2.5-2.7-4.4-4.2-5.8S9.9,1,7.9,1C6.9,1,6,1.2,5.1,1.7s-1.5,1.1-2,1.9C2.6,4.4,2.3,5.2,2.3,6.2c0,1.4,0.5,2.4,1.4,3.1
		C4.6,10,6,10.6,7.9,11s3.5,0.7,4.9,0.9c1.4,0.2,2.6,0.6,3.4,1c1.6,0.8,2.8,1.8,3.6,3.2c0.8,1.4,1.3,2.9,1.3,4.6
		c0,1.6-0.4,3.2-1.2,4.6c-0.8,1.4-1.9,2.6-3.3,3.4s-3,1.3-4.8,1.3c-1,0-1.8-0.1-2.3-0.2c-0.5-0.1-1.4-0.4-2.6-0.9
		c-1.2-0.5-2.2-0.7-2.8-0.7c-1.1,0-2,0.4-2.6,1.3H0.3V19.1z M1,6C0.8,7,0.7,7.8,0.7,8.5s0.1,1.5,0.4,2.2c0.3,0.7,0.6,1.4,1.1,2.1
		c0.5,0.7,1,1.2,1.6,1.6c0.8,0.5,1.7,0.9,2.7,1.2c1,0.3,2.4,0.5,4.3,0.8c1.9,0.3,3.2,0.6,3.9,0.9c1.3,0.5,2.3,1.2,3.1,2.2
		c0.8,1,1.1,2.1,1.1,3.5c0,1-0.3,2-0.8,3.1c1.1-1.2,1.7-2.5,1.7-4.1s-0.4-2.9-1.2-3.8c-0.8-0.9-1.9-1.6-3.1-2.1
		c-1.2-0.5-2.9-0.9-5-1.2c-2.1-0.3-3.5-0.7-3.6-0.7c-1.9-0.5-3.4-1.4-4.4-2.6C1.5,10.4,1,8.9,1,7.3C1,7,1,6.7,1,6.5S1,6.1,1,6z
		 M1,22.9v5.5c0.4-0.5,0.8-0.9,1.1-1c0.3-0.1,0.9-0.2,1.5-0.2c-0.5-0.5-0.8-0.9-1-1.2c-0.2-0.3-0.4-0.6-0.7-1.1
		C1.6,24.4,1.3,23.7,1,22.9z M16.5,5.8l-0.7-3.9c-0.5,0.2-0.9,0.2-1.4,0.2s-1-0.1-1.6-0.2c0.5,0.4,1,0.8,1.4,1.2
		c0.4,0.4,0.8,1,1.3,1.6C16,5.3,16.3,5.7,16.5,5.8z"/>
	<path class="st0" d="M49.4,17.9l-5,12.1h-1.6l-4.6-10.2L33.9,30h-1.6l-6.5-14.2c-0.5-1.1-1-1.9-1.4-2.4s-1-0.7-1.7-0.8v-1.2H32v1.2
		c-1,0-1.6,0.5-1.6,1.3c0,0.2,0,0.5,0.1,0.8c0.1,0.3,0.2,0.6,0.3,0.8c0.1,0.2,0.2,0.5,0.4,0.8l3.8,8.1l2.5-6l-1.1-2.3
		c-0.5-1-0.9-1.7-1.3-2.2s-1-0.9-1.6-1.2v-1.2h10.1v1.2c-0.8,0-1.3,0.1-1.8,0.3S41,13.7,41,14.3c0,0.4,0.1,0.7,0.2,1
		c0.1,0.3,0.3,0.9,0.7,1.7l3.5,7.5l2.2-5.5c0.1-0.3,0.3-0.6,0.4-1s0.3-0.8,0.4-1.2c0.1-0.4,0.2-1,0.2-1.5c0-0.6-0.2-1.2-0.6-1.7
		s-0.9-0.8-1.6-0.9v-1.2h7.1v1.2C52,13.2,50.6,14.9,49.4,17.9z M27.1,17.1l5.5,12H33c0.2-0.5,0.3-0.8,0.3-1.1c0-0.5-0.4-1.5-1.1-3
		l-4.1-8.9c-0.4-1-0.8-1.7-1.1-2.1s-0.6-0.8-1-1s-0.9-0.3-1.6-0.3c0.3,0.2,0.6,0.5,0.8,0.8c0.2,0.3,0.5,0.8,0.9,1.5
		S26.8,16.4,27.1,17.1z M37.1,16.2l6,12.9h0.2c0.3-0.4,0.4-0.8,0.4-1.1c0-0.4-0.1-0.8-0.2-1.2c-0.1-0.4-0.4-0.8-0.6-1.3l-4.2-9.1
		c-0.5-1.2-1-2-1.3-2.4c-0.3-0.4-0.7-0.8-1.1-1c-0.4-0.2-0.9-0.3-1.6-0.3c0.5,0.3,1,0.8,1.3,1.3S36.7,15.3,37.1,16.2z M51.2,12.7
		h-3.1c0.4,0.3,0.7,0.6,0.9,1c0.2,0.4,0.3,0.9,0.3,1.5c0.1-0.5,0.4-0.9,0.7-1.4S50.8,13,51.2,12.7z"/>
	<path class="st0" d="M69.5,24.4l0.8,0.6c-0.6,1.1-1.3,2.1-2.2,2.8s-1.8,1.3-2.8,1.6c-1,0.3-2.1,0.6-3.2,0.6c-1.5,0-2.9-0.4-4.2-1.1
		c-1.3-0.7-2.3-1.8-3.1-3.1c-0.8-1.3-1.1-2.9-1.1-4.7c0-1.4,0.2-2.7,0.7-3.9s1.1-2.3,1.9-3.2c0.8-0.9,1.8-1.6,2.8-2.1
		s2.2-0.8,3.4-0.8s2.4,0.3,3.5,0.8s2,1.2,2.7,2.1c0.5,0.7,0.8,1.3,1,2c0.2,0.7,0.4,1.5,0.5,2.5H57.9c0.1,1.4,0.3,2.6,0.7,3.6
		s1,1.8,1.7,2.4c0.7,0.6,1.4,1,2.2,1.3s1.5,0.4,2.2,0.4C66.5,26.3,68.1,25.7,69.5,24.4z M58.2,13.3c-2.6,2-3.8,4.7-3.8,8
		c0,2.4,0.8,4.3,2.3,5.8s3.3,2.3,5.3,2.3c1.2,0,2.3-0.2,3.5-0.7s2.2-1.2,3-2.1c-0.8,0.5-1.7,1-2.6,1.3c-0.9,0.3-1.9,0.5-3.1,0.5
		c-2,0-3.7-0.7-5.1-2.1c-1.4-1.4-2-3.3-2-5.6c0-1.4,0.2-2.7,0.7-3.9C56.9,15.6,57.4,14.4,58.2,13.3z M58.1,17.3h7.2v-0.7
		c0-0.8-0.1-1.5-0.4-2.1c-0.3-0.6-0.7-1.1-1.2-1.4c-0.5-0.3-1.1-0.5-1.7-0.5c-1,0-1.9,0.5-2.6,1.4C58.7,14.9,58.1,16,58.1,17.3z
		 M65.9,17.3h1.4c0-1.5-0.4-2.7-0.9-3.4c-0.5-0.7-1.6-1.2-3-1.5c0.9,0.4,1.5,0.9,1.9,1.5c0.4,0.6,0.6,1.6,0.6,2.9V17.3z"/>
	<path class="st0" d="M89.2,24.4L90,25c-0.6,1.1-1.3,2.1-2.2,2.8c-0.9,0.7-1.8,1.4-2.8,1.7S82.9,30,81.8,30c-1.5,0-2.9-0.4-4.2-1.1
		c-1.3-0.7-2.3-1.8-3.1-3.1s-1.1-2.9-1.1-4.7c0-1.4,0.2-2.7,0.7-3.9s1.1-2.3,1.9-3.2s1.8-1.6,2.8-2.1s2.2-0.8,3.4-0.8
		c1.2,0,2.4,0.3,3.5,0.8c1.1,0.5,2,1.2,2.7,2.1c0.5,0.7,0.8,1.3,1,2c0.2,0.7,0.4,1.5,0.5,2.5H77.6c0.1,1.4,0.3,2.6,0.7,3.6
		c0.4,1,1,1.8,1.7,2.4s1.4,1,2.2,1.3c0.8,0.3,1.5,0.4,2.2,0.4C86.2,26.3,87.7,25.7,89.2,24.4z M77.9,13.3c-2.6,2-3.8,4.7-3.8,8
		c0,2.4,0.8,4.3,2.3,5.8s3.3,2.3,5.3,2.3c1.2,0,2.3-0.2,3.5-0.7c1.2-0.5,2.2-1.2,3-2.1c-0.8,0.5-1.7,1-2.6,1.3
		c-0.9,0.3-1.9,0.5-3.1,0.5c-2,0-3.7-0.7-5.1-2.1c-1.4-1.4-2-3.3-2-5.6c0-1.4,0.2-2.7,0.7-3.9C76.6,15.6,77.1,14.4,77.9,13.3z
		 M77.7,17.3h7.2v-0.7c0-0.8-0.1-1.5-0.4-2.1s-0.7-1.1-1.2-1.4c-0.5-0.3-1.1-0.5-1.7-0.5c-1,0-1.9,0.5-2.6,1.4S77.8,16,77.7,17.3z
		 M85.5,17.3H87c0-1.5-0.4-2.7-0.9-3.4c-0.5-0.7-1.6-1.2-3-1.5c0.9,0.4,1.5,0.9,1.9,1.5s0.6,1.6,0.6,2.9v0.5H85.5z"/>
	<path class="st0" d="M94.1,24.5V12.9h-2.2v-1c1.2-0.9,2.1-1.6,2.7-2.1s1.2-1,1.7-1.6c0.5-0.6,1-1.2,1.4-1.9h1.1v5.4h5.1V13h-5.1
		v12.3c0,0.9,0.1,1.6,0.3,2c0.2,0.4,0.6,0.7,1.1,0.7s0.9-0.1,1.4-0.4c0.5-0.3,0.9-0.7,1.5-1.3l0.8,0.8c-1,1.1-2,1.8-2.8,2.3
		c-0.8,0.5-1.8,0.6-2.9,0.6c-1.1,0-1.9-0.2-2.5-0.7c-0.6-0.5-1-1.1-1.2-1.9C94.3,26.6,94.1,25.7,94.1,24.5z M96.1,9.4l-1.4,1.1v13.6
		c0,1.8,0.2,3.1,0.7,4c0.5,0.9,1.3,1.2,2.5,1.2c0.6,0,1.3-0.1,1.9-0.3c-1.2,0-2.2-0.2-2.8-0.9c-0.6-0.7-1-1.7-1-3.1V9.4H96.1z"/>
	<path class="st0" d="M108.3,28.5v-5.4h1.1c1,1.8,2.1,3.2,3.3,4.2s2.2,1.4,3.3,1.4c0.7,0,1.3-0.2,1.9-0.7c0.6-0.5,0.8-1,0.8-1.5
		c0-0.8-0.2-1.3-0.6-1.6c-1.5-1-3-1.8-4.5-2.4c-3.8-1.4-5.6-3.4-5.6-6c0-1.5,0.6-2.8,1.8-3.8s2.8-1.5,4.8-1.5c1,0,2,0.1,2.8,0.3
		c0.8,0.2,1.8,0.5,2.9,0.9l0.2,4.9h-1c-1.1-1.6-2.2-2.9-3.3-3.7c-1.1-0.8-2.2-1.3-3.2-1.3c-0.7,0-1.2,0.2-1.6,0.6
		c-0.4,0.4-0.6,0.9-0.6,1.4c0,0.7,0.3,1.2,0.8,1.6s1.7,1,3.4,1.7c1.7,0.7,3.2,1.5,4.5,2.2c0.8,0.4,1.4,1,1.9,1.8
		c0.5,0.8,0.7,1.6,0.7,2.5c0,1.1-0.3,2-0.9,2.9c-0.6,0.9-1.4,1.6-2.5,2.1c-1.1,0.5-2.3,0.8-3.6,0.8C113,30,110.8,29.5,108.3,28.5z
		 M119.1,27.5c0.4-0.3,0.6-0.7,0.8-0.9c0.2-0.2,0.3-0.7,0.3-1.1c0-1.5-1.1-2.6-3.2-3.5c-1.9-0.8-3.4-1.5-4.5-2.1
		c-1.1-0.6-1.9-1.2-2.4-1.9s-0.7-1.5-0.7-2.4c0-0.6,0.2-1.2,0.5-2c-0.4,0.4-0.6,0.9-0.9,1.3c-0.2,0.4-0.3,1-0.3,1.6
		c0,1.3,0.5,2.4,1.4,3.2c0.9,0.8,2.3,1.6,4.1,2.5c1.8,0.9,3.2,1.5,4,2s1.2,1.3,1.2,2.2C119.3,26.6,119.3,27,119.1,27.5z M109,24.9
		v2.6c0.7,0.3,1.8,0.7,3.4,1.1c-0.8-0.6-1.5-1.1-1.9-1.6S109.6,25.8,109,24.9z M118.9,15.5l-0.2-2.4c-0.9-0.4-1.6-0.6-2.1-0.8
		c-0.5-0.2-1.2-0.2-2.2-0.2c1,0.4,1.8,0.8,2.5,1.2C117.5,13.9,118.2,14.6,118.9,15.5z"/>
	<path class="st0" d="M134.5,1.7V0.6h14.3v1.1h-0.6c-1.1,0-1.9,0.1-2.5,0.3c-0.6,0.2-1,0.5-1.2,1.1s-0.3,1.2-0.3,2.2v20.1
		c0,0.8,0.1,1.4,0.4,1.8c0.3,0.4,0.7,0.7,1.4,1s1.7,0.3,3,0.3c1.1,0,2.1-0.1,3-0.3s1.8-0.5,2.7-0.9c0.9-0.4,1.8-1.1,2.7-1.9
		c0.9-0.8,1.9-1.9,2.9-3.1h1.9l-2.7,7.4h-24.8v-1.1h0.3c1.2,0,2.1-0.1,2.7-0.3c0.6-0.2,1-0.6,1.2-1.1c0.2-0.5,0.3-1.2,0.3-2V5.5
		c0-1-0.1-1.8-0.3-2.3c-0.2-0.5-0.6-0.9-1.3-1.1C136.8,1.8,135.8,1.7,134.5,1.7z M139.7,4.8v21c0,0.7-0.1,1.2-0.4,1.6
		c-0.2,0.4-0.6,0.7-1.1,1c0.1,0,0.2,0,0.3,0s0.3,0,0.3,0c1.4,0,2.1-1,2.1-3V5.8c0-1.4-0.1-2.4-0.3-3.1c-0.2-0.7-0.8-1-1.8-1h-0.6
		c0.6,0.3,0.9,0.7,1.1,1.1C139.5,3.2,139.7,3.8,139.7,4.8z M153.6,28.4h3.8l1.8-4c-0.8,0.9-1.6,1.7-2.5,2.4
		C155.7,27.3,154.7,27.9,153.6,28.4z"/>
	<path class="st0" d="M171.5,11.2V26c0,0.6,0.1,1.1,0.2,1.4c0.1,0.3,0.4,0.5,0.7,0.7c0.3,0.2,0.9,0.2,1.7,0.2v1.1h-9.6v-1.1
		c0.8,0,1.4-0.2,1.8-0.5c0.3-0.3,0.5-0.9,0.5-1.7v-9.4c0-0.6-0.2-1.1-0.6-1.6c-0.4-0.5-1-0.9-1.7-1.1v-0.7l6.1-2.1H171.5z
		 M167.5,16.8v9.7c0,0.8-0.3,1.4-0.8,1.8c0.8,0,1.3-0.2,1.7-0.5c0.3-0.3,0.5-0.9,0.5-1.7v-9.6c0-0.9-0.2-1.5-0.6-2
		c-0.4-0.5-1-0.7-1.7-0.7c-0.3,0-0.6,0-0.8,0C167,14.5,167.5,15.4,167.5,16.8z M169,1.2c0.5,0,1,0.1,1.5,0.4c0.5,0.3,0.8,0.6,1.1,1
		C171.9,3,172,3.5,172,4s-0.1,1-0.4,1.4c-0.3,0.4-0.6,0.8-1.1,1.1S169.5,7,169,7c-0.8,0-1.4-0.3-2-0.9s-0.8-1.3-0.8-2
		c0-0.5,0.1-1,0.4-1.4c0.3-0.4,0.6-0.8,1-1C168,1.5,168.5,1.2,169,1.2z M169.4,1.9c-0.8,0-1.4,0.2-1.9,0.6s-0.7,0.9-0.7,1.6
		c0,0.6,0.2,1.2,0.6,1.6c0.4,0.4,1.1,0.6,1.9,0.7c-0.4-0.4-0.8-0.7-1-1.1c-0.2-0.4-0.3-0.7-0.3-1.2C168.1,3.2,168.5,2.5,169.4,1.9z"
		/>
	<path class="st0" d="M176.1,28.5v-5.4h1.1c1,1.8,2.1,3.2,3.3,4.2s2.2,1.4,3.3,1.4c0.7,0,1.3-0.2,1.9-0.7c0.6-0.5,0.8-1,0.8-1.5
		c0-0.8-0.2-1.3-0.6-1.6c-1.5-1-3-1.8-4.5-2.4c-3.8-1.4-5.6-3.4-5.6-6c0-1.5,0.6-2.8,1.8-3.8c1.2-1,2.8-1.5,4.8-1.5
		c1,0,2,0.1,2.8,0.3s1.8,0.5,2.9,0.9l0.2,4.9h-1c-1.1-1.6-2.2-2.9-3.3-3.7c-1.1-0.8-2.2-1.3-3.2-1.3c-0.7,0-1.2,0.2-1.6,0.6
		c-0.4,0.4-0.6,0.9-0.6,1.4c0,0.7,0.3,1.2,0.8,1.6s1.7,1,3.4,1.7c1.7,0.7,3.2,1.5,4.5,2.2c0.8,0.4,1.4,1,1.9,1.8
		c0.5,0.8,0.7,1.6,0.7,2.5c0,1.1-0.3,2-0.9,2.9s-1.4,1.6-2.5,2.1s-2.3,0.8-3.6,0.8C180.8,30,178.6,29.5,176.1,28.5z M186.9,27.5
		c0.4-0.3,0.6-0.7,0.8-0.9c0.2-0.2,0.3-0.7,0.3-1.1c0-1.5-1.1-2.6-3.2-3.5c-1.9-0.8-3.4-1.5-4.5-2.1c-1.1-0.6-1.9-1.2-2.4-1.9
		s-0.7-1.5-0.7-2.4c0-0.6,0.2-1.2,0.5-2c-0.4,0.4-0.6,0.9-0.9,1.3c-0.2,0.4-0.3,1-0.3,1.6c0,1.3,0.5,2.4,1.4,3.2
		c0.9,0.8,2.3,1.6,4.1,2.5c1.8,0.9,3.2,1.5,4,2s1.2,1.3,1.2,2.2C187.1,26.6,187,27,186.9,27.5z M176.8,24.9v2.6
		c0.7,0.3,1.8,0.7,3.4,1.1c-0.8-0.6-1.5-1.1-1.9-1.6C177.9,26.5,177.4,25.8,176.8,24.9z M186.7,15.5l-0.2-2.4
		c-0.9-0.4-1.6-0.6-2.1-0.8c-0.5-0.2-1.2-0.2-2.2-0.2c1,0.4,1.8,0.8,2.5,1.2C185.3,13.9,186,14.6,186.7,15.5z"/>
	<path class="st0" d="M193.8,24.5V12.9h-2.2v-1c1.2-0.9,2.1-1.6,2.7-2.1c0.6-0.5,1.2-1,1.7-1.6c0.5-0.6,1-1.2,1.4-1.9h1.1v5.4h5.1
		V13h-5.1v12.3c0,0.9,0.1,1.6,0.3,2c0.2,0.4,0.6,0.7,1.1,0.7s0.9-0.1,1.4-0.4c0.4-0.3,0.9-0.7,1.5-1.3l0.8,0.8c-1,1.1-2,1.8-2.8,2.3
		c-0.9,0.5-1.8,0.8-2.9,0.8c-1.1,0-1.9-0.2-2.5-0.7c-0.6-0.5-1-1.1-1.2-1.9C193.9,26.7,193.8,25.7,193.8,24.5z M195.8,9.4l-1.4,1.1
		v13.6c0,1.8,0.2,3.1,0.7,4c0.5,0.8,1.3,1.2,2.5,1.2c0.6,0,1.3-0.1,1.9-0.3c-1.2,0-2.2-0.2-2.8-0.9c-0.7-0.6-1-1.7-1-3.1L195.8,9.4
		L195.8,9.4z"/>
</g>
</svg>
