<svg version="1.1" id="" xmlns="http://www.w3.org/2000/svg" xmlns:xlink="http://www.w3.org/1999/xlink" x="0px"
	 y="0px" width="205px" height="40px" viewBox="0 0 205 40" style="enable-background:new 0 0 205 40;" xml:space="preserve">
<style type="text/css">
<![CDATA[
	.st0{fill:#603813;}
]]>
</style>
<g>
	<path class="st0" d="M0,0.5h13v1.1c-1.2,0-2.2,0.2-2.8,0.5C9.5,2.4,9.1,3,9.1,3.8c0,0.5-0.1,1-0.1,1.3c0,0.3,0,0.5,0,0.4v18
		c0,0.8,0,1.5,0.2,1.9c0.2,0.5,0.4,0.8,0.7,1c0.3,0.2,0.6,0.3,1,0.4c0.4,0.1,1.1,0.1,2.1,0.2v1.1H0V27c1.2,0,2-0.1,2.6-0.4
		c0.6-0.2,1-0.6,1.2-1.1C4,25,4,24.3,4,23.2V5.7c0-1,0-1.8-0.1-2.3S3.6,2.5,3.3,2.3C3,2.1,2.7,2,2.2,1.9C1.8,1.8,1,1.7,0,1.6V0.5z
		 M4.7,5.2v19.5c0,0.7-0.1,1.2-0.4,1.5C4,26.5,3.7,26.7,3.1,27c0.8,0,1.5-0.2,2.1-0.4C5.7,26.3,6,25.8,6,24.9V4.2
		c0-0.9-0.2-1.5-0.5-2C5,1.8,4.3,1.6,3.2,1.6c1,0.5,1.5,1.5,1.5,3c0,0.1,0,0.2,0,0.3S4.7,5.1,4.7,5.2z"/>
	<path class="st0" d="M22.5,10.7v2.6c1.1-0.8,2.1-1.5,3-1.9s2-0.7,3.3-0.7c3.7,0,5.5,1.8,5.5,5.5v8.9c0,0.8,0.2,1.4,0.6,1.6
		s1,0.3,1.8,0.3v1.1h-9.4V27c0.8,0,1.4-0.1,1.8-0.4c0.4-0.3,0.6-0.8,0.6-1.7v-9.4c0-0.7-0.1-1.3-0.3-1.7c-0.2-0.4-0.5-0.8-0.9-1.1
		c-0.4-0.2-0.9-0.4-1.5-0.4c-0.7,0-1.5,0.2-2.2,0.6c-0.7,0.4-1.5,1-2.4,1.7v10.3c0,0.6,0.1,1,0.3,1.3c0.2,0.3,0.5,0.5,0.8,0.6
		c0.3,0.1,0.9,0.2,1.5,0.2v1.1h-9.4V27c0.8,0,1.4-0.1,1.8-0.3S18,26,18,25.2v-8.7c0-0.9-0.2-1.6-0.6-2.1s-1-0.9-1.9-1.2v-0.6l6.2-2
		h0.8V10.7z M18.7,15.9v9c0,0.6,0,1-0.1,1.3s-0.3,0.5-0.6,0.9c1.3-0.1,1.9-0.8,1.9-2.1v-9.3c0-0.7-0.2-1.2-0.7-1.7s-1-0.7-1.6-0.7
		c-0.1,0-0.2,0-0.4,0c-0.2,0-0.3,0-0.3,0C18.1,13.8,18.7,14.7,18.7,15.9z M30.4,15.3v9.6c0,0.4,0,0.7,0,0.9s-0.1,0.4-0.2,0.5
		c-0.1,0.2-0.3,0.4-0.5,0.7h0.4c0.7,0,1.1-0.3,1.3-0.8c0.2-0.5,0.3-1.3,0.3-2.3v-8.6c0-1.1-0.2-2-0.7-2.6c-0.5-0.6-1.4-0.9-2.6-1
		c0.7,0.3,1.2,0.7,1.5,1.2C30.2,13.4,30.4,14.4,30.4,15.3z"/>
	<path class="st0" d="M40.6,25.3V12.4h-2.8V11h2.8V8.4c0-1.7,0.3-3.2,0.9-4.4s1.5-2.3,2.6-3s2.5-1,4-1c0.9,0,1.7,0.1,2.3,0.4
		c0.7,0.3,1.1,0.6,1.5,1.1c0.3,0.4,0.5,0.9,0.5,1.5s-0.2,1.1-0.6,1.6c-0.4,0.5-0.9,0.7-1.6,0.7c-0.6,0-1.1-0.2-1.5-0.7
		c-0.4-0.4-0.6-0.9-0.6-1.5c0-0.1,0-0.2,0-0.3c0-0.1,0-0.2,0-0.4c0-0.4-0.1-0.7-0.4-1C47.5,1.2,47.1,1,46.8,1c-0.6,0-1,0.3-1.3,0.8
		S45,3.1,45,4.1V11h3.6v1.3H45V25c0,0.5,0.1,0.9,0.2,1.2c0.1,0.3,0.4,0.5,0.8,0.6c0.4,0.1,0.9,0.2,1.5,0.2h0.6v1.1H38V27
		c0.9,0,1.5-0.2,1.9-0.4C40.4,26.4,40.6,25.9,40.6,25.3z M41.2,8.4v16.8c0,0.9-0.3,1.5-1,2c1.5,0,2.3-0.7,2.3-2V8.4
		c0-1.5,0.2-2.8,0.5-3.9s0.8-2.1,1.5-3.1c-1.1,0.8-1.9,1.7-2.5,2.8C41.5,5.4,41.2,6.7,41.2,8.4z M48.2,1.2c0.3,0.4,0.5,0.8,0.5,1.2
		c0,0.2,0.1,0.5,0.1,0.8c0,0.3,0.1,0.5,0.2,0.7c0.1,0.2,0.2,0.4,0.4,0.5c0.2,0.1,0.4,0.2,0.8,0.2c0.7,0,1.1-0.3,1.5-1
		c-0.3,0.1-0.5,0.2-0.6,0.2c-0.5,0-0.9-0.3-1.1-0.8c-0.4-0.8-0.6-1.2-0.7-1.4C49,1.4,48.7,1.3,48.2,1.2z"/>
	<path class="st0" d="M50.4,19.7c0-1.7,0.4-3.2,1.2-4.6c0.8-1.4,1.9-2.5,3.2-3.3c1.4-0.8,2.9-1.2,4.5-1.2c1.6,0,3.1,0.4,4.4,1.2
		c1.3,0.8,2.4,1.8,3.2,3.2c0.8,1.4,1.2,2.9,1.2,4.5c0,1.3-0.2,2.5-0.7,3.6c-0.5,1.1-1.1,2.1-1.9,2.9s-1.7,1.4-2.8,1.9
		c-1.1,0.5-2.2,0.7-3.4,0.7c-1.6,0-3.1-0.4-4.5-1.1c-1.4-0.7-2.4-1.8-3.2-3.1C50.8,23,50.4,21.4,50.4,19.7z M57.3,27.8
		c-1.7-1-3-2.2-3.8-3.7c-0.8-1.4-1.3-2.9-1.3-4.6c0-1.3,0.2-2.4,0.6-3.4c0.4-1,0.9-1.8,1.6-2.5c0.7-0.7,1.5-1.4,2.5-2.2
		c-1.3,0.5-2.4,1.1-3.3,2c-0.9,0.8-1.5,1.8-2,2.9c-0.4,1.1-0.6,2.2-0.6,3.4c0,0.9,0.1,1.8,0.4,2.6c0.3,0.8,0.7,1.6,1.2,2.3
		c0.5,0.7,1.2,1.3,2,1.8C55.4,26.9,56.3,27.5,57.3,27.8z M55.2,18.6c0,2.8,0.4,5,1.2,6.5c0.8,1.6,1.9,2.4,3.1,2.4
		c0.7,0,1.3-0.3,1.8-0.8s1-1.3,1.3-2.4c0.3-1.1,0.5-2.4,0.5-3.9c0-2.7-0.4-4.8-1.1-6.3c-0.7-1.5-1.7-2.3-3-2.3
		c-1.2,0-2.2,0.6-2.9,1.7C55.6,14.6,55.2,16.3,55.2,18.6z M62.1,26.8c1-0.5,1.7-1.4,2.2-2.5c0.5-1.1,0.8-2.6,0.8-4.3
		c0-4.1-1.3-6.8-3.8-8.1c0.9,0.9,1.6,2,2,3.4c0.4,1.4,0.6,3.1,0.6,5.4c0,1.4-0.1,2.6-0.4,3.6S62.7,26,62.1,26.8z"/>
	<path class="st0" d="M77.3,10.7v3c1-1.1,1.8-1.9,2.3-2.4s1.2-0.7,1.9-0.7s1.2,0.2,1.7,0.7s0.7,1,0.7,1.7s-0.2,1.3-0.6,1.8
		c-0.4,0.5-0.9,0.7-1.5,0.7c-0.3,0-0.6-0.1-0.9-0.2c-0.3-0.1-0.6-0.2-0.8-0.4c-0.1-0.1-0.3-0.2-0.4-0.3c-0.1-0.1-0.3-0.2-0.4-0.3
		c-0.1-0.1-0.2-0.1-0.4-0.1c-0.2,0-0.5,0.1-0.7,0.3c-0.2,0.2-0.5,0.5-0.8,0.8v9.4c0,0.7,0.1,1.2,0.3,1.4c0.2,0.2,0.5,0.5,0.9,0.5
		s1.1,0.1,2.1,0.1v1.1H70.1V27h0.5c1.5,0,2.3-0.6,2.3-1.8v-8.8c0-1.5-0.9-2.5-2.8-3.1v-0.7l6.3-2h0.9V10.7z M73.5,16.4v8.9
		c0,0.4-0.1,0.8-0.2,1c-0.1,0.2-0.4,0.4-0.6,0.7c0.7-0.1,1.3-0.3,1.6-0.6c0.3-0.3,0.5-0.9,0.5-1.7v-8.2c0-1.1-0.2-1.9-0.6-2.4
		c-0.4-0.5-1-0.8-1.9-0.8c-0.1,0-0.2,0-0.4,0c-0.2,0-0.4,0-0.4,0C72.8,13.9,73.5,15,73.5,16.4z M78.6,13.7c0.4,0,0.7,0.1,1.1,0.4
		c0.8,0.6,1.5,1,2,1c0.7,0,1.2-0.4,1.5-1.3c-0.4,0.2-0.6,0.3-0.8,0.3c-0.4,0-0.8-0.1-1.2-0.4C80.7,13.2,80.3,13,80,13
		S79.2,13.2,78.6,13.7z"/>
	<path class="st0" d="M104.2,14.7v10c0,0.7,0.1,1.3,0.3,1.6s0.6,0.6,1.1,0.6c0.2,0,0.4,0,0.5,0c0.1,0,0.3,0,0.5,0V28h-9.4v-1
		c1,0,1.7-0.1,2-0.4c0.3-0.3,0.5-0.9,0.5-1.8v-8.6c0-2.6-0.9-3.9-2.7-3.9c-0.7,0-1.4,0.2-2.3,0.7c-0.9,0.5-1.7,1-2.3,1.7v10.4
		c0,0.8,0.2,1.3,0.6,1.5c0.4,0.2,1,0.4,1.9,0.4v1.1h-9.6V27h0.3c0.6,0,1.1-0.1,1.5-0.2c0.4-0.1,0.6-0.4,0.7-0.7
		c0.1-0.3,0.2-0.8,0.2-1.3v-8c0-0.9-0.2-1.6-0.5-2.1s-1-0.9-2-1.3v-0.7l6.3-2h0.6v2.7c1-0.9,2.1-1.5,3.2-2s2.2-0.7,3.2-0.7
		c0.7,0,1.4,0.1,2.1,0.3c0.7,0.2,1.3,0.5,1.8,1s0.9,1,1.2,1.6c1.1-1,2.2-1.7,3.3-2.2c1.1-0.5,2.2-0.7,3.4-0.7c1.1,0,2.1,0.2,2.9,0.6
		c0.8,0.4,1.5,1,1.9,1.9c0.4,0.9,0.7,1.9,0.7,3.1v8.9c0,0.5,0.1,0.9,0.2,1.1c0.1,0.2,0.4,0.5,0.8,0.6c0.4,0.1,0.9,0.2,1.5,0.2v1.1
		H109V27h0.5c0.7,0,1.3-0.2,1.6-0.5c0.3-0.3,0.5-0.8,0.5-1.6v-8.4c0-1.4-0.2-2.4-0.6-3.2c-0.4-0.8-1.1-1.1-2.1-1.1
		C107.5,12.3,105.9,13.1,104.2,14.7z M89.8,24.5v-8.3c0-1-0.2-1.7-0.6-2.2c-0.4-0.5-1-0.7-1.7-0.7c-0.1,0-0.4,0-0.9,0.1
		c0.8,0.3,1.3,0.7,1.5,1.3c0.2,0.6,0.3,1.5,0.3,2.6v6.6c0,1,0,1.8-0.1,2.1c-0.1,0.3-0.3,0.7-0.7,1c1,0,1.5-0.2,1.8-0.7
		C89.7,25.8,89.8,25.3,89.8,24.5z M101.6,24.2v-8.6c0-1.3-0.3-2.2-0.9-2.8c-0.6-0.6-1.5-0.8-2.6-0.7c0.9,0.3,1.5,0.8,1.8,1.5
		c0.3,0.7,0.4,1.7,0.4,3.1V25c0,0.5-0.1,1-0.2,1.3s-0.4,0.6-0.7,0.8c1-0.1,1.6-0.3,1.8-0.8C101.4,25.8,101.6,25.2,101.6,24.2z
		 M113.5,24.3v-8.7c0-0.8-0.1-1.4-0.3-1.9s-0.5-0.9-1.1-1.3c-0.6-0.4-1.3-0.5-2.3-0.4c1,0.3,1.6,0.8,1.9,1.3s0.5,1.4,0.5,2.5V24
		c0,1,0,1.7-0.1,2.1c-0.1,0.4-0.4,0.7-0.8,1.1c0.6,0,1.1-0.1,1.5-0.4c0.4-0.3,0.5-0.6,0.6-1C113.5,25.4,113.5,24.9,113.5,24.3z"/>
	<path class="st0" d="M124.9,13c0,0.1,0.1,0.2,0.3,0.6s0.3,0.6,0.3,0.9c0,0.6-0.2,1.1-0.7,1.5s-1,0.7-1.7,0.7
		c-0.7,0-1.2-0.2-1.6-0.5s-0.6-0.7-0.6-1.2c0-0.7,0.3-1.3,1-2c0.7-0.7,1.6-1.2,2.7-1.6c1.1-0.4,2.4-0.6,3.8-0.6c1,0,2,0.2,2.8,0.5
		c0.8,0.3,1.6,0.9,2.1,1.6c0.5,0.7,0.8,1.6,0.8,2.6v9.9c0,0.8,0.2,1.2,0.7,1.2c0.3,0,0.6-0.2,1-0.6l0.7,0.8
		c-0.6,0.6-1.2,1.1-1.8,1.4c-0.6,0.3-1.2,0.5-1.9,0.5c-0.9,0-1.5-0.2-2-0.6c-0.5-0.4-0.8-1-1-1.8c-1.8,1.5-3.6,2.3-5.3,2.3
		c-1.3,0-2.2-0.3-3-1c-0.8-0.7-1.1-1.5-1.1-2.5c0-0.9,0.2-1.7,0.7-2.3c0.5-0.6,1-1.2,1.8-1.7c0.8-0.5,1.8-1.1,3.3-1.9
		s2.6-1.4,3.5-1.9v-2.9c0-0.9-0.2-1.6-0.6-2c-0.4-0.4-1-0.7-1.8-0.7c-0.7,0-1.3,0.1-1.7,0.4C125.2,12.4,124.9,12.7,124.9,13z
		 M126.1,27.7c-1.2,0-2.1-0.2-2.8-0.7s-1.1-1.2-1.1-2.1c0-0.7,0.2-1.3,0.5-1.9s0.9-1.3,1.6-2c-1.1,0.6-1.9,1.2-2.5,1.9
		c-0.6,0.7-0.9,1.4-0.9,2.3c0,0.8,0.3,1.5,1,2c0.7,0.5,1.5,0.8,2.3,0.8C125.1,27.9,125.7,27.9,126.1,27.7z M124.3,15.4
		c-0.5,0-0.8-0.1-1.1-0.3c-0.3-0.2-0.4-0.5-0.4-0.8c0-0.4,0.1-0.8,0.3-1.1c0.2-0.3,0.6-0.8,1.2-1.4c-0.9,0.5-1.6,0.9-2.1,1.4
		s-0.7,1-0.7,1.6c0,0.3,0.1,0.5,0.4,0.7c0.3,0.2,0.6,0.3,0.9,0.3C123.4,15.9,123.9,15.7,124.3,15.4z M129.6,25v-6.3
		c-1.7,0.9-2.8,1.8-3.5,2.5c-0.7,0.7-1,1.7-1,2.7c0,0.7,0.2,1.3,0.6,1.7c0.4,0.4,0.8,0.6,1.4,0.6C127.9,26.3,128.7,25.8,129.6,25z
		 M130.2,15.7v7.7c0,1.5,0.2,2.7,0.5,3.4s1,1.1,1.9,1.1c0.4,0,0.8-0.1,1-0.2c-0.8-0.1-1.3-0.4-1.7-0.9c-0.4-0.5-0.5-1.3-0.5-2.4v-9
		c0-1.4-0.2-2.3-0.6-2.8c-0.4-0.5-1-0.8-2-0.9c0.5,0.3,0.8,0.6,1,1.1S130.2,14.4,130.2,15.7z"/>
	<path class="st0" d="M140.2,23.4V12.2h-2.1v-1c1.1-0.9,2-1.5,2.6-2c0.6-0.5,1.1-1,1.6-1.6s1-1.2,1.3-1.8h1V11h4.8v1.2h-4.8v11.7
		c0,0.9,0.1,1.5,0.3,1.9c0.2,0.4,0.6,0.6,1.1,0.6s0.9-0.1,1.3-0.4c0.4-0.3,0.9-0.7,1.5-1.2l0.7,0.8c-1,1-1.9,1.7-2.7,2.2
		s-1.7,0.7-2.8,0.7c-1,0-1.8-0.2-2.3-0.7s-0.9-1-1.2-1.8S140.2,24.5,140.2,23.4z M142.1,8.9l-1.3,1.1v13c0,1.7,0.2,3,0.7,3.8
		s1.3,1.2,2.4,1.2c0.6,0,1.2-0.1,1.8-0.3c-1.2,0-2.1-0.2-2.7-0.8c-0.6-0.6-0.9-1.6-0.9-3V8.9z"/>
	<path class="st0" d="M157.8,10.7v14.1c0,0.6,0.1,1.1,0.2,1.4s0.4,0.5,0.7,0.6c0.3,0.1,0.9,0.2,1.6,0.2v1.1h-9.1V27
		c0.8,0,1.4-0.2,1.7-0.5c0.3-0.3,0.5-0.8,0.5-1.6v-9c0-0.6-0.2-1.1-0.6-1.6c-0.4-0.5-0.9-0.8-1.6-1.1v-0.6l5.8-2h0.8V10.7z M154,16
		v9.3c0,0.8-0.3,1.3-0.8,1.7c0.7,0,1.2-0.2,1.6-0.5c0.4-0.3,0.5-0.9,0.5-1.6v-9.2c0-0.8-0.2-1.5-0.6-1.9c-0.4-0.4-0.9-0.7-1.6-0.7
		c-0.3,0-0.5,0-0.7,0C153.4,13.8,154,14.7,154,16z M155.4,1.2c0.5,0,1,0.1,1.4,0.4c0.4,0.3,0.8,0.6,1,1s0.4,0.9,0.4,1.4
		s-0.1,1-0.4,1.4s-0.6,0.8-1,1c-0.4,0.2-0.9,0.4-1.4,0.4c-0.7,0-1.4-0.3-1.9-0.8s-0.8-1.2-0.8-1.9c0-0.5,0.1-0.9,0.4-1.4
		c0.3-0.5,0.6-0.8,1-1C154.5,1.5,154.9,1.2,155.4,1.2z M155.7,1.8c-0.8,0-1.4,0.2-1.8,0.5c-0.4,0.3-0.6,0.9-0.6,1.5
		c0,0.6,0.2,1.1,0.6,1.5c0.4,0.4,1,0.6,1.8,0.7c-0.4-0.4-0.7-0.7-0.9-1s-0.3-0.7-0.3-1.1C154.5,3,154.9,2.3,155.7,1.8z"/>
	<path class="st0" d="M162.1,19.7c0-1.7,0.4-3.2,1.2-4.6s1.9-2.5,3.2-3.3c1.3-0.8,2.9-1.2,4.5-1.2s3.1,0.4,4.4,1.2
		c1.3,0.8,2.4,1.8,3.2,3.2c0.8,1.4,1.2,2.9,1.2,4.5c0,1.3-0.2,2.5-0.7,3.6c-0.5,1.1-1.1,2.1-1.9,2.9s-1.7,1.4-2.8,1.9
		c-1.1,0.5-2.2,0.7-3.4,0.7c-1.6,0-3.1-0.4-4.5-1.1s-2.4-1.8-3.2-3.1C162.5,23.1,162.1,21.4,162.1,19.7z M169,27.8
		c-1.7-1-3-2.2-3.8-3.7s-1.3-2.9-1.3-4.6c0-1.3,0.2-2.4,0.6-3.4c0.4-1,0.9-1.8,1.6-2.5c0.7-0.7,1.5-1.4,2.5-2.2
		c-1.3,0.5-2.4,1.1-3.3,2c-0.9,0.9-1.5,1.8-2,2.9c-0.5,1.1-0.6,2.2-0.6,3.4c0,0.9,0.1,1.8,0.4,2.6c0.3,0.8,0.7,1.6,1.2,2.3
		c0.5,0.7,1.2,1.3,2,1.8S168,27.5,169,27.8z M166.9,18.6c0,2.8,0.4,5,1.2,6.5c0.8,1.5,1.9,2.4,3.1,2.4c0.7,0,1.3-0.3,1.8-0.8
		s1-1.3,1.3-2.4c0.3-1.1,0.5-2.4,0.5-3.9c0-2.7-0.4-4.8-1.1-6.3c-0.7-1.5-1.7-2.3-3-2.3c-1.2,0-2.2,0.6-2.9,1.7
		S166.9,16.3,166.9,18.6z M173.8,26.8c1-0.5,1.7-1.4,2.2-2.5c0.5-1.1,0.8-2.6,0.8-4.3c0-4.1-1.3-6.8-3.8-8.1c0.9,0.9,1.6,2,2,3.4
		c0.4,1.4,0.6,3.1,0.6,5.4c0,1.4-0.1,2.6-0.4,3.6S174.4,26,173.8,26.8z"/>
	<path class="st0" d="M188.8,10.7v2.6c1.1-0.8,2.1-1.5,3-1.9c0.9-0.4,2-0.7,3.3-0.7c3.7,0,5.5,1.8,5.5,5.5v8.9
		c0,0.8,0.2,1.4,0.6,1.6c0.4,0.2,1,0.3,1.8,0.3v1.1h-9.4V27c0.8,0,1.4-0.1,1.8-0.4c0.4-0.3,0.6-0.8,0.6-1.7v-9.4
		c0-0.7-0.1-1.3-0.3-1.7c-0.2-0.4-0.5-0.8-0.9-1.1c-0.4-0.3-0.9-0.4-1.5-0.4c-0.7,0-1.5,0.2-2.2,0.6c-0.7,0.4-1.5,1-2.4,1.7v10.3
		c0,0.6,0.1,1,0.3,1.3s0.5,0.5,0.8,0.6c0.3,0.1,0.8,0.1,1.4,0.2v1.1h-9.4V27c0.8,0,1.4-0.1,1.8-0.3c0.4-0.2,0.6-0.7,0.6-1.5v-8.7
		c0-0.9-0.2-1.6-0.6-2.1c-0.4-0.5-1-0.9-1.9-1.2v-0.6l6.2-2h0.9V10.7z M185,15.9v9c0,0.6,0,1-0.1,1.3c-0.1,0.3-0.3,0.5-0.6,0.9
		c1.3-0.1,1.9-0.8,1.9-2.1v-9.3c0-0.7-0.2-1.2-0.7-1.7s-1-0.7-1.6-0.7c-0.1,0-0.2,0-0.4,0s-0.3,0-0.3,0
		C184.4,13.8,185,14.7,185,15.9z M196.7,15.3v9.6c0,0.4,0,0.7,0,0.9s-0.1,0.4-0.2,0.5c-0.1,0.1-0.3,0.4-0.5,0.7h0.4
		c0.7,0,1.1-0.3,1.3-0.8s0.3-1.3,0.3-2.3v-8.6c0-1.1-0.2-2-0.7-2.6c-0.5-0.6-1.4-0.9-2.6-1c0.7,0.3,1.2,0.7,1.5,1.2
		S196.7,14.4,196.7,15.3z"/>
</g>
</svg>
