<svg version="1.1" id="" xmlns="http://www.w3.org/2000/svg" xmlns:xlink="http://www.w3.org/1999/xlink" x="0px"
	 y="0px" width="209px" height="40px" viewBox="0 0 209 40" style="enable-background:new 0 0 209 40;" xml:space="preserve">
<style type="text/css">
<![CDATA[
	.st0{fill:#603813;}
]]>
</style>
<g>
	<path class="st0" d="M20.1,24.2l-2.3-5.9H8.1l-1.4,3.5c-0.4,0.9-0.5,1.8-0.5,2.8c0,0.9,0.3,1.7,0.9,2.4s1.4,1.1,2.4,1.1v1.1H0v-1.1
		c2.1-0.3,3.8-2.1,5.1-5.5l7.1-18.2c-0.4-0.6-0.8-1.1-1.2-1.3s-1-0.4-1.8-0.5v-1L14.2,0h1.9l9.5,24.2c0.5,1.4,1.1,2.3,1.6,2.8
		s1.4,0.9,2.5,1.1v1.1H17.5v-1.1c1.1-0.1,1.8-0.3,2.4-0.5s0.8-0.6,0.8-1.3C20.7,25.8,20.5,25.1,20.1,24.2z M2.2,28.1h3.9
		c-0.9-0.7-1.3-1.5-1.3-2.5c0-0.3,0-0.5,0-0.7c-0.4,0.7-0.7,1.3-1.1,1.7S2.9,27.6,2.2,28.1z M8.6,17h8.7L12.9,5.9L8.6,17z
		 M21.9,23.4L14.6,4.9c-0.4-0.9-0.7-1.6-1.1-2s-0.9-0.6-1.6-0.6c-0.4,0-0.7,0-1,0.1c0.7,0.3,1.2,0.6,1.5,1.1s0.7,1.1,1,1.9l7.3,18.6
		c0.5,1.1,0.7,1.9,0.7,2.6c0,0.4-0.1,0.7-0.2,0.9s-0.5,0.4-0.9,0.8h0.5c0.6,0,1.1-0.2,1.5-0.5s0.5-0.7,0.5-1.2
		C22.7,25.7,22.4,24.7,21.9,23.4z"/>
	<path class="st0" d="M43.7,13.4c0-0.4-0.2-0.7-0.6-0.9s-0.8-0.4-1.4-0.4c-1,0-2,0.3-2.8,0.9s-1.5,1.4-2,2.6s-0.7,2.4-0.7,3.8
		c0,1.3,0.3,2.5,0.8,3.5s1.3,1.9,2.2,2.5s2,0.9,3.1,0.9c0.9,0,1.9-0.2,2.9-0.6s1.8-1,2.4-1.6l0.7,1c-1.1,1.6-2.4,2.8-3.9,3.6
		s-3,1.3-4.6,1.3c-1.4,0-2.8-0.4-4.2-1.2s-2.4-1.9-3.2-3.2s-1.2-2.8-1.2-4.5c0-1.3,0.2-2.6,0.7-3.8s1.2-2.3,2.1-3.2s2-1.7,3.2-2.2
		S40,11,41.5,11c1.2,0,2.3,0.2,3.3,0.5s1.8,0.9,2.3,1.5s0.9,1.3,0.9,2.1c0,0.7-0.2,1.2-0.7,1.7s-1.1,0.7-1.7,0.7
		c-0.6,0-1.1-0.2-1.5-0.6s-0.6-0.9-0.6-1.4c0-0.1,0.1-0.4,0.2-0.9S43.7,13.6,43.7,13.4z M38.3,12.2c-1.3,0.5-2.4,1.2-3.3,2
		s-1.6,1.9-2.1,3s-0.7,2.3-0.7,3.5c0,1.6,0.4,3,1.1,4.3s1.8,2.3,3,3s2.5,1.1,3.8,1.1c1.9,0,3.6-0.6,5.3-1.8
		c-1.8,0.6-3.2,0.9-4.3,0.9c-1.4,0-2.7-0.3-3.8-0.9s-2.1-1.5-2.8-2.6s-1-2.4-1-3.8c0-1.6,0.4-3.1,1.2-4.6S36.7,13.4,38.3,12.2z
		 M44,15.4c0,0.4,0.2,0.8,0.5,1s0.7,0.3,1.1,0.3c0.1,0,0.5-0.1,1-0.2c-0.8-0.2-1.3-0.6-1.3-1.3c0-0.1,0-0.2,0.1-0.5s0.1-0.5,0.1-0.7
		c0-0.8-0.5-1.3-1.6-1.7c0.3,0.4,0.5,0.8,0.5,1.2c0,0.2-0.1,0.5-0.2,0.9S44,15.2,44,15.4z"/>
	<path class="st0" d="M62.5,13.4c0-0.4-0.2-0.7-0.6-0.9s-0.8-0.4-1.4-0.4c-1,0-2,0.3-2.8,0.9s-1.5,1.4-2,2.6s-0.7,2.4-0.7,3.8
		c0,1.3,0.3,2.5,0.8,3.5s1.3,1.9,2.2,2.5s2,0.9,3.1,0.9c0.9,0,1.9-0.2,2.9-0.6s1.8-1,2.4-1.6l0.7,1c-1.1,1.6-2.4,2.8-3.9,3.6
		s-3,1.3-4.6,1.3c-1.4,0-2.8-0.4-4.2-1.2s-2.4-1.9-3.2-3.2s-1.2-2.8-1.2-4.5c0-1.3,0.2-2.6,0.7-3.8s1.2-2.3,2.1-3.2s2-1.7,3.2-2.2
		s2.6-0.8,4.1-0.8c1.2,0,2.3,0.2,3.3,0.5s1.8,0.9,2.3,1.5s0.9,1.3,0.9,2.1c0,0.7-0.2,1.2-0.7,1.7s-1.1,0.7-1.7,0.7
		c-0.6,0-1.1-0.2-1.5-0.6s-0.6-0.9-0.6-1.4c0-0.1,0.1-0.4,0.2-0.9S62.5,13.6,62.5,13.4z M57.1,12.2c-1.3,0.5-2.4,1.2-3.3,2
		s-1.6,1.9-2.1,3S51,19.6,51,20.7c0,1.6,0.4,3,1.1,4.3s1.8,2.3,3,3s2.5,1.1,3.8,1.1c1.9,0,3.6-0.6,5.3-1.8c-1.8,0.6-3.2,0.9-4.3,0.9
		c-1.4,0-2.7-0.3-3.8-0.9s-2.1-1.5-2.8-2.6s-1-2.4-1-3.8c0-1.6,0.4-3.1,1.2-4.6S55.5,13.4,57.1,12.2z M62.9,15.4
		c0,0.4,0.2,0.8,0.5,1s0.7,0.3,1.1,0.3c0.1,0,0.5-0.1,1-0.2c-0.8-0.2-1.3-0.6-1.3-1.3c0-0.1,0-0.2,0.1-0.5s0.1-0.5,0.1-0.7
		c0-0.8-0.5-1.3-1.6-1.7c0.3,0.4,0.5,0.8,0.5,1.2c0,0.2-0.1,0.5-0.2,0.9S62.9,15.2,62.9,15.4z"/>
	<path class="st0" d="M85,24.1l0.8,0.6c-0.6,1.1-1.3,2.1-2.2,2.8s-1.8,1.3-2.8,1.6s-2.1,0.5-3.2,0.5c-1.5,0-2.9-0.4-4.2-1.1
		s-2.3-1.8-3.1-3.1s-1.1-2.9-1.1-4.7c0-1.4,0.2-2.7,0.7-3.9s1.1-2.3,1.9-3.2s1.8-1.6,2.8-2.1s2.2-0.8,3.4-0.8c1.2,0,2.4,0.3,3.5,0.8
		s2,1.2,2.7,2.1c0.5,0.7,0.8,1.3,1,2s0.4,1.5,0.5,2.5H73.4c0.1,1.4,0.3,2.6,0.7,3.6s1,1.8,1.7,2.4s1.4,1,2.2,1.3s1.5,0.4,2.2,0.4
		C82,26,83.5,25.4,85,24.1z M73.7,13c-2.6,2-3.8,4.7-3.8,8c0,2.4,0.8,4.3,2.3,5.8s3.3,2.3,5.3,2.3c1.2,0,2.3-0.2,3.5-0.7
		s2.2-1.2,3-2.1c-0.8,0.5-1.7,1-2.6,1.3s-1.9,0.5-3.1,0.5c-2,0-3.7-0.7-5.1-2.1s-2-3.3-2-5.6c0-1.4,0.2-2.7,0.7-3.9
		S72.9,14.2,73.7,13z M73.5,17h7.2v-0.7c0-0.8-0.1-1.5-0.4-2.1s-0.7-1.1-1.2-1.4s-1.1-0.5-1.7-0.5c-1,0-1.9,0.5-2.6,1.4
		S73.6,15.7,73.5,17z M81.3,17h1.4c0-1.5-0.4-2.7-0.9-3.4s-1.6-1.2-3-1.5c0.9,0.4,1.5,0.9,1.9,1.5s0.6,1.6,0.6,2.9V17z"/>
	<path class="st0" d="M88,28.2v-5.4h1.1c1,1.8,2.1,3.2,3.3,4.2s2.2,1.4,3.3,1.4c0.7,0,1.3-0.2,1.9-0.7s0.8-1,0.8-1.5
		c0-0.8-0.2-1.3-0.6-1.6c-1.5-1-3-1.8-4.5-2.4c-3.8-1.4-5.6-3.4-5.6-6c0-1.5,0.6-2.8,1.8-3.8s2.8-1.5,4.8-1.5c1,0,2,0.1,2.8,0.3
		s1.8,0.5,2.9,0.9l0.2,4.9h-1c-1.1-1.6-2.2-2.9-3.3-3.7s-2.2-1.3-3.2-1.3c-0.7,0-1.2,0.2-1.6,0.6s-0.6,0.9-0.6,1.4
		c0,0.7,0.3,1.2,0.8,1.6s1.7,1,3.4,1.7s3.2,1.5,4.5,2.2c0.8,0.4,1.4,1,1.9,1.8s0.7,1.6,0.7,2.5c0,1.1-0.3,2-0.9,2.9
		s-1.4,1.6-2.5,2.1s-2.3,0.8-3.6,0.8C92.7,29.8,90.5,29.3,88,28.2z M98.8,27.3c0.4-0.3,0.6-0.7,0.8-0.9s0.3-0.7,0.3-1.1
		c0-1.5-1.1-2.6-3.2-3.5c-1.9-0.8-3.4-1.5-4.5-2.1s-1.9-1.2-2.4-1.9S89,16.2,89,15.3c0-0.6,0.2-1.2,0.5-2c-0.4,0.4-0.6,0.9-0.9,1.3
		s-0.3,1-0.3,1.6c0,1.3,0.5,2.4,1.4,3.2s2.3,1.6,4.1,2.5s3.2,1.5,4,2S99,25.1,99,26C99,26.4,99,26.8,98.8,27.3z M88.7,24.7v2.6
		c0.7,0.3,1.8,0.7,3.4,1.1c-0.8-0.6-1.5-1.1-1.9-1.6S89.3,25.6,88.7,24.7z M98.6,15.2l-0.2-2.4c-0.9-0.4-1.6-0.6-2.1-0.8
		s-1.2-0.2-2.2-0.2c1,0.4,1.8,0.8,2.5,1.2S97.9,14.3,98.6,15.2z"/>
	<path class="st0" d="M103.7,28.2v-5.4h1.1c1,1.8,2.1,3.2,3.3,4.2s2.2,1.4,3.3,1.4c0.7,0,1.3-0.2,1.9-0.7s0.8-1,0.8-1.5
		c0-0.8-0.2-1.3-0.6-1.6c-1.5-1-3-1.8-4.5-2.4c-3.8-1.4-5.6-3.4-5.6-6c0-1.5,0.6-2.8,1.8-3.8s2.8-1.5,4.8-1.5c1,0,2,0.1,2.8,0.3
		s1.8,0.5,2.9,0.9l0.2,4.9h-1c-1.1-1.6-2.2-2.9-3.3-3.7s-2.2-1.3-3.2-1.3c-0.7,0-1.2,0.2-1.6,0.6s-0.6,0.9-0.6,1.4
		c0,0.7,0.3,1.2,0.8,1.6s1.7,1,3.4,1.7s3.2,1.5,4.5,2.2c0.8,0.4,1.4,1,1.9,1.8s0.7,1.6,0.7,2.5c0,1.1-0.3,2-0.9,2.9S115,28.5,114,29
		s-2.3,0.8-3.6,0.8C108.4,29.8,106.2,29.3,103.7,28.2z M114.5,27.3c0.4-0.3,0.6-0.7,0.8-0.9s0.3-0.7,0.3-1.1c0-1.5-1.1-2.6-3.2-3.5
		c-1.9-0.8-3.4-1.5-4.5-2.1s-1.9-1.2-2.4-1.9s-0.7-1.5-0.7-2.4c0-0.6,0.2-1.2,0.5-2c-0.4,0.4-0.6,0.9-0.9,1.3s-0.3,1-0.3,1.6
		c0,1.3,0.5,2.4,1.4,3.2s2.3,1.6,4.1,2.5s3.2,1.5,4,2s1.2,1.3,1.2,2.2C114.8,26.4,114.7,26.8,114.5,27.3z M104.5,24.7v2.6
		c0.7,0.3,1.8,0.7,3.4,1.1c-0.8-0.6-1.5-1.1-1.9-1.6S105.1,25.6,104.5,24.7z M114.4,15.2l-0.2-2.4c-0.9-0.4-1.6-0.6-2.1-0.8
		s-1.2-0.2-2.2-0.2c1,0.4,1.8,0.8,2.5,1.2S113.6,14.3,114.4,15.2z"/>
	<path class="st0" d="M148.3,22.2l9-21.9h8.9v1.1c-1.4,0-2.4,0.2-2.9,0.5s-0.9,0.8-1,1.5S162,5.3,162,7v17.7c0,0.9,0.1,1.6,0.4,2.1
		s0.6,0.8,1.2,1s1.4,0.3,2.5,0.4v1.1h-13.2v-1.1c1.3,0,2.3-0.2,2.9-0.5s0.9-0.7,1-1.3s0.2-1.4,0.2-2.6V3.9l-10.2,25.3h-1.2
		L135.5,4.7v16.8c0,1.9,0.4,3.4,1.1,4.4s1.9,1.8,3.6,2.1v1.1h-10.4v-1.1c1.5-0.2,2.6-0.7,3.4-1.7s1.2-2.4,1.2-4.2v-19
		c-0.6-0.6-1.2-1.1-2-1.4s-1.6-0.4-2.6-0.4V0.3h9.4L148.3,22.2z M132.1,28.1h4.3c-0.5-0.3-0.9-0.6-1.2-1.1s-0.5-1-0.7-1.6
		c-0.2,0.6-0.5,1.1-0.9,1.5S132.7,27.7,132.1,28.1z M133.7,1.4h-0.8c0.8,0.3,1.5,0.8,2,1.4s1,1.5,1.5,2.7l9.5,22.6
		c0.3-0.5,0.5-1,0.5-1.4c0-0.4-0.2-0.9-0.5-1.6l-8.2-19.8c-0.5-1.3-1-2.3-1.6-2.9S134.8,1.4,133.7,1.4z M158.9,24.5V4.7
		c0-1.6,0.1-2.7,0.4-3.3c-0.5,0-0.9,0.2-1.2,0.5s-0.4,0.6-0.4,1.1s-0.1,1.2-0.1,2.3V25c0,1-0.1,1.7-0.3,2s-0.6,0.7-1.2,1.1h0.7
		c0.9,0,1.5-0.3,1.8-0.8S158.9,25.8,158.9,24.5z"/>
	<path class="st0" d="M173.6,13.3c0,0.1,0.1,0.3,0.3,0.6s0.3,0.7,0.3,1c0,0.6-0.2,1.1-0.7,1.6c-0.5,0.5-1.1,0.7-1.8,0.7
		c-0.7,0-1.3-0.2-1.7-0.5s-0.6-0.8-0.6-1.3c0-0.7,0.3-1.4,1-2.1s1.6-1.2,2.9-1.7c1.2-0.4,2.5-0.6,4-0.6c1.1,0,2.1,0.2,3,0.6
		c0.9,0.4,1.7,0.9,2.2,1.7s0.8,1.7,0.8,2.7v10.4c0,0.8,0.2,1.3,0.7,1.3c0.3,0,0.6-0.2,1-0.7l0.8,0.9c-0.7,0.7-1.3,1.2-1.9,1.5
		s-1.2,0.5-2,0.5c-0.9,0-1.6-0.2-2.1-0.6s-0.9-1-1.1-1.9c-1.9,1.6-3.8,2.4-5.6,2.4c-1.3,0-2.4-0.3-3.1-1c-0.8-0.7-1.2-1.6-1.2-2.6
		c0-0.9,0.2-1.7,0.7-2.4c0.5-0.7,1.1-1.3,1.9-1.8s1.9-1.2,3.4-1.9s2.7-1.5,3.7-2v-3.1c0-0.9-0.2-1.6-0.6-2.1s-1.1-0.7-1.9-0.7
		c-0.7,0-1.3,0.1-1.7,0.4C173.8,12.7,173.6,13,173.6,13.3z M174.9,28.8c-1.2,0-2.2-0.3-3-0.8s-1.1-1.2-1.1-2.2c0-0.7,0.2-1.4,0.5-2
		s0.9-1.3,1.6-2.1c-1.1,0.6-2,1.3-2.6,2s-0.9,1.5-0.9,2.4c0,0.8,0.4,1.5,1.1,2.1c0.7,0.6,1.5,0.8,2.4,0.8
		C173.8,29.1,174.4,29,174.9,28.8z M172.9,15.9c-0.5,0-0.9-0.1-1.1-0.3s-0.4-0.5-0.4-0.8c0-0.4,0.1-0.8,0.3-1.1s0.6-0.8,1.2-1.4
		c-1,0.5-1.7,1-2.2,1.5s-0.8,1-0.8,1.7c0,0.3,0.1,0.5,0.4,0.8c0.3,0.2,0.6,0.4,1,0.4C172,16.4,172.6,16.3,172.9,15.9z M178.5,26
		v-6.6c-1.8,1-3,1.9-3.7,2.7c-0.7,0.8-1,1.8-1,2.9c0,0.8,0.2,1.3,0.6,1.7s0.9,0.6,1.4,0.6C176.7,27.3,177.6,26.9,178.5,26z
		 M179.2,16.2v8.1c0,1.6,0.2,2.8,0.5,3.6s1,1.2,2,1.2c0.5,0,0.8-0.1,1.1-0.2c-0.8-0.1-1.4-0.5-1.7-1s-0.5-1.4-0.5-2.5V16
		c0-1.4-0.2-2.4-0.6-2.9c-0.4-0.5-1.1-0.9-2.1-1c0.5,0.3,0.9,0.7,1.1,1.2S179.2,14.8,179.2,16.2z"/>
	<path class="st0" d="M194.4,11v2.2c1-0.7,1.9-1.3,2.8-1.7s1.9-0.6,3-0.6c1.1,0,2.1,0.2,3.1,0.7c1,0.5,1.9,1.1,2.6,1.9
		c0.8,0.8,1.4,1.8,1.8,3c0.5,1.2,0.7,2.4,0.7,3.7c0,1.8-0.4,3.4-1.3,4.9s-2,2.6-3.5,3.4s-3.1,1.2-5,1.2c-1.4,0-2.9-0.3-4.3-0.9v7.1
		c0,0.5,0.1,1,0.2,1.3s0.3,0.6,0.7,0.7s0.9,0.2,1.5,0.2h1v1.1h-10.7v-1.2c0.7,0,1.2-0.1,1.6-0.1s0.6-0.2,0.8-0.5s0.3-0.7,0.3-1.2
		V16.9c0-1.1-0.2-1.8-0.6-2.4c-0.4-0.5-1.1-1-2.1-1.3v-0.8l6.6-1.4H194.4z M191.7,35.2V16.7c0-1.3-0.3-2.2-0.8-2.8s-1.3-0.8-2.5-0.7
		c0.8,0.4,1.3,0.9,1.5,1.3c0.3,0.5,0.4,1.2,0.4,2.3v19.3c0,0.5-0.1,1-0.2,1.3s-0.4,0.6-0.7,0.9c0.9-0.1,1.5-0.3,1.8-0.8
		S191.7,36.3,191.7,35.2z M194.4,14.7v12.1c1.3,1.2,2.5,1.8,3.7,1.8c0.9,0,1.8-0.3,2.6-0.9s1.4-1.4,1.9-2.6c0.5-1.2,0.7-2.6,0.7-4.3
		c0-1.7-0.2-3.1-0.7-4.2s-1.1-2-1.9-2.6c-0.8-0.6-1.7-0.9-2.6-0.9C196.9,13.2,195.7,13.7,194.4,14.7z M197.7,12.6h0.5
		c1.7,0,3.1,0.7,4.2,2.2s1.6,3.5,1.6,6.1c0,2-0.3,3.6-0.8,4.7s-1.2,2-2.2,2.8c1-0.4,1.8-0.9,2.4-1.6s1.1-1.5,1.4-2.6
		s0.5-2.2,0.5-3.4c0-1.5-0.2-2.9-0.6-4s-0.9-2-1.4-2.7s-1.2-1.1-1.8-1.4c-0.7-0.3-1.3-0.5-1.9-0.5S198.4,12.2,197.7,12.6z"/>
</g>
</svg>
