<svg version="1.1" id="" xmlns="http://www.w3.org/2000/svg" xmlns:xlink="http://www.w3.org/1999/xlink" x="0px"
	 y="0px" width="280px" height="75px" viewBox="0 0 280 75" style="enable-background:new 0 0 280 75;" xml:space="preserve">
<style type="text/css">
<![CDATA[
	.st0{fill:#D62418;}
]]>
</style>
<path class="st0" d="M10.7,36.1c0,0,0.1,0,0.1,0C10.6,36.2,10.7,36.2,10.7,36.1c-0.4,0-0.6,0-1,0.1c-1,0.5,1,0.1-0.6,0.6
	c1.2,0.3,1.2-0.2,2.3-0.3c0.3-0.7,0.5-1.5,0.9-2.4c-1.1,0.1-2.1,0.3-1.9,0.6c-0.5-0.4,0.3-0.7-0.4-1c-2.2,0.1-0.6,0.5-1.5,0.8
	c0,0.1-0.1,0.2-0.1,0.3l0.7,0.1l-0.7,0c0,0,0,0,0,0L8.5,35c0,0-0.1,0-0.1,0c0,0.1-0.1,0.2-0.1,0.3c0.2,0,0.4,0,0.6,0.1
	c-0.6,0.1-0.1,0.3-0.7,0.5c0,0,0,0,0,0c0.5,0,1.3,0,1.6-0.2C10.8,35.5,10.7,35.9,10.7,36.1z M263.9,10.6c-0.4-0.4-0.7-0.5-0.8-0.5
	c-0.9,0-2.7,1.9-5.3,5.6c-1.3,2-2.6,4-3.9,5.9c0,0-0.1-0.2-0.1-0.5c0-0.8,0.4-2.8,1.2-6l-1.1,0.6c-0.5-0.2-1-0.1-1.5,0c0,0,0,0,0,0
	c-1,4.5-1.7,7.8-1.9,9.7c1.7-0.3,3.5-0.5,5.3-1.1c0.6,0,0.6,0.3,0.9,0.4c0.3-1.3,0.7-2.6,1.4-4.1c0.8-1.7,1.8-3.1,2.8-4.4l-0.1,0
	L261,16h0c0.1-0.1,0.2-0.3,0.4-0.4c0.1-0.1,0.4-0.4,0.9-0.8c-0.7,0-1.6,0-2.3,0c-0.2,0-0.5,0.1-0.8,0.1c0.2-0.1,0.5-0.1,0.8-0.1
	c0.6-0.1,0.8-0.3,1.2-0.5c0.6,0,0.9,0.3,1.4,0.2c0,0,0,0,0,0c0.1-0.2-0.4-0.3-0.6-0.3l0.9,0c0.5-0.5,0.9-0.9,1.1-1.2
	c0.2-0.7,0.3-1.2,0.4-1.6C264.5,11.2,264.3,11,263.9,10.6z M254.5,22.3l-0.9-0.2c0.2-0.4,1.2-0.2,1.4-0.3L254.5,22.3z M276.6,24.1
	c-0.7,0-0.5,0.2-0.8,0.4c-0.1-0.1-0.2-0.1-0.3-0.1c-0.1,0.1-0.2,0.2-0.3,0.3l0.4,0l-0.3,0.4c0.9-0.1,1.9-0.4,2.7-0.5
	c0.1-0.1,0.2-0.2,0.3-0.4C277.3,24.2,276.4,24.3,276.6,24.1z M110.6,24.5l-0.5-0.3l1.7,0.3c0,0,0,0,0,0c-0.3-0.3-0.6-0.6-0.4-0.9
	c-0.1-0.2-0.2-0.4-0.3-0.4c-0.2-0.1-0.4-0.1-0.7-0.2c-0.2,0-0.4,0-0.6,0c-0.2,0.2-0.4,0.5-0.6,0.7c0.2-0.1,0.3-0.1,0.5-0.1
	c0,0.2-0.5,0.3-0.8,0.5c-0.1,0.1-0.2,0.2-0.2,0.4C110.4,24.3,109.2,24.6,110.6,24.5z M271.3,7.1c0.1-0.1,0.1-0.1,0.7,0
	c0.5-0.2-0.2-0.2-0.1-0.4l0.6,0.1c1.2-0.3,0-0.5-0.4-0.7c0.9-0.3,2.1-0.6,2.9-0.6c0.1,0.4,0.2,0.2,0,0.7l1.1-0.1
	c0-0.1,0.1-0.2-0.2-0.1c0.1-0.1,0.4-0.1,0.7-0.1c0.2-0.2,0.4-0.4,0.5-0.6c-0.5,0.1-0.2-0.1-0.5-0.1c-0.1,0-0.3,0-0.3,0
	c0.1,0,0.2,0,0.3,0c0.2,0,0.5-0.1,0.7-0.1c0.4-0.5,0.8-0.9,1-1.3c-0.4-0.5-0.7-0.8-0.9-0.8c0,0-2.4,0.5-4.6,2.1
	c-0.5,0.4-1.1,0.8-1.6,1.2c0,0.1-0.1,0.2,0,0.4C271.2,6.9,271.2,7,271.3,7.1z M20.1,31c-0.1,0-0.2,0-0.3,0c-0.3,0.3-0.6,0.6-0.9,1
	c0.8-0.2,1.7-0.6,2.6-0.7c-0.4-0.1-0.8-0.2-1.3-0.3c-0.1,0-0.2,0.1-0.2,0.2C20.1,31.1,20.1,31,20.1,31z M244.7,12.3
	c0.3,0.2,0.6,0.3,0.9,0.2c0,0,0.1,0,0.2-0.1C245.6,12.3,245.3,12.1,244.7,12.3z M253.2,14.8c-0.3-0.1-0.5-0.1-0.7-0.1
	c-0.1,0.3-0.1,0.5-0.2,0.8C252.8,15.2,252.5,14.8,253.2,14.8z M3.4,64.5c-0.1-0.3-0.2-0.3,0-0.6c-0.9-0.1-1.4,0.2-1.3,0.5
	c-0.6,0-0.7-0.1-0.8-0.2c-0.5,0.1-0.8,0.3-1,0.5c-0.1,0.4-0.1,0.7-0.2,1c0.7-0.1,1.3-0.2,1.9-0.3L2.1,66c-0.9,0-1-0.5-1.8-0.3
	c0.3,0.3,1.1,0.4,0.7,0.6l1.7-0.2l-0.2,0.3c0.4,0,1,0.1,1.5,0.1c0.2-0.7,0.4-1.6,0.6-2.5c0,0,0-0.1,0-0.1C4.1,64,3.2,64.2,3.4,64.5z
	 M255.1,14.8c0.1-0.3,0.2-0.6,0.3-1c-0.7,0.3-1.3,0.6-2.5,0.6C253.3,14.5,254.1,14.7,255.1,14.8z M253.7,14c0.6,0.2,1.1-0.1,1.6-0.2
	c0.2-0.9,0.5-1.8,0.8-2.8c-0.1,0-0.2,0-0.3,0l0.3,0c0-0.1,0.1-0.2,0.1-0.3c0.7-2.5,1.5-5.4,2.6-8.7c0-0.6-0.1-1-0.3-1.3l-1,0
	c0.2-0.1,0.4-0.2,0.7-0.2C258,0.1,257.7,0,257.4,0c-0.8,0-1.5,1-2,2.9c-0.2,1-0.4,2-0.5,2.9c-0.4,1.4-1.1,4-2,7.9l1.2,0.1L253.7,14z
	 M254.6,10.6c0.8,0.2,0.5,0.2,0,0.6L254.6,10.6z M199.5,27.1c0.8-0.3,1.5-0.8,2.5-1.1c0.1-0.3,0.2-0.4,0.2-0.4
	c0-0.4-0.3-0.9-0.7-1.5c-0.4-0.7-0.8-1-1.1-0.9c-0.5,0.1-1.1,1.2-1.8,3.5c0.3-0.1,0.7-0.2,1-0.2L199.5,27.1z M271.4,7.4l0.2-0.2
	l-0.2,0C271.4,7.3,271.4,7.3,271.4,7.4z M238.7,29.4c0,0.1,0,0.3,0,0.4c0.2-0.1,0.4-0.2,0.6-0.3C239.1,29.4,238.9,29.4,238.7,29.4z
	 M169.8,18.8c0.6,0,0.5-0.2,0.8-0.3c0,0,0-0.1,0-0.1c0,0,0-0.1,0-0.1C170,18.4,169.6,18.5,169.8,18.8z M241.7,29.5
	c0-0.1,0-0.2,0-0.3c-0.3,0-0.7,0-1.2,0.1c-0.3,0.1-1.8,0.8-0.8,1.1c0.2,0.4,1.3,0.3,2.1,0.3c-0.1-0.2-0.1-0.5-0.1-0.7
	C241.7,29.8,241.7,29.6,241.7,29.5l-0.7,0.4l0.3-0.4L241.7,29.5z M239.7,28.5c0.5-0.2,1.3-0.3,2.1-0.3c0.1-0.4,0.1-0.9,0.3-1.3
	l-0.7,0l0.7-0.1c0.2-0.5,0.3-1.1,0.6-1.7c1.2-3.1,1.8-4.8,1.9-5.2c-0.4-0.6-0.8-1-1.2-1.2c-0.6,0.1-1.2,0.3-1.8,0.4
	c-0.5,0.8-1.1,2.3-1.7,4.6c-0.5,1.9-0.9,3.5-1.1,4.7c0.4,0,0.8-0.1,1-0.2C239.8,28.3,239.6,28.4,239.7,28.5z M241.2,20.7
	c0.1,0.3,1.2,0.1,1.3,0.3c-0.4,0-1.2,0.3-1.7,0.1L241.2,20.7z M241.1,22l0.3,0.2l-0.9,0.3L241.1,22z M240,28C240,28,240,28,240,28
	C240,28.1,240,28,240,28z M169.4,19.2c0.1,0.1,0.2,0.2,0.2,0.3l0.8-0.1c0-0.1,0.1-0.3,0.1-0.6l-0.1,0.2
	C170.1,19,169.7,19.1,169.4,19.2z M244.3,12.1c0.6-0.1,1.4-0.1,2.1,0c0.4-0.3,0.9-0.8,1.6-1.4c1.3-1.3,2.1-2.2,2.5-2.9
	c-0.4-0.5-0.7-0.8-0.9-0.8c0,0-0.3,0.1-0.7,0.2c0.2,0,0.4-0.1,0.7-0.1c-0.7,0.1-1.5,0.7-2.6,0.8c-0.1,0.1-0.2,0.1-0.3,0.1
	c0.4,0.1,1.2,0,1.4,0.2c-0.4,0-1-0.1-1.6-0.1c-0.5,0.3-1,0.6-1.5,0.9c-0.5,0.4-1.1,0.8-1.6,1.2c0,0.1-0.1,0.2,0,0.4
	C243.4,11.1,243.8,11.7,244.3,12.1z M279.3,21.6c0-0.3-0.3-0.5-0.3-0.6c-0.3,0.1-1,0.8-2.1,1.9c0.7,0,1.4,0,2.1,0
	C279.2,22.4,279.4,21.9,279.3,21.6z M273.4,8.7c0.3,0,1-0.6,2.1-1.6c-1.2,0.2-2.5,0.4-3.8,0.6C272,8.3,272.7,8.8,273.4,8.7z
	 M274.9,25.1c-0.1,0-0.1,0-0.2,0c-1.4,1.3-2.5,2-3.4,2.1c-0.8,0.1-1.4,0-1.6-0.4c-0.1-0.2-0.1-0.5-0.1-0.7c0-0.1,0-0.3,0-0.4
	c-0.5,0.3-0.9,0.7-1.7,0.3c0.4-0.2,1.2-0.3,1.7-0.4c0-0.2,0-0.3,0-0.5c-0.1-0.1-0.2-0.1,0-0.2c0-0.4,0.1-0.8,0.2-1.3
	c-0.9,0.2-1.8,0.5-2.6,0.5c0,0.2,0.6,0.1,0.9,0.2l-0.6,0.5c-0.4,0-0.6,0-0.8,0c-0.1,0.7-0.1,1.3-0.1,1.7c0.1,0.4,0.2,0.8,0.4,1.2
	c-0.7,0.6-1.3,1.1-1.8,1.5c0.7-0.1,1.4-0.3,1.9-0.3l0-0.2c3-0.7,5.5-0.4,8.1-0.6c0.5-0.5,1-1.1,1.5-1.8c0.3-0.4,0.6-0.8,0.9-1.1
	c-0.7,0.1-1.7,0.1-2.5,0.4L274.9,25.1z M270.4,21.2c1.2-3.1,1.8-4.8,1.9-5.2c-0.6-1-1.4-1.5-2.3-1.4c-0.7,0.1-1.4,1.8-2.3,5.2
	c-0.4,1.3-0.7,2.5-0.9,3.5c0.9,0,2.2-0.4,3-0.4C270,22.4,270.2,21.8,270.4,21.2z M266.7,24c0,0.1,0,0.1,0,0.2
	C266.8,24.1,266.8,24.1,266.7,24z M168.9,18.5c0.2,0.2,0.3,0.4,0.5,0.6c0.1,0,0.2-0.1,0.3-0.1C169.9,18.7,169.3,18.6,168.9,18.5z
	 M32.7,53.4c-0.1,0.1-0.2,0.3-0.2,0.4l0.9-0.3L32.7,53.4z M30.5,71.2c0.1-0.1,0.3-0.2,0.4-0.4l-1,0.4C30.1,71.3,30.3,71.3,30.5,71.2
	z M57.7,46.9c0-0.1,0-0.2,0-0.2C57.5,46.8,57.4,46.9,57.7,46.9z M35.1,66c0.1,0,0.1-0.1,0.2-0.1l0-0.2c-0.1,0-0.2,0-0.4-0.1
	c-0.1,0-0.2,0-0.3,0c-4.9,3.3-8.3,5.1-10.3,5.3c-3.1,0.4-5.6-0.3-7.6-2.2c-0.5-0.5-1-1.1-1.4-1.7c-0.2,0-0.3,0.1-0.6,0.1
	c-0.5,0.1-1.1,0.1-1.6,0.2c0.4-0.1,1-0.2,1.6-0.2c0.2,0,0.4-0.1,0.6-0.1c-0.6-1-1.2-2.1-1.6-3.4c-0.9,0.3-1.9,0.7-3.2,0.8
	c0.6,2.4,1.7,4.5,3.3,6.3c1.1,1.3,2.4,2.3,3.8,2.9l0.1,0l-0.2-0.4l3-0.6c-0.5,0.9,1.3-0.4,2.2,0.1c-1.4,0.5-3.2,0.5-4.5,1.1
	c1.1,0.4,2.3,0.6,3.5,0.6c0.7-0.1,1.4-0.1,1.4-0.5c0.5,0.2,1.4,0.1,2.2,0c1.7-0.5,3.3-1.2,4.8-2.3c0.1-0.1,0.3-0.2,0.4-0.3
	c-0.6,0-1.1,0.1-1.8,0.3c0.1-0.2,0.7-0.2,1.1-0.3l-0.8-0.5c0.8-0.3,0.7,0.1,1.2,0.2c1.1,0,0.3-0.5,0.6-0.6l0.4,0.4
	c1.3-1.1,2.7-2.5,4.4-4.3l0-0.6C35.3,66,35.2,66,35.1,66z M8.2,35.4c0,0.1-0.1,0.2-0.1,0.3c0,0,0,0,0,0C8.3,35.6,8.3,35.5,8.2,35.4z
	 M70.7,50c-0.1,0.2-0.1,0.3-0.2,0.5c0.3-0.1,0.6-0.2,0.9-0.2C71.4,49.9,71.1,49.9,70.7,50z M189.4,20.5c-1.2,0.1-2.1,0.9-2.8,2.2
	c-0.2,0.4-0.4,0.9-0.5,1.4l1.2-0.1c-0.1,0.3-1.4,0.1-0.9,0.5c-0.1,0-0.2,0-0.4-0.1c-0.2,0.8-0.2,1.6-0.1,2.5c0,0.2,0.1,0.4,0.1,0.5
	c0,0,0.1,0,0.1,0c0,0.1,1.4-0.2,2.6-0.2c0,0,0-0.1,0-0.1c0-1.1-0.1-1.7,0-1.8c0.2-0.8,0.7-1.2,1.5-1.2c0.4,0,0.6,0.1,0.8,0.3
	c0.5,1,0.9,1.5,1.1,1.6c0.6,0.3,1,0.5,1.1,0.5c0-0.4,0.5-1.1,0.4-1.4c0-1.1-0.4-2.1-1.2-3C191.7,20.8,190.6,20.3,189.4,20.5z
	 M7,43.8c0.6-0.4,0.7,0.5,1.9,0.2c-0.5-0.2,0.1-0.3,0.6-0.4l-0.1-0.5c-0.2-0.2-0.5-0.3-1.7-0.2c0,0.1,0.2,0.2-0.1,0.4
	c-0.9-0.3-0.6-0.3-0.4-0.8c-0.4,0.1-0.7,0.1-0.8,0.1c-0.1,0.6-0.3,1.2-0.4,1.7C6.5,44.2,6.9,44,7,43.8z M7.7,41.8
	c0.4-0.1,0.5-0.2,0.5-0.4c0.1,0.2,0.2,0.5-0.4,0.7c1,0.2,1.3,0.3,1.5,0.5l0,0c0.1-0.3,0.2-0.7,0.4-1.2c-0.1-0.1-0.1-0.2-0.2-0.3
	c-0.4-0.3-1-0.4-1.8-0.2l0.4-0.3c1-0.1,1.3,0.2,1.4,0.5c0.1,0.1,0.2,0.1,0.2,0.2c0.2-0.8,0.6-1.8,1-3c0,0-0.1,0-0.1,0
	c-0.1-0.1,0-0.3,0.2-0.3c0.1-0.4,0.3-0.8,0.5-1.3c-0.4,0.2-0.9,0.4-1.2,0.7l0.7,0.1l-1.2,0.3c0.1,0,0.2,0,0.3,0.1l-0.3-0.1l0,0
	c-0.3-0.1-0.4-0.1-0.7,0l0.6-0.6l-1.8,0.1c-0.3,1.2-0.7,2.4-1,3.9c0,0.2-0.1,0.3-0.1,0.5C6.9,41.6,7.3,41.6,7.7,41.8z M25.2,26.1
	c0,0-0.1,0-0.1,0.1l1.2,0.1C26,26.1,25.6,26,25.2,26.1z M104.2,35.9c0,0.1-0.1,0.3-0.1,0.4c0.2-0.1,0.5-0.1,0.7-0.2
	C104.6,36.1,104.4,36,104.2,35.9z M111.6,25.1c-1.1,0.3-2.7,0.3-3.5,0.7c-0.6,1.2-1.2,2.6-1.8,4.3c-0.2,0.5-0.4,1.1-0.6,1.7
	c1.1-0.1,2.3-0.1,3.4-0.2C110,28.5,110.9,26.4,111.6,25.1z M169.7,16.4c-1.1,0-2,0.1-2.9,0.3c0.7,0.5,1.4,1.1,2,1.8
	c0.3-0.1,1-0.3,1.6-0.4C170.3,17.7,170.1,17.1,169.7,16.4z M15.1,42.9l1.2-0.6l0.5,0.2c0.2,0,0.5,0,0.7,0c0.3-0.7,0.7-1.3,1-1.9
	c-0.5,0.1-1,0.2-1.5,0.3l0.7-0.3c-1-0.1-1.9-0.8-2.9-0.4l0,0.6c0.3-0.1,1.3,0,1.1-0.3c1.1,0-1.1,0.3-0.3,0.5l-2.2-0.1
	c-0.7,0.2,0.2,0.4-0.1,0.4c-0.9,0.4-1.5,0.1-2.2,0c-0.4,0.6-0.7,1.2-1.1,1.8c0.3,0.1,0.7,0.2,1.5,0.2l-0.2-0.2
	C12.2,43.5,15.3,41.8,15.1,42.9z M141.8,37c0.2-0.7,0.3-1.4,0.2-2c-0.3-2-0.6-3.4-1.1-4.2c-0.4-0.6-0.9-0.9-1.5-0.8
	c-0.8,0.1-1.6,0.5-2.4,1.2c0.2,0,0.4,0,0.5,0c0.3-0.1-0.6-0.1,0.1-0.3c1,0.2,1.9-0.5,3.1-0.1c-0.1,0.1-0.3,0.2-0.4,0.2l-0.1,0.1
	c-0.1,0,0-0.1,0.1-0.1l0.1-0.3l-2.6,0.4c0.6,0.2-0.6,0.5-0.8,0.7l-0.6-0.2c-0.8,0.9-1.5,1.8-2.2,2.6c-0.1-0.1-0.3-0.4-0.6-1
	c-0.2-0.4-0.5-0.6-0.9-0.6c-0.5,0.6-0.9,1.3-1.1,2.2c0.1,0.1,0.1,0.2,0,0.4c1.1-0.2,1.6-0.1,2,0.1l-0.7,0.1c-0.1,0.1,0,0.1,0.2,0.1
	l-1.5,0.1c0.2,0.2,1.1,0,0.2,0.5c0.2,0,0.3,0,0.4,0c0.1,0,0.2,0,0.3,0c0,0,0.1,0.1,0.1,0.1c0.4,0.1,0.7,0.2,1.3,0
	c-0.7,0.4-1,0.2-1.3,0c-0.1,0-0.3,0-0.4-0.1c-1.4,0.2,0.2,0.7-0.9,0.8c0,0.1,0,0.3,0,0.4c0.4,0,0.8,0,0.9,0.2
	c-0.4,0.1-0.7,0.2-0.9,0.2c0,0.1,0,0.2,0,0.4c-0.2,1.3-0.4,2.6-0.6,3.7c0.2-0.3,1.1-0.5,1.6-0.3c0.4,0.1-1.6,0.1-1.2,0.4l1.1,0.3
	c0.4-0.1,1.1-0.2,0.8-0.4c-0.3,0-0.3,0-0.4,0c0.5-0.1,1-0.1,1.6-0.1c0.5-1.4,1-2.9,1.7-4.3c0.3-0.6,0.6-1.1,0.9-1.6c0,0,0,0,0,0
	c0,0,0,0,0,0c0.9-1.4,1.7-2.2,2.4-2.3c0.6-0.1,0.9,0.2,1,0.9c0,0.4-0.2,1.7,0,2.2c0.1,0.4,0.1,0.7,0.3,1.1c0,0,0,0,0,0l1,0.1
	l-0.9,0.2c0.1,0.2,0.3,0.4,0.5,0.5C141.2,38.4,141.5,37.9,141.8,37z M133.2,36.4l0.3-0.4l0.3,0.2L133.2,36.4z M133.4,35.2l-0.5-0.5
	l1.6,0.2L133.4,35.2z M106.5,35.6c0.4-0.2,0.9-0.3,1.3-0.4c0.2-0.6,0.3-1.1,0.5-1.6c0.2-0.5,0.4-1.1,0.5-1.6
	c-0.4-0.2-1.2-0.5-1.7-0.1c0,0.1-0.1,0.3,0.2,0.3l-1.1,0l1.1,0.4c-0.1,0.2-1.3,0.9-2.3,0.9c-0.1,0.2-0.1,0.3-0.2,0.5
	c0.3,0,0.7,0,1.3,0c-0.4,0.2-0.2,0.3-1.4,0.6C105.8,34.4,106,35.2,106.5,35.6z M10.1,29.2c0,0.1-0.1,0.3-0.1,0.4
	c0.2-0.1,0.4-0.1,0.7-0.1C10.5,29.4,10.3,29.2,10.1,29.2z M175.7,27.4C175.7,27.4,175.7,27.4,175.7,27.4
	C175.7,27.3,175.7,27.3,175.7,27.4C175.7,27.4,175.7,27.4,175.7,27.4z M13.2,31.2c0.2-0.6,0.4-1.1,0.5-1.5c-2.2,0.3-1.9-0.1-3.8,0.1
	c0,0,0,0.1,0,0.1c-0.2,0.4-0.4,0.9-0.6,1.6c0.3-0.1,0.6-0.2,0.9-0.4C10.3,31.9,12,31.3,13.2,31.2z M173.6,29c-0.5-0.4,0.5-0.2,1-0.2
	c-0.7-0.4,0.9-1.2,0.2-1.6c-0.5,0.1-1.1,0.2-1.8,0.4c-0.1,0.6-0.3,1.2-0.4,1.8c0.1,0,0.1,0,0.2,0c-0.1,0-0.1,0-0.2,0
	c-0.2,0.7-0.3,1.5-0.5,2.2c-0.2,1.1-0.5,2.5-0.6,4.1c0.9,0,2,0,3-0.1c0-0.3-0.1-0.7-0.1-1c0.3-2,0.7-3.9,1.1-5.9
	C175,28.8,174.4,28.8,173.6,29z M171.1,39.6C171.1,39.6,171.2,39.6,171.1,39.6c0.1-0.1,0-0.1,0-0.1
	C171.1,39.5,171.1,39.6,171.1,39.6z M127.4,37.3c-0.5-0.1-1.2-0.2-1.7-0.3c-0.7,0.3,1,0.2,0.2,0.3c-0.2,0.2-0.5-0.4-1.1-0.4
	c-0.1,0.2-0.2,0.3-0.4,0.4c-0.1,0.2-0.2,0.4-0.3,0.6l0,0c0.1,0,0.1,0,0.2,0l0.3,0.3c-0.3-0.1-0.4-0.2-0.5-0.3h0
	c-0.2,0.4-0.4,0.7-0.6,1c1-0.4,2.4-0.8,3.5-0.8c0.1-0.1,0.1-0.2,0.1-0.3c0,0-0.1,0-0.1,0l0.2-0.1C127.2,37.7,127.3,37.5,127.4,37.3z
	 M14,26L14,26l0.1,0.1c0,0,0,0,0,0C14.1,26.1,14.1,26.1,14,26z M14.1,26.2C14.1,26.2,14.1,26.2,14.1,26.2c0.1,0.1,0.1,0.1,0.2,0.2
	L14.1,26.2z M13.8,29.6c0.1-0.2,0.1-0.3,0.2-0.5c-0.1,0-0.4,0.1-0.7,0.3L13.8,29.6z M14.8,36.7l-0.4,0.1c-1.3,1.5-2.4,2.8-3.3,4.2
	c1-0.4,1.8-1,3.1-1.3c-0.4-0.1-0.9-0.1-1.3,0c0.7-0.3,0.1-0.4,0-0.5c0.6,0.3,1.1-0.2,1.9,0l-0.2-0.3c0.3,0.3,2.6,0,2.3-0.5
	c0.8-0.1,1.1,0.4,1.9,0.2l0.7-0.1c0.5-0.8,1.1-1.6,1.6-2.4c-0.6,0-1.2,0-1.9,0.1c0,0,0.1,0,0.1,0l-0.2,0c0,0,0,0,0,0
	c-0.3-0.1-0.6-0.2-1.1-0.1c1.5-0.4,0.5-0.6,1.7-0.8l-0.3-0.1c0.3,0.1,1,0.1,1.4,0c0-0.2,0.1-0.4,0-0.5l0.2,0.3l1.1-0.4
	c1.6-1.9,3.4-3.4,5.2-4.4c0-0.5,0.1-0.9,0.1-1.3c-0.2-0.1-0.5-0.2,0-0.4c0-0.4,0-0.7,0-0.8c0-0.4-0.3-0.7-0.6-1L27,27.1
	c-0.8,0-1.8-0.4-2.2,0.2c-1.6-0.2,0.5-0.6,0.1-1c-0.3,0.2-0.9,0.7-1.8,1.5c-1.2,1.1-2.1,2-2.7,2.6c-0.2,0.2-0.3,0.3-0.5,0.5
	c0.1,0,0.1,0.1,0.1,0.2c0.1,0,0.1,0,0.2,0c0.7-0.4,2.2-0.4,2.9-0.8c0.2-0.4-1,0-1.3-0.3c0.8-1,3.4-0.3,4.7-0.9l0.3,0.3
	c-0.6,0.1-1,0.1-1.3,0c-0.4,0.3-2.1,0.3-2,0.8c1.4-0.3,2.5-0.5,3.5-0.3c-0.4,0.2-1.7,0.2-1,0.6l0.3,0c-0.1,0.8-2.7,0.7-2.8,1.7
	c-1.5-0.1-3.5,0.5-5,0.3c-0.6,0.6-1.2,1.2-1.8,1.9l0.9,0l-0.8,0.1l-0.2-0.1c-0.5,0.5-1,1.1-1.6,1.6l0.2-0.1l0.4,0.5
	c-0.2-0.1-0.5,0-0.9,0c0,0-0.1,0.1-0.1,0.1c-0.1,0.1-0.2,0.2-0.2,0.3C14.6,36.7,14.7,36.7,14.8,36.7z M19.2,34.6
	c0.3,0.1,0.1,0.4,0.6,0.3l-0.3,0c-0.1,0.1,0,0.1,0.1,0.2l-0.5-0.3l-0.8,0.2C17.1,34.8,18.9,34.7,19.2,34.6z M18,35.7l-0.7,0.3
	c-0.2-0.1-0.7,0-0.6-0.2L18,35.7z M16.7,36.5l0.8,0.3l-2.3,0.4c0.8,0.3,0.6,0.1,0.1,0.5C12.8,37.2,17,36.9,16.7,36.5z M14.4,27.8
	c0.1-0.5,0.2-0.8,0.2-0.9c0-0.2-0.1-0.3-0.2-0.5l-0.2-0.2c-1.3,0-1.8,0.6-1.6,0.9L10.7,27c-0.2,0.5-0.3,1-0.5,1.6
	c0.5-0.2,1.2-0.3,1.8-0.5C13.1,28.7,13,27.7,14.4,27.8z M65.6,43.6c0-0.1,0-0.2-0.1-0.3c-0.1,0-0.2-0.1-0.3-0.1
	c0.1,0,0.2-0.1,0.3-0.1c-0.2-0.7-0.5-1-1-1c-0.9,0.1-1.8,0.7-2.7,1.8c-0.2,0.2-0.4,0.5-0.6,0.8c0.9-0.4,2.9-0.5,4.4-0.7
	C65.7,43.8,65.7,43.7,65.6,43.6z M2,67.8l0.3,0C2.1,67.8,2,67.8,2,67.8l-1.4-0.2l1.7-0.3l-1.5-0.4L0,67.3c0,0.2,0,0.4,0,0.5
	c0,0,0,0.1,0,0.1c0.1,0,0.1,0,0.2,0L0.1,68c0.2,1.4,0.9,2,2.1,1.8c0.5-0.1,1.1-0.9,1.6-2.5c-0.7,0.1-1.3,0.2-1.9,0.3
	C1.9,67.6,1.9,67.7,2,67.8z M219.4,33.3c-0.1,0.1-0.1,0.2-0.1,0.2C219.3,33.5,219.4,33.4,219.4,33.3z M127.8,46.3
	c0,0-0.9,0.6-2.8,1.7c-1.6,0.9-2.9,1.5-3.7,1.6c-0.7,0.1-1.5-0.1-2.3-0.5c-1-0.5-1.6-1.3-1.8-2.3c0.5-0.1,1-0.3,1.5-0.5
	c-0.2,0-0.4,0.1-0.6,0.1c-0.2-0.2-0.6-0.3-0.1-0.5c0.6,0,0.7,0.4,1.4,0c0,0,0,0,0,0c1.5-0.8,3.1-2.1,4.7-4c0.8-1,1.5-1.8,2.1-2.7
	c-0.3,0-0.6,0-0.9-0.1l0,0.1c-0.4,0.1-0.6,0-0.9-0.1c0.2,0,0.5,0,0.9,0l-0.1-0.6l-1.8,0.4c-0.3,0.5-0.7,1-1.2,1.4
	c-1.1,1-1.8,1.7-2.2,2c-0.7,0.5-1.5,0.9-2.4,1c0.3-1.3,1.1-2.7,2.3-4.3c0.4-0.6,0.8-1,1.3-1.4c-0.6,0-1.1,0.1-1.6,0.2
	c0.2,0.1-0.6,0.5-0.9,0.7l-1.3-0.3c0.5-0.5,2.1-0.8,2.3-1.3c-1.4,0.3-0.6-0.2-1.2-0.3c-0.4,0.5-0.8,1-1.2,1.6
	c-0.1,0.2-0.2,0.4-0.3,0.5c0.1,0,0.2,0,0.4,0c-0.2,0-0.3,0.1-0.5,0.1c-1.6,2.5-2.3,4.8-2.4,6.7c0.1,0,0.1,0,0.2,0
	c0.6,0,1.3,0,0.9-0.3c1,0,2.6-0.5,3-0.1l-1.1,0.4l0.1,0l-2.7,0c-0.1,0.3,0.5,0.3,0.8,0.3c-0.4-0.1-0.7,0.1-1.1,0.3
	c0,0.2,0,0.3,0,0.5c0,0.2,0.1,0.3,0.1,0.5l-1.4,1.3c-0.4,0.4-0.8,0.7-1.1,1c1.1-0.2,1.6-0.4,2.3-0.3c-1.3-0.1-0.2,0.5-0.8,0.3l0-0.1
	c-0.6,0-1.1,0.1-1.6,0.2c-0.9,0.6-1.7,1-2.4,1c-0.8,0-1.5-0.3-2.1-1c0,0-0.1,0.1-0.1,0.1c0-0.1,0-0.2-0.1-0.3
	c-0.1-0.2-0.3-0.4-0.4-0.6c-0.3-0.6-0.6-1.4-0.8-2.5c-0.1-0.8-0.2-1.8-0.1-3c-0.9,0.1-1.8,0.3-2.6,0.3c0,0-0.1,0-0.1,0
	c-0.1,0.9,0,1.8,0.1,2.8c0.1,0.9,0.3,1.7,0.5,2.4c0.9,0,1.7,0,1.8-0.2c0.6,0.3-1.2,0.3-0.8,0.8c-0.2-0.2-0.5-0.2-0.8-0.2
	c0.7,1.8,1.7,3.1,3.1,3.7c0.4,0.2,1.1,0.3,1.9,0.3s1.5,0,1.9-0.2c0.9-0.4,1.9-1.2,3-2.2c0.1-0.1,0.1-0.2,0.2-0.2
	c-0.1,0-0.3,0-0.4,0.1c0-0.1,0.2-0.2,0.6-0.3c0.3-0.3,0.5-0.6,0.7-0.9l-0.1,0l0.3-0.1l0,0c0,0,0,0,0,0c0,0,0,0,0,0.1l1.1,0.1l-1,0
	c0.2,0.2,0.3,0.4,0.5,0.7c0.3,0,0.5,0,0.7,0.1c-0.2,0-0.3,0-0.5,0c0.1,0.1,0.1,0.1,0.2,0.2c1.3,1.1,2.8,1.6,4.5,1.4
	c0.8-0.1,1.9-0.6,3.2-1.6l-0.4,0.1c0.2-0.1,0.4-0.1,0.5-0.2c0.3-0.2,0.7-0.5,1-0.7c1.9-1.4,3.1-2.5,3.5-3.3
	C128.6,46.3,128.2,46.2,127.8,46.3z M223.3,27.2l0.1,0.6c0,0.1,0,0.4-0.2,0.9c0.2-0.2,0.6-0.4,1.3-0.4c0.4,0,1,0.1,1.5,0.2
	c0.1-4.1,0.1-6.1,0.2-5.7c-0.1-0.7-0.7-1.5-1.5-1.4c-0.9,0.1-1.8,0.9-2.8,2.4c-1.6,2.6-2.5,3.9-2.7,4.2c-0.2-0.1-0.2-0.3-0.3-0.4
	c0.2-1,0.3-1.8,0.4-2.6l-0.1,0l-1-0.1l1.2-0.1c0.1-0.8,0.1-1.4,0-1.9c-0.1-0.9-0.7-1.3-1.7-1.1c-0.9,0.1-1.5,1.4-1.5,2.3
	c0,0.5,0,1.4-0.2,2.7l0.9,0.2c-0.6,0.3-0.7,0.1-1,0.1c-0.1,0.8-0.2,1.7-0.4,2.8c1.9-0.4,2.6-0.6,4.9-1.1l-0.3-0.1
	c1.5-0.1,0.9,0.3,1.3,0.6c0.1,0,0.1,0,0.2,0c0.1-0.2,0.3-0.4,0.4-0.6c-0.1,0-0.1-0.1,0-0.2c0,0,0,0.1,0,0.2
	C222.6,27.7,223.1,27.2,223.3,27.2z M207.6,36.2c1.1-0.1,1.5-0.1,1.9-0.1c-0.1-0.1-0.2-0.2-0.2-0.3c-0.3-0.6-0.6-1-0.6-1.5
	c-0.1,0-0.2-0.1-0.2-0.2l0.2,0c0,0,0,0,0,0c0-0.4,0-0.8,0-1.2l-0.6-0.1c0.2-0.1,0.4-0.1,0.6-0.2c0-0.3,0.1-0.7,0.1-1.1
	c-0.4-0.2-0.7-0.4-1-0.7c0.4,0,0.9-0.1,1.2-0.1c0.1-0.6,0.3-1.3,0.5-2c0-0.2,0.1-0.3,0.1-0.5c-0.2,0-0.3,0-0.8,0.1l0.3-0.5l0.6-0.1
	c0.4-1.6,0.7-2.3,0.7-2.1c0-0.3-0.2-0.6-0.6-0.9c-0.6-0.6-0.9-0.9-1.1-1c-0.6,0.2-1.1,0.7-1.5,1.6c-0.3,0.6-0.6,1.3-0.9,2
	c-0.8,1.5-1.5,2.6-1.9,3.2c-0.7,1.2-1.4,2.3-2,3.2c1.4-0.3,2.8-0.8,4.1-1c0.8-0.1-0.1,0.7,1.1,0.3c-0.9,0.5,0.6,0.9-0.6,1
	c0.2,0.1,0.6,0,0.9,0.1l-0.6,0.5c1.5-0.3,0.1,0.6,1.2,0.7l-2.4-0.2c0.2,0.7,0.4,1.4,0.8,2C207.5,36.6,207.9,36.5,207.6,36.2z
	 M206.9,31.1l-1.3-0.1c1-0.1,0.8-0.4,1.7-0.3C207.2,30.9,206.9,31,206.9,31.1z M222.7,32c0,0.1,0,0.3,0,0.4
	C222.9,32.2,223.1,32.1,222.7,32z M174.8,39.1c-0.7,0.1-1.3,0.3-1.3,0.7l-1.4,0l0.7-0.1c0.9-0.3,0.3-0.7,0.2-1.1
	c-1,0-0.7,0.8-1.8,0.5c0,0,0,0,0,0.1c0.3,0.3,0.3,0.7-0.1,1c-0.1,1.1-0.1,1.8-0.1,2c0.1,0.5,0.3,1,0.7,1.4c0.5,0.6,1.1,0.8,1.9,0.7
	c1.1-0.1,1.5-1.6,1.3-4.4C174.8,39.7,174.8,39.4,174.8,39.1z M171.4,41.2l1.9-0.3c0.2-0.3-1.4,0-0.6-0.2l1.2,0
	C172.8,41.2,172.8,41.1,171.4,41.2z M185.3,37.2c0.1-0.3,0.2-0.7,0.3-1c-0.1,0-0.2,0-0.3,0c0,0,0,0,0,0c0.3,0.2-0.2,0.2-0.2,0.4
	c-0.3,0.1-0.8,0.2-1.4,0.2c-0.1,0.1-0.1,0.1-0.2,0.2l0.2,0.3c0,0,0.1,0,0.2,0C184.3,37.4,184.9,37.3,185.3,37.2z M158.2,43.1
	c-1.2,0.9-2.2,1.4-3,1.5c-0.7,0.1-1.3-0.3-1.8-1.1c-0.4-0.7-0.7-1.2-0.7-1.7c-0.1-1.3,0.2-3.1,0.8-5.4c-1.2,0.1-2.7,0.4-3.7,0.3
	c1.4-1,2.6,0.2,3.7-0.7l-0.5-0.1c0.4,0,0.5-0.2,0.7-0.3c0.5-1.8,0.8-2.6,0.8-2.4c0-0.3-0.2-0.6-0.6-0.9c-0.6-0.5-0.9-0.9-1.1-1
	c-0.6,0.2-1.1,0.7-1.5,1.6c-0.1,0.1-0.1,0.2-0.2,0.4c0.9-0.3,2.4,0,3.2-0.3c-1.4,0.3-2.1,0.7-3.3,0.6c-0.2,0.4-0.3,0.8-0.5,1.1
	c1.1-0.2,2.5-0.3,3.2-0.3c-1.2,0.3-3.3,0.4-3.6,1.2l-0.1-0.1c-0.1,0.2-0.2,0.3-0.3,0.5l2.1-0.1l-1.7,0.2l-0.5,0.2l-0.1,0
	c-0.4,0.8-0.8,1.4-1.1,1.8c-0.7,1.2-1.4,2.2-2,3.1c0.1,0.1,0.3,0.1,0.5,0.1c0.1,0,0.4-0.1,0.8,0c-0.4,0-0.6,0-0.8,0
	c-0.5,0.1,0.1,0.7-0.9,0.8l-0.3,0c-1,1.4-1.9,2.2-2.6,2.6c-0.1-0.1-0.2-0.2-0.1-0.3c-0.1-1.1,0.2-2.6,0.8-4.6c0-0.1,0-0.1,0-0.2
	c0,0,0.1,0,0.1,0c0.2-0.6,0.4-1.2,0.6-1.9c0-0.1,0.1-0.1,0.1-0.2c-0.2,0-0.5,0.1-0.8,0.3c-1.4,0,0.8-0.9-1-0.6
	c0.3-0.1,1-0.6,1.4-0.3l-0.5,0.4l0.9,0c0.1-0.4,0.3-0.7,0.4-1c-0.2,0-0.3,0-0.4,0l0.4,0c0.3-0.9,0.6-1.6,0.8-2
	c-0.4,0.1-0.9,0.2-1.3,0.3l0.5,0.4l-0.3-0.1c-0.2-0.1-1.1-0.5,0-0.8c0.5,0.1,0.8,0.1,1.1,0c0.2-0.5,0.3-0.7,0.3-0.7
	c0-0.4-0.3-0.9-0.7-1.5c-0.2-0.4-0.4-0.6-0.6-0.8h0l0,0c-0.2-0.1-0.3-0.2-0.5-0.2c-0.6,0.1-1.5,2.1-2.6,6c-0.3,0.9-0.5,1.7-0.7,2.4
	c0.6,0.1,1.2,0.3,1.8,0.3c-0.4,0.2-1.6,0.4-0.5,0.5l-1.6,0.3c0,0.2-0.1,0.3-0.1,0.5l0,0h0c-0.3,1.5-0.5,2.6-0.4,3.2
	c0.3,2.5,1.5,3.6,3.5,3.4c0.8-0.1,1.8-1,3.1-2.5c1-1.4,2-2.8,2.9-4.1c0,0.4,0,0.8,0,1.2c0.2,1.5,0.8,2.7,1.9,3.7
	c1.1,1,2.3,1.4,3.6,1.3c1.2-0.2,2.4-0.9,3.7-2.2c1-1,1.7-2,2-2.8l-0.2-0.7C160.6,41.5,159.6,42.1,158.2,43.1z M142.3,37.4l0,0.1
	C142.1,37.5,142.2,37.4,142.3,37.4l-0.1-0.4C143.1,37,142.5,37.2,142.3,37.4z M151.5,41.7l0.3-0.1l0.8,0.3L151.5,41.7z M198,34.1
	c0.5-0.1,1.1-0.2,1.4-0.3c0-0.1,0.1-0.2,0.1-0.3c0,0,0,0-0.1-0.1c0,0,0,0,0.1,0c0.3-1,0.6-2.2,1.1-3.5c0.5-1.4,0.9-2.4,1.1-3.1
	c-0.6,0.1-1.1,0.2-1.7,0.1c0.3,0.3,1,0.1,1.2,0.4l-1.2,0.6c-0.8-0.1-1.4-0.1-2-0.1c-0.1,0.4-0.3,0.8-0.4,1.3
	c-0.5,1.8-0.9,3.2-1.1,4.4C197.9,33.5,198.4,33.6,198,34.1z M205.8,33.8c0,0.1,0,0.3,0,0.4c0.3-0.1,0.7-0.3,0.9-0.5
	C206.5,33.7,206.1,33.7,205.8,33.8z M201.4,34.8c0.2,0,0.4,0,0.6,0c-0.1-0.1-0.2-0.2-0.4-0.2C201.6,34.6,201.5,34.7,201.4,34.8z
	 M189.5,29.4c-1.1,0-3.1,0.3-1.9-0.6c0.4-0.1,1-0.1,1.6-0.2c-0.1-0.4-0.2-0.7-0.3-1c-0.8,0.2-1.8,0.3-2.7,0.5
	c0.2,0.6,0.7,1.8,1.4,3.8c0.9,2.6,1.4,4,1.4,4.2c0.1,1-0.1,2-0.6,3c0.6,0,1.4,0,0.9-0.4c0.9,0,0.8,0.4,0.7,0.6
	c-0.5,0.1-1.2,0.2-1.7,0.2c0,0,0,0,0,0.1c-0.1,0.2-0.3,0.4-0.4,0.6c0.1,0,0.2,0,0.4,0c-0.2,0-0.3,0-0.4,0c-0.5,0.7-1.1,1.1-1.8,1.2
	c-0.8,0.1-1.3-0.2-1.4-0.8c-0.8-0.3-1.4-0.5-2.5-0.7c0,0.2-0.1,0.4-0.1,0.6c-0.1,0.4-0.1,0.8,0,1.2c0.3,1.9,1.9,2.9,4,2.6
	c1.9-0.3,3.3-1.2,4.4-2.8c0.9-1.3,1.3-2.6,1.2-4.1c0-1.3-0.5-3.2-1.4-5.9C189.9,30.7,189.7,30,189.5,29.4z M188.5,39.9
	c0.3,0,0.9-0.4,1.4-0.2C189.6,39.8,188.9,40.1,188.5,39.9z M239.7,32c1.4,0,1.6-0.5,2.1-0.8c-0.9,0-1-0.8-2.5-0.3
	c0.1,0,0.1,0.1,0.2,0.1c0.5,0,1,0.1,1.2,0.3c-0.2,0-0.8-0.1-1.2-0.3c-0.5,0-1.1,0-1.7,0c-1.4,1.1-2.3,1.7-2.6,1.8
	c-1.7,0.2-2.7-0.6-2.9-2.5c0-0.4-0.1-0.7-0.1-1.1c-0.4,0.1-0.7,0.2-0.8,0.4c0.1-0.1-0.6-0.4-1.4-0.3c-0.1,0.1-0.3,0.1-0.6,0.1
	c0.2-0.1,0.4-0.1,0.6-0.1c0.2-0.1,0.2-0.3,0.7-0.3c-0.2-0.2-1.9-0.2-2.1,0.1l0.4,0.1l-1.3-0.1c0,0.2,0.5,0.2,0.6,0.3l-1.2,0.5
	c0.4,0.1,0.9,0.5,0.1,0.9c0,0,0.1,0,0.1,0l1,0c-0.3,0-0.7,0-1,0l-0.1,0c0,0,0,0,0,0c-0.7-0.1-1.5-0.2-2.1,0.2
	c-0.5,0.1-0.7,0.2-0.8,0.3l0.1,0.3c0.2,0.1,0.4,0.2,0.5,0.4c-0.1,0.1-1-0.2-2,0.1c0.7,0,1,0.5,1.8,0.4c0.3,0.1-0.1,0.3-0.1,0.4
	c-0.2-0.1-0.8-0.3-1.6-0.1l0.2,0.2c-0.2,0-0.3,0-0.4-0.1c0,0.1,0,0.2,0,0.4c0.2,1.6,0.9,2.4,2,2.2c0.6-0.1,1.5-1,2.6-2.7
	c1.3-2,2-3,2-3c0,0.3,0,0.5,0.1,0.8c0.2,1.2,0.7,2.3,1.6,3.2c0.9,0.9,2,1.4,3.1,1.3l1.1-0.2c0.4-0.1,1.1-0.5,1.9-1.4
	c0.4-0.4,0.7-0.8,1-1.1c-0.2-0.1-0.3-0.2-0.2-0.3c0.1,0,0.2,0,0.3,0c0.2-0.3,0.5-0.7,0.7-1c0.1,0.2,0.2,0.4,0.3,0.5c0,0,0-0.1,0-0.1
	l1.1,0C240.2,31.7,239.5,31.7,239.7,32z M204.1,34.7l-0.6,0.5c-0.8-0.1-1.6,0-2.5,0.1c-0.7,0.8-1.3,1.4-1.9,1.7
	c-0.1-0.1-0.2-0.2-0.1-0.3c0-0.3,0-0.7,0.1-1.1c-0.9,0.1-1.6,0.2-2.2,0c0.7-0.2,1.5-0.4,2.3-0.5c0-0.3,0.1-0.5,0.1-0.8
	c-1,0-2.1,0.1-2.8-0.1c-0.2,1.1-0.3,1.8-0.2,2.3c0.3,2.5,1.5,3.6,3.5,3.4c0.8-0.1,1.8-1,3.1-2.5c0.8-1.2,1.6-2.3,2.4-3.4
	c-0.9,0.2-1.9,0.5-3,0.6L204.1,34.7z M198,38.9l-0.3-0.1c0.3,0,0.4-0.1,0.5-0.1C198.1,38.8,198.1,38.9,198,38.9z M198.4,38.7
	c0-0.1-0.2-0.3,0.2-0.5C198.9,38.2,198.6,38.5,198.4,38.7z M198.1,37.4c-0.4,0-1.8-1,0.6-1.2l0.2,0.4c-0.3-0.3-1.1,0.1-1.2,0.2
	c-0.2,1,2.4,0,3.4,0.1C200.4,37.5,199.2,37.3,198.1,37.4z M13.2,61.4c0-0.2-0.1-0.4-0.1-0.6c-0.4-2.7-0.1-5.8,0.8-9.2
	c-0.3,0.1-0.5,0.2-0.6,0.3l-1.4-0.1c0.4-0.6,1.4-0.4,2.1-0.6c0.6-2.3,1.5-4.7,2.7-7.2c0.1-0.3,0.2-0.5,0.4-0.8l-0.7,0.1
	c0,0.1,0.1,0.3,0.5,0.3c-1.3,0.1,0-0.8-1.7-0.5l0,0.2c-0.2-0.3-1.3-0.1-1.6,0.1l0-0.5c-0.8,0-0.9,0.4-1,0.7c0.1-0.2-0.6-0.3-1.2-0.1
	c-0.3,0.1,0,0.2,0.1,0.3c1,0.7,3.4-1,4,0c-0.2,0.2-1.1,0-1.8,0.1l0.1,0.3c-0.2-0.1-0.7,0.1-1.1,0.1l0.6,0.2
	c-0.5,0.1-0.6,0.2-0.8,0.4c0.1,0.1,0.1,0.2,0.1,0.2c-0.1,0.3-0.2,0.6-0.3,0.9c0.3,0.1,0.6,0.1,1-0.1l0-0.1c0.3,0.2,0.7,0,1.2,0
	l-0.6,0.5l-0.1-0.3l-1.1,0.4c-0.1,0-0.3,0-0.5,0c-0.5,1.6-1,3.8-1.5,6.4c-0.7,4-0.9,7.1-0.6,9.3c0.2,0,0.4,0,0.6,0
	C11.6,62.2,12.5,61.7,13.2,61.4z M11.3,59.8c0.1,0,0.2-0.1,0.5-0.1C11.5,59.8,11.4,59.8,11.3,59.8c-0.2,0.1-0.1,0.3-0.7,0
	C10.9,59.4,11,59.7,11.3,59.8z M239.6,32.1c0,0.1,0.1,0.1,0.1,0.2c0.1,0,0.2,0,0.3-0.1c0,0,0,0,0,0
	C239.8,32.1,239.7,32.1,239.6,32.1z M240.1,32.1c-0.1,0-0.1,0-0.1,0.1l0,0c0,0,0,0,0,0c-0.1,0-0.2,0.1-0.3,0.1
	c0.2,0.2,0.3,0.4,0.6,0.6c0.3,0.3,0.7,0.6,1,0.8c0.7-0.2,0.4-0.9,1.5-0.6c-1,0.2-0.3,0.5-1.4,0.6c0.5,0.3,1.1,0.4,1.6,0.3
	c0.1,0,0.5-0.1,1-0.2c0.6-0.1,0.9-0.2,1-0.2c0.2,0,0.4-0.2,0.7-0.4l-0.5-0.1l1-0.2c0,0,0,0,0.1-0.1c-0.4-0.2-0.5-0.6-1.2-0.6
	C243.3,32.9,242.6,31.5,240.1,32.1z M11.3,45.9c0.1,0,0.2,0,0.3,0c0.2-0.3,0.4-0.5,0.6-0.8c-0.1,0-0.3,0.1-0.6,0.1l-0.1-0.3
	c-0.6,0.1-0.8,0.2-1.1,0.4c-1.1,0.2-1-0.5-1.3-0.5c0.3,0.2,1.2,0.1,1.7-0.1c0.3-0.4-0.7-0.7-1.7-0.7l0.1,0.6c-1.2,0-2.4,0.3-3.6,0.5
	c-0.1,0.5-0.2,1-0.4,1.5c1.6,0.1,3.2,0.5,4.9,0l-0.6,0.4l1,0.1l-2,0.7l-0.4-0.4c-0.8,0.1-2.3-0.1-3.1,0.3l0,0.1c-0.1,0-0.1,0-0.2,0
	c-0.1,0.2-0.1,0.5-0.2,0.7c0.8-0.1,1.5-0.1,1.8-0.1l0.1,0.3l-0.9,0l-1.1,0.6c-0.7,2.6-1.3,5.1-2,7.7c0.2,0.1,0.4,0.1,0.7,0.2
	c0.4,0,0.5-0.3,0.3-0.4l-0.3,0c0.2-0.4,2.3-0.1,1.3-0.7l1,0.6c-2.7,0.1-0.4,0.7-2.3,1.2l0.4-0.4l-1.1-0.1c-0.5,1.5-1,3.1-1.5,4.7
	c-0.3,0.9-0.5,1.7-0.7,2.5c1.5,0,1.9-0.8,2.9-0.5c0.4-0.2,0.4-0.3,0.6-0.5l0.7,0.1c0.3-1.2,0.5-2.3,0.7-3.2
	c-0.7,0.1-1.4,0.1-2.1,0.2l0.3-0.1c0-0.1,0.1-0.2-0.2-0.2c1.3,0,0.8-0.2,1.7,0.1l0.3-0.2c0-0.1,0-0.2,0.1-0.3c-0.3,0-0.5,0.1-0.3,0
	l0.3,0c0.4-1.8,0.6-2.7,0.7-2.8L9,50.6c0.8-1.7,1.6-3.1,2.4-4.3C11.1,46.2,10.9,46.1,11.3,45.9z M7.2,46.1l0.2-0.4l-1.6,0.1
	c1.2-0.2,1-0.5,2.3-0.4l-0.8,0.1C7.1,45.7,8.3,45.8,7.2,46.1z M259.4,32.3c0.1,0.3-1.8,0.2-1.1,0.6c-0.2-0.2-1.2-0.1-1.8,0.1
	c0.2,0.1,0.4,0.3,0.6,0.4c1.3-0.1,2.8-0.4,3.9-0.5c0,0,0,0,0,0l0.7-0.1c-0.2,0-0.4,0-0.7,0.1c0.5,0.3,0.9,0.5,1.5,0.7
	c0.2-0.1,0.5-0.2,0.7-0.4c-0.1,0-0.3,0-0.5-0.1c0.3,0,0.5,0,0.7-0.1c0.1-0.1,0.3-0.2,0.4-0.3c0,0,0.1-0.1,0.1-0.1
	c0.1-0.1,0.2-0.1,0.3-0.2l-1.6-0.7C261.8,31.9,260.9,32.5,259.4,32.3z M217.6,31.7c0.9-0.1,1.9-0.2,2.8-0.3c0-0.1,0.1-0.2,0.1-0.2
	C219,31.3,217.5,31,217.6,31.7z M249.2,28.3c-0.4-0.2-0.8-0.3-1.2-0.4c-0.1,0.1-0.2,0.2-0.3,0.3c-0.2,0.2-0.3,0.3-0.4,0.4
	c1-0.1,1.8-0.1,1-0.1c-0.4,0.2-1.6,0.4-1.7,0.8c0.6-0.3,1.5-0.1,1.9-0.1c-1,0.3-1.6,0.3-2.1,0.1c-0.6,0.6-1.2,1-1.8,1.2
	c0.4,0,0.6,0.1,0.7,0.2c0-0.2,0.6-0.3,1.2-0.3l0,0h0.1c0.3,0,0.6,0,0.9,0l-0.9,0c0,0-0.1,0-0.1,0L246,31c0.6,0.1,1.2,0.2,1.8,0.2
	c0.3-0.3,0.6-0.7,1-1.1c0.7-0.8,1.2-1.5,1.7-2.2C249.8,27.9,249.2,28,249.2,28.3z M219.3,31.6c-0.1,0.3,0.1,0.4,0.4,0.5l-1.4,0.2
	l0.7-0.5c-1-0.2-2.2,0.2-3.1,0.2l-0.1,0.7c-0.2-0.1-0.2-0.5-0.7-0.5c-0.2,0.9-0.4,1.9-0.6,2.9c-0.2,0.1-0.3,0.2-0.5,0.3
	c-1.2,0.9-2.2,1.4-3,1.5c-0.4,0.1-0.8-0.1-1.1-0.4l-0.3,0l0.4,0.4c-0.5-0.3-2.1,0-3.2-0.1c0.2,0.3,0.4,0.5,0.6,0.8l0-0.3l0.3,0
	l-0.3,0.3c0.1,0.1,0.2,0.3,0.4,0.4c1.1,1,2.3,1.4,3.6,1.3c1.1-0.2,2.3-0.8,3.5-2c0.4,0.4,0.8,0.6,1.2,0.5c0.5-0.1,1.1-0.8,2-2.2
	c-0.6,0.1-1.2,0.1-1.7,0.2c0.3-0.1,0.8-0.4,0.1-0.4c0.3-0.3,1.2-0.3,1.9-0.3c0-0.1,0.1-0.1,0.1-0.2c0,0,0,0,0.1-0.1
	c0.2-0.3,0.4-0.7,0.6-1c0,0,0,0,0,0l-0.4-0.7c0.1-0.1,0.7-0.1,1-0.3c0-0.1,0.1-0.1,0.1-0.2l0,0l-0.3,0l0.3,0c0,0,0,0,0,0l0,0
	c0.1-0.1,0.1-0.3,0.2-0.4c0.2-0.3,0.4-0.7,0.5-1C220.1,31.4,219.7,31.4,219.3,31.6z M227.7,28.5c0.7,0.1,2.9-0.1,4.5-0.2
	c0-1,0.2-2.1,0.5-3.2c0.5-1.9,0.7-3.2,0.6-4.1c0-0.1-0.6-0.5-1.6-1l-0.3,0.4c-0.6,0.5-1.4,1.6-2.5,3.5c0,0.1-0.1,0.1-0.1,0.2
	l1.2,0.2c-0.4,0.3-0.9,0.3-1.5,0.3c-1,1.8-1.8,3.1-2.2,3.8c0.5,0,1.1,0,1.5-0.2L227.7,28.5z M224.2,31.2l-0.1-0.4
	c-0.5,0-1,0.1-1.4,0.1c0,0.3-0.1,0.7-0.1,1c0.9-0.2,0.7-0.4,1.6-0.2l0-0.2C224.2,31.4,224.1,31.3,224.2,31.2z M257.3,30.2
	c-0.7-0.7-1-1.7-1.1-3c0-0.7,0.1-1.4,0.2-2.1c-0.6,0-1.1-0.1-1.3-0.3l-0.2,0.4c-1.7-0.2-3.2,0.4-4.6,0.3c0,0,0,0,0,0
	c-0.4,0.4-1,1-1.8,1.8c0.1,0,0.3,0,0.4,0c0-0.1,0-0.1,0-0.1c-0.1,0-0.2,0-0.3,0c0.2-0.1,0.3-0.1,0.3,0c2.1-0.3-0.1,0.6,1.9,0.5
	c-0.1-0.4,1.1-0.2,1.5-0.2c-0.4,0.4-1.2,0.4-1.9,0.5c0,0,0,0.1,0.1,0.1c0.3,0.6,0.7,0.9,1,0.8c0.1,0,0.5-0.1,1-0.4
	c0.5-0.3,0.8-0.5,0.9-0.5c0.1,0,0.2,0.4,0.4,1.2c0.1,0.5,0.2,0.8,0.2,1.1c1-0.1,1.9-0.1,2.7,0C257,30.3,257.2,30.2,257.3,30.2z
	 M169.5,15.9c-0.1-0.3-0.3-0.6-0.5-1c-0.3,0.1-0.8,0.2-1.4,0.4c0.7,0.1,0.9,0.3,0.7,0.7L169.5,15.9z M70,51.7
	C70,51.8,70,51.8,70,51.7C70,51.8,70.1,51.8,70,51.7L70,51.7z M43.8,52.9c0.1-1.3,0.3-2.4,0.5-3.2l-0.4,0.1l0.4-0.1
	c0-0.1,0.1-0.2,0.1-0.4c0.1-0.5,0.3-1,0.5-1.5c-0.8,0.4-1.9,0.3-2.5-0.1c0.7,0,1.2-0.4,1-0.7l0.4,0.4c0.4-0.1,0.9-0.1,1.3-0.1
	c0.1-0.2,0.2-0.4,0.3-0.6c0.2-1.1,0.2-1.8-0.1-2.1c-0.7-0.5-1.2-0.7-1.6-0.6s-0.7,0.5-1,1.4c-0.2,0.5-0.3,1-0.5,1.5
	c-0.5-0.7-0.8-1.5-1.8-1.4c-1.6,0.2-3.6,1.9-6,5.2c0.2,0.1,0.4,0.2,0.5,0.3c-0.2,0.1-0.4,0-0.7,0c0,0.1-0.1,0.1-0.1,0.2
	c-0.5,0.8-1,1.5-1.4,2.1c0.6,0,1.2,0,1.4-0.3l0.2,0.4c0.8-0.1,1.1-0.2,1.6-0.2c0.1-0.1,0.2-0.3,0.3-0.4c0.5-0.7,1-1.3,1.5-1.9
	c0.9-1,1.5-1.5,2-1.6c0.3,0,1.2,0.3,1.4,0.3c-0.1,0.9-0.3,1.7-0.7,2.5c-0.1,0.1-0.2,0.3-0.3,0.5c0.1,0,0.3,0,0.4,0
	c-0.5-0.2,1.3-0.5,1.3-0.7c0.6,0.3-0.3,0.4-0.4,0.8c0.4,0.2,1.3,0.4,2.1,0.4c0.1,0,0.2,0,0.3,0C43.8,53.1,43.8,53,43.8,52.9z
	 M35.4,52.4l0-0.1l1,0L35.4,52.4z M22.4,34.6L22,34.8l0.2,0C22.3,34.7,22.3,34.7,22.4,34.6z M59.8,47c-0.1,0.1-0.2,0.3-0.3,0.4
	c0,0,0,0,0.1,0C59.7,47.3,60.7,46.9,59.8,47z M60.8,45.3C60.8,45.3,60.8,45.4,60.8,45.3l0.2,0.1C61,45.4,60.9,45.3,60.8,45.3z
	 M53.3,57c0,0.1,0,0.1,0,0.1c0,0,0,0.1,0.1,0.1C53.6,57.1,53.9,57,53.3,57z M259.2,34.1c0.3,0,0.7,0.1,1,0.1c0.7,0,1.5-0.2,2.2-0.5
	C261.6,34,259.7,33.8,259.2,34.1C259.2,34.1,259.2,34.1,259.2,34.1z M13.6,63.3c0-0.2-0.1-0.3-0.1-0.5c-1,0-2,0-3,0.1
	c0.1,0,0.2,0.1,0.3,0.2l-0.6,0c0,0.2,0.1,0.3,0.1,0.5C11.1,63.3,12.6,63.3,13.6,63.3z M130.5,42.2c0,0,0,0.1,0,0.1l0.3,0
	C130.6,42.3,130.5,42.3,130.5,42.2z M191.1,6c-1,0.2-2.1,0.3-3.2,0.5c-0.2,0-1.2,0.2-3,0.6c-1.8,0.4-2.8,0.6-3,0.6
	c-0.5,0-1-0.1-1.5-0.4c-0.5-0.3-0.8-0.4-0.8-0.4c-0.2,0-0.6,0.3-1.2,0.7c-0.7,0.5-1.1,0.8-1.2,0.8c-1.9,0.6-3.3,0.9-4.4,1.1
	c-1.6,0.3-3.3,0.6-4.9,0.9c-2.2,0.4-3.8,1-4.7,1.5c-0.5,0.3-0.6,0.9-0.5,1.8c0,0.6,0.4,1.1,1.1,1.5c0.4,0,0.6,0,0.3,0.2
	c0.1,0,0.1,0.1,0.2,0.1c0.2,0.1,0.3,0.1,0.5,0.2c0.7-0.4,1.6-0.9,2.7-1.2l1.4,0c0,0,0,0,0,0c0-0.4,0.1-0.5,0.1-0.6
	c0.7-0.1,1.6-0.5,2.8-1c0.4-0.1,0.8-0.3,1.2-0.4c-0.2,0-0.3,0-0.3-0.1c0.1-0.1,0.3,0,0.4-0.1l-0.9-0.2c0.6-0.1,1.5-0.4,1.5-0.2
	l-0.3,0l0.4,0.4c0.4-0.1,0.9-0.2,1.3-0.2c0,0,0.1,0,0.1,0l0.2-0.3l1.4-0.1c-0.2,0.2-0.4,0.3-0.7,0.4c0.2,0.1,0.3,0.3,0.3,0.6
	c-0.9,4.1-1.8,8.1-2.6,12l0.9-0.1l-0.4,0.3l-0.6-0.2c-0.1,0.3-0.1,0.6-0.2,0.9c0.1,0.2,0.4,0.3,0.8,0.4l-1,0.1c0,0.1,0,0.1,0,0.2
	c0.7,0.1,1.7-0.1,2.6-0.1c0-0.2,0.1-0.4,0.1-0.6c-0.1,0-0.2-0.1-0.2-0.1c0.2-0.1,0.3-0.2,0.3-0.3c0.1-0.5,0.2-0.9,0.2-1.4
	c0.1-0.7,0.3-1.3,0.4-2l-1.2,0.1c0.4-0.1,0.8-0.2,1.2-0.3c0.8-3.5,1.7-6.2,2.6-8.1c0.8-1.7,1.3-2.6,1.6-2.6c0.6-0.2,1.1-0.3,1.7-0.5
	c-0.3,0-1.2,0.2-1.2-0.1l1.3,0.1c0.3-0.1,0.7-0.2,1-0.3l-0.7-0.1c-0.2-0.1,2.8-0.9,0.4-0.9c0.9,0.2-1,0.6-0.9,0.3
	c1.7-0.6,2.9-1.3,4.2-1c0.5-0.1,2.1,0.2,3,0.4c3.1-0.5,4.6-1.4,4.5-2.8C194.2,5.9,193.2,5.8,191.1,6z M175.6,22.8l-0.7-0.2l-0.1,0.1
	l0-0.2L175.6,22.8z M190.9,8.6c-0.4,0.1-1.2,0.2-1.7,0.1C189.4,8.8,191.2,8.1,190.9,8.6z M129.9,45.5c-0.2,1.5-0.3,2.3-0.2,2.5
	c0.1,0.4,0.4,0.9,1.2,1.4c0.5,0.3,0.9,0.5,1.3,0.7c0.4-0.5,0.7-1.3,0.8-2.3c0-0.9,0.1-1.7,0.1-2.5c0.2-0.9,0.4-1.9,0.7-2.8
	c-1.1,0.2-2.3,0.4-3.3,0.5C130.2,43.9,130,44.8,129.9,45.5z M53.7,57.6c0.1,0.1,0.2,0.2,0.3,0.3c0.5,0.4,0.8,0.6,1.1,0.5
	c0.3,0,1.2-0.7,1.5-0.7c0-0.1,0.1-0.2,0.1-0.3C55.9,57.1,54.8,57.7,53.7,57.6z M171.3,38C171.3,38,171.3,38,171.3,38
	C171.3,38,171.3,38,171.3,38C171.3,38,171.3,38,171.3,38z M182.2,39.4c0.8,0.1,1.7,0.2,2.4,0.2c0.1-0.4,0.2-0.9,0.4-1.4
	c-0.5-0.1-0.2-0.3-0.1-0.7c-0.5,0.1-0.7,0-1-0.1c0,0-0.1,0-0.1,0l0,0c-0.1,0-0.3,0-0.5,0c-0.1,0.1-0.2,0.3-0.3,0.4c0,0,0.1,0,0,0.1
	c-0.1,0.1-0.1,0.2-0.1,0.3c0.5,0,1,0,0.6,0.1c-0.4,0-0.6,0-0.7,0.1c-0.1,0.1-0.1,0.2-0.2,0.4c0,0,0,0,0,0c0,0,0,0,0,0
	C182.3,39,182.3,39.2,182.2,39.4z M122.3,33.5C122.3,33.5,122.3,33.5,122.3,33.5C122.3,33.5,122.3,33.5,122.3,33.5
	C122.3,33.5,122.3,33.5,122.3,33.5z M124.2,35c0.6,0.1-0.3,0.8,1,0.8l-0.8,0.5c0.1,0,0.2,0.1,0.4,0.2c0,0,0,0,0,0.1l1.2-0.2
	l-0.3-0.3c0.4-0.2,1.2-0.5,2-0.7c-0.1-0.5-0.4-1-0.9-1.5c-0.5,0.1-0.9,0.3-1.9,0.2l0.1,0.3c-1.1,0.3-2.2-0.2-2.6,0.4l-0.4-0.5
	c0.4,0,2.7-0.2,2-0.6c-0.6-0.2-2.1,0.1-1.6-0.3c-0.8,0.4-1.6,1-2.4,1.8c0.4,0,0.8,0.2,1,0.3l0.1,0C121.8,35,122.7,35.2,124.2,35z
	 M125.6,33.3c0.2,0.2-0.6-0.1-0.8,0.2c0.3,0.3,1,0.2,1.7,0.1c0,0-0.1-0.1-0.1-0.1c-0.3-0.2-0.6-0.4-0.9-0.5
	c-0.6,0.2-1.1,0.3-1.2,0.1c0.3-0.1,0.5-0.2,0.8-0.2c-0.2-0.1-0.5-0.1-0.7,0c-0.7,0.1-1.3,0.3-2,0.7
	C123.2,33.9,124.9,33.3,125.6,33.3z M103,43.2c0.6,0.7,2.3-0.1,3.1,0.3c0.2-0.3-0.3-0.5-1-0.5c0.7-0.1,1.1-0.1,1.3,0
	c0.1-0.9,0.2-1.9,0.4-3c0.2-1.2,0.4-2.2,0.6-3.2c-0.5,0.1-1,0.1-1.4,0c-0.2,0.2-1.5,0.3-2.5,0.5l0.2,0.3c-1.8,0.4-0.8-0.3-2,0
	l1.2-0.4c-1.6-0.2-1.6,0.8-2.6,0.4c-0.1,0.4-0.7,0.3-0.2,0.4c-0.8,0.4-1.4,0-1.8,0c-1,1-2,2.4-3.1,4.1l-0.2,0.5
	c0.3-0.1,0.6-0.1,0.9-0.1l-1.1,0.3c-0.1,0.2-0.2,0.3-0.3,0.5c-0.9,1.6-1.6,3.1-2.2,4.4c0.4,0.1,1.3,0,1.4,0.3c0.2,0-1.4,0.7-0.4,0.8
	c-0.5,0-0.9-0.1-1.4-0.1c-0.2,0.6-0.4,1.2-0.5,1.7c-0.7,0.6-1.4,1.2-2.2,1.9c-1.2,1.1-2.3,1.7-3.1,1.8c-1,0.1-1.8-0.3-2.6-1.3
	c-0.2-0.2-0.3-0.4-0.4-0.7c-0.6,0.2-1.9,0.1-2.5,0.5c-0.1,0-0.3,0-0.4,0c0.2,0.8,0.6,1.6,1.1,2.4c0.2,0.4,0.7,0.8,1.4,1.2
	c0.8,0.6,1.5,0.8,2.1,0.7c0.3,0,0.5,0.1,0.9,0c0.9-0.1,2.1-0.8,3.5-2.1c-0.6,0.1-1.2,0.2-1.7,0.1c0.8,0.1,1.6-0.2,2.1-0.5
	c0.2-0.1,0.3-0.3,0.5-0.4c0.4-0.4,0.8-0.8,1.2-1.2c0,0,0,0.1,0,0.1c0.1,0.2,0.5,0.7,1.3,1.3c0.8,0.6,1.4,0.9,1.8,0.8
	c0.5-0.1,1-0.3,1.6-0.7c-0.7,0-1.6,0.2-1.9,0.2c0.8-0.2,1.4-0.3,2-0.3c0.2-0.1,0.3-0.2,0.5-0.3c-0.1-0.1-0.2-0.2-0.1-0.3l0.4,0.1
	c1.1-0.9,2.2-2.1,3.4-3.8c1.6-2.3,2.7-4.3,3.2-5.9C102.6,43.9,102.9,43.5,103,43.2z M105.5,39.4l0.1,0.3l-0.7,0.1L105.5,39.4z
	 M104.4,40.8c0-0.1-0.4-0.4,0.1-0.5l0.2,0.4L104.4,40.8c0,0.1-0.1,0.1-0.8,0L104.4,40.8z M101.2,43.1c-0.5,0.8-1,1.7-1.5,2.6
	c-0.6,1.2-1.3,2.3-2.2,3.5c-1.1,1.5-2.1,2.3-3,2.6c-0.1-0.1-0.3-0.2-0.3-0.4c-0.1-0.7,0.3-2,1.2-3.9c-1-0.1-1.5-0.1-1.7-0.5
	c1.1-0.2,1.4,0.1,1.8,0.3c0.2-0.3,0.3-0.6,0.5-1c1.2-2.3,2.1-3.7,2.8-4.3c0.4-0.5,0.9-1,1.4-1.5c0.6-0.6,1.2-0.9,1.8-0.9
	c0.2,0.1,0.3,0.3,0.3,0.5C102.5,40.4,102.1,41.5,101.2,43.1z M114.6,45.9c0.1,0,0.2,0,0.2,0c0.1-0.1,0-0.1-0.1-0.2
	c-0.1,0-0.1,0-0.2,0C114.6,45.8,114.6,45.9,114.6,45.9z M82.4,50.1c0.1,0,0.2,0,0.3,0c0,0,0-0.1,0-0.1c0-0.3,0-1.1,0.2-2.5
	c0.1-1.5,0.3-2.7,0.5-3.6c0.2-0.7,0.5-1.6,1-2.6c0.2-1.1,0.2-1.8-0.1-2.1c-0.7-0.5-1.2-0.7-1.6-0.6c-0.4,0.1-0.7,0.5-1,1.4
	c-0.2,0.5-0.3,1-0.5,1.5c-0.5-0.7-0.8-1.5-1.8-1.4c-1.7,0.2-3.8,2.1-6.3,5.7c-0.8,1.2-1.5,2.3-2.1,3.4c0.4-0.1,0.8,0,1.2,0.1
	c-0.4-0.1-0.9,0.1-1.4,0.3c-0.1,0.1-0.1,0.2-0.1,0.3c0.3,0,0.6,0,0.7-0.2l-0.1,0c1.1,0.3,2-0.3,2.9-0.5c0.4-0.7,0.8-1.3,1.2-1.7
	c0.5-0.7,1-1.3,1.5-1.9c0.9-1,1.5-1.5,2-1.6c0.3,0,1.2,0.3,1.4,0.3c-0.1,0.9-0.3,1.7-0.7,2.5c-0.1,0.2-0.5,0.8-1.1,1.5l0.5,0
	c0,0-0.3,0.1-0.6,0.2c-0.4,0.5-0.9,1.1-1.5,1.9c-1.8,2.1-2.9,3.2-3.4,3.3c-0.3,0-0.6-0.3-0.7-0.3c0,0,0-0.1,0-0.1l-0.3,0
	c-0.1,0-0.3,0-0.5-0.1l0.5,0.1c0.2,0,0.3,0,0.3,0c0-0.2,0.1-0.5,0.1-0.8l-0.7,0.1L72,52.1l0.8,0.2c0.1-0.6,0.4-1.2,0.7-1.9
	c0.1-0.2,0.2-0.3,0.3-0.5l-1.9,0.2c-1.3,0.6,1.4,0.5,1.3,0.8c-0.6,0.1-1.2,0-1.7-0.1c0-0.1,0.7-0.3,0.4-0.3c-0.1,0.2-0.9,0-1.5,0.1
	c-0.1,0.2-0.1,0.4-0.2,0.5l0.1,0c0,0-0.1,0-0.1,0c0,0.1-0.1,0.2-0.1,0.3l1.3,0.4c-0.3-0.1-1,0-1.5,0c-0.1,0.6-0.2,1.1-0.2,1.6
	c0.3-0.2,0.8-0.3,1.3-0.2c0.2,0.2-0.7,0.5-1.2,0.5c0,0,0,0,0,0.1c0,0,0,0.1,0,0.1c-1.9,1.5-3.1,2.3-3.5,2.3
	c-1.2,0.2-1.9-0.5-2.1-2.1c-0.1-0.9,0.1-2.6,0.7-5.2c0.2-0.6,0.3-1.2,0.4-1.7c-0.6-0.2-2.3,0.1-2.2-0.4c-1.1,0.7-2.5,0.3-3.6,0.6
	c-0.9,1.6-1.7,2.7-2.2,3.4c-0.1-0.1-0.2-0.2-0.2-0.3c0-0.3,0.1-1.3,0.5-2.9c0,0,0,0,0-0.1c-0.3-0.1-0.6-0.1-0.9,0
	c1.1-0.2,0.2-0.5,0.5-0.5c0.2,0,0.3,0,0.5,0.1c0-0.1,0-0.2,0-0.3c-1.6,0-0.1-0.8-1.6-0.9l0.9-0.3c-0.5-0.2-1.1-0.4-1.5-0.4
	c1.5-0.5,1.7,0.1,2.4,0.4c0-0.5,0-0.9-0.1-1.2c0,0-0.3-0.1-0.7-0.3c-0.3-0.1-0.6-0.2-0.7-0.2c-0.6,0.1-1.6,0.7-1.7,1.3
	c0,0,0,0.1,0,0.2l0.3,0c0,0.1-0.2,0.2-0.1,0.4l0.8-0.1L55.5,46c-0.3,0.1-0.6,0.1-0.9,0.1c-0.1,0.6-0.2,1.2-0.3,1.9
	c0.4,0,0.6-0.1,0.5-0.3c1.1-0.3,0.9,0.3,1.2,0.4c-0.6,0.1-1.2,0.1-1.8,0.2c-0.2,1.2-0.3,2.6-0.5,4.2c-0.1,1-0.2,1.8-0.3,2.5
	c-0.6,0.5-1.2,1-1.8,1.6l0,0l0,0c-0.2,0.2-0.4,0.4-0.7,0.6c0,0,0,0.1,0,0.2l-0.1,0c-0.2,0.1-0.3,0.3-0.5,0.4
	c-1.2,1.1-2.3,1.7-3.1,1.8c-1,0.1-1.8-0.3-2.6-1.3c-0.2-0.3-0.4-0.7-0.6-1c-0.1,0-0.2-0.1-0.2-0.1c0.1,0,0.1,0,0.1,0
	c-0.2-0.5-0.3-1-0.4-1.5c0-0.2,0-0.6,0-1.1c-0.2,0-0.5,0-0.6-0.1c0.7-0.1,0.2-0.2,0.2-0.3c0.2-0.1,0.4-0.1,0.5,0
	c0-0.2,0-0.4,0.1-0.7c-0.1,0-0.2,0-0.3,0c-0.7,0.1-1.5,0.1-1.6,0.5c0,0.1,0.4,0,0.7-0.1c0.3,0.2-0.1,0.4-0.4,0.6
	c-0.1-0.4-1-0.5-0.1-1c-1.6,0.7-1.4-0.3-2.3-0.2c-0.2,0.3-0.5,0.7-0.9,1.2c0.1-0.1,0.3-0.2,0.2-0.2c0.5,0.2,2-0.2,1.8,0.4
	c-1.1,0.4-1.3-0.1-2-0.1c-0.3,0.4-0.7,0.9-1.2,1.5c-1.8,2.1-2.9,3.2-3.4,3.3c-0.3,0-0.6-0.3-0.7-0.3c0-0.8,0.3-1.7,0.9-2.9
	c0.4-0.8,0.8-1.6,1.3-2.2c-0.5,0.1-0.9,0.2-1.3,0.4c-0.4-0.2-1.3,0-2.1,0c-1.3,2.3-1.8,4.1-1.6,5.4c0.1,0.5,0.4,1.2,0.9,1.8
	c0.6,0.8,1.2,1.2,1.6,1.1c1.4-0.2,2.9-1.1,4.3-2.6l3.5-4.1c0,0.4,0,0.9,0,1.3c0.2,1.1,0.6,2.3,1.4,3.4c0.2,0.4,0.7,0.8,1.4,1.2
	c0.8,0.6,1.5,0.8,2.1,0.7c0.3,0,0.5,0.1,0.9,0c1.1-0.2,2.6-1.1,4.5-2.9c0.9-0.8,1.5-1.6,2-2.3c-0.1,0-0.2,0-0.4,0l0.4-0.1
	c0,0,0,0,0,0c0,0,0,0,0,0l0.8-0.2c0.8-0.1,0.9-0.4,0.6-0.6c0.8,0.1,1.6,0.2,2.3,0.2c0.5-1,1.1-2.2,2-3.6c0.7-1.1,1.6-2.4,2.8-4.1
	c0,0-0.1,0.8-0.3,2.6c-0.2,1.7-0.2,2.9-0.1,3.6c0.1,0.6,0.3,1.2,0.5,1.6c0.9,0,1.6-0.3,2.1,0.1c-0.5,0-1.2,0-2,0.1
	c0.8,1.8,2.1,2.6,3.9,2.3c0.7-0.1,1.6-0.7,2.6-1.8c0.7-0.8,1.2-1.4,1.6-2.1c0.1,0.2,0.3,0.4,0.4,0.6c0.6,0.8,1.2,1.2,1.6,1.1
	c1.4-0.2,2.9-1.1,4.3-2.6l1.6-1.8c-1.3,0-2.6,0-3.1,0.1c0.7-0.1-0.1-0.4,1-0.6l-0.4-0.1c1-0.6,1,0.2,2.4-0.3
	c0.1-0.4,0.8-0.6,1.6-0.8l0.5-0.6c0,0.2,0,0.3,0,0.5C81.4,50.6,82.7,50.5,82.4,50.1z M75.1,45.1c0-0.5,1.1-0.3,1.5-0.3
	C76.1,45,75.4,44.9,75.1,45.1z M75.5,45.5c0.4-0.1,0.2-0.5,1.2-0.5C76.9,45.3,75.9,45.3,75.5,45.5z M80.8,42.2
	c-0.1,0-0.2-0.1-0.2-0.1C81.1,42,81,42.1,80.8,42.2c0.9,0.3,4.2-0.4,2.4,0.3c-1,0.2-2.4,0.1-3.3,0C80.1,42.4,80.6,42.3,80.8,42.2z
	 M79.2,43.6l-0.4-0.1l1.1,0L79.2,43.6z M79.9,43l-1.2-0.1l1.7-0.2L79.9,43z M55.2,47.4l-0.7-0.1l1.1-0.3L55.2,47.4z M54.8,46.4
	l1.2,0.3C54.5,46.9,55.5,46.7,54.8,46.4z M99.9,37.4c-0.4-0.3,0.1-0.6,0.4-0.9c-0.3,0.2-0.7,0.5-1.1,0.7
	C99.5,37.2,99.7,37.2,99.9,37.4z M103.3,36.6c0-0.1,0.1-0.3-0.2-0.3c0.1,0.1,0.2,0.1,0.3,0.1c-0.4-0.4-0.6-0.5-0.7-0.6
	c0,0-0.3,0-0.8,0c-0.5,0.1-1,0.3-1.5,0.6C100.8,36.7,103,36.2,103.3,36.6z M83.1,51.5C83,51.3,83,51.1,82.9,51
	C82.7,51.2,82.6,51.3,83.1,51.5z M121.8,36.5c-0.5-0.2-1.7,0.1-2.4,0.2c0.5,0.6,0.9,0.4,2.5,0.3l0,0.1c0.6-0.5,1.2-0.8,1.8-0.9
	c-0.1,0-0.3,0-0.5,0l0.9-0.4l-1.4,0.1c0.5-0.2,1.1-0.3,1-0.5l-1.8-0.3c-0.3,0.1,0.3,0.2,0.2,0.3l-1.4,0c0,0,0,0,0,0c0,0,0,0-0.1,0
	l-1.2,0c-0.3,0.3-0.6,0.6-0.9,1C120,36.3,121.6,36.4,121.8,36.5z M9.9,43.4c-0.1,0-0.1-0.1-0.2-0.1c0,0.1-0.1,0.1-0.1,0.2
	C9.8,43.5,9.9,43.4,9.9,43.4z"/>
</svg>
