<svg version="1.1" id="" xmlns="http://www.w3.org/2000/svg" xmlns:xlink="http://www.w3.org/1999/xlink" x="0px"
	 y="0px" width="181px" height="75px" viewBox="0 -19 181 75" style="enable-background:new 0 -19 181 75;" xml:space="preserve">
<style type="text/css">
<![CDATA[
	.st0{fill:#D62418;}
]]>
</style>
<path class="st0" d="M178.6,23.5c-1.3,1.1-2.5,2.2-3.8,3.3c-1.5,1.3-2.7,2-3.7,2.1c-1.2,0.2-2.2-0.3-3.1-1.6
	c-0.5-0.7-0.9-1.6-1.1-2.5c0,0.1-0.6,0.3-0.2,0.4l-0.9-0.2c0.3-0.1,0.9-0.4,1.1-0.2c-0.1-0.2-0.1-0.5-0.1-0.7c-0.1-0.4,0-1.4,0.2-3
	c0.2-1.9,0.4-3.3,0.6-4.3c0.3-0.9,0.7-1.9,1.2-3.1c0.3-1.3,0.2-2.1-0.1-2.5c-0.2-0.1-0.3-0.2-0.4-0.3c-0.1,0-0.2,0-0.3,0l0.5,0.1
	c-0.8-0.1-1.6,0-2.4,0c-0.1,0.2-0.3,0.5-0.4,0.9c0,0.2-0.1,0.3,0.1,0.5h-0.2c-0.1,0.3-0.2,0.6-0.3,0.8h0.7c0.2,0,0.2,0.1-0.1,0.2
	l-0.6-0.1c-0.1,0.2-0.1,0.4-0.2,0.5c-0.4-0.7-0.8-1.5-1.7-1.6c-0.8,0.4-2.1,0.7-2.2,1.1c1.9-0.4,0.3,0.4,2.1,0.4
	c-1.1,0.4-2.7,0.4-3.7,0.3c-0.3,0.3-0.6,0.6-0.9,0.9h1.2c0,0,0,0,0.1,0c0,0,0,0,0.1,0h2c-0.3,0-0.2,0.1-0.1,0.2
	c-0.7,0.3-1.4,0-1.8-0.2h-0.1c-0.5,0.3-1,0.4-1.6,0.4c-0.2,0.2-0.4,0.4-0.6,0.7c0.3,0,0.5-0.1,0.6-0.4l0.4,0.5c-0.2,0-0.7,0-1.3,0.1
	c-0.1,0.2-0.3,0.4-0.4,0.5c0.8,0,1.7-0.1,1.3,0.3c-0.3-0.2-0.8-0.2-1.4-0.2c-0.5,0.7-1,1.3-1.6,2.1c-3,4.3-4.3,7.6-4,9.8v0.1
	c-1.5,1.1-2.5,1.9-3.3,2.4c0.3,0.1,0.8,0.2,0.5,0.3l-0.5-0.3c-0.4,0.2-0.7,0.4-0.9,0.4c-1.4,0.2-2.2-0.7-2.5-2.5
	c-0.1-1.1,0.2-3.1,0.9-6.3c0.8-3.1,1-5.3,0.9-6.6c-0.1-0.7-0.3-1.1-0.5-1.4c-0.2,0-0.4-0.1-0.7-0.2h0.4c-0.2-0.1-0.4-0.2-0.6-0.1
	c-1.1,0.1-2.1,0.8-3.2,2.1c-0.4,0.5-0.9,1.2-1.5,2.2c0.3-0.1,0.8-0.3,1-0.4l0.9,0.3c0.1-0.5,2.6-0.3,3.6-0.4c-1.4,0.3-2.5,0.5-3.6,1
	c0.2,0,0.4,0.1,0.5,0.1l-0.5-0.1l0,0c-0.6-0.1-1.3-0.1-1.6,0c-0.3,0.1,0.7,0.1-0.1,0.3c-0.2,0-0.4,0-0.6,0c-0.3,0.4-0.5,0.9-0.8,1.4
	c-1.2,2-2.1,3.4-2.8,4.3c-0.1-0.1-0.2-0.2-0.2-0.4c-0.1-0.4,0.2-1.6,0.6-3.5c0.1-0.6,0.2-1.2,0.3-1.7c0,0,0,0-0.1,0c0,0,0,0,0.1-0.1
	c0.1-0.9,0.1-1.6,0-2c-0.1,0-0.3-0.1-0.9-0.4c-0.4-0.2-0.7-0.2-0.8-0.2c-0.7,0.1-1.9,0.9-2,1.6c-0.1,0.3-0.1,0.7-0.2,1.1
	c0.3,0,0.7,0,0.9,0c-0.3,0.3,0.8,0.5,0,0.7l-1-0.1c-0.3,1.8-0.5,4.1-0.9,6.8c-0.2,1.6-0.3,2.9-0.4,3.8c-0.9,0.7-1.7,1.5-2.6,2.2
	c-1.5,1.3-2.7,2-3.7,2.1c-1.2,0.2-2.2-0.3-3.1-1.6c-0.7-0.9-1.1-2-1.3-3.2c-0.1-0.4,0-1.4,0.2-3c0.1-0.9,0.2-1.7,0.3-2.4
	c-0.2,0.1-0.5,0.1-0.7,0.2c-0.1,0.1-0.3,0.1-0.7,0.1c0.2-0.1,0.4-0.1,0.7-0.1c0.3-0.2,0.2-0.4,0.5-0.5c0.1,0,0.2,0.1,0.2,0.1
	c0-0.2,0-0.3,0.1-0.4c-2.3,0,0.6-1-2-1.1v0.1l-0.1-0.4c0.3,0.3,1.7,0.2,2.4,0c0-0.1,0.1-0.2,0.1-0.3h-0.6l0.7-0.3
	c0.2-0.7,0.6-1.4,1-2.3c0.2-1.2,0.2-2,0-2.4c-0.8,0-1.7,0-2.2,0.1c0.7-0.2,1.3-0.3,1.8-0.5c-0.6-0.4-1.1-0.6-1.5-0.5
	c-0.5,0.1-0.9,0.6-1.2,1.6c-0.2,0.6-0.4,1.2-0.6,1.7c-0.5-0.8-1-1.8-2.2-1.6c-0.5,0.1-1,0.2-1.5,0.5c0.1,0.1,0.2,0.3,0.4,0.5
	c0.2,0,0.4,0.1,0.4,0.2c0.2,0.1,0.5,0.1,0.8,0.1l1-0.1l-0.7-0.2c0.2,0,1.5,0.2,0.8,0.5l-1.3-0.1l-2.3,0.3c0.8-0.3,0.4-0.4-0.3-0.4
	c-0.1,0.1-0.3,0.2-0.4,0.3c0.1,0,0.3,0,0.5,0L115,20v0.1c-0.1,0-0.1,0-0.2,0l-0.2,0.2c-0.1,0-0.3,0-0.4-0.1
	c-0.2,0.2-0.4,0.3-0.5,0.5c0.9-0.2,2.1-0.5,2.7-0.2c-1,0-1.1,0.1-0.8,0.4l-2.5,0.3c-0.3,0.3-0.6,0.7-0.9,1l0.6-0.1l-0.3,0.2h-0.4
	c-0.8,0.9-1.6,1.9-2.4,3.2c-0.3,0.5-0.6,0.9-0.9,1.4c0.8-0.2,1.6-0.4,1.2-0.9c0.7,0.1,0.8,1.1,2.6,0.6l-0.5,0.6
	c0.1,0.1,0.2,0.1,0.4,0.1c0.5-0.7,1.1-1.3,1.6-2c1-1.2,1.9-1.8,2.4-1.9c0.4,0,1.3,0.3,1.6,0.3c0,0,0.1,0,0.1-0.1l0.2,0.2
	c0.8,0,0.3,0.4,0.2,0.6l0.1,0.1c-0.1,0-0.1,0-0.1-0.1c-0.2-0.1-0.4-0.2-0.6-0.2c-0.2,0.8-0.4,1.6-0.8,2.4c0,0.1-0.1,0.2-0.2,0.3
	c0.6,0.1,1,0.2,1.3,0.5c-0.8-0.3-1.3,0.2-1.8,0.3c-0.6,0.7-1.4,1.8-2.5,3.1c-2.2,2.5-3.5,3.8-4.1,3.9c-0.4,0.1-0.7-0.4-0.9-0.4
	c0-0.9,0.4-2.1,1-3.5c0.6-1.3,1.3-2.4,2-3.2c-1.1,0.2-2,0.5-2.6,0.9l-1.8-0.1c-0.4,0.7-0.7,1.3-1,1.9l0.1-0.1l-0.2,0.2
	c-0.1,0.3-0.2,0.6-0.4,0.8c0.3,0,0.5,0.1,0.7,0.2c-0.3-0.1-0.5-0.1-0.7-0.1c-0.5,1.3-0.7,2.4-0.7,3.3c0.5-0.1,1-0.1,1.6-0.3
	c0.6,0.3,0.7,0.7,1.9,0.9c-0.7,0.5-1.7,0.9-2.8,1.3c0.1,0.2,0.3,0.4,0.5,0.7c0.7,1,1.4,1.4,2,1.3c1.7-0.2,3.4-1.3,5.2-3.1l4.2-4.9
	c0,0.5,0,1,0,1.4c0.3,0,0.5,0,0.7-0.1l0.1,0.3l-0.7,0.1c0.2,1.3,0.8,2.6,1.6,3.9c0.2,0.4,0.7,0.8,1.4,1.3c1.6,0,2.4-0.6,3.6-1
	l-0.1-0.5c0.2,0.1,0.4,0.3,0.6,0.4c0.6-0.1,1.3-0.2,2.2-0.2c-0.7,0.5,0.4,0.3,1.3,0.3c0.5-0.4,1-0.9,1.6-1.4
	c0.7-0.7,1.3-1.3,1.8-1.9c0.1,0.1,0.2,0.2,0.4,0.4c0.5,0.5,1,0.7,1.4,0.6c0.4-0.1,1.4-0.8,1.8-0.9c0.1-0.4,0.3-0.9,0.6-1.3
	c-0.6,0.1-0.9,0.4-1.9,0.4c-0.2-0.2,0-0.5,0.2-0.7c0.4-0.1,1.1-0.1,1.9,0c0.6-1.2,1.3-2.6,2.4-4.2c0.8-1.3,2-2.9,3.4-4.9
	c0-0.1-0.1,0.9-0.4,3.1c-0.3,2.1-0.3,3.5-0.1,4.3c0.8,3.7,2.6,5.4,5.4,5c0.8-0.1,1.9-0.9,3.1-2.2c0.8-0.9,1.4-1.7,1.9-2.5
	c0.2,0.3,0.3,0.5,0.5,0.8c0.7,1,1.4,1.4,2,1.3c1.7-0.2,3.4-1.3,5.2-3.1l0.5-0.5c-0.4,0.1-0.8,0.1-1.5,0l0.6-0.3c0.3,0,0.8,0,1.2-0.1
	l3.4-4c0,0.5,0,1,0,1.5c0.2,1.4,0.8,2.8,1.6,4.1c0.3,0.4,0.8,0.9,1.7,1.5c1,0.7,1.9,0.9,2.5,0.8c0.4-0.1,0.7,0.1,1,0
	c0.4-0.5,1.2-0.7,2.1-0.9c0.9-0.6,2-1.4,3.2-2.6c2.2-2.1,3.4-4,3.4-5.4L178.6,23.5z M144,15.6l1.3-0.3l0.6,0.5L144,15.6z
	 M117.2,23.1l0.3-0.3l0.8,0.3H117.2z M111.1,35c-1.2-0.2-0.8,0.3-0.9,0.4l-1.2-0.3C109.8,35,110.4,34.8,111.1,35z M109.5,35.8
	c0.2,0.2,1.3,0,1.9,0.1C110.7,35.9,108.3,36.4,109.5,35.8z M114.6,33.5c0.1-0.4-1.6-0.3-0.8-0.5C114.3,33.1,114.9,33.2,114.6,33.5z
	 M114.7,32.5c0.1-0.2,0.3-0.1,0.6-0.2c0.5,0,0.4,0.2,0.4,0.4L114.7,32.5z M116.1,31.8c-0.3-0.2,0-0.5-1-0.4
	C116.9,31.1,115.9,31.6,116.1,31.8c0.1,0.1,0.2,0.1,0.5,0.1C116.3,32,116.2,31.9,116.1,31.8z M119.5,25.7l0.1-0.1l1.4,0.2l-0.1,0.1
	L119.5,25.7z M120.3,26.6l-0.1-0.3l0.7,0.1L120.3,26.6z M134.8,20c-0.5-0.3,1-0.5,0.3-0.7l0.6,0.2h-0.3c-0.1,0.2,0.1,0.3,0.9,0.3
	L134.8,20z M149.9,30.1c0.2-0.4,1.2-0.4,1.7-0.6l0.4,0.3C150.6,29.5,150.6,30.4,149.9,30.1z M154.3,23.8c-0.2-0.2,0.2-0.5,1.2-0.6
	C154.5,23.5,155.4,23.7,154.3,23.8z M162.9,20.3c-0.1,0.3-0.5,0.8-1,1.5c0.2,0,0.3,0,0.4,0c-0.2-0.1,0.1-0.3,0.2-0.5
	c2,0-0.2,1.1,0,1.5c0.1,0,0.2,0.1,0.3,0.1c-0.2,0-0.2-0.1-0.3-0.1c-0.3-0.2-0.8-0.2-1.4-0.1c-0.2,0.3-0.5,0.6-0.8,0.9
	c0.6,0,1.1,0,1.4,0.1l-2,0.6c0,0.1-0.1,0.1-0.1,0.2c-2.2,2.5-3.5,3.8-4.1,3.9c-0.4,0.1-0.7-0.4-0.9-0.4c0-0.9,0.4-2.1,1-3.5
	c0-0.1,0.1-0.1,0.1-0.2c-0.1,0-0.2-0.1-0.3-0.2c0.1,0,0.3,0,0.4-0.1c0.3-0.5,0.6-1.1,0.8-1.5c-0.2,0-0.3,0-0.5,0
	c0.1-0.2,1.4-0.6,0.2-0.6c0.2,0,0.4,0,0.7,0c0.2-0.3,0.5-0.6,0.7-0.9c0.6-0.8,1.2-1.5,1.8-2.2c1-1.2,1.9-1.8,2.4-1.9
	c0.4-0.1,1.4,0.3,1.7,0.3C163.7,18.3,163.4,19.3,162.9,20.3z M163.9,21.9l1.3-0.2C164.4,22.1,164.6,22,163.9,21.9z M167.9,27.6v-0.2
	V27.6L167.9,27.6v0.2l-1.2-0.3L167.9,27.6z M167.7,28.9c-0.7,0.1-1.4,0.5-1.5,0H167.7c0.3-0.1,0.6-0.1,0.9,0H167.7z M160.5,13.2
	c-0.3,0.2-0.5,0.4-0.8,0.7c0.6-0.1,1.4-0.2,1.9-0.2C161.2,13.3,160.9,13.2,160.5,13.2z M25.1,19c0.4-0.2,0.7-0.5,1-0.9
	c-0.8,0.2-1,0.5-1.5,0.8C24.8,19,24.9,19,25.1,19z M166.9,10.5c-0.2,0-0.4,0.2-0.6,0.4c0.6-0.1,1.1-0.2,1.6-0.2
	C167.5,10.5,167.1,10.4,166.9,10.5z M125,38c0,0.1-0.1,0.1-0.2,0.2c0,0.1,0.1,0.3-0.1,0.4c0,0,0,0,0.1,0c0.3,0,0.6-0.1,1-0.3
	l-0.1-0.4C125.3,37.9,125.1,38,125,38z M125,38c0.1-0.1,0-0.2-0.6-0.3c-0.8,0.1-0.7,0.6-1.6,0.3l0.4-0.2c1.5-1-0.8-0.1-2-0.1
	c1,0.7,1.8,0.9,2.5,0.8c0.2,0,0.3,0,0.5,0c0.1-0.1,0.4-0.3,0.6-0.4C124.9,38.2,124.9,38.1,125,38z M102.1,15.2l-1.2-0.1
	c0.8-0.1,0.4-0.3,0.6-0.5c-0.4,0-0.8,0-1.2,0c-0.2,1.1-0.4,2.1-0.6,3.1c0.4,0,0.7-0.1,1.1-0.2c0.6,0.4-0.6,0.2-1.1,0.2
	c0.4,0.2,0.1,0.6-0.2,0.9c0,0.2-0.1,0.5-0.1,0.7c0,0,0,0,0.1,0.1c1-0.2,2.2-0.4,3.4-0.6c0-0.1,0-0.1,0-0.2c0.3-1.4,0.6-2.8,0.9-4.1
	l-1.2,0.1L102.1,15.2z M158.4,15.1l-0.1,0.1h0.1C158.6,15.1,158.5,15.1,158.4,15.1z M140,19.2L140,19.2L140,19.2
	C140.1,19.2,140.1,19.2,140,19.2z M65.9,15.7c-0.4,0-0.7,0-1,0c0.2,0.2,0.5,0.3,0.9,0.4C65.9,16,65.9,15.8,65.9,15.7z M100.9,11v0.1
	c0.1,0,0.1,0,0.2,0C101,11.1,101,11,100.9,11z M159.8,24.4C159.9,24.4,159.9,24.3,159.8,24.4C159.8,24.3,159.8,24.4,159.8,24.4z
	 M61.1,37.3c0-0.1,0-0.1,0-0.2c-1.1,0.1-2.3,0.3-3.5,0.4c-0.1,0.6-0.2,1.3-0.4,2.2c-0.1,0.4-0.1,0.8-0.2,1.1c-1,0.8-1.9,1.7-2.9,2.5
	c-1.5,1.3-2.7,2-3.7,2.1c-1.2,0.2-2.2-0.3-3.1-1.6c-0.7-0.9-1.1-2-1.3-3.2c0-0.3,0-1.1,0.1-2.4c-0.5,0-1-0.1-1.3-0.3l1.4-0.1v-0.1
	c0.2-1.9,0.4-3.3,0.6-4.3c0.2-0.7,0.5-1.4,0.8-2.2c-0.6,0-1.4,0.1-1.2-0.2l0.8-0.1c0,0.1-0.1,0.2,0.4,0.3c0.1-0.3,0.3-0.6,0.4-0.9
	c0.3-1.3,0.2-2.1-0.1-2.5C47.1,27.2,46.5,27,46,27c-0.5,0.1-0.9,0.6-1.2,1.6c-0.2,0.6-0.4,1.2-0.6,1.7c-0.5-0.8-1-1.8-2.2-1.6
	c-2,0.2-4.6,2.5-7.6,6.9c-0.2,0.2-0.3,0.5-0.5,0.7c0.2-0.1,0.3-0.1,0.4-0.2l0.4,0.4h-1c-2.6,3.9-3.7,6.8-3.4,8.8
	c0.1,0.6,0.5,1.4,1.1,2.2c0.7,1,1.4,1.4,2,1.3c1.7-0.2,3.4-1.3,5.2-3.1l4.2-4.9c0,0.5,0,1,0,1.5c0.2,1.4,0.8,2.8,1.6,4.1
	c0.3,0.4,0.8,0.9,1.7,1.5c1,0.7,1.9,0.9,2.5,0.8c0.4-0.1,0.7,0.1,1,0c1.3-0.2,3.1-1.3,5.3-3.5c0.6-0.5,1.1-1.1,1.5-1.6
	c0.1,0.5,0.5,1.2,1,2c0.8,1.1,1.5,1.7,2.2,1.6c0.5-0.1,0.9-1,1.2-2.8c-0.6,0-1.2,0-1.9,0.2c0.4-0.5,1.2-0.3,2-0.5
	c0-0.3,0.1-0.6,0.1-0.9c0.3-2.2,0.4-3.7,0.3-4.1C61.5,38.9,61.1,37.7,61.1,37.3z M37.5,32.6c0.2,0.1,0.9,0.2,1,0
	c0-0.1-0.2-0.1-0.5-0.2h3.5c1,0.7-2.1,0.2-2.3,0.8c0-0.2-1.1,0.1-2,0.2L37.5,32.6z M42.2,36.9c-0.3,0.5-1.3,2-3.3,4.3
	c-2.2,2.5-3.5,3.8-4.1,3.9c-0.4,0.1-0.7-0.4-0.9-0.4c0-0.9,0.4-2.1,1-3.5c0.7-1.4,1.4-2.6,2.2-3.5c0.6-0.8,1.2-1.5,1.8-2.2
	c1-1.2,1.9-1.8,2.4-1.9c0.4-0.1,1.4,0.3,1.7,0.3C42.9,34.9,42.6,35.9,42.2,36.9z M42.6,30.8l0.2-0.1l1.3-0.1L42.6,30.8z M127.6,37.2
	c0.1-0.1,0.1-0.1,0.2-0.2c-0.1,0.1-0.3,0.1-0.4,0.2C127.5,37.2,127.6,37.2,127.6,37.2z M116.9,27c-0.1,0.1-0.2,0.3-0.3,0.4l1.2-0.3
	L116.9,27z M27.7,41.6v0.5H27c-0.9,0.6-2,1.5-3.3,2.6c-2.1,1.8-3.6,3-4.7,3.6c-0.3,0.2-0.9,0.6-1.7,1.3c-0.7,0.6-1.2,1-1.4,1
	c-0.4,0.1-1,0.3-1.9,0.6c-0.8,0.3-1.4,0.5-1.8,0.6c-0.2,0-0.6,0-1.4,0.1c-0.7,0-1.2,0.1-1.4,0.1c-1.5,0.2-2.9-0.6-4.2-2.5
	c-1.1-1.6-1.6-3-1.8-4.2c-0.1-2.4,0.2-4.9,0.9-7.6H3.9l0.3-0.1c-0.9-0.3-1.4,0.2-2.3,0.3c0.9-0.3,1.5-0.6,2.5-0.7
	c0-0.1,0-0.1,0.1-0.2c-0.7-0.1-1.6-0.2-2.5-0.3v-0.1v-0.1c-0.2,0-0.4,0-0.7,0c-0.4,1.5-0.8,3-1,4.4c0.5-0.1,0.3-0.3,0.2-0.5
	c0,0.1,0.4,0.3,1.4,0.2l-1.6,0.2c-0.4,2.4-0.4,4.6-0.1,6.6c0.3,2.3,1.6,4.1,3.8,5.7c2.2,1.6,4.5,2.2,6.8,1.9c2.5-0.3,5.7-2,9.5-4.9
	c3.7-2.7,6.4-5.5,8.3-8.1l-0.1-0.8C28.2,41.3,28,41.5,27.7,41.6z M3.3,41c-0.9-0.3-0.5-0.2,0-0.6V41z M15.9,16.8
	c0.1-0.1,0.2-0.2,0.3-0.3c-0.4,0.1-0.7,0.1-1,0.1h-0.3C15,16.7,15.4,16.8,15.9,16.8z M4.2,35.6c0.3,0.1,0.5,0.1,0.8,0.1
	c0.1-0.3,0.2-0.6,0.3-0.9c0.8-2.3,2-5.1,3.9-8.6c1.3-2.3,2.8-4.7,4.6-7c-1.5,0.2-3,0.5-4.5,0.6c-0.4,0.5-0.7,1.1-1.1,1.6
	c-0.9,1.4-1.6,2.8-2.4,4.1c0.9-0.1,1.8-0.3,2.6-0.2c-0.9,0.1-1.8,0.3-2.8,0.4c-0.5,1-1.1,2-1.5,3h0.3c-0.1,0.1-0.2,0.2-0.4,0.2
	c-1.2,2.6-2.1,5-2.8,7.3c0.3,0,0.6,0,0.7,0.1c0.1,0,0.2,0,0.2,0L4.2,35.6z M101.1,21.4h-0.2l-0.5,0.4c-1.5,0-0.5-0.5-1.3-0.7
	c0.7-0.1,1.5,0.1,2,0.2c-0.1-0.3-0.3-0.6-1.2-0.7l1.8-0.2c-0.5-0.3-1.6-0.2-2.6-0.1c-0.4,2-0.8,4-1.1,5.8l0.4,0.1H98
	c-0.3,1.8-0.6,3.4-0.8,5c-0.2,1.7-0.3,3.3-0.3,4.6c-0.8,0.7-1.6,1.3-2.4,2c-1.5,1.3-2.7,2-3.7,2.1c-1.2,0.2-2.2-0.3-3.1-1.6
	c-0.7-0.9-1.1-2-1.3-3.2c-0.1-0.4,0-1.4,0.2-3c0.2-1.7,0.4-3,0.6-4c-0.2,0-0.4,0.1-0.5,0.2c-0.4-0.3-0.1-0.6,0.8-1.2
	c0.1-0.2,0.1-0.4,0.2-0.6c-0.1-0.3,0.6-0.7-0.4-0.7c-1.4-0.2-2,0.9-2.9,0.4c0.8-0.5,2.3-0.7,3.8-0.8c0.1-0.2,0.2-0.4,0.3-0.7
	c0.3-1.3,0.2-2.1-0.1-2.5c-0.8-0.6-1.4-0.8-1.9-0.8C86,21.5,85.6,22,85.3,23c-0.2,0.6-0.4,1.2-0.6,1.7c-0.5-0.8-1-1.8-2.2-1.6
	c-2,0.2-4.6,2.5-7.6,6.9c-0.9,1.3-1.7,2.5-2.3,3.7c0.2,0,0.4,0,0.5-0.1l1.2,0.3c-1.1,0.2-1.4-0.3-2,0.1c-1.2,2.4-1.8,4.3-1.6,5.7
	c0.1,0.6,0.5,1.4,1.1,2.2c0.7,1,1.4,1.4,2,1.3c1.7-0.2,3.4-1.3,5.2-3.1l0.4-0.5L79.2,40c0.3-0.1-0.9-0.2,0.1-0.4h0.6l3.5-4.2
	c0,0.5,0,1,0,1.5c0.2,1.4,0.8,2.8,1.6,4.1c0,0.1,0.1,0.1,0.1,0.2l1.9,0.1c0.1,0.1-0.7,0.3-1.2,0.5c0.2,0.1,0.3,0.3,0.5,0.4
	c0.1,0,0.1,0,0.2,0c-1-0.2,1.2-0.6,1.1-0.3c-0.4,0.1-0.8,0.3-1.2,0.4c0.1,0.1,0.1,0.1,0.2,0.2c1,0.7,1.9,0.9,2.5,0.8
	c0.4-0.1,0.7,0.1,1,0c1.3-0.2,3.1-1.3,5.3-3.5l0.1-0.1l-1.2,0.1c0.4-0.3,0.9-0.6,1.8-0.7c0.3-0.3,0.6-0.6,0.8-0.9
	c0.2,0.4,0.4,0.8,0.7,1.3c0.8,1.3,1.6,1.9,2.4,1.8l1-0.1c0.6,0,0.9-0.4,0.8-1c0-0.1-0.2-0.5-0.8-1.4c-0.6-0.9-0.9-1.8-0.9-2.5
	c-0.1-0.9,0-2.2,0.2-4L99,32.2c-0.2,0-0.3,0-0.5,0H99c0.4-0.1,0.8-0.3,1.3-0.4c0-0.1,0-0.1,0-0.2l-0.9-0.3h0.9
	c0.1-0.9,0.3-1.9,0.5-3.1l-0.2-0.3c-0.7,0.1-1,0.2-1.3,0.4c0,0.1,0,0.3,0.2,0.3c0.1,0,0.2,0,0.3,0c-0.1,0-0.2,0-0.3,0
	c-0.6-0.1-0.6-0.5-1.8-0.2c0.5-0.2,1.2-0.5,1.2-0.7c0.4,0.2,1.2,0,2-0.1c0.3-1.6,0.6-3.4,1-5.4c-0.2-0.1-0.5-0.2-1.1-0.2l0.1,0.3
	c-0.7,0-0.1-0.2-0.3-0.3h1.3l0,0C101.3,21.9,101.2,21.6,101.1,21.4z M76.7,38.7c0.3-0.1,0.2-0.7,1.2-0.5
	C77.3,38.3,77.9,38.7,76.7,38.7z M82.6,31.3c-0.3,0.5-1.3,2-3.3,4.3c-2.2,2.5-3.5,3.8-4.1,3.9c-0.4,0.1-0.7-0.4-0.9-0.4
	c0-0.9,0.4-2.1,1-3.5c0.7-1.4,1.4-2.6,2.2-3.5c0.6-0.8,1.2-1.5,1.8-2.2c1-1.2,1.9-1.8,2.4-1.9c0.4-0.1,1.4,0.3,1.7,0.3
	C83.3,29.3,83,30.3,82.6,31.3z M84.1,26.9l-2,0.2c0.1-0.3,1.7-0.1,1-0.5C83.7,26.6,84.2,26.7,84.1,26.9z M86.6,41
	c0.3,0,0.8-0.1,0.9-0.2c-0.7,0.6,1.5-0.1,1.4,0.4L86.6,41z M99.4,39.1c-0.2,0.1-0.3,0-0.5,0.1l1,0.2c-0.6,0.1-1.7,0.4-1.8,0.2h0.3
	L97.8,39C98.4,39.2,99.3,38.7,99.4,39.1z M72.5,26.7c0.4-0.4,0.5-0.7,0.5-1c0-0.2-0.5-0.5-0.3-0.8l-5.6,1.3c-1.4,0.3-2.8,0.7-4,1.2
	l-0.4-0.3c0.1-0.5,0.2-1.2,0.4-2l0,0c-0.6-0.3-2.9,0.3-2.9-0.2c1,0.1,2.1-0.1,3.1-0.4c0.4-1.6,1.1-3.8,2-6.6
	c0.1-0.3,0.2-0.6,0.3-0.9c-1.3,0.1-2.7,0.5-4.1,0.8c0,0.2-0.1,0.4-0.1,0.6l0,0c1.8,0,2.5,0.5,3.1,1c-0.7,0-1.9,0.4-1.4-0.1
	c-0.6,0-1.3,0.1-2,0.2c-0.3,1.5-0.6,3-0.9,4.6c-0.7,3.1-1.1,4.6-1.5,4.6c-0.4,0.1-0.6,0.2-1,0.2c-0.2,0-0.5,0.4-1,1.2
	c-0.5,0.8-0.7,1.2-0.7,1.5c0.1,0.8,0.4,1.7,0.9,2.7c0.1,0.3,0.9,1.1,1,1.5c0.6,0,1.1,0,1.2,0.3c0.1,0.1-0.7,0.2-1.2,0.3
	c0,0.2-0.1,0.5-0.1,0.8h0.1h-0.1c0,0.1,0,0.2,0,0.3c1.1-0.2,1.5-0.2,2.5-0.5c0.3,0.1,0.7,0.1,1,0.1c0-0.5,0.1-1.2,0.3-2.1
	c0.2-1.2,0.3-2,0.2-2.5c1.2-1,2.4-1.9,3.6-2.6C66.7,28.9,69.2,27.9,72.5,26.7z M58.1,34.3l-0.7-0.7c0.7,0.2,1.6,0.3,2.3-0.1
	L58.1,34.3z M61.4,33.4l-0.8-0.3c0.1-0.2,0.4,0.1,0.8-0.1V33.4z M15.2,16.6l1-0.1c2.3-2.3,4.4-3.7,6.3-3.9c0.7-0.1,1.1,0.2,1.2,0.8
	c0,0.2-0.2,0.8-0.5,1.9c-0.3,1.1-0.5,1.7-0.4,1.9c0,0.2,0.1,0.4,0.1,0.6c0.9,0.2,1.8,0.5,3.2,0.3c0.4-0.6,0.7-1.4,1-2.4
	c0.1-0.3,0.1-0.5,0.2-0.7h-0.2h0.2c0.3-1.3,0.4-2.4,0.3-3.2c-0.4-3.1-1.8-4.4-4.3-4.1c-0.5,0.1-1,0.2-1.6,0.5h0.6l-0.6,0.4l-0.2-0.3
	C20,9,18,10.5,15.7,12.7c-0.5,0.4-0.9,0.9-1.4,1.3c0.3,0,0.5,0,0.7,0c-0.3,0-0.6,0.1-0.9,0.2c-0.2,0.2-0.3,0.3-0.5,0.5
	c0.1,0,0.3,0,0.4,0l-0.9,0.4c-0.5,0.5-0.9,1-1.3,1.5C13,16.5,13.9,16.7,15.2,16.6z M24.1,11.5c-0.8,0.2-2.6,0.5-2.5,0.1
	C22.1,11.5,24,11,24.1,11.5z M122,22.4L122,22.4L122,22.4L122,22.4z M100.3,32.2c0-0.1,0-0.2,0-0.4c-0.1,0-0.4,0.1-0.7,0.2
	C99.6,32.2,100.1,32.2,100.3,32.2z M62.4,15.8l0.7-0.5c0.9,0.1,2,0,2.9-0.1c0.2-0.7,0.4-1.3,0.5-1.8c-0.3,0-0.5,0-0.7,0
	c0.2-0.1,0.5-0.2,0.8-0.3c0.4-1.4,0.5-2.4,0.4-2.9c-0.1-1.1-1.2-2.7-1.3-3.1l-1,0.1c-0.2,0.4-0.9,0.4-1.4,1.6
	c-0.6,3.1-1.2,5.6-1.7,7.7c0.8-0.2,1.7-0.4,2.7-0.4L62.4,15.8z M105.6,0.9c-0.7-0.6-1.3-0.9-1.7-0.9c-0.3,0-0.6,0.4-1.2,1.1
	c-0.5,0.7-0.8,1.3-0.8,1.7c0,2.4-0.3,4.8-0.7,7.3c0.1-0.1,0.3-0.2,0.4-0.3h3c-0.9,0.2-2.3,0.4-3.5,0.8c0.1,0.4,1.4,1.2-0.1,1.7
	c0.8,0.2,1.9,0.4,3.2,0.2c1-4.5,1.8-7.8,2.3-9.9L105.6,0.9z"/>
</svg>
