<svg version="1.1" id="" xmlns="http://www.w3.org/2000/svg" xmlns:xlink="http://www.w3.org/1999/xlink" x="0px"
	 y="0px" width="222px" height="40px" viewBox="0 0 222 40" style="enable-background:new 0 0 222 40;" xml:space="preserve">
<style type="text/css">
<![CDATA[
	.st0{fill:#603813;}
]]>
</style>
<g>
	<path class="st0" d="M0,14.3C0,13.1,0.1,12,0.3,11c0.2-1.1,0.5-2.1,1-3c0.4-1,1-1.8,1.6-2.7C3.6,4.5,4.3,3.7,5,3.1
		c0.8-0.7,1.8-1.3,2.7-1.7c1-0.4,2-0.8,3.2-1c1.1-0.2,2.4-0.3,3.7-0.3c2.2,0,4.2,0.4,6,1.1C22.5,2,24,3,25.3,4.3
		c1.3,1.3,2.2,2.8,2.9,4.5c0.7,1.7,1,3.5,1,5.4c0,2-0.4,3.9-1.1,5.7c-0.7,1.8-1.8,3.3-3.2,4.6s-3,2.3-4.8,3c-1.8,0.7-3.8,1.1-6,1.1
		c-2,0-3.9-0.4-5.6-1.1C6.7,27,5.2,26,4,24.7c-1.3-1.3-2.2-2.8-2.9-4.6C0.3,18.3,0,16.4,0,14.3z M7.2,2.3C5,3.6,3.4,5.3,2.3,7.4
		c-1.1,2.1-1.7,4.4-1.7,7c0,2.1,0.4,4.1,1.1,5.9C2.5,22,3.5,23.5,5,24.8c1.4,1.3,3.2,2.3,5.3,2.9c-2.6-1.3-4.6-3.1-6.1-5.4
		s-2.3-5.1-2.3-8.4c0-1.7,0.2-3.1,0.6-4.5c0.4-1.3,1-2.6,1.8-3.8C5.1,4.6,6.1,3.4,7.2,2.3z M5.4,12.2c0,2.3,0.2,4.3,0.7,6.3
		c0.5,1.9,1.1,3.5,2,4.9c0.9,1.4,1.9,2.4,3.1,3.1c1.2,0.7,2.5,1.1,3.9,1.1c1.2,0,2.3-0.3,3.3-0.8s2-1.3,2.8-2.3
		c0.8-1,1.4-2.2,1.8-3.7s0.7-3.2,0.7-5.1c0-2.1-0.3-4.1-0.8-5.9c-0.5-1.8-1.2-3.4-2.1-4.6c-0.9-1.3-1.9-2.3-3.2-2.9
		c-1.2-0.7-2.5-1-3.9-1c-1.2,0-2.3,0.3-3.4,0.8c-1,0.5-1.9,1.3-2.7,2.2C7,5.2,6.4,6.4,6,7.7C5.6,9.1,5.4,10.6,5.4,12.2z M17.4,1.5
		c1.5,0.8,2.7,1.9,3.8,3.2c1,1.4,1.8,3,2.3,4.9s0.8,4,0.8,6.3c0,2.2-0.3,4.1-0.9,5.7c-0.6,1.6-1.4,3-2.5,4.2c1.1-0.8,2-1.7,2.6-2.7
		c0.7-1,1.2-2.2,1.5-3.5c0.3-1.3,0.5-2.8,0.5-4.4c0-2.3-0.3-4.5-1-6.4C23.8,6.9,23,5.2,21.8,4C20.6,2.7,19.1,1.8,17.4,1.5z"/>
	<path class="st0" d="M34.7,25.4V12.5h-2.8v-1.3h2.8V8.5c0-1.7,0.3-3.2,0.9-4.4c0.6-1.3,1.5-2.2,2.6-2.9c1.1-0.7,2.5-1,4-1
		c0.9,0,1.7,0.1,2.3,0.4c0.7,0.3,1.1,0.6,1.5,1.1c0.3,0.4,0.5,0.9,0.5,1.5c0,0.6-0.2,1.1-0.6,1.6S45,5.5,44.3,5.5
		c-0.6,0-1.1-0.2-1.5-0.7c-0.4-0.4-0.6-0.9-0.6-1.5c0-0.1,0-0.2,0-0.3s0-0.2,0-0.4c0-0.4-0.1-0.7-0.4-1c-0.2-0.2-0.6-0.4-0.9-0.4
		c-0.6,0-1,0.3-1.3,0.8c-0.3,0.5-0.5,1.3-0.5,2.3v6.8h3.6v1.3h-3.6V25c0,0.5,0.1,0.9,0.2,1.2c0.1,0.3,0.4,0.5,0.8,0.6
		c0.4,0.1,0.9,0.2,1.5,0.2h0.6v1.1H32.1V27c0.9,0,1.5-0.2,1.9-0.4C34.5,26.5,34.7,26,34.7,25.4z M35.3,8.5v16.8c0,0.9-0.3,1.5-1,2
		c1.5,0,2.3-0.7,2.3-2V8.5c0-1.5,0.2-2.8,0.5-3.9c0.3-1.1,0.8-2.1,1.5-3.1c-1.1,0.8-1.9,1.7-2.5,2.8C35.6,5.5,35.3,6.8,35.3,8.5z
		 M42.3,1.3c0.3,0.4,0.5,0.8,0.5,1.2c0,0.2,0.1,0.5,0.1,0.8c0,0.3,0.1,0.5,0.2,0.7s0.2,0.4,0.4,0.5s0.4,0.2,0.8,0.2
		c0.7,0,1.1-0.3,1.5-1c-0.3,0.1-0.5,0.2-0.6,0.2c-0.5,0-0.9-0.3-1.1-0.8c-0.4-0.8-0.6-1.2-0.7-1.4C43.1,1.5,42.8,1.4,42.3,1.3z"/>
	<path class="st0" d="M48.8,25.4V12.5H46v-1.3h2.8V8.5c0-1.7,0.3-3.2,0.9-4.4c0.6-1.3,1.5-2.2,2.6-2.9c1.1-0.7,2.5-1,4-1
		c0.9,0,1.7,0.1,2.3,0.4c0.7,0.3,1.1,0.6,1.5,1.1c0.3,0.4,0.5,0.9,0.5,1.5c0,0.6-0.2,1.1-0.6,1.6s-0.9,0.7-1.6,0.7
		c-0.6,0-1.1-0.2-1.5-0.7c-0.4-0.4-0.6-0.9-0.6-1.5c0-0.1,0-0.2,0-0.3s0-0.2,0-0.4c0-0.4-0.1-0.7-0.4-1c-0.2-0.2-0.6-0.4-0.9-0.4
		c-0.6,0-1,0.3-1.3,0.8c-0.3,0.5-0.5,1.3-0.5,2.3v6.8h3.6v1.3h-3.6V25c0,0.5,0.1,0.9,0.2,1.2s0.4,0.5,0.8,0.6
		c0.4,0.1,0.9,0.2,1.5,0.2h0.6v1.1H46.2V27c0.9,0,1.5-0.2,1.9-0.4C48.5,26.5,48.8,26,48.8,25.4z M49.4,8.5v16.8c0,0.9-0.3,1.5-1,2
		c1.5,0,2.3-0.7,2.3-2V8.5c0-1.5,0.2-2.8,0.5-3.9c0.3-1.1,0.8-2.1,1.5-3.1c-1.1,0.8-1.9,1.7-2.5,2.8C49.7,5.5,49.4,6.8,49.4,8.5z
		 M56.4,1.3c0.3,0.4,0.5,0.8,0.5,1.2C56.9,2.8,57,3,57,3.3c0,0.3,0.1,0.5,0.2,0.7c0.1,0.2,0.2,0.4,0.4,0.5c0.2,0.1,0.4,0.2,0.8,0.2
		c0.7,0,1.1-0.3,1.5-1c-0.3,0.1-0.5,0.2-0.6,0.2c-0.5,0-0.9-0.3-1.1-0.8c-0.4-0.8-0.6-1.2-0.7-1.4C57.2,1.5,56.9,1.4,56.4,1.3z"/>
	<path class="st0" d="M68.3,10.8v14.1c0,0.6,0.1,1.1,0.2,1.4s0.4,0.5,0.7,0.6c0.3,0.1,0.9,0.2,1.6,0.2v1.1h-9.1v-1.1
		c0.8,0,1.4-0.2,1.7-0.5c0.3-0.3,0.5-0.8,0.5-1.6v-9c0-0.6-0.2-1.1-0.6-1.6c-0.4-0.5-0.9-0.8-1.6-1.1v-0.6l5.8-2L68.3,10.8
		L68.3,10.8z M64.5,16.1v9.3c0,0.8-0.3,1.3-0.8,1.7c0.7,0,1.2-0.2,1.6-0.5c0.3-0.3,0.5-0.9,0.5-1.6v-9.2c0-0.8-0.2-1.5-0.6-1.9
		c-0.4-0.4-0.9-0.7-1.6-0.7c-0.3,0-0.5,0-0.7,0C63.9,13.9,64.5,14.8,64.5,16.1z M65.9,1.3c0.5,0,1,0.1,1.4,0.4c0.4,0.2,0.8,0.6,1,1
		c0.2,0.4,0.4,0.9,0.4,1.4s-0.1,1-0.4,1.4c-0.2,0.4-0.6,0.8-1,1c-0.4,0.2-0.9,0.4-1.4,0.4c-0.7,0-1.4-0.3-1.9-0.8S63.2,4.7,63.2,4
		c0-0.5,0.1-0.9,0.4-1.4c0.2-0.4,0.6-0.8,1-1C65,1.4,65.4,1.3,65.9,1.3z M66.2,1.9c-0.8,0-1.4,0.2-1.8,0.5C64,2.8,63.8,3.3,63.8,4
		c0,0.6,0.2,1.1,0.6,1.5s1,0.6,1.8,0.7c-0.4-0.4-0.7-0.7-0.9-1C65.1,4.9,65,4.5,65,4C65,3.2,65.4,2.5,66.2,1.9z"/>
	<path class="st0" d="M85.9,13.1c0-0.4-0.2-0.6-0.5-0.9C85,12,84.5,11.9,84,11.9c-1,0-1.9,0.3-2.7,0.8c-0.8,0.5-1.4,1.4-1.9,2.4
		c-0.4,1.1-0.7,2.3-0.7,3.6c0,1.2,0.3,2.4,0.8,3.4s1.2,1.8,2.1,2.4s1.9,0.8,2.9,0.8c0.9,0,1.8-0.2,2.7-0.6c1-0.4,1.7-0.9,2.3-1.5
		l0.7,0.9c-1,1.5-2.3,2.6-3.7,3.4s-2.9,1.2-4.4,1.2c-1.4,0-2.7-0.4-4-1.1c-1.3-0.7-2.3-1.8-3-3.1c-0.7-1.3-1.1-2.7-1.1-4.2
		c0-1.3,0.2-2.4,0.7-3.6s1.1-2.1,2-3c0.9-0.9,1.9-1.6,3-2.1c1.1-0.5,2.5-0.8,3.9-0.8c1.1,0,2.2,0.2,3.1,0.5c0.9,0.3,1.7,0.8,2.2,1.4
		c0.5,0.6,0.8,1.3,0.8,2c0,0.6-0.2,1.2-0.7,1.6c-0.5,0.4-1,0.6-1.7,0.6c-0.6,0-1.1-0.2-1.5-0.6c-0.4-0.4-0.6-0.8-0.6-1.3
		c0-0.1,0.1-0.4,0.2-0.9C85.8,13.6,85.9,13.3,85.9,13.1z M80.7,12c-1.3,0.5-2.3,1.1-3.2,1.9c-0.9,0.8-1.5,1.8-2,2.9
		c-0.5,1.1-0.7,2.2-0.7,3.3c0,1.5,0.4,2.9,1.1,4.1c0.7,1.2,1.7,2.2,2.9,2.8c1.2,0.7,2.4,1,3.6,1c1.8,0,3.5-0.6,5-1.8
		c-1.7,0.6-3.1,0.8-4.1,0.8c-1.3,0-2.5-0.3-3.7-0.9c-1.1-0.6-2-1.4-2.6-2.5c-0.7-1.1-1-2.3-1-3.6c0-1.5,0.4-3,1.2-4.4
		C78.1,14.4,79.2,13.1,80.7,12z M86.2,15c0,0.4,0.2,0.7,0.5,0.9c0.3,0.2,0.7,0.3,1,0.3c0.1,0,0.4-0.1,1-0.2
		c-0.8-0.2-1.2-0.6-1.2-1.3c0-0.1,0-0.2,0.1-0.4c0.1-0.2,0.1-0.5,0.1-0.6c0-0.7-0.5-1.3-1.5-1.6c0.3,0.4,0.4,0.8,0.4,1.1
		c0,0.2-0.1,0.5-0.2,0.9C86.2,14.6,86.2,14.8,86.2,15z"/>
	<path class="st0" d="M99.5,10.8v14.1c0,0.6,0.1,1.1,0.2,1.4c0.1,0.3,0.4,0.5,0.7,0.6c0.3,0.1,0.9,0.2,1.6,0.2v1.1h-9.1v-1.1
		c0.8,0,1.4-0.2,1.7-0.5c0.3-0.3,0.5-0.8,0.5-1.6v-9c0-0.6-0.2-1.1-0.6-1.6s-0.9-0.8-1.6-1.1v-0.6l5.8-2L99.5,10.8L99.5,10.8z
		 M95.7,16.1v9.3c0,0.8-0.3,1.3-0.8,1.7c0.7,0,1.2-0.2,1.6-0.5c0.3-0.3,0.5-0.9,0.5-1.6v-9.2c0-0.8-0.2-1.5-0.6-1.9
		s-0.9-0.7-1.6-0.7c-0.3,0-0.5,0-0.7,0C95.1,13.9,95.7,14.8,95.7,16.1z M97.1,1.3c0.5,0,1,0.1,1.4,0.4c0.4,0.2,0.8,0.6,1,1
		c0.2,0.4,0.4,0.9,0.4,1.4s-0.1,1-0.4,1.4c-0.2,0.4-0.6,0.8-1,1s-0.9,0.4-1.4,0.4c-0.7,0-1.4-0.3-1.9-0.8S94.4,4.7,94.4,4
		c0-0.5,0.1-0.9,0.4-1.4c0.2-0.4,0.6-0.8,1-1C96.1,1.4,96.6,1.3,97.1,1.3z M97.4,1.9c-0.8,0-1.4,0.2-1.8,0.5C95.2,2.8,95,3.3,95,4
		c0,0.6,0.2,1.1,0.6,1.5s1,0.6,1.8,0.7c-0.4-0.4-0.7-0.7-0.9-1c-0.2-0.3-0.3-0.7-0.3-1.2C96.2,3.2,96.6,2.5,97.4,1.9z"/>
	<path class="st0" d="M109.9,13.1c0,0.1,0.1,0.2,0.3,0.6c0.2,0.3,0.3,0.6,0.3,0.9c0,0.6-0.2,1.1-0.7,1.5c-0.5,0.4-1,0.7-1.7,0.7
		c-0.7,0-1.2-0.2-1.6-0.5s-0.6-0.7-0.6-1.2c0-0.7,0.3-1.3,1-2c0.7-0.7,1.6-1.2,2.7-1.6s2.4-0.6,3.8-0.6c1,0,2,0.2,2.8,0.5
		c0.8,0.3,1.6,0.9,2.1,1.6s0.8,1.6,0.8,2.6v9.9c0,0.8,0.2,1.2,0.7,1.2c0.3,0,0.6-0.2,1-0.6l0.7,0.8c-0.6,0.6-1.2,1.1-1.8,1.4
		c-0.6,0.3-1.2,0.5-1.9,0.5c-0.9,0-1.5-0.2-2-0.6c-0.5-0.4-0.8-1-1-1.8c-1.8,1.5-3.6,2.3-5.3,2.3c-1.3,0-2.2-0.3-3-1
		s-1.1-1.5-1.1-2.5c0-0.9,0.2-1.7,0.7-2.3c0.4-0.6,1-1.2,1.8-1.7c0.8-0.5,1.8-1.1,3.3-1.9c1.4-0.7,2.6-1.4,3.5-1.9v-2.9
		c0-0.9-0.2-1.6-0.6-2c-0.4-0.5-1-0.7-1.8-0.7c-0.7,0-1.3,0.1-1.7,0.4C110.2,12.5,109.9,12.8,109.9,13.1z M111.1,27.8
		c-1.2,0-2.1-0.2-2.8-0.7c-0.7-0.5-1.1-1.2-1.1-2.1c0-0.7,0.2-1.3,0.5-1.9c0.3-0.6,0.9-1.3,1.6-2c-1.1,0.6-1.9,1.2-2.5,1.9
		c-0.6,0.6-0.9,1.4-0.9,2.3c0,0.8,0.3,1.5,1,2c0.7,0.5,1.5,0.8,2.3,0.8C110,28,110.7,28,111.1,27.8z M109.2,15.5
		c-0.5,0-0.8-0.1-1.1-0.3c-0.2-0.2-0.4-0.5-0.4-0.8c0-0.4,0.1-0.8,0.3-1.1c0.2-0.3,0.6-0.8,1.2-1.4c-0.9,0.5-1.6,0.9-2.1,1.4
		s-0.7,1-0.7,1.6c0,0.3,0.1,0.5,0.4,0.7c0.3,0.2,0.6,0.3,0.9,0.3C108.4,16,108.9,15.9,109.2,15.5z M114.5,25.1v-6.3
		c-1.7,0.9-2.8,1.8-3.5,2.5c-0.7,0.8-1,1.7-1,2.7c0,0.7,0.2,1.3,0.6,1.7c0.4,0.4,0.8,0.6,1.4,0.6C112.8,26.4,113.7,26,114.5,25.1z
		 M115.2,15.8v7.7c0,1.5,0.2,2.7,0.5,3.4c0.3,0.7,1,1.1,1.9,1.1c0.4,0,0.8-0.1,1-0.2c-0.8-0.1-1.3-0.4-1.7-0.9
		c-0.4-0.5-0.5-1.3-0.5-2.4v-9c0-1.4-0.2-2.3-0.6-2.8c-0.4-0.5-1-0.8-2-0.9c0.5,0.3,0.8,0.6,1,1.1C115.1,13.5,115.2,14.5,115.2,15.8
		z"/>
	<path class="st0" d="M126.3,25.2V6.6c0-1-0.2-1.8-0.5-2.3c-0.3-0.6-1-1-2.2-1.5V2.1L130,0h0.8v24.4c0,1,0.1,1.7,0.3,2.1
		c0.2,0.4,0.8,0.6,1.7,0.6h0.5v1.1h-9.7v-1.1h0.5c0.8,0,1.3-0.2,1.7-0.5C126.1,26.3,126.3,25.8,126.3,25.2z M128.2,24.4V6.8
		c0-0.9,0-1.7-0.1-2.2c-0.1-0.6-0.3-1-0.7-1.4c-0.4-0.4-1-0.6-1.9-0.6c-0.4,0-0.8,0-1,0c1.2,0.3,1.9,0.8,2.2,1.5
		c0.3,0.7,0.4,1.5,0.4,2.6V25c0,0.9-0.3,1.6-0.8,2.1c0.9,0,1.5-0.3,1.7-0.8C128.1,25.9,128.2,25.2,128.2,24.4z"/>
	<path class="st0" d="M145.6,18.3h1.3c0.7,2.1,1.6,3.8,2.6,5.2s2.1,2.4,3.3,3.1c1.2,0.7,2.4,1,3.7,1c1.6,0,3-0.5,4.2-1.5
		s1.7-2.3,1.7-3.9c0-1.5-0.4-2.6-1.2-3.5c-0.8-0.8-1.7-1.4-2.8-1.7c-1.1-0.3-2.5-0.6-4.2-0.9c-1.7-0.3-3-0.6-3.7-0.8
		c-1.1-0.4-2.1-0.9-2.9-1.6c-0.8-0.7-1.4-1.5-1.8-2.5c-0.4-1-0.6-2-0.6-3.1c0-1,0.2-2,0.5-3c0.4-1,0.9-1.8,1.5-2.6
		c0.6-0.8,1.5-1.3,2.4-1.8c0.9-0.5,2-0.6,3.2-0.6c0.8,0,1.9,0.1,3.1,0.4c1.2,0.2,2.1,0.4,2.7,0.4c0.7,0,1.4-0.2,2-0.5h1.5l0.8,8
		h-1.4c-1.3-2.4-2.6-4.2-4-5.5c-1.4-1.3-3-1.9-4.9-1.9c-0.9,0-1.8,0.2-2.6,0.7c-0.8,0.4-1.5,1-1.9,1.8c-0.5,0.8-0.7,1.6-0.7,2.5
		c0,1.3,0.4,2.3,1.3,3c0.9,0.7,2.2,1.2,3.9,1.6c1.7,0.4,3.3,0.7,4.7,0.9c1.4,0.2,2.5,0.6,3.3,1c1.5,0.7,2.6,1.7,3.5,3
		c0.9,1.3,1.2,2.7,1.2,4.4c0,1.6-0.4,3-1.1,4.4c-0.8,1.4-1.8,2.4-3.2,3.3c-1.4,0.9-2.9,1.2-4.6,1.2c-1,0-1.7-0.1-2.1-0.2
		c-0.5-0.1-1.3-0.4-2.5-0.8c-1.2-0.4-2.1-0.6-2.7-0.6c-1,0-1.9,0.4-2.5,1.2h-1.1L145.6,18.3L145.6,18.3z M146.3,5.8
		c-0.2,1-0.3,1.8-0.3,2.4c0,0.7,0.1,1.4,0.4,2.1c0.2,0.7,0.6,1.4,1,2c0.5,0.6,1,1.1,1.5,1.5c0.8,0.5,1.6,0.9,2.5,1.1
		c0.9,0.2,2.3,0.5,4.1,0.8c1.8,0.3,3,0.6,3.7,0.8c1.3,0.5,2.2,1.2,2.9,2.1c0.7,0.9,1,2,1,3.3c0,0.9-0.3,1.9-0.8,3
		c1.1-1.1,1.6-2.4,1.6-3.9s-0.4-2.7-1.2-3.6c-0.8-0.9-1.8-1.5-2.9-2c-1.2-0.4-2.8-0.8-4.8-1.2c-2-0.4-3.1-0.5-3.1-0.6
		c-1.8-0.5-3.3-1.3-4.2-2.5c-1-1.2-1.4-2.6-1.4-4.1c0-0.3,0-0.5,0-0.7C146.3,6.1,146.2,6,146.3,5.8z M146.3,21.9v5.2
		c0.4-0.5,0.7-0.8,1-1c0.3-0.1,0.8-0.2,1.5-0.2c-0.4-0.5-0.7-0.9-0.9-1.1c-0.2-0.2-0.4-0.6-0.7-1.1
		C146.9,23.3,146.6,22.7,146.3,21.9z M161,5.6l-0.6-3.7c-0.4,0.1-0.9,0.2-1.3,0.2c-0.5,0-1-0.1-1.5-0.2c0.5,0.3,1,0.7,1.4,1.1
		s0.8,0.9,1.2,1.5C160.6,5.1,160.8,5.5,161,5.6z"/>
	<path class="st0" d="M187.4,1.7V0.6h10.4v1.1c-0.9,0-1.6,0.2-2.3,0.6c-0.7,0.4-1.2,0.9-1.6,1.6c-0.4,0.7-0.6,1.5-0.6,2.5l0.4,22.4
		h-1.2l-20-23.3l0.3,15.7c0,1,0.1,1.8,0.2,2.5s0.4,1.3,0.7,1.7c0.3,0.5,0.8,0.9,1.5,1.2c0.6,0.3,1.4,0.5,2.5,0.6v1.1h-10.4v-1.1
		c1.4-0.1,2.4-0.5,3-1.1c0.6-0.6,1.1-1.4,1.2-2.3c0.2-0.9,0.2-2.1,0.2-3.5l-0.3-16c-0.7-0.8-1.5-1.4-2.2-1.8s-1.4-0.6-2.2-0.6h-0.2
		V0.6h8.1l17.6,20.5l-0.3-13.7c0-1.1-0.1-1.9-0.3-2.7c-0.2-0.7-0.6-1.3-1.1-1.8c-0.4-0.4-0.9-0.7-1.6-0.9
		C188.6,1.8,188,1.7,187.4,1.7z M191.1,24.1L173.5,3.6c-0.4-0.5-0.8-0.9-1.3-1.3c-0.5-0.4-1.2-0.6-2.1-0.6h-0.9
		c0.7,0.3,1.3,0.6,1.7,0.9c0.4,0.3,1,1,1.7,1.9l20.1,23.4c0-0.4,0-0.7,0-1.1c0-0.4-0.1-0.6-0.1-0.8s-0.2-0.4-0.4-0.7
		C192,25.1,191.6,24.7,191.1,24.1z M169.8,27.1h4.1c-0.6-0.4-1-0.9-1.2-1.2c-0.2-0.4-0.4-0.9-0.6-1.6c-0.2,0.6-0.4,1.1-0.8,1.6
		C170.9,26.4,170.4,26.8,169.8,27.1z M194.2,1.7h-4.3c0.7,0.2,1.2,0.5,1.6,0.9s0.8,0.9,1,1.6C192.9,3.1,193.4,2.2,194.2,1.7z"/>
	<path class="st0" d="M201,18.3h1.3c0.7,2.1,1.6,3.8,2.6,5.2s2.1,2.4,3.3,3.1c1.2,0.7,2.4,1,3.7,1c1.6,0,3-0.5,4.2-1.5
		c1.2-1,1.7-2.3,1.7-3.9c0-1.5-0.4-2.6-1.2-3.5c-0.8-0.8-1.7-1.4-2.8-1.7c-1.1-0.3-2.5-0.6-4.2-0.9c-1.7-0.3-3-0.6-3.7-0.8
		c-1.1-0.4-2.1-0.9-2.9-1.6c-0.8-0.7-1.4-1.5-1.8-2.5c-0.4-1-0.6-2-0.6-3.1c0-1,0.2-2,0.5-3c0.4-1,0.9-1.8,1.5-2.6
		c0.6-0.8,1.5-1.3,2.4-1.8s2-0.6,3.2-0.6c0.8,0,1.9,0.1,3.1,0.4c1.2,0.2,2.1,0.4,2.7,0.4c0.7,0,1.4-0.2,2-0.5h1.5l0.8,8h-1.4
		c-1.3-2.4-2.6-4.2-4-5.5c-1.4-1.3-3-1.9-4.9-1.9c-0.9,0-1.8,0.2-2.6,0.7c-0.8,0.4-1.5,1-1.9,1.8C203.2,4.3,203,5.1,203,6
		c0,1.3,0.4,2.3,1.3,3c0.9,0.7,2.2,1.2,3.9,1.6s3.3,0.7,4.7,0.9c1.4,0.2,2.5,0.6,3.3,1c1.5,0.7,2.6,1.7,3.5,3
		c0.9,1.3,1.2,2.7,1.2,4.4c0,1.6-0.4,3-1.1,4.4c-0.8,1.4-1.8,2.4-3.2,3.3c-1.4,0.9-2.9,1.2-4.6,1.2c-1,0-1.7-0.1-2.1-0.2
		c-0.5-0.1-1.3-0.4-2.5-0.8c-1.2-0.4-2.1-0.6-2.7-0.6c-1,0-1.9,0.4-2.5,1.2H201V18.3z M201.7,5.8c-0.2,1-0.3,1.8-0.3,2.4
		c0,0.7,0.1,1.4,0.4,2.1c0.2,0.7,0.6,1.4,1,2c0.5,0.6,1,1.1,1.5,1.5c0.8,0.5,1.6,0.9,2.5,1.1c0.9,0.2,2.3,0.5,4.1,0.8
		c1.8,0.3,3,0.6,3.7,0.8c1.3,0.5,2.2,1.2,2.9,2.1c0.7,0.9,1,2,1,3.3c0,0.9-0.3,1.9-0.8,3c1.1-1.1,1.6-2.4,1.6-3.9s-0.4-2.7-1.2-3.6
		c-0.8-0.9-1.8-1.5-2.9-2c-1.2-0.4-2.8-0.8-4.8-1.2c-2-0.4-3.1-0.5-3.1-0.6c-1.8-0.5-3.3-1.3-4.2-2.5c-1-1.2-1.4-2.6-1.4-4.1
		c0-0.3,0-0.5,0-0.7C201.7,6.1,201.7,6,201.7,5.8z M201.7,21.9v5.2c0.4-0.5,0.7-0.8,1-1c0.3-0.1,0.8-0.2,1.5-0.2
		c-0.4-0.5-0.7-0.9-0.9-1.1s-0.4-0.6-0.7-1.1C202.3,23.3,202,22.7,201.7,21.9z M216.4,5.6l-0.6-3.7c-0.4,0.1-0.9,0.2-1.3,0.2
		c-0.5,0-1-0.1-1.5-0.2c0.5,0.3,1,0.7,1.4,1.1c0.4,0.4,0.8,0.9,1.2,1.5C216,5.1,216.3,5.5,216.4,5.6z"/>
</g>
</svg>
